%TF.GenerationSoftware,KiCad,Pcbnew,8.0.3*%
%TF.CreationDate,2024-07-02T16:51:38-07:00*%
%TF.ProjectId,canary,63616e61-7279-42e6-9b69-6361645f7063,rev?*%
%TF.SameCoordinates,PX2faf080PY2faf080*%
%TF.FileFunction,Drillmap*%
%TF.FilePolarity,Positive*%
%FSLAX45Y45*%
G04 Gerber Fmt 4.5, Leading zero omitted, Abs format (unit mm)*
G04 Created by KiCad (PCBNEW 8.0.3) date 2024-07-02 16:51:38*
%MOMM*%
%LPD*%
G01*
G04 APERTURE LIST*
%ADD10C,0.050000*%
%ADD11C,0.200000*%
%ADD12C,0.100000*%
G04 APERTURE END LIST*
D10*
X1150000Y-4300000D02*
X1150000Y-4600000D01*
X6800000Y-4650000D02*
G75*
G02*
X6750000Y-4600000I0J50000D01*
G01*
X1800000Y-4400000D02*
X1800000Y-4600000D01*
X0Y0D02*
X7800000Y0D01*
X1300000Y-4350000D02*
X1750000Y-4350000D01*
X5100000Y-3400000D02*
G75*
G02*
X5150000Y-3350000I50000J0D01*
G01*
X150000Y-3300000D02*
X0Y-3300000D01*
X150000Y-1300000D02*
G75*
G02*
X300000Y-1450000I0J-150000D01*
G01*
X1900000Y-4600000D02*
G75*
G02*
X1850000Y-4650000I-50000J0D01*
G01*
X300000Y-1450000D02*
X300000Y-3150000D01*
X300000Y-3150000D02*
G75*
G02*
X150000Y-3300000I-150000J0D01*
G01*
X5250000Y-3450000D02*
X6700000Y-3450000D01*
X6850000Y-4600000D02*
X6850000Y-3400000D01*
X0Y-1300000D02*
X0Y0D01*
X1250000Y-4600000D02*
G75*
G02*
X1200000Y-4650000I-50000J0D01*
G01*
X1900000Y-4600000D02*
X1900000Y-4300000D01*
X6750000Y-3500000D02*
X6750000Y-4600000D01*
X1250000Y-4400000D02*
G75*
G02*
X1300000Y-4350000I50000J0D01*
G01*
X6700000Y-3450000D02*
G75*
G02*
X6750000Y-3500000I0J-50000D01*
G01*
X6800000Y-3350000D02*
X5150000Y-3350000D01*
X1150000Y-4300000D02*
G75*
G02*
X1200000Y-4250000I50000J0D01*
G01*
X7800000Y-4800000D02*
X0Y-4800000D01*
X5100000Y-3400000D02*
X5100000Y-4600000D01*
X5150000Y-4650000D02*
G75*
G02*
X5100000Y-4600000I0J50000D01*
G01*
X1250000Y-4600000D02*
X1250000Y-4400000D01*
X1200000Y-4650000D02*
G75*
G02*
X1150000Y-4600000I0J50000D01*
G01*
X5200000Y-3500000D02*
G75*
G02*
X5250000Y-3450000I50000J0D01*
G01*
X1750000Y-4350000D02*
G75*
G02*
X1800000Y-4400000I0J-50000D01*
G01*
X6800000Y-3350000D02*
G75*
G02*
X6850000Y-3400000I0J-50000D01*
G01*
X1850000Y-4250000D02*
G75*
G02*
X1900000Y-4300000I0J-50000D01*
G01*
X7800000Y0D02*
X7800000Y-4800000D01*
X5200000Y-4600000D02*
X5200000Y-3500000D01*
X0Y-1300000D02*
X150000Y-1300000D01*
X1850000Y-4250000D02*
X1200000Y-4250000D01*
X5200000Y-4600000D02*
G75*
G02*
X5150000Y-4650000I-50000J0D01*
G01*
X0Y-4800000D02*
X0Y-3300000D01*
X1850000Y-4650000D02*
G75*
G02*
X1800000Y-4600000I0J50000D01*
G01*
X6850000Y-4600000D02*
G75*
G02*
X6800000Y-4650000I-50000J0D01*
G01*
D11*
D12*
X7249000Y-2508500D02*
X7314000Y-2573500D01*
X7314000Y-2508500D02*
X7249000Y-2573500D01*
X7249000Y-3086500D02*
X7314000Y-3151500D01*
X7314000Y-3086500D02*
X7249000Y-3151500D01*
D11*
X258277Y-5113984D02*
X258277Y-4913984D01*
X258277Y-4913984D02*
X305896Y-4913984D01*
X305896Y-4913984D02*
X334467Y-4923508D01*
X334467Y-4923508D02*
X353515Y-4942555D01*
X353515Y-4942555D02*
X363039Y-4961603D01*
X363039Y-4961603D02*
X372562Y-4999698D01*
X372562Y-4999698D02*
X372562Y-5028270D01*
X372562Y-5028270D02*
X363039Y-5066365D01*
X363039Y-5066365D02*
X353515Y-5085412D01*
X353515Y-5085412D02*
X334467Y-5104460D01*
X334467Y-5104460D02*
X305896Y-5113984D01*
X305896Y-5113984D02*
X258277Y-5113984D01*
X458277Y-5113984D02*
X458277Y-4980650D01*
X458277Y-5018746D02*
X467801Y-4999698D01*
X467801Y-4999698D02*
X477324Y-4990174D01*
X477324Y-4990174D02*
X496372Y-4980650D01*
X496372Y-4980650D02*
X515420Y-4980650D01*
X582086Y-5113984D02*
X582086Y-4980650D01*
X582086Y-4913984D02*
X572563Y-4923508D01*
X572563Y-4923508D02*
X582086Y-4933031D01*
X582086Y-4933031D02*
X591610Y-4923508D01*
X591610Y-4923508D02*
X582086Y-4913984D01*
X582086Y-4913984D02*
X582086Y-4933031D01*
X705896Y-5113984D02*
X686848Y-5104460D01*
X686848Y-5104460D02*
X677324Y-5085412D01*
X677324Y-5085412D02*
X677324Y-4913984D01*
X810658Y-5113984D02*
X791610Y-5104460D01*
X791610Y-5104460D02*
X782086Y-5085412D01*
X782086Y-5085412D02*
X782086Y-4913984D01*
X1039229Y-5113984D02*
X1039229Y-4913984D01*
X1039229Y-4913984D02*
X1105896Y-5056841D01*
X1105896Y-5056841D02*
X1172563Y-4913984D01*
X1172563Y-4913984D02*
X1172563Y-5113984D01*
X1353515Y-5113984D02*
X1353515Y-5009222D01*
X1353515Y-5009222D02*
X1343991Y-4990174D01*
X1343991Y-4990174D02*
X1324944Y-4980650D01*
X1324944Y-4980650D02*
X1286848Y-4980650D01*
X1286848Y-4980650D02*
X1267801Y-4990174D01*
X1353515Y-5104460D02*
X1334467Y-5113984D01*
X1334467Y-5113984D02*
X1286848Y-5113984D01*
X1286848Y-5113984D02*
X1267801Y-5104460D01*
X1267801Y-5104460D02*
X1258277Y-5085412D01*
X1258277Y-5085412D02*
X1258277Y-5066365D01*
X1258277Y-5066365D02*
X1267801Y-5047317D01*
X1267801Y-5047317D02*
X1286848Y-5037793D01*
X1286848Y-5037793D02*
X1334467Y-5037793D01*
X1334467Y-5037793D02*
X1353515Y-5028270D01*
X1448753Y-4980650D02*
X1448753Y-5180650D01*
X1448753Y-4990174D02*
X1467801Y-4980650D01*
X1467801Y-4980650D02*
X1505896Y-4980650D01*
X1505896Y-4980650D02*
X1524943Y-4990174D01*
X1524943Y-4990174D02*
X1534467Y-4999698D01*
X1534467Y-4999698D02*
X1543991Y-5018746D01*
X1543991Y-5018746D02*
X1543991Y-5075889D01*
X1543991Y-5075889D02*
X1534467Y-5094936D01*
X1534467Y-5094936D02*
X1524943Y-5104460D01*
X1524943Y-5104460D02*
X1505896Y-5113984D01*
X1505896Y-5113984D02*
X1467801Y-5113984D01*
X1467801Y-5113984D02*
X1448753Y-5104460D01*
X1629705Y-5094936D02*
X1639229Y-5104460D01*
X1639229Y-5104460D02*
X1629705Y-5113984D01*
X1629705Y-5113984D02*
X1620182Y-5104460D01*
X1620182Y-5104460D02*
X1629705Y-5094936D01*
X1629705Y-5094936D02*
X1629705Y-5113984D01*
X1629705Y-4990174D02*
X1639229Y-4999698D01*
X1639229Y-4999698D02*
X1629705Y-5009222D01*
X1629705Y-5009222D02*
X1620182Y-4999698D01*
X1620182Y-4999698D02*
X1629705Y-4990174D01*
X1629705Y-4990174D02*
X1629705Y-5009222D01*
D12*
X-67500Y-5410000D02*
X-2500Y-5475000D01*
X-2500Y-5410000D02*
X-67500Y-5475000D01*
D11*
X296372Y-5333984D02*
X315420Y-5333984D01*
X315420Y-5333984D02*
X334467Y-5343508D01*
X334467Y-5343508D02*
X343991Y-5353031D01*
X343991Y-5353031D02*
X353515Y-5372079D01*
X353515Y-5372079D02*
X363039Y-5410174D01*
X363039Y-5410174D02*
X363039Y-5457793D01*
X363039Y-5457793D02*
X353515Y-5495889D01*
X353515Y-5495889D02*
X343991Y-5514936D01*
X343991Y-5514936D02*
X334467Y-5524460D01*
X334467Y-5524460D02*
X315420Y-5533984D01*
X315420Y-5533984D02*
X296372Y-5533984D01*
X296372Y-5533984D02*
X277324Y-5524460D01*
X277324Y-5524460D02*
X267801Y-5514936D01*
X267801Y-5514936D02*
X258277Y-5495889D01*
X258277Y-5495889D02*
X248753Y-5457793D01*
X248753Y-5457793D02*
X248753Y-5410174D01*
X248753Y-5410174D02*
X258277Y-5372079D01*
X258277Y-5372079D02*
X267801Y-5353031D01*
X267801Y-5353031D02*
X277324Y-5343508D01*
X277324Y-5343508D02*
X296372Y-5333984D01*
X448753Y-5514936D02*
X458277Y-5524460D01*
X458277Y-5524460D02*
X448753Y-5533984D01*
X448753Y-5533984D02*
X439229Y-5524460D01*
X439229Y-5524460D02*
X448753Y-5514936D01*
X448753Y-5514936D02*
X448753Y-5533984D01*
X629705Y-5333984D02*
X591610Y-5333984D01*
X591610Y-5333984D02*
X572563Y-5343508D01*
X572563Y-5343508D02*
X563039Y-5353031D01*
X563039Y-5353031D02*
X543991Y-5381603D01*
X543991Y-5381603D02*
X534467Y-5419698D01*
X534467Y-5419698D02*
X534467Y-5495889D01*
X534467Y-5495889D02*
X543991Y-5514936D01*
X543991Y-5514936D02*
X553515Y-5524460D01*
X553515Y-5524460D02*
X572563Y-5533984D01*
X572563Y-5533984D02*
X610658Y-5533984D01*
X610658Y-5533984D02*
X629705Y-5524460D01*
X629705Y-5524460D02*
X639229Y-5514936D01*
X639229Y-5514936D02*
X648753Y-5495889D01*
X648753Y-5495889D02*
X648753Y-5448270D01*
X648753Y-5448270D02*
X639229Y-5429222D01*
X639229Y-5429222D02*
X629705Y-5419698D01*
X629705Y-5419698D02*
X610658Y-5410174D01*
X610658Y-5410174D02*
X572563Y-5410174D01*
X572563Y-5410174D02*
X553515Y-5419698D01*
X553515Y-5419698D02*
X543991Y-5429222D01*
X543991Y-5429222D02*
X534467Y-5448270D01*
X829705Y-5333984D02*
X734467Y-5333984D01*
X734467Y-5333984D02*
X724943Y-5429222D01*
X724943Y-5429222D02*
X734467Y-5419698D01*
X734467Y-5419698D02*
X753515Y-5410174D01*
X753515Y-5410174D02*
X801134Y-5410174D01*
X801134Y-5410174D02*
X820182Y-5419698D01*
X820182Y-5419698D02*
X829705Y-5429222D01*
X829705Y-5429222D02*
X839229Y-5448270D01*
X839229Y-5448270D02*
X839229Y-5495889D01*
X839229Y-5495889D02*
X829705Y-5514936D01*
X829705Y-5514936D02*
X820182Y-5524460D01*
X820182Y-5524460D02*
X801134Y-5533984D01*
X801134Y-5533984D02*
X753515Y-5533984D01*
X753515Y-5533984D02*
X734467Y-5524460D01*
X734467Y-5524460D02*
X724943Y-5514936D01*
X963039Y-5333984D02*
X982086Y-5333984D01*
X982086Y-5333984D02*
X1001134Y-5343508D01*
X1001134Y-5343508D02*
X1010658Y-5353031D01*
X1010658Y-5353031D02*
X1020182Y-5372079D01*
X1020182Y-5372079D02*
X1029705Y-5410174D01*
X1029705Y-5410174D02*
X1029705Y-5457793D01*
X1029705Y-5457793D02*
X1020182Y-5495889D01*
X1020182Y-5495889D02*
X1010658Y-5514936D01*
X1010658Y-5514936D02*
X1001134Y-5524460D01*
X1001134Y-5524460D02*
X982086Y-5533984D01*
X982086Y-5533984D02*
X963039Y-5533984D01*
X963039Y-5533984D02*
X943991Y-5524460D01*
X943991Y-5524460D02*
X934467Y-5514936D01*
X934467Y-5514936D02*
X924943Y-5495889D01*
X924943Y-5495889D02*
X915420Y-5457793D01*
X915420Y-5457793D02*
X915420Y-5410174D01*
X915420Y-5410174D02*
X924943Y-5372079D01*
X924943Y-5372079D02*
X934467Y-5353031D01*
X934467Y-5353031D02*
X943991Y-5343508D01*
X943991Y-5343508D02*
X963039Y-5333984D01*
X1115420Y-5533984D02*
X1115420Y-5400650D01*
X1115420Y-5419698D02*
X1124944Y-5410174D01*
X1124944Y-5410174D02*
X1143991Y-5400650D01*
X1143991Y-5400650D02*
X1172563Y-5400650D01*
X1172563Y-5400650D02*
X1191610Y-5410174D01*
X1191610Y-5410174D02*
X1201134Y-5429222D01*
X1201134Y-5429222D02*
X1201134Y-5533984D01*
X1201134Y-5429222D02*
X1210658Y-5410174D01*
X1210658Y-5410174D02*
X1229705Y-5400650D01*
X1229705Y-5400650D02*
X1258277Y-5400650D01*
X1258277Y-5400650D02*
X1277325Y-5410174D01*
X1277325Y-5410174D02*
X1286848Y-5429222D01*
X1286848Y-5429222D02*
X1286848Y-5533984D01*
X1382086Y-5533984D02*
X1382086Y-5400650D01*
X1382086Y-5419698D02*
X1391610Y-5410174D01*
X1391610Y-5410174D02*
X1410658Y-5400650D01*
X1410658Y-5400650D02*
X1439229Y-5400650D01*
X1439229Y-5400650D02*
X1458277Y-5410174D01*
X1458277Y-5410174D02*
X1467801Y-5429222D01*
X1467801Y-5429222D02*
X1467801Y-5533984D01*
X1467801Y-5429222D02*
X1477324Y-5410174D01*
X1477324Y-5410174D02*
X1496372Y-5400650D01*
X1496372Y-5400650D02*
X1524943Y-5400650D01*
X1524943Y-5400650D02*
X1543991Y-5410174D01*
X1543991Y-5410174D02*
X1553515Y-5429222D01*
X1553515Y-5429222D02*
X1553515Y-5533984D01*
X1943991Y-5324460D02*
X1772563Y-5581603D01*
X2201134Y-5333984D02*
X2220182Y-5333984D01*
X2220182Y-5333984D02*
X2239229Y-5343508D01*
X2239229Y-5343508D02*
X2248753Y-5353031D01*
X2248753Y-5353031D02*
X2258277Y-5372079D01*
X2258277Y-5372079D02*
X2267801Y-5410174D01*
X2267801Y-5410174D02*
X2267801Y-5457793D01*
X2267801Y-5457793D02*
X2258277Y-5495889D01*
X2258277Y-5495889D02*
X2248753Y-5514936D01*
X2248753Y-5514936D02*
X2239229Y-5524460D01*
X2239229Y-5524460D02*
X2220182Y-5533984D01*
X2220182Y-5533984D02*
X2201134Y-5533984D01*
X2201134Y-5533984D02*
X2182087Y-5524460D01*
X2182087Y-5524460D02*
X2172563Y-5514936D01*
X2172563Y-5514936D02*
X2163039Y-5495889D01*
X2163039Y-5495889D02*
X2153515Y-5457793D01*
X2153515Y-5457793D02*
X2153515Y-5410174D01*
X2153515Y-5410174D02*
X2163039Y-5372079D01*
X2163039Y-5372079D02*
X2172563Y-5353031D01*
X2172563Y-5353031D02*
X2182087Y-5343508D01*
X2182087Y-5343508D02*
X2201134Y-5333984D01*
X2353515Y-5514936D02*
X2363039Y-5524460D01*
X2363039Y-5524460D02*
X2353515Y-5533984D01*
X2353515Y-5533984D02*
X2343991Y-5524460D01*
X2343991Y-5524460D02*
X2353515Y-5514936D01*
X2353515Y-5514936D02*
X2353515Y-5533984D01*
X2486848Y-5333984D02*
X2505896Y-5333984D01*
X2505896Y-5333984D02*
X2524944Y-5343508D01*
X2524944Y-5343508D02*
X2534468Y-5353031D01*
X2534468Y-5353031D02*
X2543991Y-5372079D01*
X2543991Y-5372079D02*
X2553515Y-5410174D01*
X2553515Y-5410174D02*
X2553515Y-5457793D01*
X2553515Y-5457793D02*
X2543991Y-5495889D01*
X2543991Y-5495889D02*
X2534468Y-5514936D01*
X2534468Y-5514936D02*
X2524944Y-5524460D01*
X2524944Y-5524460D02*
X2505896Y-5533984D01*
X2505896Y-5533984D02*
X2486848Y-5533984D01*
X2486848Y-5533984D02*
X2467801Y-5524460D01*
X2467801Y-5524460D02*
X2458277Y-5514936D01*
X2458277Y-5514936D02*
X2448753Y-5495889D01*
X2448753Y-5495889D02*
X2439229Y-5457793D01*
X2439229Y-5457793D02*
X2439229Y-5410174D01*
X2439229Y-5410174D02*
X2448753Y-5372079D01*
X2448753Y-5372079D02*
X2458277Y-5353031D01*
X2458277Y-5353031D02*
X2467801Y-5343508D01*
X2467801Y-5343508D02*
X2486848Y-5333984D01*
X2629706Y-5353031D02*
X2639229Y-5343508D01*
X2639229Y-5343508D02*
X2658277Y-5333984D01*
X2658277Y-5333984D02*
X2705896Y-5333984D01*
X2705896Y-5333984D02*
X2724944Y-5343508D01*
X2724944Y-5343508D02*
X2734468Y-5353031D01*
X2734468Y-5353031D02*
X2743991Y-5372079D01*
X2743991Y-5372079D02*
X2743991Y-5391127D01*
X2743991Y-5391127D02*
X2734468Y-5419698D01*
X2734468Y-5419698D02*
X2620182Y-5533984D01*
X2620182Y-5533984D02*
X2743991Y-5533984D01*
X2924944Y-5333984D02*
X2829706Y-5333984D01*
X2829706Y-5333984D02*
X2820182Y-5429222D01*
X2820182Y-5429222D02*
X2829706Y-5419698D01*
X2829706Y-5419698D02*
X2848753Y-5410174D01*
X2848753Y-5410174D02*
X2896372Y-5410174D01*
X2896372Y-5410174D02*
X2915420Y-5419698D01*
X2915420Y-5419698D02*
X2924944Y-5429222D01*
X2924944Y-5429222D02*
X2934467Y-5448270D01*
X2934467Y-5448270D02*
X2934467Y-5495889D01*
X2934467Y-5495889D02*
X2924944Y-5514936D01*
X2924944Y-5514936D02*
X2915420Y-5524460D01*
X2915420Y-5524460D02*
X2896372Y-5533984D01*
X2896372Y-5533984D02*
X2848753Y-5533984D01*
X2848753Y-5533984D02*
X2829706Y-5524460D01*
X2829706Y-5524460D02*
X2820182Y-5514936D01*
X3105896Y-5333984D02*
X3067801Y-5333984D01*
X3067801Y-5333984D02*
X3048753Y-5343508D01*
X3048753Y-5343508D02*
X3039229Y-5353031D01*
X3039229Y-5353031D02*
X3020182Y-5381603D01*
X3020182Y-5381603D02*
X3010658Y-5419698D01*
X3010658Y-5419698D02*
X3010658Y-5495889D01*
X3010658Y-5495889D02*
X3020182Y-5514936D01*
X3020182Y-5514936D02*
X3029706Y-5524460D01*
X3029706Y-5524460D02*
X3048753Y-5533984D01*
X3048753Y-5533984D02*
X3086848Y-5533984D01*
X3086848Y-5533984D02*
X3105896Y-5524460D01*
X3105896Y-5524460D02*
X3115420Y-5514936D01*
X3115420Y-5514936D02*
X3124944Y-5495889D01*
X3124944Y-5495889D02*
X3124944Y-5448270D01*
X3124944Y-5448270D02*
X3115420Y-5429222D01*
X3115420Y-5429222D02*
X3105896Y-5419698D01*
X3105896Y-5419698D02*
X3086848Y-5410174D01*
X3086848Y-5410174D02*
X3048753Y-5410174D01*
X3048753Y-5410174D02*
X3029706Y-5419698D01*
X3029706Y-5419698D02*
X3020182Y-5429222D01*
X3020182Y-5429222D02*
X3010658Y-5448270D01*
X3201134Y-5333984D02*
X3201134Y-5372079D01*
X3277325Y-5333984D02*
X3277325Y-5372079D01*
X3572563Y-5610174D02*
X3563039Y-5600650D01*
X3563039Y-5600650D02*
X3543991Y-5572079D01*
X3543991Y-5572079D02*
X3534468Y-5553031D01*
X3534468Y-5553031D02*
X3524944Y-5524460D01*
X3524944Y-5524460D02*
X3515420Y-5476841D01*
X3515420Y-5476841D02*
X3515420Y-5438746D01*
X3515420Y-5438746D02*
X3524944Y-5391127D01*
X3524944Y-5391127D02*
X3534468Y-5362555D01*
X3534468Y-5362555D02*
X3543991Y-5343508D01*
X3543991Y-5343508D02*
X3563039Y-5314936D01*
X3563039Y-5314936D02*
X3572563Y-5305412D01*
X3639229Y-5353031D02*
X3648753Y-5343508D01*
X3648753Y-5343508D02*
X3667801Y-5333984D01*
X3667801Y-5333984D02*
X3715420Y-5333984D01*
X3715420Y-5333984D02*
X3734468Y-5343508D01*
X3734468Y-5343508D02*
X3743991Y-5353031D01*
X3743991Y-5353031D02*
X3753515Y-5372079D01*
X3753515Y-5372079D02*
X3753515Y-5391127D01*
X3753515Y-5391127D02*
X3743991Y-5419698D01*
X3743991Y-5419698D02*
X3629706Y-5533984D01*
X3629706Y-5533984D02*
X3753515Y-5533984D01*
X3991610Y-5533984D02*
X3991610Y-5333984D01*
X4077325Y-5533984D02*
X4077325Y-5429222D01*
X4077325Y-5429222D02*
X4067801Y-5410174D01*
X4067801Y-5410174D02*
X4048753Y-5400650D01*
X4048753Y-5400650D02*
X4020182Y-5400650D01*
X4020182Y-5400650D02*
X4001134Y-5410174D01*
X4001134Y-5410174D02*
X3991610Y-5419698D01*
X4201134Y-5533984D02*
X4182087Y-5524460D01*
X4182087Y-5524460D02*
X4172563Y-5514936D01*
X4172563Y-5514936D02*
X4163039Y-5495889D01*
X4163039Y-5495889D02*
X4163039Y-5438746D01*
X4163039Y-5438746D02*
X4172563Y-5419698D01*
X4172563Y-5419698D02*
X4182087Y-5410174D01*
X4182087Y-5410174D02*
X4201134Y-5400650D01*
X4201134Y-5400650D02*
X4229706Y-5400650D01*
X4229706Y-5400650D02*
X4248753Y-5410174D01*
X4248753Y-5410174D02*
X4258277Y-5419698D01*
X4258277Y-5419698D02*
X4267801Y-5438746D01*
X4267801Y-5438746D02*
X4267801Y-5495889D01*
X4267801Y-5495889D02*
X4258277Y-5514936D01*
X4258277Y-5514936D02*
X4248753Y-5524460D01*
X4248753Y-5524460D02*
X4229706Y-5533984D01*
X4229706Y-5533984D02*
X4201134Y-5533984D01*
X4382087Y-5533984D02*
X4363039Y-5524460D01*
X4363039Y-5524460D02*
X4353515Y-5505412D01*
X4353515Y-5505412D02*
X4353515Y-5333984D01*
X4534468Y-5524460D02*
X4515420Y-5533984D01*
X4515420Y-5533984D02*
X4477325Y-5533984D01*
X4477325Y-5533984D02*
X4458277Y-5524460D01*
X4458277Y-5524460D02*
X4448753Y-5505412D01*
X4448753Y-5505412D02*
X4448753Y-5429222D01*
X4448753Y-5429222D02*
X4458277Y-5410174D01*
X4458277Y-5410174D02*
X4477325Y-5400650D01*
X4477325Y-5400650D02*
X4515420Y-5400650D01*
X4515420Y-5400650D02*
X4534468Y-5410174D01*
X4534468Y-5410174D02*
X4543992Y-5429222D01*
X4543992Y-5429222D02*
X4543992Y-5448270D01*
X4543992Y-5448270D02*
X4448753Y-5467317D01*
X4620182Y-5524460D02*
X4639230Y-5533984D01*
X4639230Y-5533984D02*
X4677325Y-5533984D01*
X4677325Y-5533984D02*
X4696373Y-5524460D01*
X4696373Y-5524460D02*
X4705896Y-5505412D01*
X4705896Y-5505412D02*
X4705896Y-5495889D01*
X4705896Y-5495889D02*
X4696373Y-5476841D01*
X4696373Y-5476841D02*
X4677325Y-5467317D01*
X4677325Y-5467317D02*
X4648753Y-5467317D01*
X4648753Y-5467317D02*
X4629706Y-5457793D01*
X4629706Y-5457793D02*
X4620182Y-5438746D01*
X4620182Y-5438746D02*
X4620182Y-5429222D01*
X4620182Y-5429222D02*
X4629706Y-5410174D01*
X4629706Y-5410174D02*
X4648753Y-5400650D01*
X4648753Y-5400650D02*
X4677325Y-5400650D01*
X4677325Y-5400650D02*
X4696373Y-5410174D01*
X4772563Y-5610174D02*
X4782087Y-5600650D01*
X4782087Y-5600650D02*
X4801134Y-5572079D01*
X4801134Y-5572079D02*
X4810658Y-5553031D01*
X4810658Y-5553031D02*
X4820182Y-5524460D01*
X4820182Y-5524460D02*
X4829706Y-5476841D01*
X4829706Y-5476841D02*
X4829706Y-5438746D01*
X4829706Y-5438746D02*
X4820182Y-5391127D01*
X4820182Y-5391127D02*
X4810658Y-5362555D01*
X4810658Y-5362555D02*
X4801134Y-5343508D01*
X4801134Y-5343508D02*
X4782087Y-5314936D01*
X4782087Y-5314936D02*
X4772563Y-5305412D01*
X5134468Y-5610174D02*
X5124944Y-5600650D01*
X5124944Y-5600650D02*
X5105896Y-5572079D01*
X5105896Y-5572079D02*
X5096373Y-5553031D01*
X5096373Y-5553031D02*
X5086849Y-5524460D01*
X5086849Y-5524460D02*
X5077325Y-5476841D01*
X5077325Y-5476841D02*
X5077325Y-5438746D01*
X5077325Y-5438746D02*
X5086849Y-5391127D01*
X5086849Y-5391127D02*
X5096373Y-5362555D01*
X5096373Y-5362555D02*
X5105896Y-5343508D01*
X5105896Y-5343508D02*
X5124944Y-5314936D01*
X5124944Y-5314936D02*
X5134468Y-5305412D01*
X5210658Y-5400650D02*
X5210658Y-5533984D01*
X5210658Y-5419698D02*
X5220182Y-5410174D01*
X5220182Y-5410174D02*
X5239230Y-5400650D01*
X5239230Y-5400650D02*
X5267801Y-5400650D01*
X5267801Y-5400650D02*
X5286849Y-5410174D01*
X5286849Y-5410174D02*
X5296373Y-5429222D01*
X5296373Y-5429222D02*
X5296373Y-5533984D01*
X5420182Y-5533984D02*
X5401134Y-5524460D01*
X5401134Y-5524460D02*
X5391611Y-5514936D01*
X5391611Y-5514936D02*
X5382087Y-5495889D01*
X5382087Y-5495889D02*
X5382087Y-5438746D01*
X5382087Y-5438746D02*
X5391611Y-5419698D01*
X5391611Y-5419698D02*
X5401134Y-5410174D01*
X5401134Y-5410174D02*
X5420182Y-5400650D01*
X5420182Y-5400650D02*
X5448754Y-5400650D01*
X5448754Y-5400650D02*
X5467801Y-5410174D01*
X5467801Y-5410174D02*
X5477325Y-5419698D01*
X5477325Y-5419698D02*
X5486849Y-5438746D01*
X5486849Y-5438746D02*
X5486849Y-5495889D01*
X5486849Y-5495889D02*
X5477325Y-5514936D01*
X5477325Y-5514936D02*
X5467801Y-5524460D01*
X5467801Y-5524460D02*
X5448754Y-5533984D01*
X5448754Y-5533984D02*
X5420182Y-5533984D01*
X5543992Y-5400650D02*
X5620182Y-5400650D01*
X5572563Y-5333984D02*
X5572563Y-5505412D01*
X5572563Y-5505412D02*
X5582087Y-5524460D01*
X5582087Y-5524460D02*
X5601134Y-5533984D01*
X5601134Y-5533984D02*
X5620182Y-5533984D01*
X5839230Y-5400650D02*
X5839230Y-5600650D01*
X5839230Y-5410174D02*
X5858277Y-5400650D01*
X5858277Y-5400650D02*
X5896373Y-5400650D01*
X5896373Y-5400650D02*
X5915420Y-5410174D01*
X5915420Y-5410174D02*
X5924944Y-5419698D01*
X5924944Y-5419698D02*
X5934468Y-5438746D01*
X5934468Y-5438746D02*
X5934468Y-5495889D01*
X5934468Y-5495889D02*
X5924944Y-5514936D01*
X5924944Y-5514936D02*
X5915420Y-5524460D01*
X5915420Y-5524460D02*
X5896373Y-5533984D01*
X5896373Y-5533984D02*
X5858277Y-5533984D01*
X5858277Y-5533984D02*
X5839230Y-5524460D01*
X6048753Y-5533984D02*
X6029706Y-5524460D01*
X6029706Y-5524460D02*
X6020182Y-5505412D01*
X6020182Y-5505412D02*
X6020182Y-5333984D01*
X6210658Y-5533984D02*
X6210658Y-5429222D01*
X6210658Y-5429222D02*
X6201134Y-5410174D01*
X6201134Y-5410174D02*
X6182087Y-5400650D01*
X6182087Y-5400650D02*
X6143992Y-5400650D01*
X6143992Y-5400650D02*
X6124944Y-5410174D01*
X6210658Y-5524460D02*
X6191611Y-5533984D01*
X6191611Y-5533984D02*
X6143992Y-5533984D01*
X6143992Y-5533984D02*
X6124944Y-5524460D01*
X6124944Y-5524460D02*
X6115420Y-5505412D01*
X6115420Y-5505412D02*
X6115420Y-5486365D01*
X6115420Y-5486365D02*
X6124944Y-5467317D01*
X6124944Y-5467317D02*
X6143992Y-5457793D01*
X6143992Y-5457793D02*
X6191611Y-5457793D01*
X6191611Y-5457793D02*
X6210658Y-5448270D01*
X6277325Y-5400650D02*
X6353515Y-5400650D01*
X6305896Y-5333984D02*
X6305896Y-5505412D01*
X6305896Y-5505412D02*
X6315420Y-5524460D01*
X6315420Y-5524460D02*
X6334468Y-5533984D01*
X6334468Y-5533984D02*
X6353515Y-5533984D01*
X6496373Y-5524460D02*
X6477325Y-5533984D01*
X6477325Y-5533984D02*
X6439230Y-5533984D01*
X6439230Y-5533984D02*
X6420182Y-5524460D01*
X6420182Y-5524460D02*
X6410658Y-5505412D01*
X6410658Y-5505412D02*
X6410658Y-5429222D01*
X6410658Y-5429222D02*
X6420182Y-5410174D01*
X6420182Y-5410174D02*
X6439230Y-5400650D01*
X6439230Y-5400650D02*
X6477325Y-5400650D01*
X6477325Y-5400650D02*
X6496373Y-5410174D01*
X6496373Y-5410174D02*
X6505896Y-5429222D01*
X6505896Y-5429222D02*
X6505896Y-5448270D01*
X6505896Y-5448270D02*
X6410658Y-5467317D01*
X6677325Y-5533984D02*
X6677325Y-5333984D01*
X6677325Y-5524460D02*
X6658277Y-5533984D01*
X6658277Y-5533984D02*
X6620182Y-5533984D01*
X6620182Y-5533984D02*
X6601134Y-5524460D01*
X6601134Y-5524460D02*
X6591611Y-5514936D01*
X6591611Y-5514936D02*
X6582087Y-5495889D01*
X6582087Y-5495889D02*
X6582087Y-5438746D01*
X6582087Y-5438746D02*
X6591611Y-5419698D01*
X6591611Y-5419698D02*
X6601134Y-5410174D01*
X6601134Y-5410174D02*
X6620182Y-5400650D01*
X6620182Y-5400650D02*
X6658277Y-5400650D01*
X6658277Y-5400650D02*
X6677325Y-5410174D01*
X6753515Y-5610174D02*
X6763039Y-5600650D01*
X6763039Y-5600650D02*
X6782087Y-5572079D01*
X6782087Y-5572079D02*
X6791611Y-5553031D01*
X6791611Y-5553031D02*
X6801134Y-5524460D01*
X6801134Y-5524460D02*
X6810658Y-5476841D01*
X6810658Y-5476841D02*
X6810658Y-5438746D01*
X6810658Y-5438746D02*
X6801134Y-5391127D01*
X6801134Y-5391127D02*
X6791611Y-5362555D01*
X6791611Y-5362555D02*
X6782087Y-5343508D01*
X6782087Y-5343508D02*
X6763039Y-5314936D01*
X6763039Y-5314936D02*
X6753515Y-5305412D01*
M02*
