G04 #@! TF.GenerationSoftware,KiCad,Pcbnew,8.0.3*
G04 #@! TF.CreationDate,2024-07-02T16:51:36-07:00*
G04 #@! TF.ProjectId,canary,63616e61-7279-42e6-9b69-6361645f7063,rev?*
G04 #@! TF.SameCoordinates,PX2faf080PY2faf080*
G04 #@! TF.FileFunction,Soldermask,Top*
G04 #@! TF.FilePolarity,Negative*
%FSLAX46Y46*%
G04 Gerber Fmt 4.6, Leading zero omitted, Abs format (unit mm)*
G04 Created by KiCad (PCBNEW 8.0.3) date 2024-07-02 16:51:36*
%MOMM*%
%LPD*%
G01*
G04 APERTURE LIST*
G04 Aperture macros list*
%AMRoundRect*
0 Rectangle with rounded corners*
0 $1 Rounding radius*
0 $2 $3 $4 $5 $6 $7 $8 $9 X,Y pos of 4 corners*
0 Add a 4 corners polygon primitive as box body*
4,1,4,$2,$3,$4,$5,$6,$7,$8,$9,$2,$3,0*
0 Add four circle primitives for the rounded corners*
1,1,$1+$1,$2,$3*
1,1,$1+$1,$4,$5*
1,1,$1+$1,$6,$7*
1,1,$1+$1,$8,$9*
0 Add four rect primitives between the rounded corners*
20,1,$1+$1,$2,$3,$4,$5,0*
20,1,$1+$1,$4,$5,$6,$7,0*
20,1,$1+$1,$6,$7,$8,$9,0*
20,1,$1+$1,$8,$9,$2,$3,0*%
G04 Aperture macros list end*
%ADD10RoundRect,0.225000X-0.225000X-0.250000X0.225000X-0.250000X0.225000X0.250000X-0.225000X0.250000X0*%
%ADD11RoundRect,0.135000X0.185000X-0.135000X0.185000X0.135000X-0.185000X0.135000X-0.185000X-0.135000X0*%
%ADD12RoundRect,0.140000X-0.140000X-0.170000X0.140000X-0.170000X0.140000X0.170000X-0.140000X0.170000X0*%
%ADD13R,0.800000X2.700000*%
%ADD14C,1.500000*%
%ADD15RoundRect,0.225000X0.250000X-0.225000X0.250000X0.225000X-0.250000X0.225000X-0.250000X-0.225000X0*%
%ADD16RoundRect,0.218750X-0.218750X-0.256250X0.218750X-0.256250X0.218750X0.256250X-0.218750X0.256250X0*%
%ADD17RoundRect,0.135000X-0.135000X-0.185000X0.135000X-0.185000X0.135000X0.185000X-0.135000X0.185000X0*%
%ADD18RoundRect,0.140000X-0.170000X0.140000X-0.170000X-0.140000X0.170000X-0.140000X0.170000X0.140000X0*%
%ADD19RoundRect,0.135000X0.135000X0.185000X-0.135000X0.185000X-0.135000X-0.185000X0.135000X-0.185000X0*%
%ADD20R,1.000000X0.750000*%
%ADD21RoundRect,0.225000X-0.375000X0.225000X-0.375000X-0.225000X0.375000X-0.225000X0.375000X0.225000X0*%
%ADD22RoundRect,0.212500X-0.212500X0.737500X-0.212500X-0.737500X0.212500X-0.737500X0.212500X0.737500X0*%
%ADD23RoundRect,0.212500X-0.737500X0.212500X-0.737500X-0.212500X0.737500X-0.212500X0.737500X0.212500X0*%
%ADD24R,4.800000X4.800000*%
%ADD25RoundRect,0.135000X-0.185000X0.135000X-0.185000X-0.135000X0.185000X-0.135000X0.185000X0.135000X0*%
%ADD26RoundRect,0.150000X-0.200000X0.150000X-0.200000X-0.150000X0.200000X-0.150000X0.200000X0.150000X0*%
%ADD27RoundRect,0.140000X0.140000X0.170000X-0.140000X0.170000X-0.140000X-0.170000X0.140000X-0.170000X0*%
%ADD28RoundRect,0.225000X-0.225000X-0.375000X0.225000X-0.375000X0.225000X0.375000X-0.225000X0.375000X0*%
%ADD29RoundRect,0.150000X-0.587500X-0.150000X0.587500X-0.150000X0.587500X0.150000X-0.587500X0.150000X0*%
%ADD30R,1.500000X0.900000*%
%ADD31R,0.900000X1.500000*%
%ADD32R,0.900000X0.900000*%
%ADD33RoundRect,0.225000X0.225000X0.375000X-0.225000X0.375000X-0.225000X-0.375000X0.225000X-0.375000X0*%
%ADD34RoundRect,0.218750X0.218750X0.256250X-0.218750X0.256250X-0.218750X-0.256250X0.218750X-0.256250X0*%
%ADD35R,0.800000X0.300000*%
%ADD36R,0.800000X0.400000*%
%ADD37C,0.700000*%
%ADD38O,1.800000X0.900000*%
%ADD39RoundRect,0.200000X0.200000X0.275000X-0.200000X0.275000X-0.200000X-0.275000X0.200000X-0.275000X0*%
%ADD40R,0.500000X0.300000*%
%ADD41RoundRect,0.140000X0.170000X-0.140000X0.170000X0.140000X-0.170000X0.140000X-0.170000X-0.140000X0*%
%ADD42RoundRect,0.093750X-0.106250X0.093750X-0.106250X-0.093750X0.106250X-0.093750X0.106250X0.093750X0*%
%ADD43R,1.600000X1.000000*%
%ADD44C,0.650000*%
%ADD45O,2.100000X1.000000*%
%ADD46O,1.800000X1.000000*%
%ADD47R,1.150000X0.600000*%
%ADD48R,1.150000X0.300000*%
%ADD49R,0.300000X0.800000*%
%ADD50R,0.400000X0.950000*%
%ADD51R,0.550000X0.400000*%
%ADD52RoundRect,0.225000X0.375000X-0.225000X0.375000X0.225000X-0.375000X0.225000X-0.375000X-0.225000X0*%
G04 APERTURE END LIST*
D10*
X17668750Y-22350000D03*
X19218750Y-22350000D03*
D11*
X38000000Y-14510000D03*
X38000000Y-13490000D03*
D12*
X65020000Y-24000000D03*
X65980000Y-24000000D03*
D13*
X17600000Y-19750000D03*
X19900000Y-19750000D03*
D14*
X32000000Y-8500000D03*
X16500000Y-38000000D03*
D15*
X55000000Y-3025000D03*
X55000000Y-1475000D03*
D14*
X51000000Y-14000000D03*
D16*
X49712500Y-19500000D03*
X51287500Y-19500000D03*
D17*
X17933750Y-27350000D03*
X18953750Y-27350000D03*
D18*
X26500000Y-18020000D03*
X26500000Y-18980000D03*
D19*
X56510000Y-15500000D03*
X55490000Y-15500000D03*
D14*
X16500000Y-34000000D03*
X36500000Y-38000000D03*
D20*
X49000000Y-25625000D03*
X55000000Y-25625000D03*
X49000000Y-29375000D03*
X55000000Y-29375000D03*
D14*
X31500000Y-38000000D03*
D21*
X44250000Y-16350000D03*
X44250000Y-19650000D03*
D12*
X46020000Y-14387500D03*
X46980000Y-14387500D03*
D15*
X65500000Y-39775000D03*
X65500000Y-38225000D03*
D17*
X42527500Y-6500000D03*
X43547500Y-6500000D03*
D22*
X61500000Y-36700000D03*
X60250000Y-36700000D03*
X59000000Y-36700000D03*
X57750000Y-36700000D03*
X56500000Y-36700000D03*
D23*
X54850000Y-38350000D03*
X54850000Y-39600000D03*
X54850000Y-40850000D03*
X54850000Y-42100000D03*
X54850000Y-43350000D03*
D22*
X56500000Y-45000000D03*
X57750000Y-45000000D03*
X59000000Y-45000000D03*
X60250000Y-45000000D03*
X61500000Y-45000000D03*
D23*
X63150000Y-43350000D03*
X63150000Y-42100000D03*
X63150000Y-40850000D03*
X63150000Y-39600000D03*
X63150000Y-38350000D03*
D24*
X59000000Y-40850000D03*
D14*
X36500000Y-34000000D03*
D25*
X62500000Y-20990000D03*
X62500000Y-22010000D03*
D12*
X16270000Y-15250000D03*
X17230000Y-15250000D03*
D14*
X21500000Y-34000000D03*
D18*
X36750000Y-43520000D03*
X36750000Y-44480000D03*
D12*
X16270000Y-12250000D03*
X17230000Y-12250000D03*
X16270000Y-13250000D03*
X17230000Y-13250000D03*
D26*
X40000000Y-19450000D03*
X40000000Y-18050000D03*
D27*
X56000000Y-5500000D03*
X55040000Y-5500000D03*
D28*
X23200000Y-9500000D03*
X26500000Y-9500000D03*
D29*
X17506250Y-23900000D03*
X17506250Y-25800000D03*
X19381250Y-24850000D03*
D12*
X16270000Y-14250000D03*
X17230000Y-14250000D03*
D17*
X54990000Y-4500000D03*
X56010000Y-4500000D03*
D26*
X42000000Y-19400000D03*
X42000000Y-18000000D03*
D12*
X16270000Y-11250000D03*
X17230000Y-11250000D03*
D30*
X58250000Y-1490000D03*
X58250000Y-2760000D03*
X58250000Y-4030000D03*
X58250000Y-5300000D03*
X58250000Y-6570000D03*
X58250000Y-7840000D03*
X58250000Y-9110000D03*
X58250000Y-10380000D03*
X58250000Y-11650000D03*
X58250000Y-12920000D03*
X58250000Y-14190000D03*
X58250000Y-15460000D03*
X58250000Y-16730000D03*
X58250000Y-18000000D03*
D31*
X60015000Y-19250000D03*
X61285000Y-19250000D03*
X62555000Y-19250000D03*
X63825000Y-19250000D03*
X65095000Y-19250000D03*
X66365000Y-19250000D03*
X67635000Y-19250000D03*
X68905000Y-19250000D03*
X70175000Y-19250000D03*
X71445000Y-19250000D03*
X72715000Y-19250000D03*
X73985000Y-19250000D03*
D30*
X75750000Y-18000000D03*
X75750000Y-16730000D03*
X75750000Y-15460000D03*
X75750000Y-14190000D03*
X75750000Y-12920000D03*
X75750000Y-11650000D03*
X75750000Y-10380000D03*
X75750000Y-9110000D03*
X75750000Y-7840000D03*
X75750000Y-6570000D03*
X75750000Y-5300000D03*
X75750000Y-4030000D03*
X75750000Y-2760000D03*
X75750000Y-1490000D03*
D32*
X64100000Y-7810000D03*
X64100000Y-9210000D03*
X64100000Y-10610000D03*
X64100000Y-10610000D03*
X65500000Y-7810000D03*
X65500000Y-7810000D03*
X65500000Y-9210000D03*
X65500000Y-10610000D03*
X66900000Y-7810000D03*
X66900000Y-9210000D03*
X66900000Y-10610000D03*
D18*
X41250000Y-44520000D03*
X41250000Y-45480000D03*
D33*
X26500000Y-6500000D03*
X23200000Y-6500000D03*
D14*
X31500000Y-34000000D03*
D34*
X46787500Y-6500000D03*
X45212500Y-6500000D03*
D20*
X59000000Y-25625000D03*
X65000000Y-25625000D03*
X59000000Y-29375000D03*
X65000000Y-29375000D03*
D14*
X26500000Y-34000000D03*
D35*
X14650000Y-23050000D03*
X14650000Y-22550000D03*
X14650000Y-22050000D03*
X14650000Y-21550000D03*
X14650000Y-21050000D03*
X14650000Y-20550000D03*
X14650000Y-20050000D03*
X14650000Y-19550000D03*
X14650000Y-19050000D03*
X14650000Y-18550000D03*
X14650000Y-18050000D03*
X14650000Y-17550000D03*
X14650000Y-17050000D03*
X14650000Y-16550000D03*
X14650000Y-16050000D03*
X14650000Y-15550000D03*
X14650000Y-15050000D03*
X14650000Y-14550000D03*
X14650000Y-14050000D03*
X14650000Y-13550000D03*
X14650000Y-13050000D03*
X14650000Y-12550000D03*
X14650000Y-12050000D03*
X14650000Y-11550000D03*
D36*
X12150000Y-10550000D03*
X12150000Y-24050000D03*
D37*
X35750000Y-23300000D03*
X36700000Y-23300000D03*
X37650000Y-23300000D03*
X38550000Y-23300000D03*
X39450000Y-23300000D03*
X40350000Y-23300000D03*
X41300000Y-23300000D03*
X42250000Y-23300000D03*
X42250000Y-24700000D03*
X41300000Y-24700000D03*
X40350000Y-24700000D03*
X39450000Y-24700000D03*
X38550000Y-24700000D03*
X37650000Y-24700000D03*
X36700000Y-24700000D03*
X35750000Y-24700000D03*
D38*
X37000000Y-22070000D03*
X37000000Y-25930000D03*
X41000000Y-22070000D03*
X41000000Y-25930000D03*
D11*
X40000000Y-14510000D03*
X40000000Y-13490000D03*
D39*
X40325000Y-42250000D03*
X38675000Y-42250000D03*
D18*
X16750000Y-44770000D03*
X16750000Y-45730000D03*
D12*
X16270000Y-16250000D03*
X17230000Y-16250000D03*
D40*
X14050000Y-44850000D03*
X14050000Y-45650000D03*
X15450000Y-45650000D03*
X15450000Y-44850000D03*
D27*
X34480000Y-18000000D03*
X33520000Y-18000000D03*
D41*
X56500000Y-2730000D03*
X56500000Y-1770000D03*
D12*
X16270000Y-10250000D03*
X17230000Y-10250000D03*
D10*
X45225000Y-10137500D03*
X46775000Y-10137500D03*
D19*
X74260000Y-21500000D03*
X73240000Y-21500000D03*
D41*
X38000000Y-12480000D03*
X38000000Y-11520000D03*
D12*
X16270000Y-17250000D03*
X17230000Y-17250000D03*
D42*
X46650000Y-11500000D03*
X46000000Y-11500000D03*
X45350000Y-11500000D03*
X45350000Y-13275000D03*
X46000000Y-13275000D03*
X46650000Y-13275000D03*
D43*
X46000000Y-12387500D03*
D14*
X32000000Y-12500000D03*
D18*
X25500000Y-18020000D03*
X25500000Y-18980000D03*
D14*
X26500000Y-38000000D03*
X21500000Y-38000000D03*
D26*
X38000000Y-19450000D03*
X38000000Y-18050000D03*
D17*
X49990000Y-21500000D03*
X51010000Y-21500000D03*
D44*
X72815000Y-31190000D03*
X72815000Y-25410000D03*
D45*
X72315000Y-32620000D03*
X72315000Y-23980000D03*
D46*
X76465000Y-32620000D03*
X76465000Y-23980000D03*
D47*
X71745000Y-31500000D03*
X71745000Y-30700000D03*
D48*
X71745000Y-29550000D03*
X71745000Y-28550000D03*
X71745000Y-28050000D03*
X71745000Y-30050000D03*
D47*
X71745000Y-25100000D03*
X71745000Y-25900000D03*
D48*
X71745000Y-26550000D03*
X71745000Y-27550000D03*
X71745000Y-29050000D03*
X71745000Y-27050000D03*
D41*
X16250000Y-20980000D03*
X16250000Y-20020000D03*
X40000000Y-12480000D03*
X40000000Y-11520000D03*
D25*
X40500000Y-27490000D03*
X40500000Y-28510000D03*
X38000000Y-27490000D03*
X38000000Y-28510000D03*
D49*
X28200000Y-19800000D03*
X28500000Y-17000000D03*
X28800000Y-19800000D03*
X29100000Y-17000000D03*
X29400000Y-19800000D03*
X29700000Y-17000000D03*
X30000000Y-19800000D03*
X30300000Y-17000000D03*
X30600000Y-19800000D03*
X30900000Y-17000000D03*
X31200000Y-19800000D03*
X31500000Y-17000000D03*
X31800000Y-19800000D03*
D50*
X32500000Y-19550000D03*
X27500000Y-19550000D03*
D51*
X37850000Y-43950000D03*
X37850000Y-44750000D03*
X37850000Y-45550000D03*
X40150000Y-45550000D03*
X40150000Y-44750000D03*
X40150000Y-43950000D03*
D27*
X34480000Y-16500000D03*
X33520000Y-16500000D03*
D52*
X28600000Y-11400000D03*
X28600000Y-8100000D03*
M02*
