G04 #@! TF.GenerationSoftware,KiCad,Pcbnew,8.0.3*
G04 #@! TF.CreationDate,2024-07-02T16:51:35-07:00*
G04 #@! TF.ProjectId,canary,63616e61-7279-42e6-9b69-6361645f7063,rev?*
G04 #@! TF.SameCoordinates,PX2faf080PY2faf080*
G04 #@! TF.FileFunction,Legend,Top*
G04 #@! TF.FilePolarity,Positive*
%FSLAX46Y46*%
G04 Gerber Fmt 4.6, Leading zero omitted, Abs format (unit mm)*
G04 Created by KiCad (PCBNEW 8.0.3) date 2024-07-02 16:51:35*
%MOMM*%
%LPD*%
G01*
G04 APERTURE LIST*
G04 Aperture macros list*
%AMRoundRect*
0 Rectangle with rounded corners*
0 $1 Rounding radius*
0 $2 $3 $4 $5 $6 $7 $8 $9 X,Y pos of 4 corners*
0 Add a 4 corners polygon primitive as box body*
4,1,4,$2,$3,$4,$5,$6,$7,$8,$9,$2,$3,0*
0 Add four circle primitives for the rounded corners*
1,1,$1+$1,$2,$3*
1,1,$1+$1,$4,$5*
1,1,$1+$1,$6,$7*
1,1,$1+$1,$8,$9*
0 Add four rect primitives between the rounded corners*
20,1,$1+$1,$2,$3,$4,$5,0*
20,1,$1+$1,$4,$5,$6,$7,0*
20,1,$1+$1,$6,$7,$8,$9,0*
20,1,$1+$1,$8,$9,$2,$3,0*%
G04 Aperture macros list end*
%ADD10C,0.200000*%
%ADD11C,0.180000*%
%ADD12C,0.165000*%
%ADD13C,0.300000*%
%ADD14C,0.150000*%
%ADD15C,0.000000*%
%ADD16C,0.120000*%
%ADD17RoundRect,0.225000X-0.225000X-0.250000X0.225000X-0.250000X0.225000X0.250000X-0.225000X0.250000X0*%
%ADD18RoundRect,0.135000X0.185000X-0.135000X0.185000X0.135000X-0.185000X0.135000X-0.185000X-0.135000X0*%
%ADD19RoundRect,0.140000X-0.140000X-0.170000X0.140000X-0.170000X0.140000X0.170000X-0.140000X0.170000X0*%
%ADD20R,0.800000X2.700000*%
%ADD21C,1.500000*%
%ADD22RoundRect,0.225000X0.250000X-0.225000X0.250000X0.225000X-0.250000X0.225000X-0.250000X-0.225000X0*%
%ADD23RoundRect,0.218750X-0.218750X-0.256250X0.218750X-0.256250X0.218750X0.256250X-0.218750X0.256250X0*%
%ADD24RoundRect,0.135000X-0.135000X-0.185000X0.135000X-0.185000X0.135000X0.185000X-0.135000X0.185000X0*%
%ADD25RoundRect,0.140000X-0.170000X0.140000X-0.170000X-0.140000X0.170000X-0.140000X0.170000X0.140000X0*%
%ADD26RoundRect,0.135000X0.135000X0.185000X-0.135000X0.185000X-0.135000X-0.185000X0.135000X-0.185000X0*%
%ADD27R,1.000000X0.750000*%
%ADD28RoundRect,0.225000X-0.375000X0.225000X-0.375000X-0.225000X0.375000X-0.225000X0.375000X0.225000X0*%
%ADD29RoundRect,0.212500X-0.212500X0.737500X-0.212500X-0.737500X0.212500X-0.737500X0.212500X0.737500X0*%
%ADD30RoundRect,0.212500X-0.737500X0.212500X-0.737500X-0.212500X0.737500X-0.212500X0.737500X0.212500X0*%
%ADD31R,4.800000X4.800000*%
%ADD32RoundRect,0.135000X-0.185000X0.135000X-0.185000X-0.135000X0.185000X-0.135000X0.185000X0.135000X0*%
%ADD33RoundRect,0.150000X-0.200000X0.150000X-0.200000X-0.150000X0.200000X-0.150000X0.200000X0.150000X0*%
%ADD34RoundRect,0.140000X0.140000X0.170000X-0.140000X0.170000X-0.140000X-0.170000X0.140000X-0.170000X0*%
%ADD35RoundRect,0.225000X-0.225000X-0.375000X0.225000X-0.375000X0.225000X0.375000X-0.225000X0.375000X0*%
%ADD36RoundRect,0.150000X-0.587500X-0.150000X0.587500X-0.150000X0.587500X0.150000X-0.587500X0.150000X0*%
%ADD37R,1.500000X0.900000*%
%ADD38R,0.900000X1.500000*%
%ADD39R,0.900000X0.900000*%
%ADD40RoundRect,0.225000X0.225000X0.375000X-0.225000X0.375000X-0.225000X-0.375000X0.225000X-0.375000X0*%
%ADD41RoundRect,0.218750X0.218750X0.256250X-0.218750X0.256250X-0.218750X-0.256250X0.218750X-0.256250X0*%
%ADD42R,0.800000X0.300000*%
%ADD43R,0.800000X0.400000*%
%ADD44C,0.700000*%
%ADD45O,1.800000X0.900000*%
%ADD46RoundRect,0.200000X0.200000X0.275000X-0.200000X0.275000X-0.200000X-0.275000X0.200000X-0.275000X0*%
%ADD47R,0.500000X0.300000*%
%ADD48RoundRect,0.140000X0.170000X-0.140000X0.170000X0.140000X-0.170000X0.140000X-0.170000X-0.140000X0*%
%ADD49RoundRect,0.093750X-0.106250X0.093750X-0.106250X-0.093750X0.106250X-0.093750X0.106250X0.093750X0*%
%ADD50R,1.600000X1.000000*%
%ADD51C,0.650000*%
%ADD52O,2.100000X1.000000*%
%ADD53O,1.800000X1.000000*%
%ADD54R,1.150000X0.600000*%
%ADD55R,1.150000X0.300000*%
%ADD56R,0.300000X0.800000*%
%ADD57R,0.400000X0.950000*%
%ADD58R,0.550000X0.400000*%
%ADD59RoundRect,0.225000X0.375000X-0.225000X0.375000X0.225000X-0.375000X0.225000X-0.375000X-0.225000X0*%
G04 APERTURE END LIST*
D10*
X18000000Y-38000000D02*
X20000000Y-38000000D01*
X18000000Y-34000000D02*
X20000000Y-34000000D01*
X23000000Y-38000000D02*
X25000000Y-38000000D01*
X32000000Y-11000000D02*
X32000000Y-10000000D01*
X21500000Y-35500000D02*
X21500000Y-36500000D01*
X33000000Y-38000000D02*
X35000000Y-38000000D01*
X26500000Y-36500000D02*
X26500000Y-35500000D01*
X23000000Y-34000000D02*
X25000000Y-34000000D01*
X16500000Y-35500000D02*
X16500000Y-36500000D01*
X33000000Y-34000000D02*
X35000000Y-34000000D01*
D11*
X2380325Y-4665878D02*
X2285087Y-4618259D01*
X2285087Y-4618259D02*
X2142230Y-4618259D01*
X2142230Y-4618259D02*
X1999373Y-4665878D01*
X1999373Y-4665878D02*
X1904135Y-4761116D01*
X1904135Y-4761116D02*
X1856516Y-4856354D01*
X1856516Y-4856354D02*
X1808897Y-5046830D01*
X1808897Y-5046830D02*
X1808897Y-5189687D01*
X1808897Y-5189687D02*
X1856516Y-5380163D01*
X1856516Y-5380163D02*
X1904135Y-5475401D01*
X1904135Y-5475401D02*
X1999373Y-5570640D01*
X1999373Y-5570640D02*
X2142230Y-5618259D01*
X2142230Y-5618259D02*
X2237468Y-5618259D01*
X2237468Y-5618259D02*
X2380325Y-5570640D01*
X2380325Y-5570640D02*
X2427944Y-5523020D01*
X2427944Y-5523020D02*
X2427944Y-5189687D01*
X2427944Y-5189687D02*
X2237468Y-5189687D01*
X2999373Y-5618259D02*
X2904135Y-5570640D01*
X2904135Y-5570640D02*
X2856516Y-5523020D01*
X2856516Y-5523020D02*
X2808897Y-5427782D01*
X2808897Y-5427782D02*
X2808897Y-5142068D01*
X2808897Y-5142068D02*
X2856516Y-5046830D01*
X2856516Y-5046830D02*
X2904135Y-4999211D01*
X2904135Y-4999211D02*
X2999373Y-4951592D01*
X2999373Y-4951592D02*
X3142230Y-4951592D01*
X3142230Y-4951592D02*
X3237468Y-4999211D01*
X3237468Y-4999211D02*
X3285087Y-5046830D01*
X3285087Y-5046830D02*
X3332706Y-5142068D01*
X3332706Y-5142068D02*
X3332706Y-5427782D01*
X3332706Y-5427782D02*
X3285087Y-5523020D01*
X3285087Y-5523020D02*
X3237468Y-5570640D01*
X3237468Y-5570640D02*
X3142230Y-5618259D01*
X3142230Y-5618259D02*
X2999373Y-5618259D01*
X4189849Y-5618259D02*
X4189849Y-5094449D01*
X4189849Y-5094449D02*
X4142230Y-4999211D01*
X4142230Y-4999211D02*
X4046992Y-4951592D01*
X4046992Y-4951592D02*
X3856516Y-4951592D01*
X3856516Y-4951592D02*
X3761278Y-4999211D01*
X4189849Y-5570640D02*
X4094611Y-5618259D01*
X4094611Y-5618259D02*
X3856516Y-5618259D01*
X3856516Y-5618259D02*
X3761278Y-5570640D01*
X3761278Y-5570640D02*
X3713659Y-5475401D01*
X3713659Y-5475401D02*
X3713659Y-5380163D01*
X3713659Y-5380163D02*
X3761278Y-5284925D01*
X3761278Y-5284925D02*
X3856516Y-5237306D01*
X3856516Y-5237306D02*
X4094611Y-5237306D01*
X4094611Y-5237306D02*
X4189849Y-5189687D01*
X4523183Y-4951592D02*
X4904135Y-4951592D01*
X4666040Y-4618259D02*
X4666040Y-5475401D01*
X4666040Y-5475401D02*
X4713659Y-5570640D01*
X4713659Y-5570640D02*
X4808897Y-5618259D01*
X4808897Y-5618259D02*
X4904135Y-5618259D01*
X5999374Y-5618259D02*
X5999374Y-4618259D01*
X5999374Y-5094449D02*
X6570802Y-5094449D01*
X6570802Y-5618259D02*
X6570802Y-4618259D01*
X7046993Y-5618259D02*
X7046993Y-4951592D01*
X7046993Y-4618259D02*
X6999374Y-4665878D01*
X6999374Y-4665878D02*
X7046993Y-4713497D01*
X7046993Y-4713497D02*
X7094612Y-4665878D01*
X7094612Y-4665878D02*
X7046993Y-4618259D01*
X7046993Y-4618259D02*
X7046993Y-4713497D01*
X7666040Y-5618259D02*
X7570802Y-5570640D01*
X7570802Y-5570640D02*
X7523183Y-5475401D01*
X7523183Y-5475401D02*
X7523183Y-4618259D01*
X8189850Y-5618259D02*
X8094612Y-5570640D01*
X8094612Y-5570640D02*
X8046993Y-5475401D01*
X8046993Y-5475401D02*
X8046993Y-4618259D01*
X9332708Y-5094449D02*
X9666041Y-5094449D01*
X9808898Y-5618259D02*
X9332708Y-5618259D01*
X9332708Y-5618259D02*
X9332708Y-4618259D01*
X9332708Y-4618259D02*
X9808898Y-4618259D01*
X10380327Y-5618259D02*
X10285089Y-5570640D01*
X10285089Y-5570640D02*
X10237470Y-5475401D01*
X10237470Y-5475401D02*
X10237470Y-4618259D01*
X11142232Y-5570640D02*
X11046994Y-5618259D01*
X11046994Y-5618259D02*
X10856518Y-5618259D01*
X10856518Y-5618259D02*
X10761280Y-5570640D01*
X10761280Y-5570640D02*
X10713661Y-5475401D01*
X10713661Y-5475401D02*
X10713661Y-5094449D01*
X10713661Y-5094449D02*
X10761280Y-4999211D01*
X10761280Y-4999211D02*
X10856518Y-4951592D01*
X10856518Y-4951592D02*
X11046994Y-4951592D01*
X11046994Y-4951592D02*
X11142232Y-4999211D01*
X11142232Y-4999211D02*
X11189851Y-5094449D01*
X11189851Y-5094449D02*
X11189851Y-5189687D01*
X11189851Y-5189687D02*
X10713661Y-5284925D01*
X12046994Y-5570640D02*
X11951756Y-5618259D01*
X11951756Y-5618259D02*
X11761280Y-5618259D01*
X11761280Y-5618259D02*
X11666042Y-5570640D01*
X11666042Y-5570640D02*
X11618423Y-5523020D01*
X11618423Y-5523020D02*
X11570804Y-5427782D01*
X11570804Y-5427782D02*
X11570804Y-5142068D01*
X11570804Y-5142068D02*
X11618423Y-5046830D01*
X11618423Y-5046830D02*
X11666042Y-4999211D01*
X11666042Y-4999211D02*
X11761280Y-4951592D01*
X11761280Y-4951592D02*
X11951756Y-4951592D01*
X11951756Y-4951592D02*
X12046994Y-4999211D01*
X12332709Y-4951592D02*
X12713661Y-4951592D01*
X12475566Y-4618259D02*
X12475566Y-5475401D01*
X12475566Y-5475401D02*
X12523185Y-5570640D01*
X12523185Y-5570640D02*
X12618423Y-5618259D01*
X12618423Y-5618259D02*
X12713661Y-5618259D01*
X13046995Y-5618259D02*
X13046995Y-4951592D01*
X13046995Y-5142068D02*
X13094614Y-5046830D01*
X13094614Y-5046830D02*
X13142233Y-4999211D01*
X13142233Y-4999211D02*
X13237471Y-4951592D01*
X13237471Y-4951592D02*
X13332709Y-4951592D01*
X13808900Y-5618259D02*
X13713662Y-5570640D01*
X13713662Y-5570640D02*
X13666043Y-5523020D01*
X13666043Y-5523020D02*
X13618424Y-5427782D01*
X13618424Y-5427782D02*
X13618424Y-5142068D01*
X13618424Y-5142068D02*
X13666043Y-5046830D01*
X13666043Y-5046830D02*
X13713662Y-4999211D01*
X13713662Y-4999211D02*
X13808900Y-4951592D01*
X13808900Y-4951592D02*
X13951757Y-4951592D01*
X13951757Y-4951592D02*
X14046995Y-4999211D01*
X14046995Y-4999211D02*
X14094614Y-5046830D01*
X14094614Y-5046830D02*
X14142233Y-5142068D01*
X14142233Y-5142068D02*
X14142233Y-5427782D01*
X14142233Y-5427782D02*
X14094614Y-5523020D01*
X14094614Y-5523020D02*
X14046995Y-5570640D01*
X14046995Y-5570640D02*
X13951757Y-5618259D01*
X13951757Y-5618259D02*
X13808900Y-5618259D01*
X14570805Y-4951592D02*
X14570805Y-5618259D01*
X14570805Y-5046830D02*
X14618424Y-4999211D01*
X14618424Y-4999211D02*
X14713662Y-4951592D01*
X14713662Y-4951592D02*
X14856519Y-4951592D01*
X14856519Y-4951592D02*
X14951757Y-4999211D01*
X14951757Y-4999211D02*
X14999376Y-5094449D01*
X14999376Y-5094449D02*
X14999376Y-5618259D01*
X15475567Y-5618259D02*
X15475567Y-4951592D01*
X15475567Y-4618259D02*
X15427948Y-4665878D01*
X15427948Y-4665878D02*
X15475567Y-4713497D01*
X15475567Y-4713497D02*
X15523186Y-4665878D01*
X15523186Y-4665878D02*
X15475567Y-4618259D01*
X15475567Y-4618259D02*
X15475567Y-4713497D01*
X16380328Y-5570640D02*
X16285090Y-5618259D01*
X16285090Y-5618259D02*
X16094614Y-5618259D01*
X16094614Y-5618259D02*
X15999376Y-5570640D01*
X15999376Y-5570640D02*
X15951757Y-5523020D01*
X15951757Y-5523020D02*
X15904138Y-5427782D01*
X15904138Y-5427782D02*
X15904138Y-5142068D01*
X15904138Y-5142068D02*
X15951757Y-5046830D01*
X15951757Y-5046830D02*
X15999376Y-4999211D01*
X15999376Y-4999211D02*
X16094614Y-4951592D01*
X16094614Y-4951592D02*
X16285090Y-4951592D01*
X16285090Y-4951592D02*
X16380328Y-4999211D01*
X16761281Y-5570640D02*
X16856519Y-5618259D01*
X16856519Y-5618259D02*
X17046995Y-5618259D01*
X17046995Y-5618259D02*
X17142233Y-5570640D01*
X17142233Y-5570640D02*
X17189852Y-5475401D01*
X17189852Y-5475401D02*
X17189852Y-5427782D01*
X17189852Y-5427782D02*
X17142233Y-5332544D01*
X17142233Y-5332544D02*
X17046995Y-5284925D01*
X17046995Y-5284925D02*
X16904138Y-5284925D01*
X16904138Y-5284925D02*
X16808900Y-5237306D01*
X16808900Y-5237306D02*
X16761281Y-5142068D01*
X16761281Y-5142068D02*
X16761281Y-5094449D01*
X16761281Y-5094449D02*
X16808900Y-4999211D01*
X16808900Y-4999211D02*
X16904138Y-4951592D01*
X16904138Y-4951592D02*
X17046995Y-4951592D01*
X17046995Y-4951592D02*
X17142233Y-4999211D01*
X18856519Y-5618259D02*
X18380329Y-5618259D01*
X18380329Y-5618259D02*
X18380329Y-4618259D01*
X19666043Y-5618259D02*
X19189853Y-5618259D01*
X19189853Y-5618259D02*
X19189853Y-4618259D01*
X20570805Y-5523020D02*
X20523186Y-5570640D01*
X20523186Y-5570640D02*
X20380329Y-5618259D01*
X20380329Y-5618259D02*
X20285091Y-5618259D01*
X20285091Y-5618259D02*
X20142234Y-5570640D01*
X20142234Y-5570640D02*
X20046996Y-5475401D01*
X20046996Y-5475401D02*
X19999377Y-5380163D01*
X19999377Y-5380163D02*
X19951758Y-5189687D01*
X19951758Y-5189687D02*
X19951758Y-5046830D01*
X19951758Y-5046830D02*
X19999377Y-4856354D01*
X19999377Y-4856354D02*
X20046996Y-4761116D01*
X20046996Y-4761116D02*
X20142234Y-4665878D01*
X20142234Y-4665878D02*
X20285091Y-4618259D01*
X20285091Y-4618259D02*
X20380329Y-4618259D01*
X20380329Y-4618259D02*
X20523186Y-4665878D01*
X20523186Y-4665878D02*
X20570805Y-4713497D01*
D12*
X20571428Y-40345229D02*
X20714285Y-40392848D01*
X20714285Y-40392848D02*
X20761904Y-40440467D01*
X20761904Y-40440467D02*
X20809523Y-40535705D01*
X20809523Y-40535705D02*
X20809523Y-40678562D01*
X20809523Y-40678562D02*
X20761904Y-40773800D01*
X20761904Y-40773800D02*
X20714285Y-40821420D01*
X20714285Y-40821420D02*
X20619047Y-40869039D01*
X20619047Y-40869039D02*
X20238095Y-40869039D01*
X20238095Y-40869039D02*
X20238095Y-39869039D01*
X20238095Y-39869039D02*
X20571428Y-39869039D01*
X20571428Y-39869039D02*
X20666666Y-39916658D01*
X20666666Y-39916658D02*
X20714285Y-39964277D01*
X20714285Y-39964277D02*
X20761904Y-40059515D01*
X20761904Y-40059515D02*
X20761904Y-40154753D01*
X20761904Y-40154753D02*
X20714285Y-40249991D01*
X20714285Y-40249991D02*
X20666666Y-40297610D01*
X20666666Y-40297610D02*
X20571428Y-40345229D01*
X20571428Y-40345229D02*
X20238095Y-40345229D01*
X21238095Y-40869039D02*
X21238095Y-39869039D01*
X21238095Y-39869039D02*
X21571428Y-40583324D01*
X21571428Y-40583324D02*
X21904761Y-39869039D01*
X21904761Y-39869039D02*
X21904761Y-40869039D01*
X22238095Y-39869039D02*
X22571428Y-40869039D01*
X22571428Y-40869039D02*
X22904761Y-39869039D01*
X38346647Y-34369039D02*
X38346647Y-33369039D01*
X38346647Y-33369039D02*
X38727599Y-33369039D01*
X38727599Y-33369039D02*
X38822837Y-33416658D01*
X38822837Y-33416658D02*
X38870456Y-33464277D01*
X38870456Y-33464277D02*
X38918075Y-33559515D01*
X38918075Y-33559515D02*
X38918075Y-33702372D01*
X38918075Y-33702372D02*
X38870456Y-33797610D01*
X38870456Y-33797610D02*
X38822837Y-33845229D01*
X38822837Y-33845229D02*
X38727599Y-33892848D01*
X38727599Y-33892848D02*
X38346647Y-33892848D01*
X39251409Y-33369039D02*
X39489504Y-34369039D01*
X39489504Y-34369039D02*
X39679980Y-33654753D01*
X39679980Y-33654753D02*
X39870456Y-34369039D01*
X39870456Y-34369039D02*
X40108552Y-33369039D01*
X41060932Y-34369039D02*
X40727599Y-33892848D01*
X40489504Y-34369039D02*
X40489504Y-33369039D01*
X40489504Y-33369039D02*
X40870456Y-33369039D01*
X40870456Y-33369039D02*
X40965694Y-33416658D01*
X40965694Y-33416658D02*
X41013313Y-33464277D01*
X41013313Y-33464277D02*
X41060932Y-33559515D01*
X41060932Y-33559515D02*
X41060932Y-33702372D01*
X41060932Y-33702372D02*
X41013313Y-33797610D01*
X41013313Y-33797610D02*
X40965694Y-33845229D01*
X40965694Y-33845229D02*
X40870456Y-33892848D01*
X40870456Y-33892848D02*
X40489504Y-33892848D01*
X20023810Y-31869039D02*
X20023810Y-30869039D01*
X20023810Y-30869039D02*
X20261905Y-30869039D01*
X20261905Y-30869039D02*
X20404762Y-30916658D01*
X20404762Y-30916658D02*
X20500000Y-31011896D01*
X20500000Y-31011896D02*
X20547619Y-31107134D01*
X20547619Y-31107134D02*
X20595238Y-31297610D01*
X20595238Y-31297610D02*
X20595238Y-31440467D01*
X20595238Y-31440467D02*
X20547619Y-31630943D01*
X20547619Y-31630943D02*
X20500000Y-31726181D01*
X20500000Y-31726181D02*
X20404762Y-31821420D01*
X20404762Y-31821420D02*
X20261905Y-31869039D01*
X20261905Y-31869039D02*
X20023810Y-31869039D01*
X21023810Y-31869039D02*
X21023810Y-30869039D01*
X21452381Y-31821420D02*
X21595238Y-31869039D01*
X21595238Y-31869039D02*
X21833333Y-31869039D01*
X21833333Y-31869039D02*
X21928571Y-31821420D01*
X21928571Y-31821420D02*
X21976190Y-31773800D01*
X21976190Y-31773800D02*
X22023809Y-31678562D01*
X22023809Y-31678562D02*
X22023809Y-31583324D01*
X22023809Y-31583324D02*
X21976190Y-31488086D01*
X21976190Y-31488086D02*
X21928571Y-31440467D01*
X21928571Y-31440467D02*
X21833333Y-31392848D01*
X21833333Y-31392848D02*
X21642857Y-31345229D01*
X21642857Y-31345229D02*
X21547619Y-31297610D01*
X21547619Y-31297610D02*
X21500000Y-31249991D01*
X21500000Y-31249991D02*
X21452381Y-31154753D01*
X21452381Y-31154753D02*
X21452381Y-31059515D01*
X21452381Y-31059515D02*
X21500000Y-30964277D01*
X21500000Y-30964277D02*
X21547619Y-30916658D01*
X21547619Y-30916658D02*
X21642857Y-30869039D01*
X21642857Y-30869039D02*
X21880952Y-30869039D01*
X21880952Y-30869039D02*
X22023809Y-30916658D01*
X22452381Y-31869039D02*
X22452381Y-30869039D01*
X22452381Y-30869039D02*
X22833333Y-30869039D01*
X22833333Y-30869039D02*
X22928571Y-30916658D01*
X22928571Y-30916658D02*
X22976190Y-30964277D01*
X22976190Y-30964277D02*
X23023809Y-31059515D01*
X23023809Y-31059515D02*
X23023809Y-31202372D01*
X23023809Y-31202372D02*
X22976190Y-31297610D01*
X22976190Y-31297610D02*
X22928571Y-31345229D01*
X22928571Y-31345229D02*
X22833333Y-31392848D01*
X22833333Y-31392848D02*
X22452381Y-31392848D01*
X15214286Y-40869039D02*
X15214286Y-39869039D01*
X15214286Y-39869039D02*
X15452381Y-39869039D01*
X15452381Y-39869039D02*
X15595238Y-39916658D01*
X15595238Y-39916658D02*
X15690476Y-40011896D01*
X15690476Y-40011896D02*
X15738095Y-40107134D01*
X15738095Y-40107134D02*
X15785714Y-40297610D01*
X15785714Y-40297610D02*
X15785714Y-40440467D01*
X15785714Y-40440467D02*
X15738095Y-40630943D01*
X15738095Y-40630943D02*
X15690476Y-40726181D01*
X15690476Y-40726181D02*
X15595238Y-40821420D01*
X15595238Y-40821420D02*
X15452381Y-40869039D01*
X15452381Y-40869039D02*
X15214286Y-40869039D01*
X16928571Y-39821420D02*
X16071429Y-41107134D01*
X17833333Y-40773800D02*
X17785714Y-40821420D01*
X17785714Y-40821420D02*
X17642857Y-40869039D01*
X17642857Y-40869039D02*
X17547619Y-40869039D01*
X17547619Y-40869039D02*
X17404762Y-40821420D01*
X17404762Y-40821420D02*
X17309524Y-40726181D01*
X17309524Y-40726181D02*
X17261905Y-40630943D01*
X17261905Y-40630943D02*
X17214286Y-40440467D01*
X17214286Y-40440467D02*
X17214286Y-40297610D01*
X17214286Y-40297610D02*
X17261905Y-40107134D01*
X17261905Y-40107134D02*
X17309524Y-40011896D01*
X17309524Y-40011896D02*
X17404762Y-39916658D01*
X17404762Y-39916658D02*
X17547619Y-39869039D01*
X17547619Y-39869039D02*
X17642857Y-39869039D01*
X17642857Y-39869039D02*
X17785714Y-39916658D01*
X17785714Y-39916658D02*
X17833333Y-39964277D01*
X60642857Y-31845229D02*
X60785714Y-31892848D01*
X60785714Y-31892848D02*
X60833333Y-31940467D01*
X60833333Y-31940467D02*
X60880952Y-32035705D01*
X60880952Y-32035705D02*
X60880952Y-32178562D01*
X60880952Y-32178562D02*
X60833333Y-32273800D01*
X60833333Y-32273800D02*
X60785714Y-32321420D01*
X60785714Y-32321420D02*
X60690476Y-32369039D01*
X60690476Y-32369039D02*
X60309524Y-32369039D01*
X60309524Y-32369039D02*
X60309524Y-31369039D01*
X60309524Y-31369039D02*
X60642857Y-31369039D01*
X60642857Y-31369039D02*
X60738095Y-31416658D01*
X60738095Y-31416658D02*
X60785714Y-31464277D01*
X60785714Y-31464277D02*
X60833333Y-31559515D01*
X60833333Y-31559515D02*
X60833333Y-31654753D01*
X60833333Y-31654753D02*
X60785714Y-31749991D01*
X60785714Y-31749991D02*
X60738095Y-31797610D01*
X60738095Y-31797610D02*
X60642857Y-31845229D01*
X60642857Y-31845229D02*
X60309524Y-31845229D01*
X61500000Y-31369039D02*
X61690476Y-31369039D01*
X61690476Y-31369039D02*
X61785714Y-31416658D01*
X61785714Y-31416658D02*
X61880952Y-31511896D01*
X61880952Y-31511896D02*
X61928571Y-31702372D01*
X61928571Y-31702372D02*
X61928571Y-32035705D01*
X61928571Y-32035705D02*
X61880952Y-32226181D01*
X61880952Y-32226181D02*
X61785714Y-32321420D01*
X61785714Y-32321420D02*
X61690476Y-32369039D01*
X61690476Y-32369039D02*
X61500000Y-32369039D01*
X61500000Y-32369039D02*
X61404762Y-32321420D01*
X61404762Y-32321420D02*
X61309524Y-32226181D01*
X61309524Y-32226181D02*
X61261905Y-32035705D01*
X61261905Y-32035705D02*
X61261905Y-31702372D01*
X61261905Y-31702372D02*
X61309524Y-31511896D01*
X61309524Y-31511896D02*
X61404762Y-31416658D01*
X61404762Y-31416658D02*
X61500000Y-31369039D01*
X62547619Y-31369039D02*
X62738095Y-31369039D01*
X62738095Y-31369039D02*
X62833333Y-31416658D01*
X62833333Y-31416658D02*
X62928571Y-31511896D01*
X62928571Y-31511896D02*
X62976190Y-31702372D01*
X62976190Y-31702372D02*
X62976190Y-32035705D01*
X62976190Y-32035705D02*
X62928571Y-32226181D01*
X62928571Y-32226181D02*
X62833333Y-32321420D01*
X62833333Y-32321420D02*
X62738095Y-32369039D01*
X62738095Y-32369039D02*
X62547619Y-32369039D01*
X62547619Y-32369039D02*
X62452381Y-32321420D01*
X62452381Y-32321420D02*
X62357143Y-32226181D01*
X62357143Y-32226181D02*
X62309524Y-32035705D01*
X62309524Y-32035705D02*
X62309524Y-31702372D01*
X62309524Y-31702372D02*
X62357143Y-31511896D01*
X62357143Y-31511896D02*
X62452381Y-31416658D01*
X62452381Y-31416658D02*
X62547619Y-31369039D01*
X63261905Y-31369039D02*
X63833333Y-31369039D01*
X63547619Y-32369039D02*
X63547619Y-31369039D01*
X38346647Y-38369039D02*
X38346647Y-37369039D01*
X38775218Y-37464277D02*
X38822837Y-37416658D01*
X38822837Y-37416658D02*
X38918075Y-37369039D01*
X38918075Y-37369039D02*
X39156170Y-37369039D01*
X39156170Y-37369039D02*
X39251408Y-37416658D01*
X39251408Y-37416658D02*
X39299027Y-37464277D01*
X39299027Y-37464277D02*
X39346646Y-37559515D01*
X39346646Y-37559515D02*
X39346646Y-37654753D01*
X39346646Y-37654753D02*
X39299027Y-37797610D01*
X39299027Y-37797610D02*
X38727599Y-38369039D01*
X38727599Y-38369039D02*
X39346646Y-38369039D01*
X40346646Y-38273800D02*
X40299027Y-38321420D01*
X40299027Y-38321420D02*
X40156170Y-38369039D01*
X40156170Y-38369039D02*
X40060932Y-38369039D01*
X40060932Y-38369039D02*
X39918075Y-38321420D01*
X39918075Y-38321420D02*
X39822837Y-38226181D01*
X39822837Y-38226181D02*
X39775218Y-38130943D01*
X39775218Y-38130943D02*
X39727599Y-37940467D01*
X39727599Y-37940467D02*
X39727599Y-37797610D01*
X39727599Y-37797610D02*
X39775218Y-37607134D01*
X39775218Y-37607134D02*
X39822837Y-37511896D01*
X39822837Y-37511896D02*
X39918075Y-37416658D01*
X39918075Y-37416658D02*
X40060932Y-37369039D01*
X40060932Y-37369039D02*
X40156170Y-37369039D01*
X40156170Y-37369039D02*
X40299027Y-37416658D01*
X40299027Y-37416658D02*
X40346646Y-37464277D01*
X24928572Y-31869039D02*
X24928572Y-30869039D01*
X24928572Y-30869039D02*
X25261905Y-31583324D01*
X25261905Y-31583324D02*
X25595238Y-30869039D01*
X25595238Y-30869039D02*
X25595238Y-31869039D01*
X26261905Y-30869039D02*
X26452381Y-30869039D01*
X26452381Y-30869039D02*
X26547619Y-30916658D01*
X26547619Y-30916658D02*
X26642857Y-31011896D01*
X26642857Y-31011896D02*
X26690476Y-31202372D01*
X26690476Y-31202372D02*
X26690476Y-31535705D01*
X26690476Y-31535705D02*
X26642857Y-31726181D01*
X26642857Y-31726181D02*
X26547619Y-31821420D01*
X26547619Y-31821420D02*
X26452381Y-31869039D01*
X26452381Y-31869039D02*
X26261905Y-31869039D01*
X26261905Y-31869039D02*
X26166667Y-31821420D01*
X26166667Y-31821420D02*
X26071429Y-31726181D01*
X26071429Y-31726181D02*
X26023810Y-31535705D01*
X26023810Y-31535705D02*
X26023810Y-31202372D01*
X26023810Y-31202372D02*
X26071429Y-31011896D01*
X26071429Y-31011896D02*
X26166667Y-30916658D01*
X26166667Y-30916658D02*
X26261905Y-30869039D01*
X27071429Y-31821420D02*
X27214286Y-31869039D01*
X27214286Y-31869039D02*
X27452381Y-31869039D01*
X27452381Y-31869039D02*
X27547619Y-31821420D01*
X27547619Y-31821420D02*
X27595238Y-31773800D01*
X27595238Y-31773800D02*
X27642857Y-31678562D01*
X27642857Y-31678562D02*
X27642857Y-31583324D01*
X27642857Y-31583324D02*
X27595238Y-31488086D01*
X27595238Y-31488086D02*
X27547619Y-31440467D01*
X27547619Y-31440467D02*
X27452381Y-31392848D01*
X27452381Y-31392848D02*
X27261905Y-31345229D01*
X27261905Y-31345229D02*
X27166667Y-31297610D01*
X27166667Y-31297610D02*
X27119048Y-31249991D01*
X27119048Y-31249991D02*
X27071429Y-31154753D01*
X27071429Y-31154753D02*
X27071429Y-31059515D01*
X27071429Y-31059515D02*
X27119048Y-30964277D01*
X27119048Y-30964277D02*
X27166667Y-30916658D01*
X27166667Y-30916658D02*
X27261905Y-30869039D01*
X27261905Y-30869039D02*
X27500000Y-30869039D01*
X27500000Y-30869039D02*
X27642857Y-30916658D01*
X28071429Y-31869039D02*
X28071429Y-30869039D01*
X30285714Y-40821420D02*
X30428571Y-40869039D01*
X30428571Y-40869039D02*
X30666666Y-40869039D01*
X30666666Y-40869039D02*
X30761904Y-40821420D01*
X30761904Y-40821420D02*
X30809523Y-40773800D01*
X30809523Y-40773800D02*
X30857142Y-40678562D01*
X30857142Y-40678562D02*
X30857142Y-40583324D01*
X30857142Y-40583324D02*
X30809523Y-40488086D01*
X30809523Y-40488086D02*
X30761904Y-40440467D01*
X30761904Y-40440467D02*
X30666666Y-40392848D01*
X30666666Y-40392848D02*
X30476190Y-40345229D01*
X30476190Y-40345229D02*
X30380952Y-40297610D01*
X30380952Y-40297610D02*
X30333333Y-40249991D01*
X30333333Y-40249991D02*
X30285714Y-40154753D01*
X30285714Y-40154753D02*
X30285714Y-40059515D01*
X30285714Y-40059515D02*
X30333333Y-39964277D01*
X30333333Y-39964277D02*
X30380952Y-39916658D01*
X30380952Y-39916658D02*
X30476190Y-39869039D01*
X30476190Y-39869039D02*
X30714285Y-39869039D01*
X30714285Y-39869039D02*
X30857142Y-39916658D01*
X31285714Y-40869039D02*
X31285714Y-39869039D01*
X31285714Y-39869039D02*
X31523809Y-39869039D01*
X31523809Y-39869039D02*
X31666666Y-39916658D01*
X31666666Y-39916658D02*
X31761904Y-40011896D01*
X31761904Y-40011896D02*
X31809523Y-40107134D01*
X31809523Y-40107134D02*
X31857142Y-40297610D01*
X31857142Y-40297610D02*
X31857142Y-40440467D01*
X31857142Y-40440467D02*
X31809523Y-40630943D01*
X31809523Y-40630943D02*
X31761904Y-40726181D01*
X31761904Y-40726181D02*
X31666666Y-40821420D01*
X31666666Y-40821420D02*
X31523809Y-40869039D01*
X31523809Y-40869039D02*
X31285714Y-40869039D01*
X32238095Y-40583324D02*
X32714285Y-40583324D01*
X32142857Y-40869039D02*
X32476190Y-39869039D01*
X32476190Y-39869039D02*
X32809523Y-40869039D01*
X24928572Y-40869039D02*
X24928572Y-39869039D01*
X24928572Y-39869039D02*
X25261905Y-40583324D01*
X25261905Y-40583324D02*
X25595238Y-39869039D01*
X25595238Y-39869039D02*
X25595238Y-40869039D01*
X26071429Y-40869039D02*
X26071429Y-39869039D01*
X26500000Y-40821420D02*
X26642857Y-40869039D01*
X26642857Y-40869039D02*
X26880952Y-40869039D01*
X26880952Y-40869039D02*
X26976190Y-40821420D01*
X26976190Y-40821420D02*
X27023809Y-40773800D01*
X27023809Y-40773800D02*
X27071428Y-40678562D01*
X27071428Y-40678562D02*
X27071428Y-40583324D01*
X27071428Y-40583324D02*
X27023809Y-40488086D01*
X27023809Y-40488086D02*
X26976190Y-40440467D01*
X26976190Y-40440467D02*
X26880952Y-40392848D01*
X26880952Y-40392848D02*
X26690476Y-40345229D01*
X26690476Y-40345229D02*
X26595238Y-40297610D01*
X26595238Y-40297610D02*
X26547619Y-40249991D01*
X26547619Y-40249991D02*
X26500000Y-40154753D01*
X26500000Y-40154753D02*
X26500000Y-40059515D01*
X26500000Y-40059515D02*
X26547619Y-39964277D01*
X26547619Y-39964277D02*
X26595238Y-39916658D01*
X26595238Y-39916658D02*
X26690476Y-39869039D01*
X26690476Y-39869039D02*
X26928571Y-39869039D01*
X26928571Y-39869039D02*
X27071428Y-39916658D01*
X27690476Y-39869039D02*
X27880952Y-39869039D01*
X27880952Y-39869039D02*
X27976190Y-39916658D01*
X27976190Y-39916658D02*
X28071428Y-40011896D01*
X28071428Y-40011896D02*
X28119047Y-40202372D01*
X28119047Y-40202372D02*
X28119047Y-40535705D01*
X28119047Y-40535705D02*
X28071428Y-40726181D01*
X28071428Y-40726181D02*
X27976190Y-40821420D01*
X27976190Y-40821420D02*
X27880952Y-40869039D01*
X27880952Y-40869039D02*
X27690476Y-40869039D01*
X27690476Y-40869039D02*
X27595238Y-40821420D01*
X27595238Y-40821420D02*
X27500000Y-40726181D01*
X27500000Y-40726181D02*
X27452381Y-40535705D01*
X27452381Y-40535705D02*
X27452381Y-40202372D01*
X27452381Y-40202372D02*
X27500000Y-40011896D01*
X27500000Y-40011896D02*
X27595238Y-39916658D01*
X27595238Y-39916658D02*
X27690476Y-39869039D01*
X50809523Y-11369039D02*
X50333333Y-11369039D01*
X50333333Y-11369039D02*
X50285714Y-11845229D01*
X50285714Y-11845229D02*
X50333333Y-11797610D01*
X50333333Y-11797610D02*
X50428571Y-11749991D01*
X50428571Y-11749991D02*
X50666666Y-11749991D01*
X50666666Y-11749991D02*
X50761904Y-11797610D01*
X50761904Y-11797610D02*
X50809523Y-11845229D01*
X50809523Y-11845229D02*
X50857142Y-11940467D01*
X50857142Y-11940467D02*
X50857142Y-12178562D01*
X50857142Y-12178562D02*
X50809523Y-12273800D01*
X50809523Y-12273800D02*
X50761904Y-12321420D01*
X50761904Y-12321420D02*
X50666666Y-12369039D01*
X50666666Y-12369039D02*
X50428571Y-12369039D01*
X50428571Y-12369039D02*
X50333333Y-12321420D01*
X50333333Y-12321420D02*
X50285714Y-12273800D01*
X51142857Y-11369039D02*
X51476190Y-12369039D01*
X51476190Y-12369039D02*
X51809523Y-11369039D01*
X31119048Y-15119039D02*
X31119048Y-14119039D01*
X31119048Y-14119039D02*
X31357143Y-14119039D01*
X31357143Y-14119039D02*
X31500000Y-14166658D01*
X31500000Y-14166658D02*
X31595238Y-14261896D01*
X31595238Y-14261896D02*
X31642857Y-14357134D01*
X31642857Y-14357134D02*
X31690476Y-14547610D01*
X31690476Y-14547610D02*
X31690476Y-14690467D01*
X31690476Y-14690467D02*
X31642857Y-14880943D01*
X31642857Y-14880943D02*
X31595238Y-14976181D01*
X31595238Y-14976181D02*
X31500000Y-15071420D01*
X31500000Y-15071420D02*
X31357143Y-15119039D01*
X31357143Y-15119039D02*
X31119048Y-15119039D01*
X32119048Y-14738086D02*
X32880953Y-14738086D01*
X32500000Y-15119039D02*
X32500000Y-14357134D01*
D13*
X16923558Y-3889638D02*
X16923558Y-2556304D01*
X16923558Y-2937257D02*
X17018796Y-2746780D01*
X17018796Y-2746780D02*
X17114034Y-2651542D01*
X17114034Y-2651542D02*
X17304510Y-2556304D01*
X17304510Y-2556304D02*
X17494987Y-2556304D01*
X18923558Y-3794400D02*
X18733082Y-3889638D01*
X18733082Y-3889638D02*
X18352129Y-3889638D01*
X18352129Y-3889638D02*
X18161653Y-3794400D01*
X18161653Y-3794400D02*
X18066415Y-3603923D01*
X18066415Y-3603923D02*
X18066415Y-2842019D01*
X18066415Y-2842019D02*
X18161653Y-2651542D01*
X18161653Y-2651542D02*
X18352129Y-2556304D01*
X18352129Y-2556304D02*
X18733082Y-2556304D01*
X18733082Y-2556304D02*
X18923558Y-2651542D01*
X18923558Y-2651542D02*
X19018796Y-2842019D01*
X19018796Y-2842019D02*
X19018796Y-3032495D01*
X19018796Y-3032495D02*
X18066415Y-3222971D01*
X19685463Y-2556304D02*
X20161653Y-3889638D01*
X20161653Y-3889638D02*
X20637844Y-2556304D01*
X21209273Y-1889638D02*
X22447368Y-1889638D01*
X22447368Y-1889638D02*
X21780701Y-2651542D01*
X21780701Y-2651542D02*
X22066416Y-2651542D01*
X22066416Y-2651542D02*
X22256892Y-2746780D01*
X22256892Y-2746780D02*
X22352130Y-2842019D01*
X22352130Y-2842019D02*
X22447368Y-3032495D01*
X22447368Y-3032495D02*
X22447368Y-3508685D01*
X22447368Y-3508685D02*
X22352130Y-3699161D01*
X22352130Y-3699161D02*
X22256892Y-3794400D01*
X22256892Y-3794400D02*
X22066416Y-3889638D01*
X22066416Y-3889638D02*
X21494987Y-3889638D01*
X21494987Y-3889638D02*
X21304511Y-3794400D01*
X21304511Y-3794400D02*
X21209273Y-3699161D01*
D12*
X15309524Y-32071420D02*
X15452381Y-32119039D01*
X15452381Y-32119039D02*
X15690476Y-32119039D01*
X15690476Y-32119039D02*
X15785714Y-32071420D01*
X15785714Y-32071420D02*
X15833333Y-32023800D01*
X15833333Y-32023800D02*
X15880952Y-31928562D01*
X15880952Y-31928562D02*
X15880952Y-31833324D01*
X15880952Y-31833324D02*
X15833333Y-31738086D01*
X15833333Y-31738086D02*
X15785714Y-31690467D01*
X15785714Y-31690467D02*
X15690476Y-31642848D01*
X15690476Y-31642848D02*
X15500000Y-31595229D01*
X15500000Y-31595229D02*
X15404762Y-31547610D01*
X15404762Y-31547610D02*
X15357143Y-31499991D01*
X15357143Y-31499991D02*
X15309524Y-31404753D01*
X15309524Y-31404753D02*
X15309524Y-31309515D01*
X15309524Y-31309515D02*
X15357143Y-31214277D01*
X15357143Y-31214277D02*
X15404762Y-31166658D01*
X15404762Y-31166658D02*
X15500000Y-31119039D01*
X15500000Y-31119039D02*
X15738095Y-31119039D01*
X15738095Y-31119039D02*
X15880952Y-31166658D01*
X16880952Y-32023800D02*
X16833333Y-32071420D01*
X16833333Y-32071420D02*
X16690476Y-32119039D01*
X16690476Y-32119039D02*
X16595238Y-32119039D01*
X16595238Y-32119039D02*
X16452381Y-32071420D01*
X16452381Y-32071420D02*
X16357143Y-31976181D01*
X16357143Y-31976181D02*
X16309524Y-31880943D01*
X16309524Y-31880943D02*
X16261905Y-31690467D01*
X16261905Y-31690467D02*
X16261905Y-31547610D01*
X16261905Y-31547610D02*
X16309524Y-31357134D01*
X16309524Y-31357134D02*
X16357143Y-31261896D01*
X16357143Y-31261896D02*
X16452381Y-31166658D01*
X16452381Y-31166658D02*
X16595238Y-31119039D01*
X16595238Y-31119039D02*
X16690476Y-31119039D01*
X16690476Y-31119039D02*
X16833333Y-31166658D01*
X16833333Y-31166658D02*
X16880952Y-31214277D01*
X17785714Y-32119039D02*
X17309524Y-32119039D01*
X17309524Y-32119039D02*
X17309524Y-31119039D01*
X51452380Y-32369039D02*
X51119047Y-31892848D01*
X50880952Y-32369039D02*
X50880952Y-31369039D01*
X50880952Y-31369039D02*
X51261904Y-31369039D01*
X51261904Y-31369039D02*
X51357142Y-31416658D01*
X51357142Y-31416658D02*
X51404761Y-31464277D01*
X51404761Y-31464277D02*
X51452380Y-31559515D01*
X51452380Y-31559515D02*
X51452380Y-31702372D01*
X51452380Y-31702372D02*
X51404761Y-31797610D01*
X51404761Y-31797610D02*
X51357142Y-31845229D01*
X51357142Y-31845229D02*
X51261904Y-31892848D01*
X51261904Y-31892848D02*
X50880952Y-31892848D01*
X51833333Y-32321420D02*
X51976190Y-32369039D01*
X51976190Y-32369039D02*
X52214285Y-32369039D01*
X52214285Y-32369039D02*
X52309523Y-32321420D01*
X52309523Y-32321420D02*
X52357142Y-32273800D01*
X52357142Y-32273800D02*
X52404761Y-32178562D01*
X52404761Y-32178562D02*
X52404761Y-32083324D01*
X52404761Y-32083324D02*
X52357142Y-31988086D01*
X52357142Y-31988086D02*
X52309523Y-31940467D01*
X52309523Y-31940467D02*
X52214285Y-31892848D01*
X52214285Y-31892848D02*
X52023809Y-31845229D01*
X52023809Y-31845229D02*
X51928571Y-31797610D01*
X51928571Y-31797610D02*
X51880952Y-31749991D01*
X51880952Y-31749991D02*
X51833333Y-31654753D01*
X51833333Y-31654753D02*
X51833333Y-31559515D01*
X51833333Y-31559515D02*
X51880952Y-31464277D01*
X51880952Y-31464277D02*
X51928571Y-31416658D01*
X51928571Y-31416658D02*
X52023809Y-31369039D01*
X52023809Y-31369039D02*
X52261904Y-31369039D01*
X52261904Y-31369039D02*
X52404761Y-31416658D01*
X52690476Y-31369039D02*
X53261904Y-31369039D01*
X52976190Y-32369039D02*
X52976190Y-31369039D01*
X30261905Y-30869039D02*
X30880952Y-30869039D01*
X30880952Y-30869039D02*
X30547619Y-31249991D01*
X30547619Y-31249991D02*
X30690476Y-31249991D01*
X30690476Y-31249991D02*
X30785714Y-31297610D01*
X30785714Y-31297610D02*
X30833333Y-31345229D01*
X30833333Y-31345229D02*
X30880952Y-31440467D01*
X30880952Y-31440467D02*
X30880952Y-31678562D01*
X30880952Y-31678562D02*
X30833333Y-31773800D01*
X30833333Y-31773800D02*
X30785714Y-31821420D01*
X30785714Y-31821420D02*
X30690476Y-31869039D01*
X30690476Y-31869039D02*
X30404762Y-31869039D01*
X30404762Y-31869039D02*
X30309524Y-31821420D01*
X30309524Y-31821420D02*
X30261905Y-31773800D01*
X31166667Y-30869039D02*
X31500000Y-31869039D01*
X31500000Y-31869039D02*
X31833333Y-30869039D01*
X32071429Y-30869039D02*
X32690476Y-30869039D01*
X32690476Y-30869039D02*
X32357143Y-31249991D01*
X32357143Y-31249991D02*
X32500000Y-31249991D01*
X32500000Y-31249991D02*
X32595238Y-31297610D01*
X32595238Y-31297610D02*
X32642857Y-31345229D01*
X32642857Y-31345229D02*
X32690476Y-31440467D01*
X32690476Y-31440467D02*
X32690476Y-31678562D01*
X32690476Y-31678562D02*
X32642857Y-31773800D01*
X32642857Y-31773800D02*
X32595238Y-31821420D01*
X32595238Y-31821420D02*
X32500000Y-31869039D01*
X32500000Y-31869039D02*
X32214286Y-31869039D01*
X32214286Y-31869039D02*
X32119048Y-31821420D01*
X32119048Y-31821420D02*
X32071429Y-31773800D01*
X35309524Y-40821420D02*
X35452381Y-40869039D01*
X35452381Y-40869039D02*
X35690476Y-40869039D01*
X35690476Y-40869039D02*
X35785714Y-40821420D01*
X35785714Y-40821420D02*
X35833333Y-40773800D01*
X35833333Y-40773800D02*
X35880952Y-40678562D01*
X35880952Y-40678562D02*
X35880952Y-40583324D01*
X35880952Y-40583324D02*
X35833333Y-40488086D01*
X35833333Y-40488086D02*
X35785714Y-40440467D01*
X35785714Y-40440467D02*
X35690476Y-40392848D01*
X35690476Y-40392848D02*
X35500000Y-40345229D01*
X35500000Y-40345229D02*
X35404762Y-40297610D01*
X35404762Y-40297610D02*
X35357143Y-40249991D01*
X35357143Y-40249991D02*
X35309524Y-40154753D01*
X35309524Y-40154753D02*
X35309524Y-40059515D01*
X35309524Y-40059515D02*
X35357143Y-39964277D01*
X35357143Y-39964277D02*
X35404762Y-39916658D01*
X35404762Y-39916658D02*
X35500000Y-39869039D01*
X35500000Y-39869039D02*
X35738095Y-39869039D01*
X35738095Y-39869039D02*
X35880952Y-39916658D01*
X36880952Y-40773800D02*
X36833333Y-40821420D01*
X36833333Y-40821420D02*
X36690476Y-40869039D01*
X36690476Y-40869039D02*
X36595238Y-40869039D01*
X36595238Y-40869039D02*
X36452381Y-40821420D01*
X36452381Y-40821420D02*
X36357143Y-40726181D01*
X36357143Y-40726181D02*
X36309524Y-40630943D01*
X36309524Y-40630943D02*
X36261905Y-40440467D01*
X36261905Y-40440467D02*
X36261905Y-40297610D01*
X36261905Y-40297610D02*
X36309524Y-40107134D01*
X36309524Y-40107134D02*
X36357143Y-40011896D01*
X36357143Y-40011896D02*
X36452381Y-39916658D01*
X36452381Y-39916658D02*
X36595238Y-39869039D01*
X36595238Y-39869039D02*
X36690476Y-39869039D01*
X36690476Y-39869039D02*
X36833333Y-39916658D01*
X36833333Y-39916658D02*
X36880952Y-39964277D01*
X37785714Y-40869039D02*
X37309524Y-40869039D01*
X37309524Y-40869039D02*
X37309524Y-39869039D01*
X22976191Y-36321420D02*
X23119048Y-36369039D01*
X23119048Y-36369039D02*
X23357143Y-36369039D01*
X23357143Y-36369039D02*
X23452381Y-36321420D01*
X23452381Y-36321420D02*
X23500000Y-36273800D01*
X23500000Y-36273800D02*
X23547619Y-36178562D01*
X23547619Y-36178562D02*
X23547619Y-36083324D01*
X23547619Y-36083324D02*
X23500000Y-35988086D01*
X23500000Y-35988086D02*
X23452381Y-35940467D01*
X23452381Y-35940467D02*
X23357143Y-35892848D01*
X23357143Y-35892848D02*
X23166667Y-35845229D01*
X23166667Y-35845229D02*
X23071429Y-35797610D01*
X23071429Y-35797610D02*
X23023810Y-35749991D01*
X23023810Y-35749991D02*
X22976191Y-35654753D01*
X22976191Y-35654753D02*
X22976191Y-35559515D01*
X22976191Y-35559515D02*
X23023810Y-35464277D01*
X23023810Y-35464277D02*
X23071429Y-35416658D01*
X23071429Y-35416658D02*
X23166667Y-35369039D01*
X23166667Y-35369039D02*
X23404762Y-35369039D01*
X23404762Y-35369039D02*
X23547619Y-35416658D01*
X23976191Y-36369039D02*
X23976191Y-35369039D01*
X23976191Y-35369039D02*
X24357143Y-35369039D01*
X24357143Y-35369039D02*
X24452381Y-35416658D01*
X24452381Y-35416658D02*
X24500000Y-35464277D01*
X24500000Y-35464277D02*
X24547619Y-35559515D01*
X24547619Y-35559515D02*
X24547619Y-35702372D01*
X24547619Y-35702372D02*
X24500000Y-35797610D01*
X24500000Y-35797610D02*
X24452381Y-35845229D01*
X24452381Y-35845229D02*
X24357143Y-35892848D01*
X24357143Y-35892848D02*
X23976191Y-35892848D01*
X24976191Y-36369039D02*
X24976191Y-35369039D01*
X35738095Y-30916658D02*
X35642857Y-30869039D01*
X35642857Y-30869039D02*
X35500000Y-30869039D01*
X35500000Y-30869039D02*
X35357143Y-30916658D01*
X35357143Y-30916658D02*
X35261905Y-31011896D01*
X35261905Y-31011896D02*
X35214286Y-31107134D01*
X35214286Y-31107134D02*
X35166667Y-31297610D01*
X35166667Y-31297610D02*
X35166667Y-31440467D01*
X35166667Y-31440467D02*
X35214286Y-31630943D01*
X35214286Y-31630943D02*
X35261905Y-31726181D01*
X35261905Y-31726181D02*
X35357143Y-31821420D01*
X35357143Y-31821420D02*
X35500000Y-31869039D01*
X35500000Y-31869039D02*
X35595238Y-31869039D01*
X35595238Y-31869039D02*
X35738095Y-31821420D01*
X35738095Y-31821420D02*
X35785714Y-31773800D01*
X35785714Y-31773800D02*
X35785714Y-31440467D01*
X35785714Y-31440467D02*
X35595238Y-31440467D01*
X36214286Y-31869039D02*
X36214286Y-30869039D01*
X36214286Y-30869039D02*
X36785714Y-31869039D01*
X36785714Y-31869039D02*
X36785714Y-30869039D01*
X37261905Y-31869039D02*
X37261905Y-30869039D01*
X37261905Y-30869039D02*
X37500000Y-30869039D01*
X37500000Y-30869039D02*
X37642857Y-30916658D01*
X37642857Y-30916658D02*
X37738095Y-31011896D01*
X37738095Y-31011896D02*
X37785714Y-31107134D01*
X37785714Y-31107134D02*
X37833333Y-31297610D01*
X37833333Y-31297610D02*
X37833333Y-31440467D01*
X37833333Y-31440467D02*
X37785714Y-31630943D01*
X37785714Y-31630943D02*
X37738095Y-31726181D01*
X37738095Y-31726181D02*
X37642857Y-31821420D01*
X37642857Y-31821420D02*
X37500000Y-31869039D01*
X37500000Y-31869039D02*
X37261905Y-31869039D01*
X31119048Y-6869039D02*
X31119048Y-5869039D01*
X31119048Y-5869039D02*
X31357143Y-5869039D01*
X31357143Y-5869039D02*
X31500000Y-5916658D01*
X31500000Y-5916658D02*
X31595238Y-6011896D01*
X31595238Y-6011896D02*
X31642857Y-6107134D01*
X31642857Y-6107134D02*
X31690476Y-6297610D01*
X31690476Y-6297610D02*
X31690476Y-6440467D01*
X31690476Y-6440467D02*
X31642857Y-6630943D01*
X31642857Y-6630943D02*
X31595238Y-6726181D01*
X31595238Y-6726181D02*
X31500000Y-6821420D01*
X31500000Y-6821420D02*
X31357143Y-6869039D01*
X31357143Y-6869039D02*
X31119048Y-6869039D01*
X32119048Y-6488086D02*
X32880953Y-6488086D01*
X21050892Y-22708800D02*
X21003273Y-22756420D01*
X21003273Y-22756420D02*
X20860416Y-22804039D01*
X20860416Y-22804039D02*
X20765178Y-22804039D01*
X20765178Y-22804039D02*
X20622321Y-22756420D01*
X20622321Y-22756420D02*
X20527083Y-22661181D01*
X20527083Y-22661181D02*
X20479464Y-22565943D01*
X20479464Y-22565943D02*
X20431845Y-22375467D01*
X20431845Y-22375467D02*
X20431845Y-22232610D01*
X20431845Y-22232610D02*
X20479464Y-22042134D01*
X20479464Y-22042134D02*
X20527083Y-21946896D01*
X20527083Y-21946896D02*
X20622321Y-21851658D01*
X20622321Y-21851658D02*
X20765178Y-21804039D01*
X20765178Y-21804039D02*
X20860416Y-21804039D01*
X20860416Y-21804039D02*
X21003273Y-21851658D01*
X21003273Y-21851658D02*
X21050892Y-21899277D01*
X22003273Y-22804039D02*
X21431845Y-22804039D01*
X21717559Y-22804039D02*
X21717559Y-21804039D01*
X21717559Y-21804039D02*
X21622321Y-21946896D01*
X21622321Y-21946896D02*
X21527083Y-22042134D01*
X21527083Y-22042134D02*
X21431845Y-22089753D01*
X22622321Y-21804039D02*
X22717559Y-21804039D01*
X22717559Y-21804039D02*
X22812797Y-21851658D01*
X22812797Y-21851658D02*
X22860416Y-21899277D01*
X22860416Y-21899277D02*
X22908035Y-21994515D01*
X22908035Y-21994515D02*
X22955654Y-22184991D01*
X22955654Y-22184991D02*
X22955654Y-22423086D01*
X22955654Y-22423086D02*
X22908035Y-22613562D01*
X22908035Y-22613562D02*
X22860416Y-22708800D01*
X22860416Y-22708800D02*
X22812797Y-22756420D01*
X22812797Y-22756420D02*
X22717559Y-22804039D01*
X22717559Y-22804039D02*
X22622321Y-22804039D01*
X22622321Y-22804039D02*
X22527083Y-22756420D01*
X22527083Y-22756420D02*
X22479464Y-22708800D01*
X22479464Y-22708800D02*
X22431845Y-22613562D01*
X22431845Y-22613562D02*
X22384226Y-22423086D01*
X22384226Y-22423086D02*
X22384226Y-22184991D01*
X22384226Y-22184991D02*
X22431845Y-21994515D01*
X22431845Y-21994515D02*
X22479464Y-21899277D01*
X22479464Y-21899277D02*
X22527083Y-21851658D01*
X22527083Y-21851658D02*
X22622321Y-21804039D01*
X35357142Y-13954039D02*
X35023809Y-13477848D01*
X34785714Y-13954039D02*
X34785714Y-12954039D01*
X34785714Y-12954039D02*
X35166666Y-12954039D01*
X35166666Y-12954039D02*
X35261904Y-13001658D01*
X35261904Y-13001658D02*
X35309523Y-13049277D01*
X35309523Y-13049277D02*
X35357142Y-13144515D01*
X35357142Y-13144515D02*
X35357142Y-13287372D01*
X35357142Y-13287372D02*
X35309523Y-13382610D01*
X35309523Y-13382610D02*
X35261904Y-13430229D01*
X35261904Y-13430229D02*
X35166666Y-13477848D01*
X35166666Y-13477848D02*
X34785714Y-13477848D01*
X36309523Y-13954039D02*
X35738095Y-13954039D01*
X36023809Y-13954039D02*
X36023809Y-12954039D01*
X36023809Y-12954039D02*
X35928571Y-13096896D01*
X35928571Y-13096896D02*
X35833333Y-13192134D01*
X35833333Y-13192134D02*
X35738095Y-13239753D01*
X36928571Y-12954039D02*
X37023809Y-12954039D01*
X37023809Y-12954039D02*
X37119047Y-13001658D01*
X37119047Y-13001658D02*
X37166666Y-13049277D01*
X37166666Y-13049277D02*
X37214285Y-13144515D01*
X37214285Y-13144515D02*
X37261904Y-13334991D01*
X37261904Y-13334991D02*
X37261904Y-13573086D01*
X37261904Y-13573086D02*
X37214285Y-13763562D01*
X37214285Y-13763562D02*
X37166666Y-13858800D01*
X37166666Y-13858800D02*
X37119047Y-13906420D01*
X37119047Y-13906420D02*
X37023809Y-13954039D01*
X37023809Y-13954039D02*
X36928571Y-13954039D01*
X36928571Y-13954039D02*
X36833333Y-13906420D01*
X36833333Y-13906420D02*
X36785714Y-13858800D01*
X36785714Y-13858800D02*
X36738095Y-13763562D01*
X36738095Y-13763562D02*
X36690476Y-13573086D01*
X36690476Y-13573086D02*
X36690476Y-13334991D01*
X36690476Y-13334991D02*
X36738095Y-13144515D01*
X36738095Y-13144515D02*
X36785714Y-13049277D01*
X36785714Y-13049277D02*
X36833333Y-13001658D01*
X36833333Y-13001658D02*
X36928571Y-12954039D01*
X65333333Y-23198800D02*
X65285714Y-23246420D01*
X65285714Y-23246420D02*
X65142857Y-23294039D01*
X65142857Y-23294039D02*
X65047619Y-23294039D01*
X65047619Y-23294039D02*
X64904762Y-23246420D01*
X64904762Y-23246420D02*
X64809524Y-23151181D01*
X64809524Y-23151181D02*
X64761905Y-23055943D01*
X64761905Y-23055943D02*
X64714286Y-22865467D01*
X64714286Y-22865467D02*
X64714286Y-22722610D01*
X64714286Y-22722610D02*
X64761905Y-22532134D01*
X64761905Y-22532134D02*
X64809524Y-22436896D01*
X64809524Y-22436896D02*
X64904762Y-22341658D01*
X64904762Y-22341658D02*
X65047619Y-22294039D01*
X65047619Y-22294039D02*
X65142857Y-22294039D01*
X65142857Y-22294039D02*
X65285714Y-22341658D01*
X65285714Y-22341658D02*
X65333333Y-22389277D01*
X65666667Y-22294039D02*
X66333333Y-22294039D01*
X66333333Y-22294039D02*
X65904762Y-23294039D01*
X21583333Y-19954039D02*
X21107143Y-19954039D01*
X21107143Y-19954039D02*
X21107143Y-18954039D01*
X22440476Y-19954039D02*
X21869048Y-19954039D01*
X22154762Y-19954039D02*
X22154762Y-18954039D01*
X22154762Y-18954039D02*
X22059524Y-19096896D01*
X22059524Y-19096896D02*
X21964286Y-19192134D01*
X21964286Y-19192134D02*
X21869048Y-19239753D01*
X52108800Y-2166666D02*
X52156420Y-2214285D01*
X52156420Y-2214285D02*
X52204039Y-2357142D01*
X52204039Y-2357142D02*
X52204039Y-2452380D01*
X52204039Y-2452380D02*
X52156420Y-2595237D01*
X52156420Y-2595237D02*
X52061181Y-2690475D01*
X52061181Y-2690475D02*
X51965943Y-2738094D01*
X51965943Y-2738094D02*
X51775467Y-2785713D01*
X51775467Y-2785713D02*
X51632610Y-2785713D01*
X51632610Y-2785713D02*
X51442134Y-2738094D01*
X51442134Y-2738094D02*
X51346896Y-2690475D01*
X51346896Y-2690475D02*
X51251658Y-2595237D01*
X51251658Y-2595237D02*
X51204039Y-2452380D01*
X51204039Y-2452380D02*
X51204039Y-2357142D01*
X51204039Y-2357142D02*
X51251658Y-2214285D01*
X51251658Y-2214285D02*
X51299277Y-2166666D01*
X51204039Y-1261904D02*
X51204039Y-1738094D01*
X51204039Y-1738094D02*
X51680229Y-1785713D01*
X51680229Y-1785713D02*
X51632610Y-1738094D01*
X51632610Y-1738094D02*
X51584991Y-1642856D01*
X51584991Y-1642856D02*
X51584991Y-1404761D01*
X51584991Y-1404761D02*
X51632610Y-1309523D01*
X51632610Y-1309523D02*
X51680229Y-1261904D01*
X51680229Y-1261904D02*
X51775467Y-1214285D01*
X51775467Y-1214285D02*
X52013562Y-1214285D01*
X52013562Y-1214285D02*
X52108800Y-1261904D01*
X52108800Y-1261904D02*
X52156420Y-1309523D01*
X52156420Y-1309523D02*
X52204039Y-1404761D01*
X52204039Y-1404761D02*
X52204039Y-1642856D01*
X52204039Y-1642856D02*
X52156420Y-1738094D01*
X52156420Y-1738094D02*
X52108800Y-1785713D01*
X49761905Y-18524039D02*
X49761905Y-17524039D01*
X49761905Y-17524039D02*
X50000000Y-17524039D01*
X50000000Y-17524039D02*
X50142857Y-17571658D01*
X50142857Y-17571658D02*
X50238095Y-17666896D01*
X50238095Y-17666896D02*
X50285714Y-17762134D01*
X50285714Y-17762134D02*
X50333333Y-17952610D01*
X50333333Y-17952610D02*
X50333333Y-18095467D01*
X50333333Y-18095467D02*
X50285714Y-18285943D01*
X50285714Y-18285943D02*
X50238095Y-18381181D01*
X50238095Y-18381181D02*
X50142857Y-18476420D01*
X50142857Y-18476420D02*
X50000000Y-18524039D01*
X50000000Y-18524039D02*
X49761905Y-18524039D01*
X51285714Y-18524039D02*
X50714286Y-18524039D01*
X51000000Y-18524039D02*
X51000000Y-17524039D01*
X51000000Y-17524039D02*
X50904762Y-17666896D01*
X50904762Y-17666896D02*
X50809524Y-17762134D01*
X50809524Y-17762134D02*
X50714286Y-17809753D01*
X18277083Y-29304039D02*
X17943750Y-28827848D01*
X17705655Y-29304039D02*
X17705655Y-28304039D01*
X17705655Y-28304039D02*
X18086607Y-28304039D01*
X18086607Y-28304039D02*
X18181845Y-28351658D01*
X18181845Y-28351658D02*
X18229464Y-28399277D01*
X18229464Y-28399277D02*
X18277083Y-28494515D01*
X18277083Y-28494515D02*
X18277083Y-28637372D01*
X18277083Y-28637372D02*
X18229464Y-28732610D01*
X18229464Y-28732610D02*
X18181845Y-28780229D01*
X18181845Y-28780229D02*
X18086607Y-28827848D01*
X18086607Y-28827848D02*
X17705655Y-28827848D01*
X19134226Y-28304039D02*
X18943750Y-28304039D01*
X18943750Y-28304039D02*
X18848512Y-28351658D01*
X18848512Y-28351658D02*
X18800893Y-28399277D01*
X18800893Y-28399277D02*
X18705655Y-28542134D01*
X18705655Y-28542134D02*
X18658036Y-28732610D01*
X18658036Y-28732610D02*
X18658036Y-29113562D01*
X18658036Y-29113562D02*
X18705655Y-29208800D01*
X18705655Y-29208800D02*
X18753274Y-29256420D01*
X18753274Y-29256420D02*
X18848512Y-29304039D01*
X18848512Y-29304039D02*
X19038988Y-29304039D01*
X19038988Y-29304039D02*
X19134226Y-29256420D01*
X19134226Y-29256420D02*
X19181845Y-29208800D01*
X19181845Y-29208800D02*
X19229464Y-29113562D01*
X19229464Y-29113562D02*
X19229464Y-28875467D01*
X19229464Y-28875467D02*
X19181845Y-28780229D01*
X19181845Y-28780229D02*
X19134226Y-28732610D01*
X19134226Y-28732610D02*
X19038988Y-28684991D01*
X19038988Y-28684991D02*
X18848512Y-28684991D01*
X18848512Y-28684991D02*
X18753274Y-28732610D01*
X18753274Y-28732610D02*
X18705655Y-28780229D01*
X18705655Y-28780229D02*
X18658036Y-28875467D01*
X26948800Y-16642857D02*
X26996420Y-16690476D01*
X26996420Y-16690476D02*
X27044039Y-16833333D01*
X27044039Y-16833333D02*
X27044039Y-16928571D01*
X27044039Y-16928571D02*
X26996420Y-17071428D01*
X26996420Y-17071428D02*
X26901181Y-17166666D01*
X26901181Y-17166666D02*
X26805943Y-17214285D01*
X26805943Y-17214285D02*
X26615467Y-17261904D01*
X26615467Y-17261904D02*
X26472610Y-17261904D01*
X26472610Y-17261904D02*
X26282134Y-17214285D01*
X26282134Y-17214285D02*
X26186896Y-17166666D01*
X26186896Y-17166666D02*
X26091658Y-17071428D01*
X26091658Y-17071428D02*
X26044039Y-16928571D01*
X26044039Y-16928571D02*
X26044039Y-16833333D01*
X26044039Y-16833333D02*
X26091658Y-16690476D01*
X26091658Y-16690476D02*
X26139277Y-16642857D01*
X26139277Y-16261904D02*
X26091658Y-16214285D01*
X26091658Y-16214285D02*
X26044039Y-16119047D01*
X26044039Y-16119047D02*
X26044039Y-15880952D01*
X26044039Y-15880952D02*
X26091658Y-15785714D01*
X26091658Y-15785714D02*
X26139277Y-15738095D01*
X26139277Y-15738095D02*
X26234515Y-15690476D01*
X26234515Y-15690476D02*
X26329753Y-15690476D01*
X26329753Y-15690476D02*
X26472610Y-15738095D01*
X26472610Y-15738095D02*
X27044039Y-16309523D01*
X27044039Y-16309523D02*
X27044039Y-15690476D01*
X26044039Y-14785714D02*
X26044039Y-15261904D01*
X26044039Y-15261904D02*
X26520229Y-15309523D01*
X26520229Y-15309523D02*
X26472610Y-15261904D01*
X26472610Y-15261904D02*
X26424991Y-15166666D01*
X26424991Y-15166666D02*
X26424991Y-14928571D01*
X26424991Y-14928571D02*
X26472610Y-14833333D01*
X26472610Y-14833333D02*
X26520229Y-14785714D01*
X26520229Y-14785714D02*
X26615467Y-14738095D01*
X26615467Y-14738095D02*
X26853562Y-14738095D01*
X26853562Y-14738095D02*
X26948800Y-14785714D01*
X26948800Y-14785714D02*
X26996420Y-14833333D01*
X26996420Y-14833333D02*
X27044039Y-14928571D01*
X27044039Y-14928571D02*
X27044039Y-15166666D01*
X27044039Y-15166666D02*
X26996420Y-15261904D01*
X26996420Y-15261904D02*
X26948800Y-15309523D01*
X55833333Y-17124039D02*
X55500000Y-16647848D01*
X55261905Y-17124039D02*
X55261905Y-16124039D01*
X55261905Y-16124039D02*
X55642857Y-16124039D01*
X55642857Y-16124039D02*
X55738095Y-16171658D01*
X55738095Y-16171658D02*
X55785714Y-16219277D01*
X55785714Y-16219277D02*
X55833333Y-16314515D01*
X55833333Y-16314515D02*
X55833333Y-16457372D01*
X55833333Y-16457372D02*
X55785714Y-16552610D01*
X55785714Y-16552610D02*
X55738095Y-16600229D01*
X55738095Y-16600229D02*
X55642857Y-16647848D01*
X55642857Y-16647848D02*
X55261905Y-16647848D01*
X56690476Y-16457372D02*
X56690476Y-17124039D01*
X56452381Y-16076420D02*
X56214286Y-16790705D01*
X56214286Y-16790705D02*
X56833333Y-16790705D01*
X46704039Y-18738094D02*
X45704039Y-18738094D01*
X45704039Y-18738094D02*
X45704039Y-18499999D01*
X45704039Y-18499999D02*
X45751658Y-18357142D01*
X45751658Y-18357142D02*
X45846896Y-18261904D01*
X45846896Y-18261904D02*
X45942134Y-18214285D01*
X45942134Y-18214285D02*
X46132610Y-18166666D01*
X46132610Y-18166666D02*
X46275467Y-18166666D01*
X46275467Y-18166666D02*
X46465943Y-18214285D01*
X46465943Y-18214285D02*
X46561181Y-18261904D01*
X46561181Y-18261904D02*
X46656420Y-18357142D01*
X46656420Y-18357142D02*
X46704039Y-18499999D01*
X46704039Y-18499999D02*
X46704039Y-18738094D01*
X46704039Y-17690475D02*
X46704039Y-17499999D01*
X46704039Y-17499999D02*
X46656420Y-17404761D01*
X46656420Y-17404761D02*
X46608800Y-17357142D01*
X46608800Y-17357142D02*
X46465943Y-17261904D01*
X46465943Y-17261904D02*
X46275467Y-17214285D01*
X46275467Y-17214285D02*
X45894515Y-17214285D01*
X45894515Y-17214285D02*
X45799277Y-17261904D01*
X45799277Y-17261904D02*
X45751658Y-17309523D01*
X45751658Y-17309523D02*
X45704039Y-17404761D01*
X45704039Y-17404761D02*
X45704039Y-17595237D01*
X45704039Y-17595237D02*
X45751658Y-17690475D01*
X45751658Y-17690475D02*
X45799277Y-17738094D01*
X45799277Y-17738094D02*
X45894515Y-17785713D01*
X45894515Y-17785713D02*
X46132610Y-17785713D01*
X46132610Y-17785713D02*
X46227848Y-17738094D01*
X46227848Y-17738094D02*
X46275467Y-17690475D01*
X46275467Y-17690475D02*
X46323086Y-17595237D01*
X46323086Y-17595237D02*
X46323086Y-17404761D01*
X46323086Y-17404761D02*
X46275467Y-17309523D01*
X46275467Y-17309523D02*
X46227848Y-17261904D01*
X46227848Y-17261904D02*
X46132610Y-17214285D01*
X48333333Y-14858800D02*
X48285714Y-14906420D01*
X48285714Y-14906420D02*
X48142857Y-14954039D01*
X48142857Y-14954039D02*
X48047619Y-14954039D01*
X48047619Y-14954039D02*
X47904762Y-14906420D01*
X47904762Y-14906420D02*
X47809524Y-14811181D01*
X47809524Y-14811181D02*
X47761905Y-14715943D01*
X47761905Y-14715943D02*
X47714286Y-14525467D01*
X47714286Y-14525467D02*
X47714286Y-14382610D01*
X47714286Y-14382610D02*
X47761905Y-14192134D01*
X47761905Y-14192134D02*
X47809524Y-14096896D01*
X47809524Y-14096896D02*
X47904762Y-14001658D01*
X47904762Y-14001658D02*
X48047619Y-13954039D01*
X48047619Y-13954039D02*
X48142857Y-13954039D01*
X48142857Y-13954039D02*
X48285714Y-14001658D01*
X48285714Y-14001658D02*
X48333333Y-14049277D01*
X49285714Y-14954039D02*
X48714286Y-14954039D01*
X49000000Y-14954039D02*
X49000000Y-13954039D01*
X49000000Y-13954039D02*
X48904762Y-14096896D01*
X48904762Y-14096896D02*
X48809524Y-14192134D01*
X48809524Y-14192134D02*
X48714286Y-14239753D01*
X65858800Y-43142857D02*
X65906420Y-43190476D01*
X65906420Y-43190476D02*
X65954039Y-43333333D01*
X65954039Y-43333333D02*
X65954039Y-43428571D01*
X65954039Y-43428571D02*
X65906420Y-43571428D01*
X65906420Y-43571428D02*
X65811181Y-43666666D01*
X65811181Y-43666666D02*
X65715943Y-43714285D01*
X65715943Y-43714285D02*
X65525467Y-43761904D01*
X65525467Y-43761904D02*
X65382610Y-43761904D01*
X65382610Y-43761904D02*
X65192134Y-43714285D01*
X65192134Y-43714285D02*
X65096896Y-43666666D01*
X65096896Y-43666666D02*
X65001658Y-43571428D01*
X65001658Y-43571428D02*
X64954039Y-43428571D01*
X64954039Y-43428571D02*
X64954039Y-43333333D01*
X64954039Y-43333333D02*
X65001658Y-43190476D01*
X65001658Y-43190476D02*
X65049277Y-43142857D01*
X65954039Y-42190476D02*
X65954039Y-42761904D01*
X65954039Y-42476190D02*
X64954039Y-42476190D01*
X64954039Y-42476190D02*
X65096896Y-42571428D01*
X65096896Y-42571428D02*
X65192134Y-42666666D01*
X65192134Y-42666666D02*
X65239753Y-42761904D01*
X65382610Y-41619047D02*
X65334991Y-41714285D01*
X65334991Y-41714285D02*
X65287372Y-41761904D01*
X65287372Y-41761904D02*
X65192134Y-41809523D01*
X65192134Y-41809523D02*
X65144515Y-41809523D01*
X65144515Y-41809523D02*
X65049277Y-41761904D01*
X65049277Y-41761904D02*
X65001658Y-41714285D01*
X65001658Y-41714285D02*
X64954039Y-41619047D01*
X64954039Y-41619047D02*
X64954039Y-41428571D01*
X64954039Y-41428571D02*
X65001658Y-41333333D01*
X65001658Y-41333333D02*
X65049277Y-41285714D01*
X65049277Y-41285714D02*
X65144515Y-41238095D01*
X65144515Y-41238095D02*
X65192134Y-41238095D01*
X65192134Y-41238095D02*
X65287372Y-41285714D01*
X65287372Y-41285714D02*
X65334991Y-41333333D01*
X65334991Y-41333333D02*
X65382610Y-41428571D01*
X65382610Y-41428571D02*
X65382610Y-41619047D01*
X65382610Y-41619047D02*
X65430229Y-41714285D01*
X65430229Y-41714285D02*
X65477848Y-41761904D01*
X65477848Y-41761904D02*
X65573086Y-41809523D01*
X65573086Y-41809523D02*
X65763562Y-41809523D01*
X65763562Y-41809523D02*
X65858800Y-41761904D01*
X65858800Y-41761904D02*
X65906420Y-41714285D01*
X65906420Y-41714285D02*
X65954039Y-41619047D01*
X65954039Y-41619047D02*
X65954039Y-41428571D01*
X65954039Y-41428571D02*
X65906420Y-41333333D01*
X65906420Y-41333333D02*
X65858800Y-41285714D01*
X65858800Y-41285714D02*
X65763562Y-41238095D01*
X65763562Y-41238095D02*
X65573086Y-41238095D01*
X65573086Y-41238095D02*
X65477848Y-41285714D01*
X65477848Y-41285714D02*
X65430229Y-41333333D01*
X65430229Y-41333333D02*
X65382610Y-41428571D01*
X42870833Y-5784039D02*
X42537500Y-5307848D01*
X42299405Y-5784039D02*
X42299405Y-4784039D01*
X42299405Y-4784039D02*
X42680357Y-4784039D01*
X42680357Y-4784039D02*
X42775595Y-4831658D01*
X42775595Y-4831658D02*
X42823214Y-4879277D01*
X42823214Y-4879277D02*
X42870833Y-4974515D01*
X42870833Y-4974515D02*
X42870833Y-5117372D01*
X42870833Y-5117372D02*
X42823214Y-5212610D01*
X42823214Y-5212610D02*
X42775595Y-5260229D01*
X42775595Y-5260229D02*
X42680357Y-5307848D01*
X42680357Y-5307848D02*
X42299405Y-5307848D01*
X43204167Y-4784039D02*
X43823214Y-4784039D01*
X43823214Y-4784039D02*
X43489881Y-5164991D01*
X43489881Y-5164991D02*
X43632738Y-5164991D01*
X43632738Y-5164991D02*
X43727976Y-5212610D01*
X43727976Y-5212610D02*
X43775595Y-5260229D01*
X43775595Y-5260229D02*
X43823214Y-5355467D01*
X43823214Y-5355467D02*
X43823214Y-5593562D01*
X43823214Y-5593562D02*
X43775595Y-5688800D01*
X43775595Y-5688800D02*
X43727976Y-5736420D01*
X43727976Y-5736420D02*
X43632738Y-5784039D01*
X43632738Y-5784039D02*
X43347024Y-5784039D01*
X43347024Y-5784039D02*
X43251786Y-5736420D01*
X43251786Y-5736420D02*
X43204167Y-5688800D01*
X48738095Y-39954039D02*
X48738095Y-40763562D01*
X48738095Y-40763562D02*
X48785714Y-40858800D01*
X48785714Y-40858800D02*
X48833333Y-40906420D01*
X48833333Y-40906420D02*
X48928571Y-40954039D01*
X48928571Y-40954039D02*
X49119047Y-40954039D01*
X49119047Y-40954039D02*
X49214285Y-40906420D01*
X49214285Y-40906420D02*
X49261904Y-40858800D01*
X49261904Y-40858800D02*
X49309523Y-40763562D01*
X49309523Y-40763562D02*
X49309523Y-39954039D01*
X50214285Y-40287372D02*
X50214285Y-40954039D01*
X49976190Y-39906420D02*
X49738095Y-40620705D01*
X49738095Y-40620705D02*
X50357142Y-40620705D01*
X64124039Y-21666666D02*
X63647848Y-21999999D01*
X64124039Y-22238094D02*
X63124039Y-22238094D01*
X63124039Y-22238094D02*
X63124039Y-21857142D01*
X63124039Y-21857142D02*
X63171658Y-21761904D01*
X63171658Y-21761904D02*
X63219277Y-21714285D01*
X63219277Y-21714285D02*
X63314515Y-21666666D01*
X63314515Y-21666666D02*
X63457372Y-21666666D01*
X63457372Y-21666666D02*
X63552610Y-21714285D01*
X63552610Y-21714285D02*
X63600229Y-21761904D01*
X63600229Y-21761904D02*
X63647848Y-21857142D01*
X63647848Y-21857142D02*
X63647848Y-22238094D01*
X63124039Y-20761904D02*
X63124039Y-21238094D01*
X63124039Y-21238094D02*
X63600229Y-21285713D01*
X63600229Y-21285713D02*
X63552610Y-21238094D01*
X63552610Y-21238094D02*
X63504991Y-21142856D01*
X63504991Y-21142856D02*
X63504991Y-20904761D01*
X63504991Y-20904761D02*
X63552610Y-20809523D01*
X63552610Y-20809523D02*
X63600229Y-20761904D01*
X63600229Y-20761904D02*
X63695467Y-20714285D01*
X63695467Y-20714285D02*
X63933562Y-20714285D01*
X63933562Y-20714285D02*
X64028800Y-20761904D01*
X64028800Y-20761904D02*
X64076420Y-20809523D01*
X64076420Y-20809523D02*
X64124039Y-20904761D01*
X64124039Y-20904761D02*
X64124039Y-21142856D01*
X64124039Y-21142856D02*
X64076420Y-21238094D01*
X64076420Y-21238094D02*
X64028800Y-21285713D01*
X19418075Y-14608800D02*
X19370456Y-14656420D01*
X19370456Y-14656420D02*
X19227599Y-14704039D01*
X19227599Y-14704039D02*
X19132361Y-14704039D01*
X19132361Y-14704039D02*
X18989504Y-14656420D01*
X18989504Y-14656420D02*
X18894266Y-14561181D01*
X18894266Y-14561181D02*
X18846647Y-14465943D01*
X18846647Y-14465943D02*
X18799028Y-14275467D01*
X18799028Y-14275467D02*
X18799028Y-14132610D01*
X18799028Y-14132610D02*
X18846647Y-13942134D01*
X18846647Y-13942134D02*
X18894266Y-13846896D01*
X18894266Y-13846896D02*
X18989504Y-13751658D01*
X18989504Y-13751658D02*
X19132361Y-13704039D01*
X19132361Y-13704039D02*
X19227599Y-13704039D01*
X19227599Y-13704039D02*
X19370456Y-13751658D01*
X19370456Y-13751658D02*
X19418075Y-13799277D01*
X20370456Y-14704039D02*
X19799028Y-14704039D01*
X20084742Y-14704039D02*
X20084742Y-13704039D01*
X20084742Y-13704039D02*
X19989504Y-13846896D01*
X19989504Y-13846896D02*
X19894266Y-13942134D01*
X19894266Y-13942134D02*
X19799028Y-13989753D01*
X20703790Y-13704039D02*
X21370456Y-13704039D01*
X21370456Y-13704039D02*
X20941885Y-14704039D01*
X33857142Y-44358800D02*
X33809523Y-44406420D01*
X33809523Y-44406420D02*
X33666666Y-44454039D01*
X33666666Y-44454039D02*
X33571428Y-44454039D01*
X33571428Y-44454039D02*
X33428571Y-44406420D01*
X33428571Y-44406420D02*
X33333333Y-44311181D01*
X33333333Y-44311181D02*
X33285714Y-44215943D01*
X33285714Y-44215943D02*
X33238095Y-44025467D01*
X33238095Y-44025467D02*
X33238095Y-43882610D01*
X33238095Y-43882610D02*
X33285714Y-43692134D01*
X33285714Y-43692134D02*
X33333333Y-43596896D01*
X33333333Y-43596896D02*
X33428571Y-43501658D01*
X33428571Y-43501658D02*
X33571428Y-43454039D01*
X33571428Y-43454039D02*
X33666666Y-43454039D01*
X33666666Y-43454039D02*
X33809523Y-43501658D01*
X33809523Y-43501658D02*
X33857142Y-43549277D01*
X34238095Y-43549277D02*
X34285714Y-43501658D01*
X34285714Y-43501658D02*
X34380952Y-43454039D01*
X34380952Y-43454039D02*
X34619047Y-43454039D01*
X34619047Y-43454039D02*
X34714285Y-43501658D01*
X34714285Y-43501658D02*
X34761904Y-43549277D01*
X34761904Y-43549277D02*
X34809523Y-43644515D01*
X34809523Y-43644515D02*
X34809523Y-43739753D01*
X34809523Y-43739753D02*
X34761904Y-43882610D01*
X34761904Y-43882610D02*
X34190476Y-44454039D01*
X34190476Y-44454039D02*
X34809523Y-44454039D01*
X35428571Y-43454039D02*
X35523809Y-43454039D01*
X35523809Y-43454039D02*
X35619047Y-43501658D01*
X35619047Y-43501658D02*
X35666666Y-43549277D01*
X35666666Y-43549277D02*
X35714285Y-43644515D01*
X35714285Y-43644515D02*
X35761904Y-43834991D01*
X35761904Y-43834991D02*
X35761904Y-44073086D01*
X35761904Y-44073086D02*
X35714285Y-44263562D01*
X35714285Y-44263562D02*
X35666666Y-44358800D01*
X35666666Y-44358800D02*
X35619047Y-44406420D01*
X35619047Y-44406420D02*
X35523809Y-44454039D01*
X35523809Y-44454039D02*
X35428571Y-44454039D01*
X35428571Y-44454039D02*
X35333333Y-44406420D01*
X35333333Y-44406420D02*
X35285714Y-44358800D01*
X35285714Y-44358800D02*
X35238095Y-44263562D01*
X35238095Y-44263562D02*
X35190476Y-44073086D01*
X35190476Y-44073086D02*
X35190476Y-43834991D01*
X35190476Y-43834991D02*
X35238095Y-43644515D01*
X35238095Y-43644515D02*
X35285714Y-43549277D01*
X35285714Y-43549277D02*
X35333333Y-43501658D01*
X35333333Y-43501658D02*
X35428571Y-43454039D01*
X19418075Y-10108800D02*
X19370456Y-10156420D01*
X19370456Y-10156420D02*
X19227599Y-10204039D01*
X19227599Y-10204039D02*
X19132361Y-10204039D01*
X19132361Y-10204039D02*
X18989504Y-10156420D01*
X18989504Y-10156420D02*
X18894266Y-10061181D01*
X18894266Y-10061181D02*
X18846647Y-9965943D01*
X18846647Y-9965943D02*
X18799028Y-9775467D01*
X18799028Y-9775467D02*
X18799028Y-9632610D01*
X18799028Y-9632610D02*
X18846647Y-9442134D01*
X18846647Y-9442134D02*
X18894266Y-9346896D01*
X18894266Y-9346896D02*
X18989504Y-9251658D01*
X18989504Y-9251658D02*
X19132361Y-9204039D01*
X19132361Y-9204039D02*
X19227599Y-9204039D01*
X19227599Y-9204039D02*
X19370456Y-9251658D01*
X19370456Y-9251658D02*
X19418075Y-9299277D01*
X20370456Y-10204039D02*
X19799028Y-10204039D01*
X20084742Y-10204039D02*
X20084742Y-9204039D01*
X20084742Y-9204039D02*
X19989504Y-9346896D01*
X19989504Y-9346896D02*
X19894266Y-9442134D01*
X19894266Y-9442134D02*
X19799028Y-9489753D01*
X21227599Y-9537372D02*
X21227599Y-10204039D01*
X20989504Y-9156420D02*
X20751409Y-9870705D01*
X20751409Y-9870705D02*
X21370456Y-9870705D01*
X19418075Y-11608800D02*
X19370456Y-11656420D01*
X19370456Y-11656420D02*
X19227599Y-11704039D01*
X19227599Y-11704039D02*
X19132361Y-11704039D01*
X19132361Y-11704039D02*
X18989504Y-11656420D01*
X18989504Y-11656420D02*
X18894266Y-11561181D01*
X18894266Y-11561181D02*
X18846647Y-11465943D01*
X18846647Y-11465943D02*
X18799028Y-11275467D01*
X18799028Y-11275467D02*
X18799028Y-11132610D01*
X18799028Y-11132610D02*
X18846647Y-10942134D01*
X18846647Y-10942134D02*
X18894266Y-10846896D01*
X18894266Y-10846896D02*
X18989504Y-10751658D01*
X18989504Y-10751658D02*
X19132361Y-10704039D01*
X19132361Y-10704039D02*
X19227599Y-10704039D01*
X19227599Y-10704039D02*
X19370456Y-10751658D01*
X19370456Y-10751658D02*
X19418075Y-10799277D01*
X20370456Y-11704039D02*
X19799028Y-11704039D01*
X20084742Y-11704039D02*
X20084742Y-10704039D01*
X20084742Y-10704039D02*
X19989504Y-10846896D01*
X19989504Y-10846896D02*
X19894266Y-10942134D01*
X19894266Y-10942134D02*
X19799028Y-10989753D01*
X21275218Y-10704039D02*
X20799028Y-10704039D01*
X20799028Y-10704039D02*
X20751409Y-11180229D01*
X20751409Y-11180229D02*
X20799028Y-11132610D01*
X20799028Y-11132610D02*
X20894266Y-11084991D01*
X20894266Y-11084991D02*
X21132361Y-11084991D01*
X21132361Y-11084991D02*
X21227599Y-11132610D01*
X21227599Y-11132610D02*
X21275218Y-11180229D01*
X21275218Y-11180229D02*
X21322837Y-11275467D01*
X21322837Y-11275467D02*
X21322837Y-11513562D01*
X21322837Y-11513562D02*
X21275218Y-11608800D01*
X21275218Y-11608800D02*
X21227599Y-11656420D01*
X21227599Y-11656420D02*
X21132361Y-11704039D01*
X21132361Y-11704039D02*
X20894266Y-11704039D01*
X20894266Y-11704039D02*
X20799028Y-11656420D01*
X20799028Y-11656420D02*
X20751409Y-11608800D01*
X40304039Y-16988094D02*
X39304039Y-16988094D01*
X39304039Y-16988094D02*
X39304039Y-16749999D01*
X39304039Y-16749999D02*
X39351658Y-16607142D01*
X39351658Y-16607142D02*
X39446896Y-16511904D01*
X39446896Y-16511904D02*
X39542134Y-16464285D01*
X39542134Y-16464285D02*
X39732610Y-16416666D01*
X39732610Y-16416666D02*
X39875467Y-16416666D01*
X39875467Y-16416666D02*
X40065943Y-16464285D01*
X40065943Y-16464285D02*
X40161181Y-16511904D01*
X40161181Y-16511904D02*
X40256420Y-16607142D01*
X40256420Y-16607142D02*
X40304039Y-16749999D01*
X40304039Y-16749999D02*
X40304039Y-16988094D01*
X39732610Y-15845237D02*
X39684991Y-15940475D01*
X39684991Y-15940475D02*
X39637372Y-15988094D01*
X39637372Y-15988094D02*
X39542134Y-16035713D01*
X39542134Y-16035713D02*
X39494515Y-16035713D01*
X39494515Y-16035713D02*
X39399277Y-15988094D01*
X39399277Y-15988094D02*
X39351658Y-15940475D01*
X39351658Y-15940475D02*
X39304039Y-15845237D01*
X39304039Y-15845237D02*
X39304039Y-15654761D01*
X39304039Y-15654761D02*
X39351658Y-15559523D01*
X39351658Y-15559523D02*
X39399277Y-15511904D01*
X39399277Y-15511904D02*
X39494515Y-15464285D01*
X39494515Y-15464285D02*
X39542134Y-15464285D01*
X39542134Y-15464285D02*
X39637372Y-15511904D01*
X39637372Y-15511904D02*
X39684991Y-15559523D01*
X39684991Y-15559523D02*
X39732610Y-15654761D01*
X39732610Y-15654761D02*
X39732610Y-15845237D01*
X39732610Y-15845237D02*
X39780229Y-15940475D01*
X39780229Y-15940475D02*
X39827848Y-15988094D01*
X39827848Y-15988094D02*
X39923086Y-16035713D01*
X39923086Y-16035713D02*
X40113562Y-16035713D01*
X40113562Y-16035713D02*
X40208800Y-15988094D01*
X40208800Y-15988094D02*
X40256420Y-15940475D01*
X40256420Y-15940475D02*
X40304039Y-15845237D01*
X40304039Y-15845237D02*
X40304039Y-15654761D01*
X40304039Y-15654761D02*
X40256420Y-15559523D01*
X40256420Y-15559523D02*
X40208800Y-15511904D01*
X40208800Y-15511904D02*
X40113562Y-15464285D01*
X40113562Y-15464285D02*
X39923086Y-15464285D01*
X39923086Y-15464285D02*
X39827848Y-15511904D01*
X39827848Y-15511904D02*
X39780229Y-15559523D01*
X39780229Y-15559523D02*
X39732610Y-15654761D01*
X53403333Y-5858800D02*
X53355714Y-5906420D01*
X53355714Y-5906420D02*
X53212857Y-5954039D01*
X53212857Y-5954039D02*
X53117619Y-5954039D01*
X53117619Y-5954039D02*
X52974762Y-5906420D01*
X52974762Y-5906420D02*
X52879524Y-5811181D01*
X52879524Y-5811181D02*
X52831905Y-5715943D01*
X52831905Y-5715943D02*
X52784286Y-5525467D01*
X52784286Y-5525467D02*
X52784286Y-5382610D01*
X52784286Y-5382610D02*
X52831905Y-5192134D01*
X52831905Y-5192134D02*
X52879524Y-5096896D01*
X52879524Y-5096896D02*
X52974762Y-5001658D01*
X52974762Y-5001658D02*
X53117619Y-4954039D01*
X53117619Y-4954039D02*
X53212857Y-4954039D01*
X53212857Y-4954039D02*
X53355714Y-5001658D01*
X53355714Y-5001658D02*
X53403333Y-5049277D01*
X53784286Y-5049277D02*
X53831905Y-5001658D01*
X53831905Y-5001658D02*
X53927143Y-4954039D01*
X53927143Y-4954039D02*
X54165238Y-4954039D01*
X54165238Y-4954039D02*
X54260476Y-5001658D01*
X54260476Y-5001658D02*
X54308095Y-5049277D01*
X54308095Y-5049277D02*
X54355714Y-5144515D01*
X54355714Y-5144515D02*
X54355714Y-5239753D01*
X54355714Y-5239753D02*
X54308095Y-5382610D01*
X54308095Y-5382610D02*
X53736667Y-5954039D01*
X53736667Y-5954039D02*
X54355714Y-5954039D01*
X24111905Y-12204039D02*
X24111905Y-11204039D01*
X24111905Y-11204039D02*
X24350000Y-11204039D01*
X24350000Y-11204039D02*
X24492857Y-11251658D01*
X24492857Y-11251658D02*
X24588095Y-11346896D01*
X24588095Y-11346896D02*
X24635714Y-11442134D01*
X24635714Y-11442134D02*
X24683333Y-11632610D01*
X24683333Y-11632610D02*
X24683333Y-11775467D01*
X24683333Y-11775467D02*
X24635714Y-11965943D01*
X24635714Y-11965943D02*
X24588095Y-12061181D01*
X24588095Y-12061181D02*
X24492857Y-12156420D01*
X24492857Y-12156420D02*
X24350000Y-12204039D01*
X24350000Y-12204039D02*
X24111905Y-12204039D01*
X25588095Y-11204039D02*
X25111905Y-11204039D01*
X25111905Y-11204039D02*
X25064286Y-11680229D01*
X25064286Y-11680229D02*
X25111905Y-11632610D01*
X25111905Y-11632610D02*
X25207143Y-11584991D01*
X25207143Y-11584991D02*
X25445238Y-11584991D01*
X25445238Y-11584991D02*
X25540476Y-11632610D01*
X25540476Y-11632610D02*
X25588095Y-11680229D01*
X25588095Y-11680229D02*
X25635714Y-11775467D01*
X25635714Y-11775467D02*
X25635714Y-12013562D01*
X25635714Y-12013562D02*
X25588095Y-12108800D01*
X25588095Y-12108800D02*
X25540476Y-12156420D01*
X25540476Y-12156420D02*
X25445238Y-12204039D01*
X25445238Y-12204039D02*
X25207143Y-12204039D01*
X25207143Y-12204039D02*
X25111905Y-12156420D01*
X25111905Y-12156420D02*
X25064286Y-12108800D01*
X21848511Y-25399277D02*
X21753273Y-25351658D01*
X21753273Y-25351658D02*
X21658035Y-25256420D01*
X21658035Y-25256420D02*
X21515178Y-25113562D01*
X21515178Y-25113562D02*
X21419940Y-25065943D01*
X21419940Y-25065943D02*
X21324702Y-25065943D01*
X21372321Y-25304039D02*
X21277083Y-25256420D01*
X21277083Y-25256420D02*
X21181845Y-25161181D01*
X21181845Y-25161181D02*
X21134226Y-24970705D01*
X21134226Y-24970705D02*
X21134226Y-24637372D01*
X21134226Y-24637372D02*
X21181845Y-24446896D01*
X21181845Y-24446896D02*
X21277083Y-24351658D01*
X21277083Y-24351658D02*
X21372321Y-24304039D01*
X21372321Y-24304039D02*
X21562797Y-24304039D01*
X21562797Y-24304039D02*
X21658035Y-24351658D01*
X21658035Y-24351658D02*
X21753273Y-24446896D01*
X21753273Y-24446896D02*
X21800892Y-24637372D01*
X21800892Y-24637372D02*
X21800892Y-24970705D01*
X21800892Y-24970705D02*
X21753273Y-25161181D01*
X21753273Y-25161181D02*
X21658035Y-25256420D01*
X21658035Y-25256420D02*
X21562797Y-25304039D01*
X21562797Y-25304039D02*
X21372321Y-25304039D01*
X22753273Y-25304039D02*
X22181845Y-25304039D01*
X22467559Y-25304039D02*
X22467559Y-24304039D01*
X22467559Y-24304039D02*
X22372321Y-24446896D01*
X22372321Y-24446896D02*
X22277083Y-24542134D01*
X22277083Y-24542134D02*
X22181845Y-24589753D01*
X19418075Y-13108800D02*
X19370456Y-13156420D01*
X19370456Y-13156420D02*
X19227599Y-13204039D01*
X19227599Y-13204039D02*
X19132361Y-13204039D01*
X19132361Y-13204039D02*
X18989504Y-13156420D01*
X18989504Y-13156420D02*
X18894266Y-13061181D01*
X18894266Y-13061181D02*
X18846647Y-12965943D01*
X18846647Y-12965943D02*
X18799028Y-12775467D01*
X18799028Y-12775467D02*
X18799028Y-12632610D01*
X18799028Y-12632610D02*
X18846647Y-12442134D01*
X18846647Y-12442134D02*
X18894266Y-12346896D01*
X18894266Y-12346896D02*
X18989504Y-12251658D01*
X18989504Y-12251658D02*
X19132361Y-12204039D01*
X19132361Y-12204039D02*
X19227599Y-12204039D01*
X19227599Y-12204039D02*
X19370456Y-12251658D01*
X19370456Y-12251658D02*
X19418075Y-12299277D01*
X20370456Y-13204039D02*
X19799028Y-13204039D01*
X20084742Y-13204039D02*
X20084742Y-12204039D01*
X20084742Y-12204039D02*
X19989504Y-12346896D01*
X19989504Y-12346896D02*
X19894266Y-12442134D01*
X19894266Y-12442134D02*
X19799028Y-12489753D01*
X21227599Y-12204039D02*
X21037123Y-12204039D01*
X21037123Y-12204039D02*
X20941885Y-12251658D01*
X20941885Y-12251658D02*
X20894266Y-12299277D01*
X20894266Y-12299277D02*
X20799028Y-12442134D01*
X20799028Y-12442134D02*
X20751409Y-12632610D01*
X20751409Y-12632610D02*
X20751409Y-13013562D01*
X20751409Y-13013562D02*
X20799028Y-13108800D01*
X20799028Y-13108800D02*
X20846647Y-13156420D01*
X20846647Y-13156420D02*
X20941885Y-13204039D01*
X20941885Y-13204039D02*
X21132361Y-13204039D01*
X21132361Y-13204039D02*
X21227599Y-13156420D01*
X21227599Y-13156420D02*
X21275218Y-13108800D01*
X21275218Y-13108800D02*
X21322837Y-13013562D01*
X21322837Y-13013562D02*
X21322837Y-12775467D01*
X21322837Y-12775467D02*
X21275218Y-12680229D01*
X21275218Y-12680229D02*
X21227599Y-12632610D01*
X21227599Y-12632610D02*
X21132361Y-12584991D01*
X21132361Y-12584991D02*
X20941885Y-12584991D01*
X20941885Y-12584991D02*
X20846647Y-12632610D01*
X20846647Y-12632610D02*
X20799028Y-12680229D01*
X20799028Y-12680229D02*
X20751409Y-12775467D01*
X53383333Y-4454039D02*
X53050000Y-3977848D01*
X52811905Y-4454039D02*
X52811905Y-3454039D01*
X52811905Y-3454039D02*
X53192857Y-3454039D01*
X53192857Y-3454039D02*
X53288095Y-3501658D01*
X53288095Y-3501658D02*
X53335714Y-3549277D01*
X53335714Y-3549277D02*
X53383333Y-3644515D01*
X53383333Y-3644515D02*
X53383333Y-3787372D01*
X53383333Y-3787372D02*
X53335714Y-3882610D01*
X53335714Y-3882610D02*
X53288095Y-3930229D01*
X53288095Y-3930229D02*
X53192857Y-3977848D01*
X53192857Y-3977848D02*
X52811905Y-3977848D01*
X54335714Y-4454039D02*
X53764286Y-4454039D01*
X54050000Y-4454039D02*
X54050000Y-3454039D01*
X54050000Y-3454039D02*
X53954762Y-3596896D01*
X53954762Y-3596896D02*
X53859524Y-3692134D01*
X53859524Y-3692134D02*
X53764286Y-3739753D01*
X42454039Y-16938094D02*
X41454039Y-16938094D01*
X41454039Y-16938094D02*
X41454039Y-16699999D01*
X41454039Y-16699999D02*
X41501658Y-16557142D01*
X41501658Y-16557142D02*
X41596896Y-16461904D01*
X41596896Y-16461904D02*
X41692134Y-16414285D01*
X41692134Y-16414285D02*
X41882610Y-16366666D01*
X41882610Y-16366666D02*
X42025467Y-16366666D01*
X42025467Y-16366666D02*
X42215943Y-16414285D01*
X42215943Y-16414285D02*
X42311181Y-16461904D01*
X42311181Y-16461904D02*
X42406420Y-16557142D01*
X42406420Y-16557142D02*
X42454039Y-16699999D01*
X42454039Y-16699999D02*
X42454039Y-16938094D01*
X41454039Y-15509523D02*
X41454039Y-15699999D01*
X41454039Y-15699999D02*
X41501658Y-15795237D01*
X41501658Y-15795237D02*
X41549277Y-15842856D01*
X41549277Y-15842856D02*
X41692134Y-15938094D01*
X41692134Y-15938094D02*
X41882610Y-15985713D01*
X41882610Y-15985713D02*
X42263562Y-15985713D01*
X42263562Y-15985713D02*
X42358800Y-15938094D01*
X42358800Y-15938094D02*
X42406420Y-15890475D01*
X42406420Y-15890475D02*
X42454039Y-15795237D01*
X42454039Y-15795237D02*
X42454039Y-15604761D01*
X42454039Y-15604761D02*
X42406420Y-15509523D01*
X42406420Y-15509523D02*
X42358800Y-15461904D01*
X42358800Y-15461904D02*
X42263562Y-15414285D01*
X42263562Y-15414285D02*
X42025467Y-15414285D01*
X42025467Y-15414285D02*
X41930229Y-15461904D01*
X41930229Y-15461904D02*
X41882610Y-15509523D01*
X41882610Y-15509523D02*
X41834991Y-15604761D01*
X41834991Y-15604761D02*
X41834991Y-15795237D01*
X41834991Y-15795237D02*
X41882610Y-15890475D01*
X41882610Y-15890475D02*
X41930229Y-15938094D01*
X41930229Y-15938094D02*
X42025467Y-15985713D01*
X16668075Y-9358800D02*
X16620456Y-9406420D01*
X16620456Y-9406420D02*
X16477599Y-9454039D01*
X16477599Y-9454039D02*
X16382361Y-9454039D01*
X16382361Y-9454039D02*
X16239504Y-9406420D01*
X16239504Y-9406420D02*
X16144266Y-9311181D01*
X16144266Y-9311181D02*
X16096647Y-9215943D01*
X16096647Y-9215943D02*
X16049028Y-9025467D01*
X16049028Y-9025467D02*
X16049028Y-8882610D01*
X16049028Y-8882610D02*
X16096647Y-8692134D01*
X16096647Y-8692134D02*
X16144266Y-8596896D01*
X16144266Y-8596896D02*
X16239504Y-8501658D01*
X16239504Y-8501658D02*
X16382361Y-8454039D01*
X16382361Y-8454039D02*
X16477599Y-8454039D01*
X16477599Y-8454039D02*
X16620456Y-8501658D01*
X16620456Y-8501658D02*
X16668075Y-8549277D01*
X17620456Y-9454039D02*
X17049028Y-9454039D01*
X17334742Y-9454039D02*
X17334742Y-8454039D01*
X17334742Y-8454039D02*
X17239504Y-8596896D01*
X17239504Y-8596896D02*
X17144266Y-8692134D01*
X17144266Y-8692134D02*
X17049028Y-8739753D01*
X17953790Y-8454039D02*
X18572837Y-8454039D01*
X18572837Y-8454039D02*
X18239504Y-8834991D01*
X18239504Y-8834991D02*
X18382361Y-8834991D01*
X18382361Y-8834991D02*
X18477599Y-8882610D01*
X18477599Y-8882610D02*
X18525218Y-8930229D01*
X18525218Y-8930229D02*
X18572837Y-9025467D01*
X18572837Y-9025467D02*
X18572837Y-9263562D01*
X18572837Y-9263562D02*
X18525218Y-9358800D01*
X18525218Y-9358800D02*
X18477599Y-9406420D01*
X18477599Y-9406420D02*
X18382361Y-9454039D01*
X18382361Y-9454039D02*
X18096647Y-9454039D01*
X18096647Y-9454039D02*
X18001409Y-9406420D01*
X18001409Y-9406420D02*
X17953790Y-9358800D01*
X75238095Y-20954039D02*
X75238095Y-21763562D01*
X75238095Y-21763562D02*
X75285714Y-21858800D01*
X75285714Y-21858800D02*
X75333333Y-21906420D01*
X75333333Y-21906420D02*
X75428571Y-21954039D01*
X75428571Y-21954039D02*
X75619047Y-21954039D01*
X75619047Y-21954039D02*
X75714285Y-21906420D01*
X75714285Y-21906420D02*
X75761904Y-21858800D01*
X75761904Y-21858800D02*
X75809523Y-21763562D01*
X75809523Y-21763562D02*
X75809523Y-20954039D01*
X76238095Y-21049277D02*
X76285714Y-21001658D01*
X76285714Y-21001658D02*
X76380952Y-20954039D01*
X76380952Y-20954039D02*
X76619047Y-20954039D01*
X76619047Y-20954039D02*
X76714285Y-21001658D01*
X76714285Y-21001658D02*
X76761904Y-21049277D01*
X76761904Y-21049277D02*
X76809523Y-21144515D01*
X76809523Y-21144515D02*
X76809523Y-21239753D01*
X76809523Y-21239753D02*
X76761904Y-21382610D01*
X76761904Y-21382610D02*
X76190476Y-21954039D01*
X76190476Y-21954039D02*
X76809523Y-21954039D01*
X43858800Y-45642857D02*
X43906420Y-45690476D01*
X43906420Y-45690476D02*
X43954039Y-45833333D01*
X43954039Y-45833333D02*
X43954039Y-45928571D01*
X43954039Y-45928571D02*
X43906420Y-46071428D01*
X43906420Y-46071428D02*
X43811181Y-46166666D01*
X43811181Y-46166666D02*
X43715943Y-46214285D01*
X43715943Y-46214285D02*
X43525467Y-46261904D01*
X43525467Y-46261904D02*
X43382610Y-46261904D01*
X43382610Y-46261904D02*
X43192134Y-46214285D01*
X43192134Y-46214285D02*
X43096896Y-46166666D01*
X43096896Y-46166666D02*
X43001658Y-46071428D01*
X43001658Y-46071428D02*
X42954039Y-45928571D01*
X42954039Y-45928571D02*
X42954039Y-45833333D01*
X42954039Y-45833333D02*
X43001658Y-45690476D01*
X43001658Y-45690476D02*
X43049277Y-45642857D01*
X43049277Y-45261904D02*
X43001658Y-45214285D01*
X43001658Y-45214285D02*
X42954039Y-45119047D01*
X42954039Y-45119047D02*
X42954039Y-44880952D01*
X42954039Y-44880952D02*
X43001658Y-44785714D01*
X43001658Y-44785714D02*
X43049277Y-44738095D01*
X43049277Y-44738095D02*
X43144515Y-44690476D01*
X43144515Y-44690476D02*
X43239753Y-44690476D01*
X43239753Y-44690476D02*
X43382610Y-44738095D01*
X43382610Y-44738095D02*
X43954039Y-45309523D01*
X43954039Y-45309523D02*
X43954039Y-44690476D01*
X43954039Y-43738095D02*
X43954039Y-44309523D01*
X43954039Y-44023809D02*
X42954039Y-44023809D01*
X42954039Y-44023809D02*
X43096896Y-44119047D01*
X43096896Y-44119047D02*
X43192134Y-44214285D01*
X43192134Y-44214285D02*
X43239753Y-44309523D01*
X24111905Y-4454039D02*
X24111905Y-3454039D01*
X24111905Y-3454039D02*
X24350000Y-3454039D01*
X24350000Y-3454039D02*
X24492857Y-3501658D01*
X24492857Y-3501658D02*
X24588095Y-3596896D01*
X24588095Y-3596896D02*
X24635714Y-3692134D01*
X24635714Y-3692134D02*
X24683333Y-3882610D01*
X24683333Y-3882610D02*
X24683333Y-4025467D01*
X24683333Y-4025467D02*
X24635714Y-4215943D01*
X24635714Y-4215943D02*
X24588095Y-4311181D01*
X24588095Y-4311181D02*
X24492857Y-4406420D01*
X24492857Y-4406420D02*
X24350000Y-4454039D01*
X24350000Y-4454039D02*
X24111905Y-4454039D01*
X25540476Y-3787372D02*
X25540476Y-4454039D01*
X25302381Y-3406420D02*
X25064286Y-4120705D01*
X25064286Y-4120705D02*
X25683333Y-4120705D01*
X45261905Y-4954039D02*
X45261905Y-3954039D01*
X45261905Y-3954039D02*
X45500000Y-3954039D01*
X45500000Y-3954039D02*
X45642857Y-4001658D01*
X45642857Y-4001658D02*
X45738095Y-4096896D01*
X45738095Y-4096896D02*
X45785714Y-4192134D01*
X45785714Y-4192134D02*
X45833333Y-4382610D01*
X45833333Y-4382610D02*
X45833333Y-4525467D01*
X45833333Y-4525467D02*
X45785714Y-4715943D01*
X45785714Y-4715943D02*
X45738095Y-4811181D01*
X45738095Y-4811181D02*
X45642857Y-4906420D01*
X45642857Y-4906420D02*
X45500000Y-4954039D01*
X45500000Y-4954039D02*
X45261905Y-4954039D01*
X46214286Y-4049277D02*
X46261905Y-4001658D01*
X46261905Y-4001658D02*
X46357143Y-3954039D01*
X46357143Y-3954039D02*
X46595238Y-3954039D01*
X46595238Y-3954039D02*
X46690476Y-4001658D01*
X46690476Y-4001658D02*
X46738095Y-4049277D01*
X46738095Y-4049277D02*
X46785714Y-4144515D01*
X46785714Y-4144515D02*
X46785714Y-4239753D01*
X46785714Y-4239753D02*
X46738095Y-4382610D01*
X46738095Y-4382610D02*
X46166667Y-4954039D01*
X46166667Y-4954039D02*
X46785714Y-4954039D01*
X14416666Y-8254039D02*
X14416666Y-8968324D01*
X14416666Y-8968324D02*
X14369047Y-9111181D01*
X14369047Y-9111181D02*
X14273809Y-9206420D01*
X14273809Y-9206420D02*
X14130952Y-9254039D01*
X14130952Y-9254039D02*
X14035714Y-9254039D01*
X15416666Y-9254039D02*
X14845238Y-9254039D01*
X15130952Y-9254039D02*
X15130952Y-8254039D01*
X15130952Y-8254039D02*
X15035714Y-8396896D01*
X15035714Y-8396896D02*
X14940476Y-8492134D01*
X14940476Y-8492134D02*
X14845238Y-8539753D01*
X34166666Y-26454039D02*
X34166666Y-27168324D01*
X34166666Y-27168324D02*
X34119047Y-27311181D01*
X34119047Y-27311181D02*
X34023809Y-27406420D01*
X34023809Y-27406420D02*
X33880952Y-27454039D01*
X33880952Y-27454039D02*
X33785714Y-27454039D01*
X35071428Y-26787372D02*
X35071428Y-27454039D01*
X34833333Y-26406420D02*
X34595238Y-27120705D01*
X34595238Y-27120705D02*
X35214285Y-27120705D01*
X41857142Y-14454039D02*
X41523809Y-13977848D01*
X41285714Y-14454039D02*
X41285714Y-13454039D01*
X41285714Y-13454039D02*
X41666666Y-13454039D01*
X41666666Y-13454039D02*
X41761904Y-13501658D01*
X41761904Y-13501658D02*
X41809523Y-13549277D01*
X41809523Y-13549277D02*
X41857142Y-13644515D01*
X41857142Y-13644515D02*
X41857142Y-13787372D01*
X41857142Y-13787372D02*
X41809523Y-13882610D01*
X41809523Y-13882610D02*
X41761904Y-13930229D01*
X41761904Y-13930229D02*
X41666666Y-13977848D01*
X41666666Y-13977848D02*
X41285714Y-13977848D01*
X42809523Y-14454039D02*
X42238095Y-14454039D01*
X42523809Y-14454039D02*
X42523809Y-13454039D01*
X42523809Y-13454039D02*
X42428571Y-13596896D01*
X42428571Y-13596896D02*
X42333333Y-13692134D01*
X42333333Y-13692134D02*
X42238095Y-13739753D01*
X43761904Y-14454039D02*
X43190476Y-14454039D01*
X43476190Y-14454039D02*
X43476190Y-13454039D01*
X43476190Y-13454039D02*
X43380952Y-13596896D01*
X43380952Y-13596896D02*
X43285714Y-13692134D01*
X43285714Y-13692134D02*
X43190476Y-13739753D01*
X42333333Y-42954039D02*
X42000000Y-42477848D01*
X41761905Y-42954039D02*
X41761905Y-41954039D01*
X41761905Y-41954039D02*
X42142857Y-41954039D01*
X42142857Y-41954039D02*
X42238095Y-42001658D01*
X42238095Y-42001658D02*
X42285714Y-42049277D01*
X42285714Y-42049277D02*
X42333333Y-42144515D01*
X42333333Y-42144515D02*
X42333333Y-42287372D01*
X42333333Y-42287372D02*
X42285714Y-42382610D01*
X42285714Y-42382610D02*
X42238095Y-42430229D01*
X42238095Y-42430229D02*
X42142857Y-42477848D01*
X42142857Y-42477848D02*
X41761905Y-42477848D01*
X42666667Y-41954039D02*
X43333333Y-41954039D01*
X43333333Y-41954039D02*
X42904762Y-42954039D01*
X20358800Y-44142857D02*
X20406420Y-44190476D01*
X20406420Y-44190476D02*
X20454039Y-44333333D01*
X20454039Y-44333333D02*
X20454039Y-44428571D01*
X20454039Y-44428571D02*
X20406420Y-44571428D01*
X20406420Y-44571428D02*
X20311181Y-44666666D01*
X20311181Y-44666666D02*
X20215943Y-44714285D01*
X20215943Y-44714285D02*
X20025467Y-44761904D01*
X20025467Y-44761904D02*
X19882610Y-44761904D01*
X19882610Y-44761904D02*
X19692134Y-44714285D01*
X19692134Y-44714285D02*
X19596896Y-44666666D01*
X19596896Y-44666666D02*
X19501658Y-44571428D01*
X19501658Y-44571428D02*
X19454039Y-44428571D01*
X19454039Y-44428571D02*
X19454039Y-44333333D01*
X19454039Y-44333333D02*
X19501658Y-44190476D01*
X19501658Y-44190476D02*
X19549277Y-44142857D01*
X20454039Y-43190476D02*
X20454039Y-43761904D01*
X20454039Y-43476190D02*
X19454039Y-43476190D01*
X19454039Y-43476190D02*
X19596896Y-43571428D01*
X19596896Y-43571428D02*
X19692134Y-43666666D01*
X19692134Y-43666666D02*
X19739753Y-43761904D01*
X20454039Y-42714285D02*
X20454039Y-42523809D01*
X20454039Y-42523809D02*
X20406420Y-42428571D01*
X20406420Y-42428571D02*
X20358800Y-42380952D01*
X20358800Y-42380952D02*
X20215943Y-42285714D01*
X20215943Y-42285714D02*
X20025467Y-42238095D01*
X20025467Y-42238095D02*
X19644515Y-42238095D01*
X19644515Y-42238095D02*
X19549277Y-42285714D01*
X19549277Y-42285714D02*
X19501658Y-42333333D01*
X19501658Y-42333333D02*
X19454039Y-42428571D01*
X19454039Y-42428571D02*
X19454039Y-42619047D01*
X19454039Y-42619047D02*
X19501658Y-42714285D01*
X19501658Y-42714285D02*
X19549277Y-42761904D01*
X19549277Y-42761904D02*
X19644515Y-42809523D01*
X19644515Y-42809523D02*
X19882610Y-42809523D01*
X19882610Y-42809523D02*
X19977848Y-42761904D01*
X19977848Y-42761904D02*
X20025467Y-42714285D01*
X20025467Y-42714285D02*
X20073086Y-42619047D01*
X20073086Y-42619047D02*
X20073086Y-42428571D01*
X20073086Y-42428571D02*
X20025467Y-42333333D01*
X20025467Y-42333333D02*
X19977848Y-42285714D01*
X19977848Y-42285714D02*
X19882610Y-42238095D01*
X19418075Y-16108800D02*
X19370456Y-16156420D01*
X19370456Y-16156420D02*
X19227599Y-16204039D01*
X19227599Y-16204039D02*
X19132361Y-16204039D01*
X19132361Y-16204039D02*
X18989504Y-16156420D01*
X18989504Y-16156420D02*
X18894266Y-16061181D01*
X18894266Y-16061181D02*
X18846647Y-15965943D01*
X18846647Y-15965943D02*
X18799028Y-15775467D01*
X18799028Y-15775467D02*
X18799028Y-15632610D01*
X18799028Y-15632610D02*
X18846647Y-15442134D01*
X18846647Y-15442134D02*
X18894266Y-15346896D01*
X18894266Y-15346896D02*
X18989504Y-15251658D01*
X18989504Y-15251658D02*
X19132361Y-15204039D01*
X19132361Y-15204039D02*
X19227599Y-15204039D01*
X19227599Y-15204039D02*
X19370456Y-15251658D01*
X19370456Y-15251658D02*
X19418075Y-15299277D01*
X19989504Y-15632610D02*
X19894266Y-15584991D01*
X19894266Y-15584991D02*
X19846647Y-15537372D01*
X19846647Y-15537372D02*
X19799028Y-15442134D01*
X19799028Y-15442134D02*
X19799028Y-15394515D01*
X19799028Y-15394515D02*
X19846647Y-15299277D01*
X19846647Y-15299277D02*
X19894266Y-15251658D01*
X19894266Y-15251658D02*
X19989504Y-15204039D01*
X19989504Y-15204039D02*
X20179980Y-15204039D01*
X20179980Y-15204039D02*
X20275218Y-15251658D01*
X20275218Y-15251658D02*
X20322837Y-15299277D01*
X20322837Y-15299277D02*
X20370456Y-15394515D01*
X20370456Y-15394515D02*
X20370456Y-15442134D01*
X20370456Y-15442134D02*
X20322837Y-15537372D01*
X20322837Y-15537372D02*
X20275218Y-15584991D01*
X20275218Y-15584991D02*
X20179980Y-15632610D01*
X20179980Y-15632610D02*
X19989504Y-15632610D01*
X19989504Y-15632610D02*
X19894266Y-15680229D01*
X19894266Y-15680229D02*
X19846647Y-15727848D01*
X19846647Y-15727848D02*
X19799028Y-15823086D01*
X19799028Y-15823086D02*
X19799028Y-16013562D01*
X19799028Y-16013562D02*
X19846647Y-16108800D01*
X19846647Y-16108800D02*
X19894266Y-16156420D01*
X19894266Y-16156420D02*
X19989504Y-16204039D01*
X19989504Y-16204039D02*
X20179980Y-16204039D01*
X20179980Y-16204039D02*
X20275218Y-16156420D01*
X20275218Y-16156420D02*
X20322837Y-16108800D01*
X20322837Y-16108800D02*
X20370456Y-16013562D01*
X20370456Y-16013562D02*
X20370456Y-15823086D01*
X20370456Y-15823086D02*
X20322837Y-15727848D01*
X20322837Y-15727848D02*
X20275218Y-15680229D01*
X20275218Y-15680229D02*
X20179980Y-15632610D01*
X8738095Y-45954039D02*
X8738095Y-46763562D01*
X8738095Y-46763562D02*
X8785714Y-46858800D01*
X8785714Y-46858800D02*
X8833333Y-46906420D01*
X8833333Y-46906420D02*
X8928571Y-46954039D01*
X8928571Y-46954039D02*
X9119047Y-46954039D01*
X9119047Y-46954039D02*
X9214285Y-46906420D01*
X9214285Y-46906420D02*
X9261904Y-46858800D01*
X9261904Y-46858800D02*
X9309523Y-46763562D01*
X9309523Y-46763562D02*
X9309523Y-45954039D01*
X10261904Y-45954039D02*
X9785714Y-45954039D01*
X9785714Y-45954039D02*
X9738095Y-46430229D01*
X9738095Y-46430229D02*
X9785714Y-46382610D01*
X9785714Y-46382610D02*
X9880952Y-46334991D01*
X9880952Y-46334991D02*
X10119047Y-46334991D01*
X10119047Y-46334991D02*
X10214285Y-46382610D01*
X10214285Y-46382610D02*
X10261904Y-46430229D01*
X10261904Y-46430229D02*
X10309523Y-46525467D01*
X10309523Y-46525467D02*
X10309523Y-46763562D01*
X10309523Y-46763562D02*
X10261904Y-46858800D01*
X10261904Y-46858800D02*
X10214285Y-46906420D01*
X10214285Y-46906420D02*
X10119047Y-46954039D01*
X10119047Y-46954039D02*
X9880952Y-46954039D01*
X9880952Y-46954039D02*
X9785714Y-46906420D01*
X9785714Y-46906420D02*
X9738095Y-46858800D01*
X33857142Y-20858800D02*
X33809523Y-20906420D01*
X33809523Y-20906420D02*
X33666666Y-20954039D01*
X33666666Y-20954039D02*
X33571428Y-20954039D01*
X33571428Y-20954039D02*
X33428571Y-20906420D01*
X33428571Y-20906420D02*
X33333333Y-20811181D01*
X33333333Y-20811181D02*
X33285714Y-20715943D01*
X33285714Y-20715943D02*
X33238095Y-20525467D01*
X33238095Y-20525467D02*
X33238095Y-20382610D01*
X33238095Y-20382610D02*
X33285714Y-20192134D01*
X33285714Y-20192134D02*
X33333333Y-20096896D01*
X33333333Y-20096896D02*
X33428571Y-20001658D01*
X33428571Y-20001658D02*
X33571428Y-19954039D01*
X33571428Y-19954039D02*
X33666666Y-19954039D01*
X33666666Y-19954039D02*
X33809523Y-20001658D01*
X33809523Y-20001658D02*
X33857142Y-20049277D01*
X34238095Y-20049277D02*
X34285714Y-20001658D01*
X34285714Y-20001658D02*
X34380952Y-19954039D01*
X34380952Y-19954039D02*
X34619047Y-19954039D01*
X34619047Y-19954039D02*
X34714285Y-20001658D01*
X34714285Y-20001658D02*
X34761904Y-20049277D01*
X34761904Y-20049277D02*
X34809523Y-20144515D01*
X34809523Y-20144515D02*
X34809523Y-20239753D01*
X34809523Y-20239753D02*
X34761904Y-20382610D01*
X34761904Y-20382610D02*
X34190476Y-20954039D01*
X34190476Y-20954039D02*
X34809523Y-20954039D01*
X35190476Y-20049277D02*
X35238095Y-20001658D01*
X35238095Y-20001658D02*
X35333333Y-19954039D01*
X35333333Y-19954039D02*
X35571428Y-19954039D01*
X35571428Y-19954039D02*
X35666666Y-20001658D01*
X35666666Y-20001658D02*
X35714285Y-20049277D01*
X35714285Y-20049277D02*
X35761904Y-20144515D01*
X35761904Y-20144515D02*
X35761904Y-20239753D01*
X35761904Y-20239753D02*
X35714285Y-20382610D01*
X35714285Y-20382610D02*
X35142857Y-20954039D01*
X35142857Y-20954039D02*
X35761904Y-20954039D01*
X53608800Y-2166666D02*
X53656420Y-2214285D01*
X53656420Y-2214285D02*
X53704039Y-2357142D01*
X53704039Y-2357142D02*
X53704039Y-2452380D01*
X53704039Y-2452380D02*
X53656420Y-2595237D01*
X53656420Y-2595237D02*
X53561181Y-2690475D01*
X53561181Y-2690475D02*
X53465943Y-2738094D01*
X53465943Y-2738094D02*
X53275467Y-2785713D01*
X53275467Y-2785713D02*
X53132610Y-2785713D01*
X53132610Y-2785713D02*
X52942134Y-2738094D01*
X52942134Y-2738094D02*
X52846896Y-2690475D01*
X52846896Y-2690475D02*
X52751658Y-2595237D01*
X52751658Y-2595237D02*
X52704039Y-2452380D01*
X52704039Y-2452380D02*
X52704039Y-2357142D01*
X52704039Y-2357142D02*
X52751658Y-2214285D01*
X52751658Y-2214285D02*
X52799277Y-2166666D01*
X53037372Y-1309523D02*
X53704039Y-1309523D01*
X52656420Y-1547618D02*
X53370705Y-1785713D01*
X53370705Y-1785713D02*
X53370705Y-1166666D01*
X16668075Y-7858800D02*
X16620456Y-7906420D01*
X16620456Y-7906420D02*
X16477599Y-7954039D01*
X16477599Y-7954039D02*
X16382361Y-7954039D01*
X16382361Y-7954039D02*
X16239504Y-7906420D01*
X16239504Y-7906420D02*
X16144266Y-7811181D01*
X16144266Y-7811181D02*
X16096647Y-7715943D01*
X16096647Y-7715943D02*
X16049028Y-7525467D01*
X16049028Y-7525467D02*
X16049028Y-7382610D01*
X16049028Y-7382610D02*
X16096647Y-7192134D01*
X16096647Y-7192134D02*
X16144266Y-7096896D01*
X16144266Y-7096896D02*
X16239504Y-7001658D01*
X16239504Y-7001658D02*
X16382361Y-6954039D01*
X16382361Y-6954039D02*
X16477599Y-6954039D01*
X16477599Y-6954039D02*
X16620456Y-7001658D01*
X16620456Y-7001658D02*
X16668075Y-7049277D01*
X17620456Y-7954039D02*
X17049028Y-7954039D01*
X17334742Y-7954039D02*
X17334742Y-6954039D01*
X17334742Y-6954039D02*
X17239504Y-7096896D01*
X17239504Y-7096896D02*
X17144266Y-7192134D01*
X17144266Y-7192134D02*
X17049028Y-7239753D01*
X18001409Y-7049277D02*
X18049028Y-7001658D01*
X18049028Y-7001658D02*
X18144266Y-6954039D01*
X18144266Y-6954039D02*
X18382361Y-6954039D01*
X18382361Y-6954039D02*
X18477599Y-7001658D01*
X18477599Y-7001658D02*
X18525218Y-7049277D01*
X18525218Y-7049277D02*
X18572837Y-7144515D01*
X18572837Y-7144515D02*
X18572837Y-7239753D01*
X18572837Y-7239753D02*
X18525218Y-7382610D01*
X18525218Y-7382610D02*
X17953790Y-7954039D01*
X17953790Y-7954039D02*
X18572837Y-7954039D01*
X45833333Y-8858800D02*
X45785714Y-8906420D01*
X45785714Y-8906420D02*
X45642857Y-8954039D01*
X45642857Y-8954039D02*
X45547619Y-8954039D01*
X45547619Y-8954039D02*
X45404762Y-8906420D01*
X45404762Y-8906420D02*
X45309524Y-8811181D01*
X45309524Y-8811181D02*
X45261905Y-8715943D01*
X45261905Y-8715943D02*
X45214286Y-8525467D01*
X45214286Y-8525467D02*
X45214286Y-8382610D01*
X45214286Y-8382610D02*
X45261905Y-8192134D01*
X45261905Y-8192134D02*
X45309524Y-8096896D01*
X45309524Y-8096896D02*
X45404762Y-8001658D01*
X45404762Y-8001658D02*
X45547619Y-7954039D01*
X45547619Y-7954039D02*
X45642857Y-7954039D01*
X45642857Y-7954039D02*
X45785714Y-8001658D01*
X45785714Y-8001658D02*
X45833333Y-8049277D01*
X46166667Y-7954039D02*
X46785714Y-7954039D01*
X46785714Y-7954039D02*
X46452381Y-8334991D01*
X46452381Y-8334991D02*
X46595238Y-8334991D01*
X46595238Y-8334991D02*
X46690476Y-8382610D01*
X46690476Y-8382610D02*
X46738095Y-8430229D01*
X46738095Y-8430229D02*
X46785714Y-8525467D01*
X46785714Y-8525467D02*
X46785714Y-8763562D01*
X46785714Y-8763562D02*
X46738095Y-8858800D01*
X46738095Y-8858800D02*
X46690476Y-8906420D01*
X46690476Y-8906420D02*
X46595238Y-8954039D01*
X46595238Y-8954039D02*
X46309524Y-8954039D01*
X46309524Y-8954039D02*
X46214286Y-8906420D01*
X46214286Y-8906420D02*
X46166667Y-8858800D01*
D14*
X70357142Y-21954819D02*
X70023809Y-21478628D01*
X69785714Y-21954819D02*
X69785714Y-20954819D01*
X69785714Y-20954819D02*
X70166666Y-20954819D01*
X70166666Y-20954819D02*
X70261904Y-21002438D01*
X70261904Y-21002438D02*
X70309523Y-21050057D01*
X70309523Y-21050057D02*
X70357142Y-21145295D01*
X70357142Y-21145295D02*
X70357142Y-21288152D01*
X70357142Y-21288152D02*
X70309523Y-21383390D01*
X70309523Y-21383390D02*
X70261904Y-21431009D01*
X70261904Y-21431009D02*
X70166666Y-21478628D01*
X70166666Y-21478628D02*
X69785714Y-21478628D01*
X71309523Y-21954819D02*
X70738095Y-21954819D01*
X71023809Y-21954819D02*
X71023809Y-20954819D01*
X71023809Y-20954819D02*
X70928571Y-21097676D01*
X70928571Y-21097676D02*
X70833333Y-21192914D01*
X70833333Y-21192914D02*
X70738095Y-21240533D01*
X71690476Y-21050057D02*
X71738095Y-21002438D01*
X71738095Y-21002438D02*
X71833333Y-20954819D01*
X71833333Y-20954819D02*
X72071428Y-20954819D01*
X72071428Y-20954819D02*
X72166666Y-21002438D01*
X72166666Y-21002438D02*
X72214285Y-21050057D01*
X72214285Y-21050057D02*
X72261904Y-21145295D01*
X72261904Y-21145295D02*
X72261904Y-21240533D01*
X72261904Y-21240533D02*
X72214285Y-21383390D01*
X72214285Y-21383390D02*
X71642857Y-21954819D01*
X71642857Y-21954819D02*
X72261904Y-21954819D01*
D12*
X35357142Y-11358800D02*
X35309523Y-11406420D01*
X35309523Y-11406420D02*
X35166666Y-11454039D01*
X35166666Y-11454039D02*
X35071428Y-11454039D01*
X35071428Y-11454039D02*
X34928571Y-11406420D01*
X34928571Y-11406420D02*
X34833333Y-11311181D01*
X34833333Y-11311181D02*
X34785714Y-11215943D01*
X34785714Y-11215943D02*
X34738095Y-11025467D01*
X34738095Y-11025467D02*
X34738095Y-10882610D01*
X34738095Y-10882610D02*
X34785714Y-10692134D01*
X34785714Y-10692134D02*
X34833333Y-10596896D01*
X34833333Y-10596896D02*
X34928571Y-10501658D01*
X34928571Y-10501658D02*
X35071428Y-10454039D01*
X35071428Y-10454039D02*
X35166666Y-10454039D01*
X35166666Y-10454039D02*
X35309523Y-10501658D01*
X35309523Y-10501658D02*
X35357142Y-10549277D01*
X35738095Y-10549277D02*
X35785714Y-10501658D01*
X35785714Y-10501658D02*
X35880952Y-10454039D01*
X35880952Y-10454039D02*
X36119047Y-10454039D01*
X36119047Y-10454039D02*
X36214285Y-10501658D01*
X36214285Y-10501658D02*
X36261904Y-10549277D01*
X36261904Y-10549277D02*
X36309523Y-10644515D01*
X36309523Y-10644515D02*
X36309523Y-10739753D01*
X36309523Y-10739753D02*
X36261904Y-10882610D01*
X36261904Y-10882610D02*
X35690476Y-11454039D01*
X35690476Y-11454039D02*
X36309523Y-11454039D01*
X37166666Y-10454039D02*
X36976190Y-10454039D01*
X36976190Y-10454039D02*
X36880952Y-10501658D01*
X36880952Y-10501658D02*
X36833333Y-10549277D01*
X36833333Y-10549277D02*
X36738095Y-10692134D01*
X36738095Y-10692134D02*
X36690476Y-10882610D01*
X36690476Y-10882610D02*
X36690476Y-11263562D01*
X36690476Y-11263562D02*
X36738095Y-11358800D01*
X36738095Y-11358800D02*
X36785714Y-11406420D01*
X36785714Y-11406420D02*
X36880952Y-11454039D01*
X36880952Y-11454039D02*
X37071428Y-11454039D01*
X37071428Y-11454039D02*
X37166666Y-11406420D01*
X37166666Y-11406420D02*
X37214285Y-11358800D01*
X37214285Y-11358800D02*
X37261904Y-11263562D01*
X37261904Y-11263562D02*
X37261904Y-11025467D01*
X37261904Y-11025467D02*
X37214285Y-10930229D01*
X37214285Y-10930229D02*
X37166666Y-10882610D01*
X37166666Y-10882610D02*
X37071428Y-10834991D01*
X37071428Y-10834991D02*
X36880952Y-10834991D01*
X36880952Y-10834991D02*
X36785714Y-10882610D01*
X36785714Y-10882610D02*
X36738095Y-10930229D01*
X36738095Y-10930229D02*
X36690476Y-11025467D01*
X19418075Y-17608800D02*
X19370456Y-17656420D01*
X19370456Y-17656420D02*
X19227599Y-17704039D01*
X19227599Y-17704039D02*
X19132361Y-17704039D01*
X19132361Y-17704039D02*
X18989504Y-17656420D01*
X18989504Y-17656420D02*
X18894266Y-17561181D01*
X18894266Y-17561181D02*
X18846647Y-17465943D01*
X18846647Y-17465943D02*
X18799028Y-17275467D01*
X18799028Y-17275467D02*
X18799028Y-17132610D01*
X18799028Y-17132610D02*
X18846647Y-16942134D01*
X18846647Y-16942134D02*
X18894266Y-16846896D01*
X18894266Y-16846896D02*
X18989504Y-16751658D01*
X18989504Y-16751658D02*
X19132361Y-16704039D01*
X19132361Y-16704039D02*
X19227599Y-16704039D01*
X19227599Y-16704039D02*
X19370456Y-16751658D01*
X19370456Y-16751658D02*
X19418075Y-16799277D01*
X19894266Y-17704039D02*
X20084742Y-17704039D01*
X20084742Y-17704039D02*
X20179980Y-17656420D01*
X20179980Y-17656420D02*
X20227599Y-17608800D01*
X20227599Y-17608800D02*
X20322837Y-17465943D01*
X20322837Y-17465943D02*
X20370456Y-17275467D01*
X20370456Y-17275467D02*
X20370456Y-16894515D01*
X20370456Y-16894515D02*
X20322837Y-16799277D01*
X20322837Y-16799277D02*
X20275218Y-16751658D01*
X20275218Y-16751658D02*
X20179980Y-16704039D01*
X20179980Y-16704039D02*
X19989504Y-16704039D01*
X19989504Y-16704039D02*
X19894266Y-16751658D01*
X19894266Y-16751658D02*
X19846647Y-16799277D01*
X19846647Y-16799277D02*
X19799028Y-16894515D01*
X19799028Y-16894515D02*
X19799028Y-17132610D01*
X19799028Y-17132610D02*
X19846647Y-17227848D01*
X19846647Y-17227848D02*
X19894266Y-17275467D01*
X19894266Y-17275467D02*
X19989504Y-17323086D01*
X19989504Y-17323086D02*
X20179980Y-17323086D01*
X20179980Y-17323086D02*
X20275218Y-17275467D01*
X20275218Y-17275467D02*
X20322837Y-17227848D01*
X20322837Y-17227848D02*
X20370456Y-17132610D01*
X47738095Y-11841539D02*
X47738095Y-12651062D01*
X47738095Y-12651062D02*
X47785714Y-12746300D01*
X47785714Y-12746300D02*
X47833333Y-12793920D01*
X47833333Y-12793920D02*
X47928571Y-12841539D01*
X47928571Y-12841539D02*
X48119047Y-12841539D01*
X48119047Y-12841539D02*
X48214285Y-12793920D01*
X48214285Y-12793920D02*
X48261904Y-12746300D01*
X48261904Y-12746300D02*
X48309523Y-12651062D01*
X48309523Y-12651062D02*
X48309523Y-11841539D01*
X49309523Y-12841539D02*
X48738095Y-12841539D01*
X49023809Y-12841539D02*
X49023809Y-11841539D01*
X49023809Y-11841539D02*
X48928571Y-11984396D01*
X48928571Y-11984396D02*
X48833333Y-12079634D01*
X48833333Y-12079634D02*
X48738095Y-12127253D01*
X25358800Y-16642857D02*
X25406420Y-16690476D01*
X25406420Y-16690476D02*
X25454039Y-16833333D01*
X25454039Y-16833333D02*
X25454039Y-16928571D01*
X25454039Y-16928571D02*
X25406420Y-17071428D01*
X25406420Y-17071428D02*
X25311181Y-17166666D01*
X25311181Y-17166666D02*
X25215943Y-17214285D01*
X25215943Y-17214285D02*
X25025467Y-17261904D01*
X25025467Y-17261904D02*
X24882610Y-17261904D01*
X24882610Y-17261904D02*
X24692134Y-17214285D01*
X24692134Y-17214285D02*
X24596896Y-17166666D01*
X24596896Y-17166666D02*
X24501658Y-17071428D01*
X24501658Y-17071428D02*
X24454039Y-16928571D01*
X24454039Y-16928571D02*
X24454039Y-16833333D01*
X24454039Y-16833333D02*
X24501658Y-16690476D01*
X24501658Y-16690476D02*
X24549277Y-16642857D01*
X24549277Y-16261904D02*
X24501658Y-16214285D01*
X24501658Y-16214285D02*
X24454039Y-16119047D01*
X24454039Y-16119047D02*
X24454039Y-15880952D01*
X24454039Y-15880952D02*
X24501658Y-15785714D01*
X24501658Y-15785714D02*
X24549277Y-15738095D01*
X24549277Y-15738095D02*
X24644515Y-15690476D01*
X24644515Y-15690476D02*
X24739753Y-15690476D01*
X24739753Y-15690476D02*
X24882610Y-15738095D01*
X24882610Y-15738095D02*
X25454039Y-16309523D01*
X25454039Y-16309523D02*
X25454039Y-15690476D01*
X24787372Y-14833333D02*
X25454039Y-14833333D01*
X24406420Y-15071428D02*
X25120705Y-15309523D01*
X25120705Y-15309523D02*
X25120705Y-14690476D01*
X38254039Y-16988094D02*
X37254039Y-16988094D01*
X37254039Y-16988094D02*
X37254039Y-16749999D01*
X37254039Y-16749999D02*
X37301658Y-16607142D01*
X37301658Y-16607142D02*
X37396896Y-16511904D01*
X37396896Y-16511904D02*
X37492134Y-16464285D01*
X37492134Y-16464285D02*
X37682610Y-16416666D01*
X37682610Y-16416666D02*
X37825467Y-16416666D01*
X37825467Y-16416666D02*
X38015943Y-16464285D01*
X38015943Y-16464285D02*
X38111181Y-16511904D01*
X38111181Y-16511904D02*
X38206420Y-16607142D01*
X38206420Y-16607142D02*
X38254039Y-16749999D01*
X38254039Y-16749999D02*
X38254039Y-16988094D01*
X37254039Y-16083332D02*
X37254039Y-15416666D01*
X37254039Y-15416666D02*
X38254039Y-15845237D01*
X50343333Y-23454039D02*
X50010000Y-22977848D01*
X49771905Y-23454039D02*
X49771905Y-22454039D01*
X49771905Y-22454039D02*
X50152857Y-22454039D01*
X50152857Y-22454039D02*
X50248095Y-22501658D01*
X50248095Y-22501658D02*
X50295714Y-22549277D01*
X50295714Y-22549277D02*
X50343333Y-22644515D01*
X50343333Y-22644515D02*
X50343333Y-22787372D01*
X50343333Y-22787372D02*
X50295714Y-22882610D01*
X50295714Y-22882610D02*
X50248095Y-22930229D01*
X50248095Y-22930229D02*
X50152857Y-22977848D01*
X50152857Y-22977848D02*
X49771905Y-22977848D01*
X50724286Y-22549277D02*
X50771905Y-22501658D01*
X50771905Y-22501658D02*
X50867143Y-22454039D01*
X50867143Y-22454039D02*
X51105238Y-22454039D01*
X51105238Y-22454039D02*
X51200476Y-22501658D01*
X51200476Y-22501658D02*
X51248095Y-22549277D01*
X51248095Y-22549277D02*
X51295714Y-22644515D01*
X51295714Y-22644515D02*
X51295714Y-22739753D01*
X51295714Y-22739753D02*
X51248095Y-22882610D01*
X51248095Y-22882610D02*
X50676667Y-23454039D01*
X50676667Y-23454039D02*
X51295714Y-23454039D01*
X71166666Y-33954039D02*
X71166666Y-34668324D01*
X71166666Y-34668324D02*
X71119047Y-34811181D01*
X71119047Y-34811181D02*
X71023809Y-34906420D01*
X71023809Y-34906420D02*
X70880952Y-34954039D01*
X70880952Y-34954039D02*
X70785714Y-34954039D01*
X71547619Y-33954039D02*
X72166666Y-33954039D01*
X72166666Y-33954039D02*
X71833333Y-34334991D01*
X71833333Y-34334991D02*
X71976190Y-34334991D01*
X71976190Y-34334991D02*
X72071428Y-34382610D01*
X72071428Y-34382610D02*
X72119047Y-34430229D01*
X72119047Y-34430229D02*
X72166666Y-34525467D01*
X72166666Y-34525467D02*
X72166666Y-34763562D01*
X72166666Y-34763562D02*
X72119047Y-34858800D01*
X72119047Y-34858800D02*
X72071428Y-34906420D01*
X72071428Y-34906420D02*
X71976190Y-34954039D01*
X71976190Y-34954039D02*
X71690476Y-34954039D01*
X71690476Y-34954039D02*
X71595238Y-34906420D01*
X71595238Y-34906420D02*
X71547619Y-34858800D01*
X16608800Y-23642857D02*
X16656420Y-23690476D01*
X16656420Y-23690476D02*
X16704039Y-23833333D01*
X16704039Y-23833333D02*
X16704039Y-23928571D01*
X16704039Y-23928571D02*
X16656420Y-24071428D01*
X16656420Y-24071428D02*
X16561181Y-24166666D01*
X16561181Y-24166666D02*
X16465943Y-24214285D01*
X16465943Y-24214285D02*
X16275467Y-24261904D01*
X16275467Y-24261904D02*
X16132610Y-24261904D01*
X16132610Y-24261904D02*
X15942134Y-24214285D01*
X15942134Y-24214285D02*
X15846896Y-24166666D01*
X15846896Y-24166666D02*
X15751658Y-24071428D01*
X15751658Y-24071428D02*
X15704039Y-23928571D01*
X15704039Y-23928571D02*
X15704039Y-23833333D01*
X15704039Y-23833333D02*
X15751658Y-23690476D01*
X15751658Y-23690476D02*
X15799277Y-23642857D01*
X16704039Y-22690476D02*
X16704039Y-23261904D01*
X16704039Y-22976190D02*
X15704039Y-22976190D01*
X15704039Y-22976190D02*
X15846896Y-23071428D01*
X15846896Y-23071428D02*
X15942134Y-23166666D01*
X15942134Y-23166666D02*
X15989753Y-23261904D01*
X16704039Y-21738095D02*
X16704039Y-22309523D01*
X16704039Y-22023809D02*
X15704039Y-22023809D01*
X15704039Y-22023809D02*
X15846896Y-22119047D01*
X15846896Y-22119047D02*
X15942134Y-22214285D01*
X15942134Y-22214285D02*
X15989753Y-22309523D01*
X41857142Y-12358800D02*
X41809523Y-12406420D01*
X41809523Y-12406420D02*
X41666666Y-12454039D01*
X41666666Y-12454039D02*
X41571428Y-12454039D01*
X41571428Y-12454039D02*
X41428571Y-12406420D01*
X41428571Y-12406420D02*
X41333333Y-12311181D01*
X41333333Y-12311181D02*
X41285714Y-12215943D01*
X41285714Y-12215943D02*
X41238095Y-12025467D01*
X41238095Y-12025467D02*
X41238095Y-11882610D01*
X41238095Y-11882610D02*
X41285714Y-11692134D01*
X41285714Y-11692134D02*
X41333333Y-11596896D01*
X41333333Y-11596896D02*
X41428571Y-11501658D01*
X41428571Y-11501658D02*
X41571428Y-11454039D01*
X41571428Y-11454039D02*
X41666666Y-11454039D01*
X41666666Y-11454039D02*
X41809523Y-11501658D01*
X41809523Y-11501658D02*
X41857142Y-11549277D01*
X42238095Y-11549277D02*
X42285714Y-11501658D01*
X42285714Y-11501658D02*
X42380952Y-11454039D01*
X42380952Y-11454039D02*
X42619047Y-11454039D01*
X42619047Y-11454039D02*
X42714285Y-11501658D01*
X42714285Y-11501658D02*
X42761904Y-11549277D01*
X42761904Y-11549277D02*
X42809523Y-11644515D01*
X42809523Y-11644515D02*
X42809523Y-11739753D01*
X42809523Y-11739753D02*
X42761904Y-11882610D01*
X42761904Y-11882610D02*
X42190476Y-12454039D01*
X42190476Y-12454039D02*
X42809523Y-12454039D01*
X43142857Y-11454039D02*
X43809523Y-11454039D01*
X43809523Y-11454039D02*
X43380952Y-12454039D01*
X42124039Y-28166666D02*
X41647848Y-28499999D01*
X42124039Y-28738094D02*
X41124039Y-28738094D01*
X41124039Y-28738094D02*
X41124039Y-28357142D01*
X41124039Y-28357142D02*
X41171658Y-28261904D01*
X41171658Y-28261904D02*
X41219277Y-28214285D01*
X41219277Y-28214285D02*
X41314515Y-28166666D01*
X41314515Y-28166666D02*
X41457372Y-28166666D01*
X41457372Y-28166666D02*
X41552610Y-28214285D01*
X41552610Y-28214285D02*
X41600229Y-28261904D01*
X41600229Y-28261904D02*
X41647848Y-28357142D01*
X41647848Y-28357142D02*
X41647848Y-28738094D01*
X42124039Y-27690475D02*
X42124039Y-27499999D01*
X42124039Y-27499999D02*
X42076420Y-27404761D01*
X42076420Y-27404761D02*
X42028800Y-27357142D01*
X42028800Y-27357142D02*
X41885943Y-27261904D01*
X41885943Y-27261904D02*
X41695467Y-27214285D01*
X41695467Y-27214285D02*
X41314515Y-27214285D01*
X41314515Y-27214285D02*
X41219277Y-27261904D01*
X41219277Y-27261904D02*
X41171658Y-27309523D01*
X41171658Y-27309523D02*
X41124039Y-27404761D01*
X41124039Y-27404761D02*
X41124039Y-27595237D01*
X41124039Y-27595237D02*
X41171658Y-27690475D01*
X41171658Y-27690475D02*
X41219277Y-27738094D01*
X41219277Y-27738094D02*
X41314515Y-27785713D01*
X41314515Y-27785713D02*
X41552610Y-27785713D01*
X41552610Y-27785713D02*
X41647848Y-27738094D01*
X41647848Y-27738094D02*
X41695467Y-27690475D01*
X41695467Y-27690475D02*
X41743086Y-27595237D01*
X41743086Y-27595237D02*
X41743086Y-27404761D01*
X41743086Y-27404761D02*
X41695467Y-27309523D01*
X41695467Y-27309523D02*
X41647848Y-27261904D01*
X41647848Y-27261904D02*
X41552610Y-27214285D01*
X39624039Y-28166666D02*
X39147848Y-28499999D01*
X39624039Y-28738094D02*
X38624039Y-28738094D01*
X38624039Y-28738094D02*
X38624039Y-28357142D01*
X38624039Y-28357142D02*
X38671658Y-28261904D01*
X38671658Y-28261904D02*
X38719277Y-28214285D01*
X38719277Y-28214285D02*
X38814515Y-28166666D01*
X38814515Y-28166666D02*
X38957372Y-28166666D01*
X38957372Y-28166666D02*
X39052610Y-28214285D01*
X39052610Y-28214285D02*
X39100229Y-28261904D01*
X39100229Y-28261904D02*
X39147848Y-28357142D01*
X39147848Y-28357142D02*
X39147848Y-28738094D01*
X39052610Y-27595237D02*
X39004991Y-27690475D01*
X39004991Y-27690475D02*
X38957372Y-27738094D01*
X38957372Y-27738094D02*
X38862134Y-27785713D01*
X38862134Y-27785713D02*
X38814515Y-27785713D01*
X38814515Y-27785713D02*
X38719277Y-27738094D01*
X38719277Y-27738094D02*
X38671658Y-27690475D01*
X38671658Y-27690475D02*
X38624039Y-27595237D01*
X38624039Y-27595237D02*
X38624039Y-27404761D01*
X38624039Y-27404761D02*
X38671658Y-27309523D01*
X38671658Y-27309523D02*
X38719277Y-27261904D01*
X38719277Y-27261904D02*
X38814515Y-27214285D01*
X38814515Y-27214285D02*
X38862134Y-27214285D01*
X38862134Y-27214285D02*
X38957372Y-27261904D01*
X38957372Y-27261904D02*
X39004991Y-27309523D01*
X39004991Y-27309523D02*
X39052610Y-27404761D01*
X39052610Y-27404761D02*
X39052610Y-27595237D01*
X39052610Y-27595237D02*
X39100229Y-27690475D01*
X39100229Y-27690475D02*
X39147848Y-27738094D01*
X39147848Y-27738094D02*
X39243086Y-27785713D01*
X39243086Y-27785713D02*
X39433562Y-27785713D01*
X39433562Y-27785713D02*
X39528800Y-27738094D01*
X39528800Y-27738094D02*
X39576420Y-27690475D01*
X39576420Y-27690475D02*
X39624039Y-27595237D01*
X39624039Y-27595237D02*
X39624039Y-27404761D01*
X39624039Y-27404761D02*
X39576420Y-27309523D01*
X39576420Y-27309523D02*
X39528800Y-27261904D01*
X39528800Y-27261904D02*
X39433562Y-27214285D01*
X39433562Y-27214285D02*
X39243086Y-27214285D01*
X39243086Y-27214285D02*
X39147848Y-27261904D01*
X39147848Y-27261904D02*
X39100229Y-27309523D01*
X39100229Y-27309523D02*
X39052610Y-27404761D01*
X29666666Y-21354039D02*
X29666666Y-22068324D01*
X29666666Y-22068324D02*
X29619047Y-22211181D01*
X29619047Y-22211181D02*
X29523809Y-22306420D01*
X29523809Y-22306420D02*
X29380952Y-22354039D01*
X29380952Y-22354039D02*
X29285714Y-22354039D01*
X30095238Y-21449277D02*
X30142857Y-21401658D01*
X30142857Y-21401658D02*
X30238095Y-21354039D01*
X30238095Y-21354039D02*
X30476190Y-21354039D01*
X30476190Y-21354039D02*
X30571428Y-21401658D01*
X30571428Y-21401658D02*
X30619047Y-21449277D01*
X30619047Y-21449277D02*
X30666666Y-21544515D01*
X30666666Y-21544515D02*
X30666666Y-21639753D01*
X30666666Y-21639753D02*
X30619047Y-21782610D01*
X30619047Y-21782610D02*
X30047619Y-22354039D01*
X30047619Y-22354039D02*
X30666666Y-22354039D01*
X34238095Y-45454039D02*
X34238095Y-46263562D01*
X34238095Y-46263562D02*
X34285714Y-46358800D01*
X34285714Y-46358800D02*
X34333333Y-46406420D01*
X34333333Y-46406420D02*
X34428571Y-46454039D01*
X34428571Y-46454039D02*
X34619047Y-46454039D01*
X34619047Y-46454039D02*
X34714285Y-46406420D01*
X34714285Y-46406420D02*
X34761904Y-46358800D01*
X34761904Y-46358800D02*
X34809523Y-46263562D01*
X34809523Y-46263562D02*
X34809523Y-45454039D01*
X35190476Y-45454039D02*
X35809523Y-45454039D01*
X35809523Y-45454039D02*
X35476190Y-45834991D01*
X35476190Y-45834991D02*
X35619047Y-45834991D01*
X35619047Y-45834991D02*
X35714285Y-45882610D01*
X35714285Y-45882610D02*
X35761904Y-45930229D01*
X35761904Y-45930229D02*
X35809523Y-46025467D01*
X35809523Y-46025467D02*
X35809523Y-46263562D01*
X35809523Y-46263562D02*
X35761904Y-46358800D01*
X35761904Y-46358800D02*
X35714285Y-46406420D01*
X35714285Y-46406420D02*
X35619047Y-46454039D01*
X35619047Y-46454039D02*
X35333333Y-46454039D01*
X35333333Y-46454039D02*
X35238095Y-46406420D01*
X35238095Y-46406420D02*
X35190476Y-46358800D01*
X36358800Y-17142857D02*
X36406420Y-17190476D01*
X36406420Y-17190476D02*
X36454039Y-17333333D01*
X36454039Y-17333333D02*
X36454039Y-17428571D01*
X36454039Y-17428571D02*
X36406420Y-17571428D01*
X36406420Y-17571428D02*
X36311181Y-17666666D01*
X36311181Y-17666666D02*
X36215943Y-17714285D01*
X36215943Y-17714285D02*
X36025467Y-17761904D01*
X36025467Y-17761904D02*
X35882610Y-17761904D01*
X35882610Y-17761904D02*
X35692134Y-17714285D01*
X35692134Y-17714285D02*
X35596896Y-17666666D01*
X35596896Y-17666666D02*
X35501658Y-17571428D01*
X35501658Y-17571428D02*
X35454039Y-17428571D01*
X35454039Y-17428571D02*
X35454039Y-17333333D01*
X35454039Y-17333333D02*
X35501658Y-17190476D01*
X35501658Y-17190476D02*
X35549277Y-17142857D01*
X35549277Y-16761904D02*
X35501658Y-16714285D01*
X35501658Y-16714285D02*
X35454039Y-16619047D01*
X35454039Y-16619047D02*
X35454039Y-16380952D01*
X35454039Y-16380952D02*
X35501658Y-16285714D01*
X35501658Y-16285714D02*
X35549277Y-16238095D01*
X35549277Y-16238095D02*
X35644515Y-16190476D01*
X35644515Y-16190476D02*
X35739753Y-16190476D01*
X35739753Y-16190476D02*
X35882610Y-16238095D01*
X35882610Y-16238095D02*
X36454039Y-16809523D01*
X36454039Y-16809523D02*
X36454039Y-16190476D01*
X35454039Y-15857142D02*
X35454039Y-15238095D01*
X35454039Y-15238095D02*
X35834991Y-15571428D01*
X35834991Y-15571428D02*
X35834991Y-15428571D01*
X35834991Y-15428571D02*
X35882610Y-15333333D01*
X35882610Y-15333333D02*
X35930229Y-15285714D01*
X35930229Y-15285714D02*
X36025467Y-15238095D01*
X36025467Y-15238095D02*
X36263562Y-15238095D01*
X36263562Y-15238095D02*
X36358800Y-15285714D01*
X36358800Y-15285714D02*
X36406420Y-15333333D01*
X36406420Y-15333333D02*
X36454039Y-15428571D01*
X36454039Y-15428571D02*
X36454039Y-15714285D01*
X36454039Y-15714285D02*
X36406420Y-15809523D01*
X36406420Y-15809523D02*
X36358800Y-15857142D01*
X28954039Y-6738094D02*
X27954039Y-6738094D01*
X27954039Y-6738094D02*
X27954039Y-6499999D01*
X27954039Y-6499999D02*
X28001658Y-6357142D01*
X28001658Y-6357142D02*
X28096896Y-6261904D01*
X28096896Y-6261904D02*
X28192134Y-6214285D01*
X28192134Y-6214285D02*
X28382610Y-6166666D01*
X28382610Y-6166666D02*
X28525467Y-6166666D01*
X28525467Y-6166666D02*
X28715943Y-6214285D01*
X28715943Y-6214285D02*
X28811181Y-6261904D01*
X28811181Y-6261904D02*
X28906420Y-6357142D01*
X28906420Y-6357142D02*
X28954039Y-6499999D01*
X28954039Y-6499999D02*
X28954039Y-6738094D01*
X27954039Y-5833332D02*
X27954039Y-5214285D01*
X27954039Y-5214285D02*
X28334991Y-5547618D01*
X28334991Y-5547618D02*
X28334991Y-5404761D01*
X28334991Y-5404761D02*
X28382610Y-5309523D01*
X28382610Y-5309523D02*
X28430229Y-5261904D01*
X28430229Y-5261904D02*
X28525467Y-5214285D01*
X28525467Y-5214285D02*
X28763562Y-5214285D01*
X28763562Y-5214285D02*
X28858800Y-5261904D01*
X28858800Y-5261904D02*
X28906420Y-5309523D01*
X28906420Y-5309523D02*
X28954039Y-5404761D01*
X28954039Y-5404761D02*
X28954039Y-5690475D01*
X28954039Y-5690475D02*
X28906420Y-5785713D01*
X28906420Y-5785713D02*
X28858800Y-5833332D01*
X18303170Y-21840000D02*
X18584330Y-21840000D01*
X18303170Y-22860000D02*
X18584330Y-22860000D01*
X37620000Y-14153641D02*
X37620000Y-13846359D01*
X38380000Y-14153641D02*
X38380000Y-13846359D01*
D15*
G36*
X4537600Y-1492467D02*
G01*
X4537600Y-1721067D01*
X4300534Y-1721067D01*
X4063467Y-1721067D01*
X4063467Y-1492467D01*
X4063467Y-1263867D01*
X4300534Y-1263867D01*
X4537600Y-1263867D01*
X4537600Y-1492467D01*
G37*
G36*
X4537600Y-3126533D02*
G01*
X4537600Y-4057866D01*
X4300534Y-4057866D01*
X4063467Y-4057866D01*
X4063467Y-3126533D01*
X4063467Y-2195200D01*
X4300534Y-2195200D01*
X4537600Y-2195200D01*
X4537600Y-3126533D01*
G37*
G36*
X9194266Y-2542333D02*
G01*
X9194266Y-4057866D01*
X8965666Y-4057866D01*
X8737066Y-4057866D01*
X8737066Y-2542333D01*
X8737066Y-1026800D01*
X8965666Y-1026800D01*
X9194266Y-1026800D01*
X9194266Y-2542333D01*
G37*
G36*
X15273333Y-3829266D02*
G01*
X15273333Y-4057866D01*
X15036266Y-4057866D01*
X14799200Y-4057866D01*
X14799200Y-3829266D01*
X14799200Y-3600666D01*
X15036266Y-3600666D01*
X15273333Y-3600666D01*
X15273333Y-3829266D01*
G37*
G36*
X8262934Y-2432267D02*
G01*
X8262934Y-2669333D01*
X7797267Y-2669333D01*
X7331600Y-2669333D01*
X7331600Y-3134999D01*
X7331600Y-3600666D01*
X7797267Y-3600666D01*
X8262934Y-3600666D01*
X8262934Y-3829266D01*
X8262934Y-4057866D01*
X7560200Y-4057866D01*
X6857467Y-4057866D01*
X6857467Y-3126533D01*
X6857467Y-2195200D01*
X7560200Y-2195200D01*
X8262934Y-2195200D01*
X8262934Y-2432267D01*
G37*
G36*
X13410666Y-2432267D02*
G01*
X13410666Y-2669333D01*
X12936533Y-2669333D01*
X12462400Y-2669333D01*
X12462400Y-3134999D01*
X12462400Y-3600666D01*
X12936533Y-3600666D01*
X13410666Y-3600666D01*
X13410666Y-3829266D01*
X13410666Y-4057866D01*
X12707933Y-4057866D01*
X12005200Y-4057866D01*
X12005200Y-3126533D01*
X12005200Y-2195200D01*
X12707933Y-2195200D01*
X13410666Y-2195200D01*
X13410666Y-2432267D01*
G37*
G36*
X11531066Y-3126533D02*
G01*
X11531066Y-4057866D01*
X10599733Y-4057866D01*
X9668400Y-4057866D01*
X9668400Y-3600666D01*
X10142533Y-3600666D01*
X10608200Y-3600666D01*
X11073866Y-3600666D01*
X11073866Y-3134999D01*
X11073866Y-2669333D01*
X10608200Y-2669333D01*
X10142533Y-2669333D01*
X10142533Y-3134999D01*
X10142533Y-3600666D01*
X9668400Y-3600666D01*
X9668400Y-3134999D01*
X9668400Y-3126533D01*
X9668400Y-2195200D01*
X10599733Y-2195200D01*
X11531066Y-2195200D01*
X11531066Y-3126533D01*
G37*
G36*
X2200800Y-1611000D02*
G01*
X2200800Y-2195200D01*
X2895067Y-2195200D01*
X3589334Y-2195200D01*
X3589334Y-3126533D01*
X3589334Y-4057866D01*
X2658000Y-4057866D01*
X1726667Y-4057866D01*
X1726667Y-3600666D01*
X2200800Y-3600666D01*
X2666467Y-3600666D01*
X3132134Y-3600666D01*
X3132134Y-3134999D01*
X3132134Y-2669333D01*
X2666467Y-2669333D01*
X2200800Y-2669333D01*
X2200800Y-3134999D01*
X2200800Y-3600666D01*
X1726667Y-3600666D01*
X1726667Y-3134999D01*
X1726667Y-2542333D01*
X1726667Y-1026800D01*
X1963734Y-1026800D01*
X2200800Y-1026800D01*
X2200800Y-1611000D01*
G37*
G36*
X14342000Y-1848067D02*
G01*
X14342000Y-2669333D01*
X14570600Y-2669333D01*
X14799200Y-2669333D01*
X14799200Y-2432267D01*
X14799200Y-2195200D01*
X15036266Y-2195200D01*
X15273333Y-2195200D01*
X15273333Y-2432267D01*
X15273333Y-2669333D01*
X15036266Y-2669333D01*
X14799200Y-2669333D01*
X14799200Y-3134999D01*
X14799200Y-3600666D01*
X14570600Y-3600666D01*
X14342000Y-3600666D01*
X14342000Y-3829266D01*
X14342000Y-4057866D01*
X14104933Y-4057866D01*
X13867866Y-4057866D01*
X13867866Y-2542333D01*
X13867866Y-1026800D01*
X14104933Y-1026800D01*
X14342000Y-1026800D01*
X14342000Y-1848067D01*
G37*
G36*
X5926134Y-1729533D02*
G01*
X5926134Y-2195200D01*
X6163200Y-2195200D01*
X6400267Y-2195200D01*
X6400267Y-2432267D01*
X6400267Y-2669333D01*
X6163200Y-2669333D01*
X5926134Y-2669333D01*
X5926134Y-3134999D01*
X5926134Y-3600666D01*
X6163200Y-3600666D01*
X6400267Y-3600666D01*
X6400267Y-3829266D01*
X6400267Y-4057866D01*
X5934600Y-4057866D01*
X5468934Y-4057866D01*
X5468934Y-3363599D01*
X5468934Y-2669333D01*
X5231867Y-2669333D01*
X4994800Y-2669333D01*
X4994800Y-2432267D01*
X4994800Y-2195200D01*
X5231867Y-2195200D01*
X5468934Y-2195200D01*
X5468934Y-1729533D01*
X5468934Y-1263867D01*
X5697534Y-1263867D01*
X5926134Y-1263867D01*
X5926134Y-1729533D01*
G37*
D12*
X65392164Y-23640000D02*
X65607836Y-23640000D01*
X65392164Y-24360000D02*
X65607836Y-24360000D01*
X16990000Y-17990000D02*
X16990000Y-18140000D01*
X16990000Y-17990000D02*
X20510000Y-17990000D01*
X16990000Y-21510000D02*
X16990000Y-21360000D01*
X16990000Y-21510000D02*
X20510000Y-21510000D01*
X20510000Y-17990000D02*
X20510000Y-18140000D01*
X20510000Y-21510000D02*
X20510000Y-21360000D01*
X32950000Y-8500000D02*
G75*
G02*
X31050000Y-8500000I-950000J0D01*
G01*
X31050000Y-8500000D02*
G75*
G02*
X32950000Y-8500000I950000J0D01*
G01*
X17450000Y-38000000D02*
G75*
G02*
X15550000Y-38000000I-950000J0D01*
G01*
X15550000Y-38000000D02*
G75*
G02*
X17450000Y-38000000I950000J0D01*
G01*
X54490000Y-2390580D02*
X54490000Y-2109420D01*
X55510000Y-2390580D02*
X55510000Y-2109420D01*
X51950000Y-14000000D02*
G75*
G02*
X50050000Y-14000000I-950000J0D01*
G01*
X50050000Y-14000000D02*
G75*
G02*
X51950000Y-14000000I950000J0D01*
G01*
X49015000Y-18765000D02*
X49015000Y-20235000D01*
X49015000Y-20235000D02*
X51300000Y-20235000D01*
X51300000Y-18765000D02*
X49015000Y-18765000D01*
X18290109Y-26970000D02*
X18597391Y-26970000D01*
X18290109Y-27730000D02*
X18597391Y-27730000D01*
X26140000Y-18392164D02*
X26140000Y-18607836D01*
X26860000Y-18392164D02*
X26860000Y-18607836D01*
X56153641Y-15120000D02*
X55846359Y-15120000D01*
X56153641Y-15880000D02*
X55846359Y-15880000D01*
X17450000Y-34000000D02*
G75*
G02*
X15550000Y-34000000I-950000J0D01*
G01*
X15550000Y-34000000D02*
G75*
G02*
X17450000Y-34000000I950000J0D01*
G01*
X37450000Y-38000000D02*
G75*
G02*
X35550000Y-38000000I-950000J0D01*
G01*
X35550000Y-38000000D02*
G75*
G02*
X37450000Y-38000000I950000J0D01*
G01*
X49250000Y-26500000D02*
X49250000Y-28500000D01*
X50250000Y-25200000D02*
X50700000Y-24750000D01*
X50250000Y-29800000D02*
X50700000Y-30250000D01*
X50700000Y-24750000D02*
X53300000Y-24750000D01*
X50700000Y-30250000D02*
X53300000Y-30250000D01*
X53750000Y-25200000D02*
X53300000Y-24750000D01*
X53750000Y-29800000D02*
X53300000Y-30250000D01*
X54750000Y-26500000D02*
X54750000Y-28500000D01*
X32450000Y-38000000D02*
G75*
G02*
X30550000Y-38000000I-950000J0D01*
G01*
X30550000Y-38000000D02*
G75*
G02*
X32450000Y-38000000I950000J0D01*
G01*
X43250000Y-15640000D02*
X43250000Y-19650000D01*
X45250000Y-15640000D02*
X43250000Y-15640000D01*
X45250000Y-15640000D02*
X45250000Y-19650000D01*
X46392164Y-14027500D02*
X46607836Y-14027500D01*
X46392164Y-14747500D02*
X46607836Y-14747500D01*
X64990000Y-39140580D02*
X64990000Y-38859420D01*
X66010000Y-39140580D02*
X66010000Y-38859420D01*
X42883859Y-6120000D02*
X43191141Y-6120000D01*
X42883859Y-6880000D02*
X43191141Y-6880000D01*
X53840000Y-35690000D02*
X55815000Y-35690000D01*
X53840000Y-37665000D02*
X53840000Y-35690000D01*
X53840000Y-44035000D02*
X53840000Y-46010000D01*
X53840000Y-46010000D02*
X55815000Y-46010000D01*
X62185000Y-35690000D02*
X63920000Y-35690000D01*
X64160000Y-37665000D02*
X64160000Y-35990000D01*
X64160000Y-44035000D02*
X64160000Y-46010000D01*
X64160000Y-46010000D02*
X62185000Y-46010000D01*
X64490000Y-35930000D02*
X64160000Y-35690000D01*
X64490000Y-35450000D01*
X64490000Y-35930000D01*
G36*
X64490000Y-35930000D02*
G01*
X64160000Y-35690000D01*
X64490000Y-35450000D01*
X64490000Y-35930000D01*
G37*
X37450000Y-34000000D02*
G75*
G02*
X35550000Y-34000000I-950000J0D01*
G01*
X35550000Y-34000000D02*
G75*
G02*
X37450000Y-34000000I950000J0D01*
G01*
X62120000Y-21346359D02*
X62120000Y-21653641D01*
X62880000Y-21346359D02*
X62880000Y-21653641D01*
X16642164Y-14890000D02*
X16857836Y-14890000D01*
X16642164Y-15610000D02*
X16857836Y-15610000D01*
X22450000Y-34000000D02*
G75*
G02*
X20550000Y-34000000I-950000J0D01*
G01*
X20550000Y-34000000D02*
G75*
G02*
X22450000Y-34000000I950000J0D01*
G01*
X36390000Y-43892164D02*
X36390000Y-44107836D01*
X37110000Y-43892164D02*
X37110000Y-44107836D01*
X16642164Y-11890000D02*
X16857836Y-11890000D01*
X16642164Y-12610000D02*
X16857836Y-12610000D01*
X16642164Y-12890000D02*
X16857836Y-12890000D01*
X16642164Y-13610000D02*
X16857836Y-13610000D01*
X39400000Y-18050000D02*
X39400000Y-20010000D01*
X39400000Y-20010000D02*
X40600000Y-20010000D01*
X40600000Y-18050000D02*
X40600000Y-20010000D01*
X55627836Y-5140000D02*
X55412164Y-5140000D01*
X55627836Y-5860000D02*
X55412164Y-5860000D01*
X22490000Y-8500000D02*
X22490000Y-10500000D01*
X22490000Y-8500000D02*
X26500000Y-8500000D01*
X22490000Y-10500000D02*
X26500000Y-10500000D01*
X18443750Y-23290000D02*
X17793750Y-23290000D01*
X18443750Y-23290000D02*
X19093750Y-23290000D01*
X18443750Y-26410000D02*
X17793750Y-26410000D01*
X18443750Y-26410000D02*
X19093750Y-26410000D01*
X17281250Y-23340000D02*
X17041250Y-23010000D01*
X17521250Y-23010000D01*
X17281250Y-23340000D01*
G36*
X17281250Y-23340000D02*
G01*
X17041250Y-23010000D01*
X17521250Y-23010000D01*
X17281250Y-23340000D01*
G37*
X16642164Y-13890000D02*
X16857836Y-13890000D01*
X16642164Y-14610000D02*
X16857836Y-14610000D01*
X55346359Y-4120000D02*
X55653641Y-4120000D01*
X55346359Y-4880000D02*
X55653641Y-4880000D01*
X41400000Y-18000000D02*
X41400000Y-19960000D01*
X41400000Y-19960000D02*
X42600000Y-19960000D01*
X42600000Y-18000000D02*
X42600000Y-19960000D01*
X16642164Y-10890000D02*
X16857836Y-10890000D01*
X16642164Y-11610000D02*
X16857836Y-11610000D01*
X58000000Y-18750000D02*
X58000000Y-19500000D01*
X58000000Y-19500000D02*
X59000000Y-19500000D01*
X76000000Y-18750000D02*
X76000000Y-19500000D01*
X76000000Y-19500000D02*
X75000000Y-19500000D01*
X40890000Y-44892164D02*
X40890000Y-45107836D01*
X41610000Y-44892164D02*
X41610000Y-45107836D01*
X27210000Y-5500000D02*
X23200000Y-5500000D01*
X27210000Y-7500000D02*
X23200000Y-7500000D01*
X27210000Y-7500000D02*
X27210000Y-5500000D01*
X32450000Y-34000000D02*
G75*
G02*
X30550000Y-34000000I-950000J0D01*
G01*
X30550000Y-34000000D02*
G75*
G02*
X32450000Y-34000000I950000J0D01*
G01*
X45200000Y-7235000D02*
X47485000Y-7235000D01*
X47485000Y-5765000D02*
X45200000Y-5765000D01*
X47485000Y-7235000D02*
X47485000Y-5765000D01*
X59250000Y-26500000D02*
X59250000Y-28500000D01*
X60250000Y-25200000D02*
X60700000Y-24750000D01*
X60250000Y-29800000D02*
X60700000Y-30250000D01*
X60700000Y-24750000D02*
X63300000Y-24750000D01*
X60700000Y-30250000D02*
X63300000Y-30250000D01*
X63750000Y-25200000D02*
X63300000Y-24750000D01*
X63750000Y-29800000D02*
X63300000Y-30250000D01*
X64750000Y-26500000D02*
X64750000Y-28500000D01*
X27450000Y-34000000D02*
G75*
G02*
X25550000Y-34000000I-950000J0D01*
G01*
X25550000Y-34000000D02*
G75*
G02*
X27450000Y-34000000I950000J0D01*
G01*
X11600000Y-11100000D02*
X11600000Y-23500000D01*
X12900000Y-10300000D02*
X15400000Y-10300000D01*
X15400000Y-10300000D02*
X15400000Y-24300000D01*
X15400000Y-24300000D02*
X12900000Y-24300000D01*
X16000000Y-23000000D02*
G75*
G02*
X15800000Y-23000000I-100000J0D01*
G01*
X15800000Y-23000000D02*
G75*
G02*
X16000000Y-23000000I100000J0D01*
G01*
X34250000Y-22100000D02*
X34250000Y-25900000D01*
X34250000Y-25900000D02*
X35820000Y-25900000D01*
X35820000Y-22100000D02*
X34250000Y-22100000D01*
X38170000Y-25900000D02*
X39820000Y-25900000D01*
X39820000Y-22100000D02*
X38170000Y-22100000D01*
X42170000Y-25900000D02*
X43750000Y-25900000D01*
X43750000Y-22100000D02*
X42170000Y-22100000D01*
X43750000Y-25900000D02*
X43750000Y-22100000D01*
X39620000Y-14153641D02*
X39620000Y-13846359D01*
X40380000Y-14153641D02*
X40380000Y-13846359D01*
X39737258Y-41727500D02*
X39262742Y-41727500D01*
X39737258Y-42772500D02*
X39262742Y-42772500D01*
X16390000Y-45142164D02*
X16390000Y-45357836D01*
X17110000Y-45142164D02*
X17110000Y-45357836D01*
X16642164Y-15890000D02*
X16857836Y-15890000D01*
X16642164Y-16610000D02*
X16857836Y-16610000D01*
X14000000Y-44390000D02*
X15500000Y-44390000D01*
X14000000Y-46110000D02*
X15500000Y-46110000D01*
X13550000Y-44650000D02*
X13270000Y-44650000D01*
X13550000Y-44370000D01*
X13550000Y-44650000D01*
G36*
X13550000Y-44650000D02*
G01*
X13270000Y-44650000D01*
X13550000Y-44370000D01*
X13550000Y-44650000D01*
G37*
X34107836Y-17640000D02*
X33892164Y-17640000D01*
X34107836Y-18360000D02*
X33892164Y-18360000D01*
X56140000Y-2357836D02*
X56140000Y-2142164D01*
X56860000Y-2357836D02*
X56860000Y-2142164D01*
X16642164Y-9890000D02*
X16857836Y-9890000D01*
X16642164Y-10610000D02*
X16857836Y-10610000D01*
X45859420Y-9627500D02*
X46140580Y-9627500D01*
X45859420Y-10647500D02*
X46140580Y-10647500D01*
D16*
X73903641Y-21120000D02*
X73596359Y-21120000D01*
X73903641Y-21880000D02*
X73596359Y-21880000D01*
D12*
X37640000Y-12107836D02*
X37640000Y-11892164D01*
X38360000Y-12107836D02*
X38360000Y-11892164D01*
X16642164Y-16890000D02*
X16857836Y-16890000D01*
X16642164Y-17610000D02*
X16857836Y-17610000D01*
X44890000Y-11387500D02*
X44890000Y-13387500D01*
X47110000Y-11387500D02*
X47110000Y-13387500D01*
X47290000Y-11147500D02*
X47010000Y-11147500D01*
X47010000Y-10867500D01*
X47290000Y-11147500D01*
G36*
X47290000Y-11147500D02*
G01*
X47010000Y-11147500D01*
X47010000Y-10867500D01*
X47290000Y-11147500D01*
G37*
X32950000Y-12500000D02*
G75*
G02*
X31050000Y-12500000I-950000J0D01*
G01*
X31050000Y-12500000D02*
G75*
G02*
X32950000Y-12500000I950000J0D01*
G01*
X25140000Y-18392164D02*
X25140000Y-18607836D01*
X25860000Y-18392164D02*
X25860000Y-18607836D01*
X27450000Y-38000000D02*
G75*
G02*
X25550000Y-38000000I-950000J0D01*
G01*
X25550000Y-38000000D02*
G75*
G02*
X27450000Y-38000000I950000J0D01*
G01*
X22450000Y-38000000D02*
G75*
G02*
X20550000Y-38000000I-950000J0D01*
G01*
X20550000Y-38000000D02*
G75*
G02*
X22450000Y-38000000I950000J0D01*
G01*
X37400000Y-18050000D02*
X37400000Y-20010000D01*
X37400000Y-20010000D02*
X38600000Y-20010000D01*
X38600000Y-18050000D02*
X38600000Y-20010000D01*
X50346359Y-21120000D02*
X50653641Y-21120000D01*
X50346359Y-21880000D02*
X50653641Y-21880000D01*
X73595000Y-32750000D02*
X75355000Y-32750000D01*
X75355000Y-23850000D02*
X73595000Y-23850000D01*
X77595000Y-32750000D02*
X79105000Y-32750000D01*
X79105000Y-23850000D02*
X77595000Y-23850000D01*
X79105000Y-32750000D02*
X79105000Y-23850000D01*
X15890000Y-20607836D02*
X15890000Y-20392164D01*
X16610000Y-20607836D02*
X16610000Y-20392164D01*
X39640000Y-12107836D02*
X39640000Y-11892164D01*
X40360000Y-12107836D02*
X40360000Y-11892164D01*
X40120000Y-27846359D02*
X40120000Y-28153641D01*
X40880000Y-27846359D02*
X40880000Y-28153641D01*
X37620000Y-27846359D02*
X37620000Y-28153641D01*
X38380000Y-27846359D02*
X38380000Y-28153641D01*
X27300000Y-16600000D02*
X27300000Y-18840000D01*
X27300000Y-16600000D02*
X28120000Y-16600000D01*
X27320000Y-20330000D02*
X32660000Y-20330000D01*
X31880000Y-16620000D02*
X32670000Y-16620000D01*
X32660000Y-20330000D02*
X32690000Y-20300000D01*
X32670000Y-16620000D02*
X32670000Y-18840000D01*
X28340000Y-18910000D02*
G75*
G02*
X28020000Y-18910000I-160000J0D01*
G01*
X28020000Y-18910000D02*
G75*
G02*
X28340000Y-18910000I160000J0D01*
G01*
X37780000Y-43430000D02*
X40220000Y-43430000D01*
X40220000Y-46070000D02*
X37780000Y-46070000D01*
X37530000Y-43500000D02*
X37250000Y-43500000D01*
X37530000Y-43220000D01*
X37530000Y-43500000D01*
G36*
X37530000Y-43500000D02*
G01*
X37250000Y-43500000D01*
X37530000Y-43220000D01*
X37530000Y-43500000D01*
G37*
X34107836Y-16140000D02*
X33892164Y-16140000D01*
X34107836Y-16860000D02*
X33892164Y-16860000D01*
X27600000Y-12110000D02*
X27600000Y-8100000D01*
X27600000Y-12110000D02*
X29600000Y-12110000D01*
X29600000Y-12110000D02*
X29600000Y-8100000D01*
X7750000Y-11000000D02*
X9565000Y-11000000D01*
X10225000Y-11000000D02*
X12040000Y-11000000D01*
X12700000Y-11000000D02*
X14515000Y-11000000D01*
X15175000Y-11000000D02*
X15750000Y-11000000D01*
X7750000Y-23500000D02*
X9565000Y-23500000D01*
X10225000Y-23500000D02*
X12040000Y-23500000D01*
X12700000Y-23500000D02*
X14515000Y-23500000D01*
X15175000Y-23500000D02*
X15750000Y-23500000D01*
%LPC*%
D17*
X17668750Y-22350000D03*
X19218750Y-22350000D03*
D18*
X38000000Y-14510000D03*
X38000000Y-13490000D03*
D19*
X65020000Y-24000000D03*
X65980000Y-24000000D03*
D20*
X17600000Y-19750000D03*
X19900000Y-19750000D03*
D21*
X32000000Y-8500000D03*
X16500000Y-38000000D03*
D22*
X55000000Y-3025000D03*
X55000000Y-1475000D03*
D21*
X51000000Y-14000000D03*
D23*
X49712500Y-19500000D03*
X51287500Y-19500000D03*
D24*
X17933750Y-27350000D03*
X18953750Y-27350000D03*
D25*
X26500000Y-18020000D03*
X26500000Y-18980000D03*
D26*
X56510000Y-15500000D03*
X55490000Y-15500000D03*
D21*
X16500000Y-34000000D03*
X36500000Y-38000000D03*
D27*
X49000000Y-25625000D03*
X55000000Y-25625000D03*
X49000000Y-29375000D03*
X55000000Y-29375000D03*
D21*
X31500000Y-38000000D03*
D28*
X44250000Y-16350000D03*
X44250000Y-19650000D03*
D19*
X46020000Y-14387500D03*
X46980000Y-14387500D03*
D22*
X65500000Y-39775000D03*
X65500000Y-38225000D03*
D24*
X42527500Y-6500000D03*
X43547500Y-6500000D03*
D29*
X61500000Y-36700000D03*
X60250000Y-36700000D03*
X59000000Y-36700000D03*
X57750000Y-36700000D03*
X56500000Y-36700000D03*
D30*
X54850000Y-38350000D03*
X54850000Y-39600000D03*
X54850000Y-40850000D03*
X54850000Y-42100000D03*
X54850000Y-43350000D03*
D29*
X56500000Y-45000000D03*
X57750000Y-45000000D03*
X59000000Y-45000000D03*
X60250000Y-45000000D03*
X61500000Y-45000000D03*
D30*
X63150000Y-43350000D03*
X63150000Y-42100000D03*
X63150000Y-40850000D03*
X63150000Y-39600000D03*
X63150000Y-38350000D03*
D31*
X59000000Y-40850000D03*
D21*
X36500000Y-34000000D03*
D32*
X62500000Y-20990000D03*
X62500000Y-22010000D03*
D19*
X16270000Y-15250000D03*
X17230000Y-15250000D03*
D21*
X21500000Y-34000000D03*
D25*
X36750000Y-43520000D03*
X36750000Y-44480000D03*
D19*
X16270000Y-12250000D03*
X17230000Y-12250000D03*
X16270000Y-13250000D03*
X17230000Y-13250000D03*
D33*
X40000000Y-19450000D03*
X40000000Y-18050000D03*
D34*
X56000000Y-5500000D03*
X55040000Y-5500000D03*
D35*
X23200000Y-9500000D03*
X26500000Y-9500000D03*
D36*
X17506250Y-23900000D03*
X17506250Y-25800000D03*
X19381250Y-24850000D03*
D19*
X16270000Y-14250000D03*
X17230000Y-14250000D03*
D24*
X54990000Y-4500000D03*
X56010000Y-4500000D03*
D33*
X42000000Y-19400000D03*
X42000000Y-18000000D03*
D19*
X16270000Y-11250000D03*
X17230000Y-11250000D03*
D37*
X58250000Y-1490000D03*
X58250000Y-2760000D03*
X58250000Y-4030000D03*
X58250000Y-5300000D03*
X58250000Y-6570000D03*
X58250000Y-7840000D03*
X58250000Y-9110000D03*
X58250000Y-10380000D03*
X58250000Y-11650000D03*
X58250000Y-12920000D03*
X58250000Y-14190000D03*
X58250000Y-15460000D03*
X58250000Y-16730000D03*
X58250000Y-18000000D03*
D38*
X60015000Y-19250000D03*
X61285000Y-19250000D03*
X62555000Y-19250000D03*
X63825000Y-19250000D03*
X65095000Y-19250000D03*
X66365000Y-19250000D03*
X67635000Y-19250000D03*
X68905000Y-19250000D03*
X70175000Y-19250000D03*
X71445000Y-19250000D03*
X72715000Y-19250000D03*
X73985000Y-19250000D03*
D37*
X75750000Y-18000000D03*
X75750000Y-16730000D03*
X75750000Y-15460000D03*
X75750000Y-14190000D03*
X75750000Y-12920000D03*
X75750000Y-11650000D03*
X75750000Y-10380000D03*
X75750000Y-9110000D03*
X75750000Y-7840000D03*
X75750000Y-6570000D03*
X75750000Y-5300000D03*
X75750000Y-4030000D03*
X75750000Y-2760000D03*
X75750000Y-1490000D03*
D39*
X64100000Y-7810000D03*
X64100000Y-9210000D03*
X64100000Y-10610000D03*
X64100000Y-10610000D03*
X65500000Y-7810000D03*
X65500000Y-7810000D03*
X65500000Y-9210000D03*
X65500000Y-10610000D03*
X66900000Y-7810000D03*
X66900000Y-9210000D03*
X66900000Y-10610000D03*
D25*
X41250000Y-44520000D03*
X41250000Y-45480000D03*
D40*
X26500000Y-6500000D03*
X23200000Y-6500000D03*
D21*
X31500000Y-34000000D03*
D41*
X46787500Y-6500000D03*
X45212500Y-6500000D03*
D27*
X59000000Y-25625000D03*
X65000000Y-25625000D03*
X59000000Y-29375000D03*
X65000000Y-29375000D03*
D21*
X26500000Y-34000000D03*
D42*
X14650000Y-23050000D03*
X14650000Y-22550000D03*
X14650000Y-22050000D03*
X14650000Y-21550000D03*
X14650000Y-21050000D03*
X14650000Y-20550000D03*
X14650000Y-20050000D03*
X14650000Y-19550000D03*
X14650000Y-19050000D03*
X14650000Y-18550000D03*
X14650000Y-18050000D03*
X14650000Y-17550000D03*
X14650000Y-17050000D03*
X14650000Y-16550000D03*
X14650000Y-16050000D03*
X14650000Y-15550000D03*
X14650000Y-15050000D03*
X14650000Y-14550000D03*
X14650000Y-14050000D03*
X14650000Y-13550000D03*
X14650000Y-13050000D03*
X14650000Y-12550000D03*
X14650000Y-12050000D03*
X14650000Y-11550000D03*
D43*
X12150000Y-10550000D03*
X12150000Y-24050000D03*
D44*
X35750000Y-23300000D03*
X36700000Y-23300000D03*
X37650000Y-23300000D03*
X38550000Y-23300000D03*
X39450000Y-23300000D03*
X40350000Y-23300000D03*
X41300000Y-23300000D03*
X42250000Y-23300000D03*
X42250000Y-24700000D03*
X41300000Y-24700000D03*
X40350000Y-24700000D03*
X39450000Y-24700000D03*
X38550000Y-24700000D03*
X37650000Y-24700000D03*
X36700000Y-24700000D03*
X35750000Y-24700000D03*
D45*
X37000000Y-22070000D03*
X37000000Y-25930000D03*
X41000000Y-22070000D03*
X41000000Y-25930000D03*
D18*
X40000000Y-14510000D03*
X40000000Y-13490000D03*
D46*
X40325000Y-42250000D03*
X38675000Y-42250000D03*
D25*
X16750000Y-44770000D03*
X16750000Y-45730000D03*
D19*
X16270000Y-16250000D03*
X17230000Y-16250000D03*
D47*
X14050000Y-44850000D03*
X14050000Y-45650000D03*
X15450000Y-45650000D03*
X15450000Y-44850000D03*
D34*
X34480000Y-18000000D03*
X33520000Y-18000000D03*
D48*
X56500000Y-2730000D03*
X56500000Y-1770000D03*
D19*
X16270000Y-10250000D03*
X17230000Y-10250000D03*
D17*
X45225000Y-10137500D03*
X46775000Y-10137500D03*
D26*
X74260000Y-21500000D03*
X73240000Y-21500000D03*
D48*
X38000000Y-12480000D03*
X38000000Y-11520000D03*
D19*
X16270000Y-17250000D03*
X17230000Y-17250000D03*
D49*
X46650000Y-11500000D03*
X46000000Y-11500000D03*
X45350000Y-11500000D03*
X45350000Y-13275000D03*
X46000000Y-13275000D03*
X46650000Y-13275000D03*
D50*
X46000000Y-12387500D03*
D21*
X32000000Y-12500000D03*
D25*
X25500000Y-18020000D03*
X25500000Y-18980000D03*
D21*
X26500000Y-38000000D03*
X21500000Y-38000000D03*
D33*
X38000000Y-19450000D03*
X38000000Y-18050000D03*
D24*
X49990000Y-21500000D03*
X51010000Y-21500000D03*
D51*
X72815000Y-31190000D03*
X72815000Y-25410000D03*
D52*
X72315000Y-32620000D03*
X72315000Y-23980000D03*
D53*
X76465000Y-32620000D03*
X76465000Y-23980000D03*
D54*
X71745000Y-31500000D03*
X71745000Y-30700000D03*
D55*
X71745000Y-29550000D03*
X71745000Y-28550000D03*
X71745000Y-28050000D03*
X71745000Y-30050000D03*
D54*
X71745000Y-25100000D03*
X71745000Y-25900000D03*
D55*
X71745000Y-26550000D03*
X71745000Y-27550000D03*
X71745000Y-29050000D03*
X71745000Y-27050000D03*
D48*
X16250000Y-20980000D03*
X16250000Y-20020000D03*
X40000000Y-12480000D03*
X40000000Y-11520000D03*
D32*
X40500000Y-27490000D03*
X40500000Y-28510000D03*
X38000000Y-27490000D03*
X38000000Y-28510000D03*
D56*
X28200000Y-19800000D03*
X28500000Y-17000000D03*
X28800000Y-19800000D03*
X29100000Y-17000000D03*
X29400000Y-19800000D03*
X29700000Y-17000000D03*
X30000000Y-19800000D03*
X30300000Y-17000000D03*
X30600000Y-19800000D03*
X30900000Y-17000000D03*
X31200000Y-19800000D03*
X31500000Y-17000000D03*
X31800000Y-19800000D03*
D57*
X32500000Y-19550000D03*
X27500000Y-19550000D03*
D58*
X37850000Y-43950000D03*
X37850000Y-44750000D03*
X37850000Y-45550000D03*
X40150000Y-45550000D03*
X40150000Y-44750000D03*
X40150000Y-43950000D03*
D34*
X34480000Y-16500000D03*
X33520000Y-16500000D03*
D59*
X28600000Y-11400000D03*
X28600000Y-8100000D03*
%LPD*%
M02*
