%TF.GenerationSoftware,KiCad,Pcbnew,8.0.3*%
%TF.CreationDate,2024-07-02T16:51:38-07:00*%
%TF.ProjectId,canary,63616e61-7279-42e6-9b69-6361645f7063,rev?*%
%TF.SameCoordinates,PX2faf080PY2faf080*%
%TF.FileFunction,Drillmap*%
%TF.FilePolarity,Positive*%
%FSLAX45Y45*%
G04 Gerber Fmt 4.5, Leading zero omitted, Abs format (unit mm)*
G04 Created by KiCad (PCBNEW 8.0.3) date 2024-07-02 16:51:38*
%MOMM*%
%LPD*%
G01*
G04 APERTURE LIST*
%ADD10C,0.050000*%
%ADD11C,0.200000*%
%ADD12C,0.100000*%
G04 APERTURE END LIST*
D10*
X1150000Y-4300000D02*
X1150000Y-4600000D01*
X6800000Y-4650000D02*
G75*
G02*
X6750000Y-4600000I0J50000D01*
G01*
X1800000Y-4400000D02*
X1800000Y-4600000D01*
X0Y0D02*
X7800000Y0D01*
X1300000Y-4350000D02*
X1750000Y-4350000D01*
X5100000Y-3400000D02*
G75*
G02*
X5150000Y-3350000I50000J0D01*
G01*
X150000Y-3300000D02*
X0Y-3300000D01*
X150000Y-1300000D02*
G75*
G02*
X300000Y-1450000I0J-150000D01*
G01*
X1900000Y-4600000D02*
G75*
G02*
X1850000Y-4650000I-50000J0D01*
G01*
X300000Y-1450000D02*
X300000Y-3150000D01*
X300000Y-3150000D02*
G75*
G02*
X150000Y-3300000I-150000J0D01*
G01*
X5250000Y-3450000D02*
X6700000Y-3450000D01*
X6850000Y-4600000D02*
X6850000Y-3400000D01*
X0Y-1300000D02*
X0Y0D01*
X1250000Y-4600000D02*
G75*
G02*
X1200000Y-4650000I-50000J0D01*
G01*
X1900000Y-4600000D02*
X1900000Y-4300000D01*
X6750000Y-3500000D02*
X6750000Y-4600000D01*
X1250000Y-4400000D02*
G75*
G02*
X1300000Y-4350000I50000J0D01*
G01*
X6700000Y-3450000D02*
G75*
G02*
X6750000Y-3500000I0J-50000D01*
G01*
X6800000Y-3350000D02*
X5150000Y-3350000D01*
X1150000Y-4300000D02*
G75*
G02*
X1200000Y-4250000I50000J0D01*
G01*
X7800000Y-4800000D02*
X0Y-4800000D01*
X5100000Y-3400000D02*
X5100000Y-4600000D01*
X5150000Y-4650000D02*
G75*
G02*
X5100000Y-4600000I0J50000D01*
G01*
X1250000Y-4600000D02*
X1250000Y-4400000D01*
X1200000Y-4650000D02*
G75*
G02*
X1150000Y-4600000I0J50000D01*
G01*
X5200000Y-3500000D02*
G75*
G02*
X5250000Y-3450000I50000J0D01*
G01*
X1750000Y-4350000D02*
G75*
G02*
X1800000Y-4400000I0J-50000D01*
G01*
X6800000Y-3350000D02*
G75*
G02*
X6850000Y-3400000I0J-50000D01*
G01*
X1850000Y-4250000D02*
G75*
G02*
X1900000Y-4300000I0J-50000D01*
G01*
X7800000Y0D02*
X7800000Y-4800000D01*
X5200000Y-4600000D02*
X5200000Y-3500000D01*
X0Y-1300000D02*
X150000Y-1300000D01*
X1850000Y-4250000D02*
X1200000Y-4250000D01*
X5200000Y-4600000D02*
G75*
G02*
X5150000Y-4650000I-50000J0D01*
G01*
X0Y-4800000D02*
X0Y-3300000D01*
X1850000Y-4650000D02*
G75*
G02*
X1800000Y-4600000I0J50000D01*
G01*
X6850000Y-4600000D02*
G75*
G02*
X6800000Y-4650000I-50000J0D01*
G01*
D11*
D12*
X485000Y-985000D02*
X515000Y-1015000D01*
X515000Y-985000D02*
X485000Y-1015000D01*
X485000Y-1485000D02*
X515000Y-1515000D01*
X515000Y-1485000D02*
X485000Y-1515000D01*
X485000Y-1985000D02*
X515000Y-2015000D01*
X515000Y-1985000D02*
X485000Y-2015000D01*
X485000Y-2485000D02*
X515000Y-2515000D01*
X515000Y-2485000D02*
X485000Y-2515000D01*
X485000Y-2985000D02*
X515000Y-3015000D01*
X515000Y-2985000D02*
X485000Y-3015000D01*
X885000Y-3885000D02*
X915000Y-3915000D01*
X915000Y-3885000D02*
X885000Y-3915000D01*
X1106030Y-1656030D02*
X1136030Y-1686030D01*
X1136030Y-1656030D02*
X1106030Y-1686030D01*
X1210000Y-1110000D02*
X1240000Y-1140000D01*
X1240000Y-1110000D02*
X1210000Y-1140000D01*
X1210478Y-1636435D02*
X1240478Y-1666435D01*
X1240478Y-1636435D02*
X1210478Y-1666435D01*
X1235000Y-3135000D02*
X1265000Y-3165000D01*
X1265000Y-3135000D02*
X1235000Y-3165000D01*
X1285000Y-1535000D02*
X1315000Y-1565000D01*
X1315000Y-1535000D02*
X1285000Y-1565000D01*
X1290779Y-1630632D02*
X1320779Y-1660632D01*
X1320779Y-1630632D02*
X1290779Y-1660632D01*
X1360000Y-1485000D02*
X1390000Y-1515000D01*
X1390000Y-1485000D02*
X1360000Y-1515000D01*
X1360000Y-2010000D02*
X1390000Y-2040000D01*
X1390000Y-2010000D02*
X1360000Y-2040000D01*
X1385000Y-4660000D02*
X1415000Y-4690000D01*
X1415000Y-4660000D02*
X1385000Y-4690000D01*
X1485000Y-735000D02*
X1515000Y-765000D01*
X1515000Y-735000D02*
X1485000Y-765000D01*
X1485000Y-3235000D02*
X1515000Y-3265000D01*
X1515000Y-3235000D02*
X1485000Y-3265000D01*
X1485000Y-3635000D02*
X1515000Y-3665000D01*
X1515000Y-3635000D02*
X1485000Y-3665000D01*
X1635000Y-1860000D02*
X1665000Y-1890000D01*
X1665000Y-1860000D02*
X1635000Y-1890000D01*
X1685000Y-685000D02*
X1715000Y-715000D01*
X1715000Y-685000D02*
X1685000Y-715000D01*
X1705000Y-4415000D02*
X1735000Y-4445000D01*
X1735000Y-4415000D02*
X1705000Y-4445000D01*
X1810000Y-1035000D02*
X1840000Y-1065000D01*
X1840000Y-1035000D02*
X1810000Y-1065000D01*
X1810000Y-1310000D02*
X1840000Y-1340000D01*
X1840000Y-1310000D02*
X1810000Y-1340000D01*
X1810000Y-1735000D02*
X1840000Y-1765000D01*
X1840000Y-1735000D02*
X1810000Y-1765000D01*
X1960000Y-2710000D02*
X1990000Y-2740000D01*
X1990000Y-2710000D02*
X1960000Y-2740000D01*
X2010000Y-4510000D02*
X2040000Y-4540000D01*
X2040000Y-4510000D02*
X2010000Y-4540000D01*
X2090000Y-4510000D02*
X2120000Y-4540000D01*
X2120000Y-4510000D02*
X2090000Y-4540000D01*
X2185000Y-935000D02*
X2215000Y-965000D01*
X2215000Y-935000D02*
X2185000Y-965000D01*
X2285000Y-3635000D02*
X2315000Y-3665000D01*
X2315000Y-3635000D02*
X2285000Y-3665000D01*
X2370000Y-3135000D02*
X2400000Y-3165000D01*
X2400000Y-3135000D02*
X2370000Y-3165000D01*
X2405962Y-1905962D02*
X2435962Y-1935962D01*
X2435962Y-1905962D02*
X2405962Y-1935962D01*
X2410000Y-1810000D02*
X2440000Y-1840000D01*
X2440000Y-1810000D02*
X2410000Y-1840000D01*
X2585000Y-1985000D02*
X2615000Y-2015000D01*
X2615000Y-1985000D02*
X2585000Y-2015000D01*
X2585000Y-2435000D02*
X2615000Y-2465000D01*
X2615000Y-2435000D02*
X2585000Y-2465000D01*
X2585000Y-2685000D02*
X2615000Y-2715000D01*
X2615000Y-2685000D02*
X2585000Y-2715000D01*
X2641569Y-2041569D02*
X2671569Y-2071569D01*
X2671569Y-2041569D02*
X2641569Y-2071569D01*
X2785000Y-4385000D02*
X2815000Y-4415000D01*
X2815000Y-4385000D02*
X2785000Y-4415000D01*
X2835000Y-1235000D02*
X2865000Y-1265000D01*
X2865000Y-1235000D02*
X2835000Y-1265000D01*
X2895000Y-1508076D02*
X2925000Y-1538076D01*
X2925000Y-1508076D02*
X2895000Y-1538076D01*
X2901538Y-2176538D02*
X2931538Y-2206538D01*
X2931538Y-2176538D02*
X2901538Y-2206538D01*
X2985000Y-2685000D02*
X3015000Y-2715000D01*
X3015000Y-2685000D02*
X2985000Y-2715000D01*
X2985000Y-3235000D02*
X3015000Y-3265000D01*
X3015000Y-3235000D02*
X2985000Y-3265000D01*
X3035000Y-1485000D02*
X3065000Y-1515000D01*
X3065000Y-1485000D02*
X3035000Y-1515000D01*
X3040000Y-2085000D02*
X3070000Y-2115000D01*
X3070000Y-2085000D02*
X3040000Y-2115000D01*
X3105000Y-1855000D02*
X3135000Y-1885000D01*
X3135000Y-1855000D02*
X3105000Y-1885000D01*
X3235000Y-1710000D02*
X3265000Y-1740000D01*
X3265000Y-1710000D02*
X3235000Y-1740000D01*
X3335000Y-1485000D02*
X3365000Y-1515000D01*
X3365000Y-1485000D02*
X3335000Y-1515000D01*
X3335000Y-1935000D02*
X3365000Y-1965000D01*
X3365000Y-1935000D02*
X3335000Y-1965000D01*
X3391569Y-1878431D02*
X3421569Y-1908431D01*
X3421569Y-1878431D02*
X3391569Y-1908431D01*
X3435000Y-1535000D02*
X3465000Y-1565000D01*
X3465000Y-1535000D02*
X3435000Y-1565000D01*
X3485000Y-1885000D02*
X3515000Y-1915000D01*
X3515000Y-1885000D02*
X3485000Y-1915000D01*
X3485000Y-3235000D02*
X3515000Y-3265000D01*
X3515000Y-3235000D02*
X3485000Y-3265000D01*
X3585000Y-685000D02*
X3615000Y-715000D01*
X3615000Y-685000D02*
X3585000Y-715000D01*
X3685000Y-2735000D02*
X3715000Y-2765000D01*
X3715000Y-2735000D02*
X3685000Y-2765000D01*
X3785000Y-1035000D02*
X3815000Y-1065000D01*
X3815000Y-1035000D02*
X3785000Y-1065000D01*
X3785000Y-1685000D02*
X3815000Y-1715000D01*
X3815000Y-1685000D02*
X3785000Y-1715000D01*
X3785000Y-2935000D02*
X3815000Y-2965000D01*
X3815000Y-2935000D02*
X3785000Y-2965000D01*
X3810000Y-4010000D02*
X3840000Y-4040000D01*
X3840000Y-4010000D02*
X3810000Y-4040000D01*
X3844840Y-935000D02*
X3874840Y-965000D01*
X3874840Y-935000D02*
X3844840Y-965000D01*
X3844840Y-2026840D02*
X3874840Y-2056840D01*
X3874840Y-2026840D02*
X3844840Y-2056840D01*
X3925160Y-935000D02*
X3955160Y-965000D01*
X3955160Y-935000D02*
X3925160Y-965000D01*
X3925160Y-2026840D02*
X3955160Y-2056840D01*
X3955160Y-2026840D02*
X3925160Y-2056840D01*
X3985000Y-1035000D02*
X4015000Y-1065000D01*
X4015000Y-1035000D02*
X3985000Y-1065000D01*
X3985000Y-1685000D02*
X4015000Y-1715000D01*
X4015000Y-1685000D02*
X3985000Y-1715000D01*
X4035000Y-2935000D02*
X4065000Y-2965000D01*
X4065000Y-2935000D02*
X4035000Y-2965000D01*
X4110000Y-4310000D02*
X4140000Y-4340000D01*
X4140000Y-4310000D02*
X4110000Y-4340000D01*
X4135000Y-635000D02*
X4165000Y-665000D01*
X4165000Y-635000D02*
X4135000Y-665000D01*
X4185000Y-3785000D02*
X4215000Y-3815000D01*
X4215000Y-3785000D02*
X4185000Y-3815000D01*
X4185000Y-4435000D02*
X4215000Y-4465000D01*
X4215000Y-4435000D02*
X4185000Y-4465000D01*
X4185000Y-4535000D02*
X4215000Y-4565000D01*
X4215000Y-4535000D02*
X4185000Y-4565000D01*
X4435000Y-1435000D02*
X4465000Y-1465000D01*
X4465000Y-1435000D02*
X4435000Y-1465000D01*
X4478431Y-2953431D02*
X4508431Y-2983431D01*
X4508431Y-2953431D02*
X4478431Y-2983431D01*
X4510000Y-1435000D02*
X4540000Y-1465000D01*
X4540000Y-1435000D02*
X4510000Y-1465000D01*
X4535000Y-885000D02*
X4565000Y-915000D01*
X4565000Y-885000D02*
X4535000Y-915000D01*
X4535000Y-3010000D02*
X4565000Y-3040000D01*
X4565000Y-3010000D02*
X4535000Y-3040000D01*
X4563397Y-2616443D02*
X4593397Y-2646443D01*
X4593397Y-2616443D02*
X4563397Y-2646443D01*
X4563397Y-2696763D02*
X4593397Y-2726763D01*
X4593397Y-2696763D02*
X4563397Y-2726763D01*
X4685000Y-885000D02*
X4715000Y-915000D01*
X4715000Y-885000D02*
X4685000Y-915000D01*
X4685000Y-2285000D02*
X4715000Y-2315000D01*
X4715000Y-2285000D02*
X4685000Y-2315000D01*
X4739849Y-2741763D02*
X4769849Y-2771763D01*
X4769849Y-2741763D02*
X4739849Y-2771763D01*
X4764927Y-2889926D02*
X4794927Y-2919926D01*
X4794927Y-2889926D02*
X4764927Y-2919926D01*
X4785000Y-985000D02*
X4815000Y-1015000D01*
X4815000Y-985000D02*
X4785000Y-1015000D01*
X4785000Y-3785000D02*
X4815000Y-3815000D01*
X4815000Y-3785000D02*
X4785000Y-3815000D01*
X4835000Y-182500D02*
X4865000Y-212500D01*
X4865000Y-182500D02*
X4835000Y-212500D01*
X4835000Y-635000D02*
X4865000Y-665000D01*
X4865000Y-635000D02*
X4835000Y-665000D01*
X4835000Y-1885000D02*
X4865000Y-1915000D01*
X4865000Y-1885000D02*
X4835000Y-1915000D01*
X4885000Y-397500D02*
X4915000Y-427500D01*
X4915000Y-397500D02*
X4885000Y-427500D01*
X4984556Y-197500D02*
X5014556Y-227500D01*
X5014556Y-197500D02*
X4984556Y-227500D01*
X5022056Y-460444D02*
X5052056Y-490444D01*
X5052056Y-460444D02*
X5022056Y-490444D01*
X5035000Y-272500D02*
X5065000Y-302500D01*
X5065000Y-272500D02*
X5035000Y-302500D01*
X5185000Y-885000D02*
X5215000Y-915000D01*
X5215000Y-885000D02*
X5185000Y-915000D01*
X5225000Y-764183D02*
X5255000Y-794183D01*
X5255000Y-764183D02*
X5225000Y-794183D01*
X5285000Y-435000D02*
X5315000Y-465000D01*
X5315000Y-435000D02*
X5285000Y-465000D01*
X5285000Y-1935000D02*
X5315000Y-1965000D01*
X5315000Y-1935000D02*
X5285000Y-1965000D01*
X5285000Y-3935000D02*
X5315000Y-3965000D01*
X5315000Y-3935000D02*
X5285000Y-3965000D01*
X5285000Y-4385000D02*
X5315000Y-4415000D01*
X5315000Y-4385000D02*
X5285000Y-4415000D01*
X5310000Y-235000D02*
X5340000Y-265000D01*
X5340000Y-235000D02*
X5310000Y-265000D01*
X5335000Y-3185000D02*
X5365000Y-3215000D01*
X5365000Y-3185000D02*
X5335000Y-3215000D01*
X5360000Y-310000D02*
X5390000Y-340000D01*
X5390000Y-310000D02*
X5360000Y-340000D01*
X5385000Y-435000D02*
X5415000Y-465000D01*
X5415000Y-435000D02*
X5385000Y-465000D01*
X5385000Y-535000D02*
X5415000Y-565000D01*
X5415000Y-535000D02*
X5385000Y-565000D01*
X5402455Y-777204D02*
X5432455Y-807204D01*
X5432455Y-777204D02*
X5402455Y-807204D01*
X5435000Y-1535000D02*
X5465000Y-1565000D01*
X5465000Y-1535000D02*
X5435000Y-1565000D01*
X5485000Y-1235000D02*
X5515000Y-1265000D01*
X5515000Y-1235000D02*
X5485000Y-1265000D01*
X5485000Y-2135000D02*
X5515000Y-2165000D01*
X5515000Y-2135000D02*
X5485000Y-2165000D01*
X5535000Y-697500D02*
X5565000Y-727500D01*
X5565000Y-697500D02*
X5535000Y-727500D01*
X5583904Y-1887763D02*
X5613904Y-1917763D01*
X5613904Y-1887763D02*
X5583904Y-1917763D01*
X5585000Y-2935000D02*
X5615000Y-2965000D01*
X5615000Y-2935000D02*
X5585000Y-2965000D01*
X5613397Y-1813397D02*
X5643397Y-1843397D01*
X5643397Y-1813397D02*
X5613397Y-1843397D01*
X5635000Y-635000D02*
X5665000Y-665000D01*
X5665000Y-635000D02*
X5635000Y-665000D01*
X5635000Y-885000D02*
X5665000Y-915000D01*
X5665000Y-885000D02*
X5635000Y-915000D01*
X5785000Y-2285000D02*
X5815000Y-2315000D01*
X5815000Y-2285000D02*
X5785000Y-2315000D01*
X5785000Y-2935000D02*
X5815000Y-2965000D01*
X5815000Y-2935000D02*
X5785000Y-2965000D01*
X5935000Y-2285000D02*
X5965000Y-2315000D01*
X5965000Y-2285000D02*
X5935000Y-2315000D01*
X6035000Y-310000D02*
X6065000Y-340000D01*
X6065000Y-310000D02*
X6035000Y-340000D01*
X6085000Y-2235000D02*
X6115000Y-2265000D01*
X6115000Y-2235000D02*
X6085000Y-2265000D01*
X6185000Y-185000D02*
X6215000Y-215000D01*
X6215000Y-185000D02*
X6185000Y-215000D01*
X6185000Y-485000D02*
X6215000Y-515000D01*
X6215000Y-485000D02*
X6185000Y-515000D01*
X6185000Y-1485000D02*
X6215000Y-1515000D01*
X6215000Y-1485000D02*
X6185000Y-1515000D01*
X6235000Y-2285000D02*
X6265000Y-2315000D01*
X6265000Y-2285000D02*
X6235000Y-2315000D01*
X6285000Y-835000D02*
X6315000Y-865000D01*
X6315000Y-835000D02*
X6285000Y-865000D01*
X6285000Y-975000D02*
X6315000Y-1005000D01*
X6315000Y-975000D02*
X6285000Y-1005000D01*
X6385000Y-660000D02*
X6415000Y-690000D01*
X6415000Y-660000D02*
X6385000Y-690000D01*
X6385000Y-1135000D02*
X6415000Y-1165000D01*
X6415000Y-1135000D02*
X6385000Y-1165000D01*
X6385000Y-2085000D02*
X6415000Y-2115000D01*
X6415000Y-2085000D02*
X6385000Y-2115000D01*
X6435000Y-2222500D02*
X6465000Y-2252500D01*
X6465000Y-2222500D02*
X6435000Y-2252500D01*
X6485000Y-2085000D02*
X6515000Y-2115000D01*
X6515000Y-2085000D02*
X6485000Y-2115000D01*
X6535000Y-660000D02*
X6565000Y-690000D01*
X6565000Y-660000D02*
X6535000Y-690000D01*
X6535000Y-1135000D02*
X6565000Y-1165000D01*
X6565000Y-1135000D02*
X6535000Y-1165000D01*
X6535000Y-4135000D02*
X6565000Y-4165000D01*
X6565000Y-4135000D02*
X6535000Y-4165000D01*
X6549783Y-2820217D02*
X6579783Y-2850217D01*
X6579783Y-2820217D02*
X6549783Y-2850217D01*
X6635000Y-2935000D02*
X6665000Y-2965000D01*
X6665000Y-2935000D02*
X6635000Y-2965000D01*
X6635000Y-4585000D02*
X6665000Y-4615000D01*
X6665000Y-4585000D02*
X6635000Y-4615000D01*
X6685000Y-660000D02*
X6715000Y-690000D01*
X6715000Y-660000D02*
X6685000Y-690000D01*
X6685000Y-1135000D02*
X6715000Y-1165000D01*
X6715000Y-1135000D02*
X6685000Y-1165000D01*
X6685000Y-2385000D02*
X6715000Y-2415000D01*
X6715000Y-2385000D02*
X6685000Y-2415000D01*
X6735000Y-2835000D02*
X6765000Y-2865000D01*
X6765000Y-2835000D02*
X6735000Y-2865000D01*
X6785000Y-835000D02*
X6815000Y-865000D01*
X6815000Y-835000D02*
X6785000Y-865000D01*
X6785000Y-985000D02*
X6815000Y-1015000D01*
X6815000Y-985000D02*
X6785000Y-1015000D01*
X6785000Y-2560000D02*
X6815000Y-2590000D01*
X6815000Y-2560000D02*
X6785000Y-2590000D01*
X6935000Y-2635000D02*
X6965000Y-2665000D01*
X6965000Y-2635000D02*
X6935000Y-2665000D01*
X6935000Y-2947500D02*
X6965000Y-2977500D01*
X6965000Y-2947500D02*
X6935000Y-2977500D01*
X6935000Y-3135000D02*
X6965000Y-3165000D01*
X6965000Y-3135000D02*
X6935000Y-3165000D01*
X6946621Y-2473379D02*
X6976621Y-2503379D01*
X6976621Y-2473379D02*
X6946621Y-2503379D01*
X7035000Y-2485000D02*
X7065000Y-2515000D01*
X7065000Y-2485000D02*
X7035000Y-2515000D01*
X7035000Y-3135000D02*
X7065000Y-3165000D01*
X7065000Y-3135000D02*
X7035000Y-3165000D01*
X7085000Y-1085000D02*
X7115000Y-1115000D01*
X7115000Y-1085000D02*
X7085000Y-1115000D01*
X7085000Y-1485000D02*
X7115000Y-1515000D01*
X7115000Y-1485000D02*
X7085000Y-1515000D01*
X7085000Y-4485000D02*
X7115000Y-4515000D01*
X7115000Y-4485000D02*
X7085000Y-4515000D01*
X7085000Y-4585000D02*
X7115000Y-4615000D01*
X7115000Y-4585000D02*
X7085000Y-4615000D01*
X7235000Y-2135000D02*
X7265000Y-2165000D01*
X7265000Y-2135000D02*
X7235000Y-2165000D01*
X7285000Y-185000D02*
X7315000Y-215000D01*
X7315000Y-185000D02*
X7285000Y-215000D01*
X7285000Y-485000D02*
X7315000Y-515000D01*
X7315000Y-485000D02*
X7285000Y-515000D01*
X7385000Y-385000D02*
X7415000Y-415000D01*
X7415000Y-385000D02*
X7385000Y-415000D01*
X7385000Y-3785000D02*
X7415000Y-3815000D01*
X7415000Y-3785000D02*
X7385000Y-3815000D01*
X7385000Y-4285000D02*
X7415000Y-4315000D01*
X7415000Y-4285000D02*
X7385000Y-4315000D01*
X7705000Y-235000D02*
X7735000Y-265000D01*
X7735000Y-235000D02*
X7705000Y-265000D01*
X3595000Y-2330000D02*
G75*
G02*
X3555000Y-2330000I-20000J0D01*
G01*
X3555000Y-2330000D02*
G75*
G02*
X3595000Y-2330000I20000J0D01*
G01*
X3595000Y-2470000D02*
G75*
G02*
X3555000Y-2470000I-20000J0D01*
G01*
X3555000Y-2470000D02*
G75*
G02*
X3595000Y-2470000I20000J0D01*
G01*
X3690000Y-2330000D02*
G75*
G02*
X3650000Y-2330000I-20000J0D01*
G01*
X3650000Y-2330000D02*
G75*
G02*
X3690000Y-2330000I20000J0D01*
G01*
X3690000Y-2470000D02*
G75*
G02*
X3650000Y-2470000I-20000J0D01*
G01*
X3650000Y-2470000D02*
G75*
G02*
X3690000Y-2470000I20000J0D01*
G01*
X3785000Y-2330000D02*
G75*
G02*
X3745000Y-2330000I-20000J0D01*
G01*
X3745000Y-2330000D02*
G75*
G02*
X3785000Y-2330000I20000J0D01*
G01*
X3785000Y-2470000D02*
G75*
G02*
X3745000Y-2470000I-20000J0D01*
G01*
X3745000Y-2470000D02*
G75*
G02*
X3785000Y-2470000I20000J0D01*
G01*
X3875000Y-2330000D02*
G75*
G02*
X3835000Y-2330000I-20000J0D01*
G01*
X3835000Y-2330000D02*
G75*
G02*
X3875000Y-2330000I20000J0D01*
G01*
X3875000Y-2470000D02*
G75*
G02*
X3835000Y-2470000I-20000J0D01*
G01*
X3835000Y-2470000D02*
G75*
G02*
X3875000Y-2470000I20000J0D01*
G01*
X3965000Y-2330000D02*
G75*
G02*
X3925000Y-2330000I-20000J0D01*
G01*
X3925000Y-2330000D02*
G75*
G02*
X3965000Y-2330000I20000J0D01*
G01*
X3965000Y-2470000D02*
G75*
G02*
X3925000Y-2470000I-20000J0D01*
G01*
X3925000Y-2470000D02*
G75*
G02*
X3965000Y-2470000I20000J0D01*
G01*
X4055000Y-2330000D02*
G75*
G02*
X4015000Y-2330000I-20000J0D01*
G01*
X4015000Y-2330000D02*
G75*
G02*
X4055000Y-2330000I20000J0D01*
G01*
X4055000Y-2470000D02*
G75*
G02*
X4015000Y-2470000I-20000J0D01*
G01*
X4015000Y-2470000D02*
G75*
G02*
X4055000Y-2470000I20000J0D01*
G01*
X4150000Y-2330000D02*
G75*
G02*
X4110000Y-2330000I-20000J0D01*
G01*
X4110000Y-2330000D02*
G75*
G02*
X4150000Y-2330000I20000J0D01*
G01*
X4150000Y-2470000D02*
G75*
G02*
X4110000Y-2470000I-20000J0D01*
G01*
X4110000Y-2470000D02*
G75*
G02*
X4150000Y-2470000I20000J0D01*
G01*
X4245000Y-2330000D02*
G75*
G02*
X4205000Y-2330000I-20000J0D01*
G01*
X4205000Y-2330000D02*
G75*
G02*
X4245000Y-2330000I20000J0D01*
G01*
X4245000Y-2470000D02*
G75*
G02*
X4205000Y-2470000I-20000J0D01*
G01*
X4205000Y-2470000D02*
G75*
G02*
X4245000Y-2470000I20000J0D01*
G01*
X3700000Y-2181999D02*
X3700000Y-2232001D01*
X3674999Y-2207000D02*
X3725001Y-2207000D01*
X3652501Y-2232001D02*
X3747499Y-2232001D01*
X3747499Y-2181999D02*
G75*
G02*
X3747499Y-2232001I0J-25001D01*
G01*
X3747499Y-2181999D02*
X3652501Y-2181999D01*
X3652501Y-2181999D02*
G75*
G03*
X3652501Y-2232001I0J-25001D01*
G01*
X3700000Y-2567999D02*
X3700000Y-2618001D01*
X3674999Y-2593000D02*
X3725001Y-2593000D01*
X3652501Y-2618001D02*
X3747499Y-2618001D01*
X3747499Y-2567999D02*
G75*
G02*
X3747499Y-2618001I0J-25001D01*
G01*
X3747499Y-2567999D02*
X3652501Y-2567999D01*
X3652501Y-2567999D02*
G75*
G03*
X3652501Y-2618001I0J-25001D01*
G01*
X4100000Y-2181999D02*
X4100000Y-2232001D01*
X4074999Y-2207000D02*
X4125001Y-2207000D01*
X4052501Y-2232001D02*
X4147499Y-2232001D01*
X4147499Y-2181999D02*
G75*
G02*
X4147499Y-2232001I0J-25001D01*
G01*
X4147499Y-2181999D02*
X4052501Y-2181999D01*
X4052501Y-2181999D02*
G75*
G03*
X4052501Y-2232001I0J-25001D01*
G01*
X4100000Y-2567999D02*
X4100000Y-2618001D01*
X4074999Y-2593000D02*
X4125001Y-2593000D01*
X4052501Y-2618001D02*
X4147499Y-2618001D01*
X4147499Y-2567999D02*
G75*
G02*
X4147499Y-2618001I0J-25001D01*
G01*
X4147499Y-2567999D02*
X4052501Y-2567999D01*
X4052501Y-2567999D02*
G75*
G03*
X4052501Y-2618001I0J-25001D01*
G01*
X7252713Y-2419213D02*
X7252713Y-2376787D01*
X7210287Y-2376787D01*
X7210287Y-2419213D01*
X7252713Y-2419213D01*
X7176499Y-2428000D02*
X7286501Y-2428000D01*
X7286501Y-2368000D02*
G75*
G02*
X7286501Y-2428000I0J-30000D01*
G01*
X7286501Y-2368000D02*
X7176499Y-2368000D01*
X7176499Y-2368000D02*
G75*
G03*
X7176499Y-2428000I0J-30000D01*
G01*
X7252713Y-3283213D02*
X7252713Y-3240787D01*
X7210287Y-3240787D01*
X7210287Y-3283213D01*
X7252713Y-3283213D01*
X7176499Y-3292000D02*
X7286501Y-3292000D01*
X7286501Y-3232000D02*
G75*
G02*
X7286501Y-3292000I0J-30000D01*
G01*
X7286501Y-3232000D02*
X7176499Y-3232000D01*
X7176499Y-3232000D02*
G75*
G03*
X7176499Y-3292000I0J-30000D01*
G01*
X7667713Y-2419213D02*
X7667713Y-2376787D01*
X7625287Y-2376787D01*
X7625287Y-2419213D01*
X7667713Y-2419213D01*
X7606500Y-2428000D02*
X7686500Y-2428000D01*
X7686500Y-2368000D02*
G75*
G02*
X7686500Y-2428000I0J-30000D01*
G01*
X7686500Y-2368000D02*
X7606500Y-2368000D01*
X7606500Y-2368000D02*
G75*
G03*
X7606500Y-2428000I0J-30000D01*
G01*
X7667713Y-3283213D02*
X7667713Y-3240787D01*
X7625287Y-3240787D01*
X7625287Y-3283213D01*
X7667713Y-3283213D01*
X7606500Y-3292000D02*
X7686500Y-3292000D01*
X7686500Y-3232000D02*
G75*
G02*
X7686500Y-3292000I0J-30000D01*
G01*
X7686500Y-3232000D02*
X7606500Y-3232000D01*
X7606500Y-3232000D02*
G75*
G03*
X7606500Y-3292000I0J-30000D01*
G01*
D11*
X258277Y-5113984D02*
X258277Y-4913984D01*
X258277Y-4913984D02*
X305896Y-4913984D01*
X305896Y-4913984D02*
X334467Y-4923508D01*
X334467Y-4923508D02*
X353515Y-4942555D01*
X353515Y-4942555D02*
X363039Y-4961603D01*
X363039Y-4961603D02*
X372562Y-4999698D01*
X372562Y-4999698D02*
X372562Y-5028270D01*
X372562Y-5028270D02*
X363039Y-5066365D01*
X363039Y-5066365D02*
X353515Y-5085412D01*
X353515Y-5085412D02*
X334467Y-5104460D01*
X334467Y-5104460D02*
X305896Y-5113984D01*
X305896Y-5113984D02*
X258277Y-5113984D01*
X458277Y-5113984D02*
X458277Y-4980650D01*
X458277Y-5018746D02*
X467801Y-4999698D01*
X467801Y-4999698D02*
X477324Y-4990174D01*
X477324Y-4990174D02*
X496372Y-4980650D01*
X496372Y-4980650D02*
X515420Y-4980650D01*
X582086Y-5113984D02*
X582086Y-4980650D01*
X582086Y-4913984D02*
X572563Y-4923508D01*
X572563Y-4923508D02*
X582086Y-4933031D01*
X582086Y-4933031D02*
X591610Y-4923508D01*
X591610Y-4923508D02*
X582086Y-4913984D01*
X582086Y-4913984D02*
X582086Y-4933031D01*
X705896Y-5113984D02*
X686848Y-5104460D01*
X686848Y-5104460D02*
X677324Y-5085412D01*
X677324Y-5085412D02*
X677324Y-4913984D01*
X810658Y-5113984D02*
X791610Y-5104460D01*
X791610Y-5104460D02*
X782086Y-5085412D01*
X782086Y-5085412D02*
X782086Y-4913984D01*
X1039229Y-5113984D02*
X1039229Y-4913984D01*
X1039229Y-4913984D02*
X1105896Y-5056841D01*
X1105896Y-5056841D02*
X1172563Y-4913984D01*
X1172563Y-4913984D02*
X1172563Y-5113984D01*
X1353515Y-5113984D02*
X1353515Y-5009222D01*
X1353515Y-5009222D02*
X1343991Y-4990174D01*
X1343991Y-4990174D02*
X1324944Y-4980650D01*
X1324944Y-4980650D02*
X1286848Y-4980650D01*
X1286848Y-4980650D02*
X1267801Y-4990174D01*
X1353515Y-5104460D02*
X1334467Y-5113984D01*
X1334467Y-5113984D02*
X1286848Y-5113984D01*
X1286848Y-5113984D02*
X1267801Y-5104460D01*
X1267801Y-5104460D02*
X1258277Y-5085412D01*
X1258277Y-5085412D02*
X1258277Y-5066365D01*
X1258277Y-5066365D02*
X1267801Y-5047317D01*
X1267801Y-5047317D02*
X1286848Y-5037793D01*
X1286848Y-5037793D02*
X1334467Y-5037793D01*
X1334467Y-5037793D02*
X1353515Y-5028270D01*
X1448753Y-4980650D02*
X1448753Y-5180650D01*
X1448753Y-4990174D02*
X1467801Y-4980650D01*
X1467801Y-4980650D02*
X1505896Y-4980650D01*
X1505896Y-4980650D02*
X1524943Y-4990174D01*
X1524943Y-4990174D02*
X1534467Y-4999698D01*
X1534467Y-4999698D02*
X1543991Y-5018746D01*
X1543991Y-5018746D02*
X1543991Y-5075889D01*
X1543991Y-5075889D02*
X1534467Y-5094936D01*
X1534467Y-5094936D02*
X1524943Y-5104460D01*
X1524943Y-5104460D02*
X1505896Y-5113984D01*
X1505896Y-5113984D02*
X1467801Y-5113984D01*
X1467801Y-5113984D02*
X1448753Y-5104460D01*
X1629705Y-5094936D02*
X1639229Y-5104460D01*
X1639229Y-5104460D02*
X1629705Y-5113984D01*
X1629705Y-5113984D02*
X1620182Y-5104460D01*
X1620182Y-5104460D02*
X1629705Y-5094936D01*
X1629705Y-5094936D02*
X1629705Y-5113984D01*
X1629705Y-4990174D02*
X1639229Y-4999698D01*
X1639229Y-4999698D02*
X1629705Y-5009222D01*
X1629705Y-5009222D02*
X1620182Y-4999698D01*
X1620182Y-4999698D02*
X1629705Y-4990174D01*
X1629705Y-4990174D02*
X1629705Y-5009222D01*
D12*
X-32500Y-5427500D02*
X-2500Y-5457500D01*
X-2500Y-5427500D02*
X-32500Y-5457500D01*
D11*
X296372Y-5333984D02*
X315420Y-5333984D01*
X315420Y-5333984D02*
X334467Y-5343508D01*
X334467Y-5343508D02*
X343991Y-5353031D01*
X343991Y-5353031D02*
X353515Y-5372079D01*
X353515Y-5372079D02*
X363039Y-5410174D01*
X363039Y-5410174D02*
X363039Y-5457793D01*
X363039Y-5457793D02*
X353515Y-5495889D01*
X353515Y-5495889D02*
X343991Y-5514936D01*
X343991Y-5514936D02*
X334467Y-5524460D01*
X334467Y-5524460D02*
X315420Y-5533984D01*
X315420Y-5533984D02*
X296372Y-5533984D01*
X296372Y-5533984D02*
X277324Y-5524460D01*
X277324Y-5524460D02*
X267801Y-5514936D01*
X267801Y-5514936D02*
X258277Y-5495889D01*
X258277Y-5495889D02*
X248753Y-5457793D01*
X248753Y-5457793D02*
X248753Y-5410174D01*
X248753Y-5410174D02*
X258277Y-5372079D01*
X258277Y-5372079D02*
X267801Y-5353031D01*
X267801Y-5353031D02*
X277324Y-5343508D01*
X277324Y-5343508D02*
X296372Y-5333984D01*
X448753Y-5514936D02*
X458277Y-5524460D01*
X458277Y-5524460D02*
X448753Y-5533984D01*
X448753Y-5533984D02*
X439229Y-5524460D01*
X439229Y-5524460D02*
X448753Y-5514936D01*
X448753Y-5514936D02*
X448753Y-5533984D01*
X524944Y-5333984D02*
X648753Y-5333984D01*
X648753Y-5333984D02*
X582086Y-5410174D01*
X582086Y-5410174D02*
X610658Y-5410174D01*
X610658Y-5410174D02*
X629705Y-5419698D01*
X629705Y-5419698D02*
X639229Y-5429222D01*
X639229Y-5429222D02*
X648753Y-5448270D01*
X648753Y-5448270D02*
X648753Y-5495889D01*
X648753Y-5495889D02*
X639229Y-5514936D01*
X639229Y-5514936D02*
X629705Y-5524460D01*
X629705Y-5524460D02*
X610658Y-5533984D01*
X610658Y-5533984D02*
X553515Y-5533984D01*
X553515Y-5533984D02*
X534467Y-5524460D01*
X534467Y-5524460D02*
X524944Y-5514936D01*
X772562Y-5333984D02*
X791610Y-5333984D01*
X791610Y-5333984D02*
X810658Y-5343508D01*
X810658Y-5343508D02*
X820182Y-5353031D01*
X820182Y-5353031D02*
X829705Y-5372079D01*
X829705Y-5372079D02*
X839229Y-5410174D01*
X839229Y-5410174D02*
X839229Y-5457793D01*
X839229Y-5457793D02*
X829705Y-5495889D01*
X829705Y-5495889D02*
X820182Y-5514936D01*
X820182Y-5514936D02*
X810658Y-5524460D01*
X810658Y-5524460D02*
X791610Y-5533984D01*
X791610Y-5533984D02*
X772562Y-5533984D01*
X772562Y-5533984D02*
X753515Y-5524460D01*
X753515Y-5524460D02*
X743991Y-5514936D01*
X743991Y-5514936D02*
X734467Y-5495889D01*
X734467Y-5495889D02*
X724943Y-5457793D01*
X724943Y-5457793D02*
X724943Y-5410174D01*
X724943Y-5410174D02*
X734467Y-5372079D01*
X734467Y-5372079D02*
X743991Y-5353031D01*
X743991Y-5353031D02*
X753515Y-5343508D01*
X753515Y-5343508D02*
X772562Y-5333984D01*
X963039Y-5333984D02*
X982086Y-5333984D01*
X982086Y-5333984D02*
X1001134Y-5343508D01*
X1001134Y-5343508D02*
X1010658Y-5353031D01*
X1010658Y-5353031D02*
X1020182Y-5372079D01*
X1020182Y-5372079D02*
X1029705Y-5410174D01*
X1029705Y-5410174D02*
X1029705Y-5457793D01*
X1029705Y-5457793D02*
X1020182Y-5495889D01*
X1020182Y-5495889D02*
X1010658Y-5514936D01*
X1010658Y-5514936D02*
X1001134Y-5524460D01*
X1001134Y-5524460D02*
X982086Y-5533984D01*
X982086Y-5533984D02*
X963039Y-5533984D01*
X963039Y-5533984D02*
X943991Y-5524460D01*
X943991Y-5524460D02*
X934467Y-5514936D01*
X934467Y-5514936D02*
X924943Y-5495889D01*
X924943Y-5495889D02*
X915420Y-5457793D01*
X915420Y-5457793D02*
X915420Y-5410174D01*
X915420Y-5410174D02*
X924943Y-5372079D01*
X924943Y-5372079D02*
X934467Y-5353031D01*
X934467Y-5353031D02*
X943991Y-5343508D01*
X943991Y-5343508D02*
X963039Y-5333984D01*
X1115420Y-5533984D02*
X1115420Y-5400650D01*
X1115420Y-5419698D02*
X1124944Y-5410174D01*
X1124944Y-5410174D02*
X1143991Y-5400650D01*
X1143991Y-5400650D02*
X1172563Y-5400650D01*
X1172563Y-5400650D02*
X1191610Y-5410174D01*
X1191610Y-5410174D02*
X1201134Y-5429222D01*
X1201134Y-5429222D02*
X1201134Y-5533984D01*
X1201134Y-5429222D02*
X1210658Y-5410174D01*
X1210658Y-5410174D02*
X1229705Y-5400650D01*
X1229705Y-5400650D02*
X1258277Y-5400650D01*
X1258277Y-5400650D02*
X1277325Y-5410174D01*
X1277325Y-5410174D02*
X1286848Y-5429222D01*
X1286848Y-5429222D02*
X1286848Y-5533984D01*
X1382086Y-5533984D02*
X1382086Y-5400650D01*
X1382086Y-5419698D02*
X1391610Y-5410174D01*
X1391610Y-5410174D02*
X1410658Y-5400650D01*
X1410658Y-5400650D02*
X1439229Y-5400650D01*
X1439229Y-5400650D02*
X1458277Y-5410174D01*
X1458277Y-5410174D02*
X1467801Y-5429222D01*
X1467801Y-5429222D02*
X1467801Y-5533984D01*
X1467801Y-5429222D02*
X1477324Y-5410174D01*
X1477324Y-5410174D02*
X1496372Y-5400650D01*
X1496372Y-5400650D02*
X1524943Y-5400650D01*
X1524943Y-5400650D02*
X1543991Y-5410174D01*
X1543991Y-5410174D02*
X1553515Y-5429222D01*
X1553515Y-5429222D02*
X1553515Y-5533984D01*
X1943991Y-5324460D02*
X1772563Y-5581603D01*
X2201134Y-5333984D02*
X2220182Y-5333984D01*
X2220182Y-5333984D02*
X2239229Y-5343508D01*
X2239229Y-5343508D02*
X2248753Y-5353031D01*
X2248753Y-5353031D02*
X2258277Y-5372079D01*
X2258277Y-5372079D02*
X2267801Y-5410174D01*
X2267801Y-5410174D02*
X2267801Y-5457793D01*
X2267801Y-5457793D02*
X2258277Y-5495889D01*
X2258277Y-5495889D02*
X2248753Y-5514936D01*
X2248753Y-5514936D02*
X2239229Y-5524460D01*
X2239229Y-5524460D02*
X2220182Y-5533984D01*
X2220182Y-5533984D02*
X2201134Y-5533984D01*
X2201134Y-5533984D02*
X2182087Y-5524460D01*
X2182087Y-5524460D02*
X2172563Y-5514936D01*
X2172563Y-5514936D02*
X2163039Y-5495889D01*
X2163039Y-5495889D02*
X2153515Y-5457793D01*
X2153515Y-5457793D02*
X2153515Y-5410174D01*
X2153515Y-5410174D02*
X2163039Y-5372079D01*
X2163039Y-5372079D02*
X2172563Y-5353031D01*
X2172563Y-5353031D02*
X2182087Y-5343508D01*
X2182087Y-5343508D02*
X2201134Y-5333984D01*
X2353515Y-5514936D02*
X2363039Y-5524460D01*
X2363039Y-5524460D02*
X2353515Y-5533984D01*
X2353515Y-5533984D02*
X2343991Y-5524460D01*
X2343991Y-5524460D02*
X2353515Y-5514936D01*
X2353515Y-5514936D02*
X2353515Y-5533984D01*
X2486848Y-5333984D02*
X2505896Y-5333984D01*
X2505896Y-5333984D02*
X2524944Y-5343508D01*
X2524944Y-5343508D02*
X2534468Y-5353031D01*
X2534468Y-5353031D02*
X2543991Y-5372079D01*
X2543991Y-5372079D02*
X2553515Y-5410174D01*
X2553515Y-5410174D02*
X2553515Y-5457793D01*
X2553515Y-5457793D02*
X2543991Y-5495889D01*
X2543991Y-5495889D02*
X2534468Y-5514936D01*
X2534468Y-5514936D02*
X2524944Y-5524460D01*
X2524944Y-5524460D02*
X2505896Y-5533984D01*
X2505896Y-5533984D02*
X2486848Y-5533984D01*
X2486848Y-5533984D02*
X2467801Y-5524460D01*
X2467801Y-5524460D02*
X2458277Y-5514936D01*
X2458277Y-5514936D02*
X2448753Y-5495889D01*
X2448753Y-5495889D02*
X2439229Y-5457793D01*
X2439229Y-5457793D02*
X2439229Y-5410174D01*
X2439229Y-5410174D02*
X2448753Y-5372079D01*
X2448753Y-5372079D02*
X2458277Y-5353031D01*
X2458277Y-5353031D02*
X2467801Y-5343508D01*
X2467801Y-5343508D02*
X2486848Y-5333984D01*
X2743991Y-5533984D02*
X2629706Y-5533984D01*
X2686848Y-5533984D02*
X2686848Y-5333984D01*
X2686848Y-5333984D02*
X2667801Y-5362555D01*
X2667801Y-5362555D02*
X2648753Y-5381603D01*
X2648753Y-5381603D02*
X2629706Y-5391127D01*
X2934467Y-5533984D02*
X2820182Y-5533984D01*
X2877325Y-5533984D02*
X2877325Y-5333984D01*
X2877325Y-5333984D02*
X2858277Y-5362555D01*
X2858277Y-5362555D02*
X2839229Y-5381603D01*
X2839229Y-5381603D02*
X2820182Y-5391127D01*
X3048753Y-5419698D02*
X3029706Y-5410174D01*
X3029706Y-5410174D02*
X3020182Y-5400650D01*
X3020182Y-5400650D02*
X3010658Y-5381603D01*
X3010658Y-5381603D02*
X3010658Y-5372079D01*
X3010658Y-5372079D02*
X3020182Y-5353031D01*
X3020182Y-5353031D02*
X3029706Y-5343508D01*
X3029706Y-5343508D02*
X3048753Y-5333984D01*
X3048753Y-5333984D02*
X3086848Y-5333984D01*
X3086848Y-5333984D02*
X3105896Y-5343508D01*
X3105896Y-5343508D02*
X3115420Y-5353031D01*
X3115420Y-5353031D02*
X3124944Y-5372079D01*
X3124944Y-5372079D02*
X3124944Y-5381603D01*
X3124944Y-5381603D02*
X3115420Y-5400650D01*
X3115420Y-5400650D02*
X3105896Y-5410174D01*
X3105896Y-5410174D02*
X3086848Y-5419698D01*
X3086848Y-5419698D02*
X3048753Y-5419698D01*
X3048753Y-5419698D02*
X3029706Y-5429222D01*
X3029706Y-5429222D02*
X3020182Y-5438746D01*
X3020182Y-5438746D02*
X3010658Y-5457793D01*
X3010658Y-5457793D02*
X3010658Y-5495889D01*
X3010658Y-5495889D02*
X3020182Y-5514936D01*
X3020182Y-5514936D02*
X3029706Y-5524460D01*
X3029706Y-5524460D02*
X3048753Y-5533984D01*
X3048753Y-5533984D02*
X3086848Y-5533984D01*
X3086848Y-5533984D02*
X3105896Y-5524460D01*
X3105896Y-5524460D02*
X3115420Y-5514936D01*
X3115420Y-5514936D02*
X3124944Y-5495889D01*
X3124944Y-5495889D02*
X3124944Y-5457793D01*
X3124944Y-5457793D02*
X3115420Y-5438746D01*
X3115420Y-5438746D02*
X3105896Y-5429222D01*
X3105896Y-5429222D02*
X3086848Y-5419698D01*
X3201134Y-5333984D02*
X3201134Y-5372079D01*
X3277325Y-5333984D02*
X3277325Y-5372079D01*
X3572563Y-5610174D02*
X3563039Y-5600650D01*
X3563039Y-5600650D02*
X3543991Y-5572079D01*
X3543991Y-5572079D02*
X3534468Y-5553031D01*
X3534468Y-5553031D02*
X3524944Y-5524460D01*
X3524944Y-5524460D02*
X3515420Y-5476841D01*
X3515420Y-5476841D02*
X3515420Y-5438746D01*
X3515420Y-5438746D02*
X3524944Y-5391127D01*
X3524944Y-5391127D02*
X3534468Y-5362555D01*
X3534468Y-5362555D02*
X3543991Y-5343508D01*
X3543991Y-5343508D02*
X3563039Y-5314936D01*
X3563039Y-5314936D02*
X3572563Y-5305412D01*
X3753515Y-5533984D02*
X3639229Y-5533984D01*
X3696372Y-5533984D02*
X3696372Y-5333984D01*
X3696372Y-5333984D02*
X3677325Y-5362555D01*
X3677325Y-5362555D02*
X3658277Y-5381603D01*
X3658277Y-5381603D02*
X3639229Y-5391127D01*
X3934468Y-5333984D02*
X3839229Y-5333984D01*
X3839229Y-5333984D02*
X3829706Y-5429222D01*
X3829706Y-5429222D02*
X3839229Y-5419698D01*
X3839229Y-5419698D02*
X3858277Y-5410174D01*
X3858277Y-5410174D02*
X3905896Y-5410174D01*
X3905896Y-5410174D02*
X3924944Y-5419698D01*
X3924944Y-5419698D02*
X3934468Y-5429222D01*
X3934468Y-5429222D02*
X3943991Y-5448270D01*
X3943991Y-5448270D02*
X3943991Y-5495889D01*
X3943991Y-5495889D02*
X3934468Y-5514936D01*
X3934468Y-5514936D02*
X3924944Y-5524460D01*
X3924944Y-5524460D02*
X3905896Y-5533984D01*
X3905896Y-5533984D02*
X3858277Y-5533984D01*
X3858277Y-5533984D02*
X3839229Y-5524460D01*
X3839229Y-5524460D02*
X3829706Y-5514936D01*
X4010658Y-5333984D02*
X4143991Y-5333984D01*
X4143991Y-5333984D02*
X4058277Y-5533984D01*
X4372563Y-5533984D02*
X4372563Y-5333984D01*
X4458277Y-5533984D02*
X4458277Y-5429222D01*
X4458277Y-5429222D02*
X4448753Y-5410174D01*
X4448753Y-5410174D02*
X4429706Y-5400650D01*
X4429706Y-5400650D02*
X4401134Y-5400650D01*
X4401134Y-5400650D02*
X4382087Y-5410174D01*
X4382087Y-5410174D02*
X4372563Y-5419698D01*
X4582087Y-5533984D02*
X4563039Y-5524460D01*
X4563039Y-5524460D02*
X4553515Y-5514936D01*
X4553515Y-5514936D02*
X4543992Y-5495889D01*
X4543992Y-5495889D02*
X4543992Y-5438746D01*
X4543992Y-5438746D02*
X4553515Y-5419698D01*
X4553515Y-5419698D02*
X4563039Y-5410174D01*
X4563039Y-5410174D02*
X4582087Y-5400650D01*
X4582087Y-5400650D02*
X4610658Y-5400650D01*
X4610658Y-5400650D02*
X4629706Y-5410174D01*
X4629706Y-5410174D02*
X4639230Y-5419698D01*
X4639230Y-5419698D02*
X4648753Y-5438746D01*
X4648753Y-5438746D02*
X4648753Y-5495889D01*
X4648753Y-5495889D02*
X4639230Y-5514936D01*
X4639230Y-5514936D02*
X4629706Y-5524460D01*
X4629706Y-5524460D02*
X4610658Y-5533984D01*
X4610658Y-5533984D02*
X4582087Y-5533984D01*
X4763039Y-5533984D02*
X4743992Y-5524460D01*
X4743992Y-5524460D02*
X4734468Y-5505412D01*
X4734468Y-5505412D02*
X4734468Y-5333984D01*
X4915420Y-5524460D02*
X4896373Y-5533984D01*
X4896373Y-5533984D02*
X4858277Y-5533984D01*
X4858277Y-5533984D02*
X4839230Y-5524460D01*
X4839230Y-5524460D02*
X4829706Y-5505412D01*
X4829706Y-5505412D02*
X4829706Y-5429222D01*
X4829706Y-5429222D02*
X4839230Y-5410174D01*
X4839230Y-5410174D02*
X4858277Y-5400650D01*
X4858277Y-5400650D02*
X4896373Y-5400650D01*
X4896373Y-5400650D02*
X4915420Y-5410174D01*
X4915420Y-5410174D02*
X4924944Y-5429222D01*
X4924944Y-5429222D02*
X4924944Y-5448270D01*
X4924944Y-5448270D02*
X4829706Y-5467317D01*
X5001134Y-5524460D02*
X5020182Y-5533984D01*
X5020182Y-5533984D02*
X5058277Y-5533984D01*
X5058277Y-5533984D02*
X5077325Y-5524460D01*
X5077325Y-5524460D02*
X5086849Y-5505412D01*
X5086849Y-5505412D02*
X5086849Y-5495889D01*
X5086849Y-5495889D02*
X5077325Y-5476841D01*
X5077325Y-5476841D02*
X5058277Y-5467317D01*
X5058277Y-5467317D02*
X5029706Y-5467317D01*
X5029706Y-5467317D02*
X5010658Y-5457793D01*
X5010658Y-5457793D02*
X5001134Y-5438746D01*
X5001134Y-5438746D02*
X5001134Y-5429222D01*
X5001134Y-5429222D02*
X5010658Y-5410174D01*
X5010658Y-5410174D02*
X5029706Y-5400650D01*
X5029706Y-5400650D02*
X5058277Y-5400650D01*
X5058277Y-5400650D02*
X5077325Y-5410174D01*
X5153515Y-5610174D02*
X5163039Y-5600650D01*
X5163039Y-5600650D02*
X5182087Y-5572079D01*
X5182087Y-5572079D02*
X5191611Y-5553031D01*
X5191611Y-5553031D02*
X5201134Y-5524460D01*
X5201134Y-5524460D02*
X5210658Y-5476841D01*
X5210658Y-5476841D02*
X5210658Y-5438746D01*
X5210658Y-5438746D02*
X5201134Y-5391127D01*
X5201134Y-5391127D02*
X5191611Y-5362555D01*
X5191611Y-5362555D02*
X5182087Y-5343508D01*
X5182087Y-5343508D02*
X5163039Y-5314936D01*
X5163039Y-5314936D02*
X5153515Y-5305412D01*
D12*
X-2500Y-5706500D02*
G75*
G02*
X-42500Y-5706500I-20000J0D01*
G01*
X-42500Y-5706500D02*
G75*
G02*
X-2500Y-5706500I20000J0D01*
G01*
D11*
X296372Y-5597984D02*
X315420Y-5597984D01*
X315420Y-5597984D02*
X334467Y-5607508D01*
X334467Y-5607508D02*
X343991Y-5617031D01*
X343991Y-5617031D02*
X353515Y-5636079D01*
X353515Y-5636079D02*
X363039Y-5674174D01*
X363039Y-5674174D02*
X363039Y-5721793D01*
X363039Y-5721793D02*
X353515Y-5759888D01*
X353515Y-5759888D02*
X343991Y-5778936D01*
X343991Y-5778936D02*
X334467Y-5788460D01*
X334467Y-5788460D02*
X315420Y-5797984D01*
X315420Y-5797984D02*
X296372Y-5797984D01*
X296372Y-5797984D02*
X277324Y-5788460D01*
X277324Y-5788460D02*
X267801Y-5778936D01*
X267801Y-5778936D02*
X258277Y-5759888D01*
X258277Y-5759888D02*
X248753Y-5721793D01*
X248753Y-5721793D02*
X248753Y-5674174D01*
X248753Y-5674174D02*
X258277Y-5636079D01*
X258277Y-5636079D02*
X267801Y-5617031D01*
X267801Y-5617031D02*
X277324Y-5607508D01*
X277324Y-5607508D02*
X296372Y-5597984D01*
X448753Y-5778936D02*
X458277Y-5788460D01*
X458277Y-5788460D02*
X448753Y-5797984D01*
X448753Y-5797984D02*
X439229Y-5788460D01*
X439229Y-5788460D02*
X448753Y-5778936D01*
X448753Y-5778936D02*
X448753Y-5797984D01*
X629705Y-5664650D02*
X629705Y-5797984D01*
X582086Y-5588460D02*
X534467Y-5731317D01*
X534467Y-5731317D02*
X658277Y-5731317D01*
X772562Y-5597984D02*
X791610Y-5597984D01*
X791610Y-5597984D02*
X810658Y-5607508D01*
X810658Y-5607508D02*
X820182Y-5617031D01*
X820182Y-5617031D02*
X829705Y-5636079D01*
X829705Y-5636079D02*
X839229Y-5674174D01*
X839229Y-5674174D02*
X839229Y-5721793D01*
X839229Y-5721793D02*
X829705Y-5759888D01*
X829705Y-5759888D02*
X820182Y-5778936D01*
X820182Y-5778936D02*
X810658Y-5788460D01*
X810658Y-5788460D02*
X791610Y-5797984D01*
X791610Y-5797984D02*
X772562Y-5797984D01*
X772562Y-5797984D02*
X753515Y-5788460D01*
X753515Y-5788460D02*
X743991Y-5778936D01*
X743991Y-5778936D02*
X734467Y-5759888D01*
X734467Y-5759888D02*
X724943Y-5721793D01*
X724943Y-5721793D02*
X724943Y-5674174D01*
X724943Y-5674174D02*
X734467Y-5636079D01*
X734467Y-5636079D02*
X743991Y-5617031D01*
X743991Y-5617031D02*
X753515Y-5607508D01*
X753515Y-5607508D02*
X772562Y-5597984D01*
X963039Y-5597984D02*
X982086Y-5597984D01*
X982086Y-5597984D02*
X1001134Y-5607508D01*
X1001134Y-5607508D02*
X1010658Y-5617031D01*
X1010658Y-5617031D02*
X1020182Y-5636079D01*
X1020182Y-5636079D02*
X1029705Y-5674174D01*
X1029705Y-5674174D02*
X1029705Y-5721793D01*
X1029705Y-5721793D02*
X1020182Y-5759888D01*
X1020182Y-5759888D02*
X1010658Y-5778936D01*
X1010658Y-5778936D02*
X1001134Y-5788460D01*
X1001134Y-5788460D02*
X982086Y-5797984D01*
X982086Y-5797984D02*
X963039Y-5797984D01*
X963039Y-5797984D02*
X943991Y-5788460D01*
X943991Y-5788460D02*
X934467Y-5778936D01*
X934467Y-5778936D02*
X924943Y-5759888D01*
X924943Y-5759888D02*
X915420Y-5721793D01*
X915420Y-5721793D02*
X915420Y-5674174D01*
X915420Y-5674174D02*
X924943Y-5636079D01*
X924943Y-5636079D02*
X934467Y-5617031D01*
X934467Y-5617031D02*
X943991Y-5607508D01*
X943991Y-5607508D02*
X963039Y-5597984D01*
X1115420Y-5797984D02*
X1115420Y-5664650D01*
X1115420Y-5683698D02*
X1124944Y-5674174D01*
X1124944Y-5674174D02*
X1143991Y-5664650D01*
X1143991Y-5664650D02*
X1172563Y-5664650D01*
X1172563Y-5664650D02*
X1191610Y-5674174D01*
X1191610Y-5674174D02*
X1201134Y-5693222D01*
X1201134Y-5693222D02*
X1201134Y-5797984D01*
X1201134Y-5693222D02*
X1210658Y-5674174D01*
X1210658Y-5674174D02*
X1229705Y-5664650D01*
X1229705Y-5664650D02*
X1258277Y-5664650D01*
X1258277Y-5664650D02*
X1277325Y-5674174D01*
X1277325Y-5674174D02*
X1286848Y-5693222D01*
X1286848Y-5693222D02*
X1286848Y-5797984D01*
X1382086Y-5797984D02*
X1382086Y-5664650D01*
X1382086Y-5683698D02*
X1391610Y-5674174D01*
X1391610Y-5674174D02*
X1410658Y-5664650D01*
X1410658Y-5664650D02*
X1439229Y-5664650D01*
X1439229Y-5664650D02*
X1458277Y-5674174D01*
X1458277Y-5674174D02*
X1467801Y-5693222D01*
X1467801Y-5693222D02*
X1467801Y-5797984D01*
X1467801Y-5693222D02*
X1477324Y-5674174D01*
X1477324Y-5674174D02*
X1496372Y-5664650D01*
X1496372Y-5664650D02*
X1524943Y-5664650D01*
X1524943Y-5664650D02*
X1543991Y-5674174D01*
X1543991Y-5674174D02*
X1553515Y-5693222D01*
X1553515Y-5693222D02*
X1553515Y-5797984D01*
X1943991Y-5588460D02*
X1772563Y-5845603D01*
X2201134Y-5597984D02*
X2220182Y-5597984D01*
X2220182Y-5597984D02*
X2239229Y-5607508D01*
X2239229Y-5607508D02*
X2248753Y-5617031D01*
X2248753Y-5617031D02*
X2258277Y-5636079D01*
X2258277Y-5636079D02*
X2267801Y-5674174D01*
X2267801Y-5674174D02*
X2267801Y-5721793D01*
X2267801Y-5721793D02*
X2258277Y-5759888D01*
X2258277Y-5759888D02*
X2248753Y-5778936D01*
X2248753Y-5778936D02*
X2239229Y-5788460D01*
X2239229Y-5788460D02*
X2220182Y-5797984D01*
X2220182Y-5797984D02*
X2201134Y-5797984D01*
X2201134Y-5797984D02*
X2182087Y-5788460D01*
X2182087Y-5788460D02*
X2172563Y-5778936D01*
X2172563Y-5778936D02*
X2163039Y-5759888D01*
X2163039Y-5759888D02*
X2153515Y-5721793D01*
X2153515Y-5721793D02*
X2153515Y-5674174D01*
X2153515Y-5674174D02*
X2163039Y-5636079D01*
X2163039Y-5636079D02*
X2172563Y-5617031D01*
X2172563Y-5617031D02*
X2182087Y-5607508D01*
X2182087Y-5607508D02*
X2201134Y-5597984D01*
X2353515Y-5778936D02*
X2363039Y-5788460D01*
X2363039Y-5788460D02*
X2353515Y-5797984D01*
X2353515Y-5797984D02*
X2343991Y-5788460D01*
X2343991Y-5788460D02*
X2353515Y-5778936D01*
X2353515Y-5778936D02*
X2353515Y-5797984D01*
X2486848Y-5597984D02*
X2505896Y-5597984D01*
X2505896Y-5597984D02*
X2524944Y-5607508D01*
X2524944Y-5607508D02*
X2534468Y-5617031D01*
X2534468Y-5617031D02*
X2543991Y-5636079D01*
X2543991Y-5636079D02*
X2553515Y-5674174D01*
X2553515Y-5674174D02*
X2553515Y-5721793D01*
X2553515Y-5721793D02*
X2543991Y-5759888D01*
X2543991Y-5759888D02*
X2534468Y-5778936D01*
X2534468Y-5778936D02*
X2524944Y-5788460D01*
X2524944Y-5788460D02*
X2505896Y-5797984D01*
X2505896Y-5797984D02*
X2486848Y-5797984D01*
X2486848Y-5797984D02*
X2467801Y-5788460D01*
X2467801Y-5788460D02*
X2458277Y-5778936D01*
X2458277Y-5778936D02*
X2448753Y-5759888D01*
X2448753Y-5759888D02*
X2439229Y-5721793D01*
X2439229Y-5721793D02*
X2439229Y-5674174D01*
X2439229Y-5674174D02*
X2448753Y-5636079D01*
X2448753Y-5636079D02*
X2458277Y-5617031D01*
X2458277Y-5617031D02*
X2467801Y-5607508D01*
X2467801Y-5607508D02*
X2486848Y-5597984D01*
X2743991Y-5797984D02*
X2629706Y-5797984D01*
X2686848Y-5797984D02*
X2686848Y-5597984D01*
X2686848Y-5597984D02*
X2667801Y-5626555D01*
X2667801Y-5626555D02*
X2648753Y-5645603D01*
X2648753Y-5645603D02*
X2629706Y-5655127D01*
X2924944Y-5597984D02*
X2829706Y-5597984D01*
X2829706Y-5597984D02*
X2820182Y-5693222D01*
X2820182Y-5693222D02*
X2829706Y-5683698D01*
X2829706Y-5683698D02*
X2848753Y-5674174D01*
X2848753Y-5674174D02*
X2896372Y-5674174D01*
X2896372Y-5674174D02*
X2915420Y-5683698D01*
X2915420Y-5683698D02*
X2924944Y-5693222D01*
X2924944Y-5693222D02*
X2934467Y-5712269D01*
X2934467Y-5712269D02*
X2934467Y-5759888D01*
X2934467Y-5759888D02*
X2924944Y-5778936D01*
X2924944Y-5778936D02*
X2915420Y-5788460D01*
X2915420Y-5788460D02*
X2896372Y-5797984D01*
X2896372Y-5797984D02*
X2848753Y-5797984D01*
X2848753Y-5797984D02*
X2829706Y-5788460D01*
X2829706Y-5788460D02*
X2820182Y-5778936D01*
X3001134Y-5597984D02*
X3134467Y-5597984D01*
X3134467Y-5597984D02*
X3048753Y-5797984D01*
X3201134Y-5597984D02*
X3201134Y-5636079D01*
X3277325Y-5597984D02*
X3277325Y-5636079D01*
X3572563Y-5874174D02*
X3563039Y-5864650D01*
X3563039Y-5864650D02*
X3543991Y-5836079D01*
X3543991Y-5836079D02*
X3534468Y-5817031D01*
X3534468Y-5817031D02*
X3524944Y-5788460D01*
X3524944Y-5788460D02*
X3515420Y-5740841D01*
X3515420Y-5740841D02*
X3515420Y-5702746D01*
X3515420Y-5702746D02*
X3524944Y-5655127D01*
X3524944Y-5655127D02*
X3534468Y-5626555D01*
X3534468Y-5626555D02*
X3543991Y-5607508D01*
X3543991Y-5607508D02*
X3563039Y-5578936D01*
X3563039Y-5578936D02*
X3572563Y-5569412D01*
X3753515Y-5797984D02*
X3639229Y-5797984D01*
X3696372Y-5797984D02*
X3696372Y-5597984D01*
X3696372Y-5597984D02*
X3677325Y-5626555D01*
X3677325Y-5626555D02*
X3658277Y-5645603D01*
X3658277Y-5645603D02*
X3639229Y-5655127D01*
X3924944Y-5597984D02*
X3886848Y-5597984D01*
X3886848Y-5597984D02*
X3867801Y-5607508D01*
X3867801Y-5607508D02*
X3858277Y-5617031D01*
X3858277Y-5617031D02*
X3839229Y-5645603D01*
X3839229Y-5645603D02*
X3829706Y-5683698D01*
X3829706Y-5683698D02*
X3829706Y-5759888D01*
X3829706Y-5759888D02*
X3839229Y-5778936D01*
X3839229Y-5778936D02*
X3848753Y-5788460D01*
X3848753Y-5788460D02*
X3867801Y-5797984D01*
X3867801Y-5797984D02*
X3905896Y-5797984D01*
X3905896Y-5797984D02*
X3924944Y-5788460D01*
X3924944Y-5788460D02*
X3934468Y-5778936D01*
X3934468Y-5778936D02*
X3943991Y-5759888D01*
X3943991Y-5759888D02*
X3943991Y-5712269D01*
X3943991Y-5712269D02*
X3934468Y-5693222D01*
X3934468Y-5693222D02*
X3924944Y-5683698D01*
X3924944Y-5683698D02*
X3905896Y-5674174D01*
X3905896Y-5674174D02*
X3867801Y-5674174D01*
X3867801Y-5674174D02*
X3848753Y-5683698D01*
X3848753Y-5683698D02*
X3839229Y-5693222D01*
X3839229Y-5693222D02*
X3829706Y-5712269D01*
X4182087Y-5797984D02*
X4182087Y-5597984D01*
X4267801Y-5797984D02*
X4267801Y-5693222D01*
X4267801Y-5693222D02*
X4258277Y-5674174D01*
X4258277Y-5674174D02*
X4239230Y-5664650D01*
X4239230Y-5664650D02*
X4210658Y-5664650D01*
X4210658Y-5664650D02*
X4191610Y-5674174D01*
X4191610Y-5674174D02*
X4182087Y-5683698D01*
X4391611Y-5797984D02*
X4372563Y-5788460D01*
X4372563Y-5788460D02*
X4363039Y-5778936D01*
X4363039Y-5778936D02*
X4353515Y-5759888D01*
X4353515Y-5759888D02*
X4353515Y-5702746D01*
X4353515Y-5702746D02*
X4363039Y-5683698D01*
X4363039Y-5683698D02*
X4372563Y-5674174D01*
X4372563Y-5674174D02*
X4391611Y-5664650D01*
X4391611Y-5664650D02*
X4420182Y-5664650D01*
X4420182Y-5664650D02*
X4439230Y-5674174D01*
X4439230Y-5674174D02*
X4448753Y-5683698D01*
X4448753Y-5683698D02*
X4458277Y-5702746D01*
X4458277Y-5702746D02*
X4458277Y-5759888D01*
X4458277Y-5759888D02*
X4448753Y-5778936D01*
X4448753Y-5778936D02*
X4439230Y-5788460D01*
X4439230Y-5788460D02*
X4420182Y-5797984D01*
X4420182Y-5797984D02*
X4391611Y-5797984D01*
X4572563Y-5797984D02*
X4553515Y-5788460D01*
X4553515Y-5788460D02*
X4543992Y-5769412D01*
X4543992Y-5769412D02*
X4543992Y-5597984D01*
X4724944Y-5788460D02*
X4705896Y-5797984D01*
X4705896Y-5797984D02*
X4667801Y-5797984D01*
X4667801Y-5797984D02*
X4648753Y-5788460D01*
X4648753Y-5788460D02*
X4639230Y-5769412D01*
X4639230Y-5769412D02*
X4639230Y-5693222D01*
X4639230Y-5693222D02*
X4648753Y-5674174D01*
X4648753Y-5674174D02*
X4667801Y-5664650D01*
X4667801Y-5664650D02*
X4705896Y-5664650D01*
X4705896Y-5664650D02*
X4724944Y-5674174D01*
X4724944Y-5674174D02*
X4734468Y-5693222D01*
X4734468Y-5693222D02*
X4734468Y-5712269D01*
X4734468Y-5712269D02*
X4639230Y-5731317D01*
X4810658Y-5788460D02*
X4829706Y-5797984D01*
X4829706Y-5797984D02*
X4867801Y-5797984D01*
X4867801Y-5797984D02*
X4886849Y-5788460D01*
X4886849Y-5788460D02*
X4896373Y-5769412D01*
X4896373Y-5769412D02*
X4896373Y-5759888D01*
X4896373Y-5759888D02*
X4886849Y-5740841D01*
X4886849Y-5740841D02*
X4867801Y-5731317D01*
X4867801Y-5731317D02*
X4839230Y-5731317D01*
X4839230Y-5731317D02*
X4820182Y-5721793D01*
X4820182Y-5721793D02*
X4810658Y-5702746D01*
X4810658Y-5702746D02*
X4810658Y-5693222D01*
X4810658Y-5693222D02*
X4820182Y-5674174D01*
X4820182Y-5674174D02*
X4839230Y-5664650D01*
X4839230Y-5664650D02*
X4867801Y-5664650D01*
X4867801Y-5664650D02*
X4886849Y-5674174D01*
X4963039Y-5874174D02*
X4972563Y-5864650D01*
X4972563Y-5864650D02*
X4991611Y-5836079D01*
X4991611Y-5836079D02*
X5001134Y-5817031D01*
X5001134Y-5817031D02*
X5010658Y-5788460D01*
X5010658Y-5788460D02*
X5020182Y-5740841D01*
X5020182Y-5740841D02*
X5020182Y-5702746D01*
X5020182Y-5702746D02*
X5010658Y-5655127D01*
X5010658Y-5655127D02*
X5001134Y-5626555D01*
X5001134Y-5626555D02*
X4991611Y-5607508D01*
X4991611Y-5607508D02*
X4972563Y-5578936D01*
X4972563Y-5578936D02*
X4963039Y-5569412D01*
D12*
X-27501Y-5945499D02*
X-27501Y-5995501D01*
X-52502Y-5970500D02*
X-2500Y-5970500D01*
D11*
X296372Y-5861984D02*
X315420Y-5861984D01*
X315420Y-5861984D02*
X334467Y-5871508D01*
X334467Y-5871508D02*
X343991Y-5881031D01*
X343991Y-5881031D02*
X353515Y-5900079D01*
X353515Y-5900079D02*
X363039Y-5938174D01*
X363039Y-5938174D02*
X363039Y-5985793D01*
X363039Y-5985793D02*
X353515Y-6023888D01*
X353515Y-6023888D02*
X343991Y-6042936D01*
X343991Y-6042936D02*
X334467Y-6052460D01*
X334467Y-6052460D02*
X315420Y-6061984D01*
X315420Y-6061984D02*
X296372Y-6061984D01*
X296372Y-6061984D02*
X277324Y-6052460D01*
X277324Y-6052460D02*
X267801Y-6042936D01*
X267801Y-6042936D02*
X258277Y-6023888D01*
X258277Y-6023888D02*
X248753Y-5985793D01*
X248753Y-5985793D02*
X248753Y-5938174D01*
X248753Y-5938174D02*
X258277Y-5900079D01*
X258277Y-5900079D02*
X267801Y-5881031D01*
X267801Y-5881031D02*
X277324Y-5871508D01*
X277324Y-5871508D02*
X296372Y-5861984D01*
X448753Y-6042936D02*
X458277Y-6052460D01*
X458277Y-6052460D02*
X448753Y-6061984D01*
X448753Y-6061984D02*
X439229Y-6052460D01*
X439229Y-6052460D02*
X448753Y-6042936D01*
X448753Y-6042936D02*
X448753Y-6061984D01*
X639229Y-5861984D02*
X543991Y-5861984D01*
X543991Y-5861984D02*
X534467Y-5957222D01*
X534467Y-5957222D02*
X543991Y-5947698D01*
X543991Y-5947698D02*
X563039Y-5938174D01*
X563039Y-5938174D02*
X610658Y-5938174D01*
X610658Y-5938174D02*
X629705Y-5947698D01*
X629705Y-5947698D02*
X639229Y-5957222D01*
X639229Y-5957222D02*
X648753Y-5976269D01*
X648753Y-5976269D02*
X648753Y-6023888D01*
X648753Y-6023888D02*
X639229Y-6042936D01*
X639229Y-6042936D02*
X629705Y-6052460D01*
X629705Y-6052460D02*
X610658Y-6061984D01*
X610658Y-6061984D02*
X563039Y-6061984D01*
X563039Y-6061984D02*
X543991Y-6052460D01*
X543991Y-6052460D02*
X534467Y-6042936D01*
X772562Y-5861984D02*
X791610Y-5861984D01*
X791610Y-5861984D02*
X810658Y-5871508D01*
X810658Y-5871508D02*
X820182Y-5881031D01*
X820182Y-5881031D02*
X829705Y-5900079D01*
X829705Y-5900079D02*
X839229Y-5938174D01*
X839229Y-5938174D02*
X839229Y-5985793D01*
X839229Y-5985793D02*
X829705Y-6023888D01*
X829705Y-6023888D02*
X820182Y-6042936D01*
X820182Y-6042936D02*
X810658Y-6052460D01*
X810658Y-6052460D02*
X791610Y-6061984D01*
X791610Y-6061984D02*
X772562Y-6061984D01*
X772562Y-6061984D02*
X753515Y-6052460D01*
X753515Y-6052460D02*
X743991Y-6042936D01*
X743991Y-6042936D02*
X734467Y-6023888D01*
X734467Y-6023888D02*
X724943Y-5985793D01*
X724943Y-5985793D02*
X724943Y-5938174D01*
X724943Y-5938174D02*
X734467Y-5900079D01*
X734467Y-5900079D02*
X743991Y-5881031D01*
X743991Y-5881031D02*
X753515Y-5871508D01*
X753515Y-5871508D02*
X772562Y-5861984D01*
X963039Y-5861984D02*
X982086Y-5861984D01*
X982086Y-5861984D02*
X1001134Y-5871508D01*
X1001134Y-5871508D02*
X1010658Y-5881031D01*
X1010658Y-5881031D02*
X1020182Y-5900079D01*
X1020182Y-5900079D02*
X1029705Y-5938174D01*
X1029705Y-5938174D02*
X1029705Y-5985793D01*
X1029705Y-5985793D02*
X1020182Y-6023888D01*
X1020182Y-6023888D02*
X1010658Y-6042936D01*
X1010658Y-6042936D02*
X1001134Y-6052460D01*
X1001134Y-6052460D02*
X982086Y-6061984D01*
X982086Y-6061984D02*
X963039Y-6061984D01*
X963039Y-6061984D02*
X943991Y-6052460D01*
X943991Y-6052460D02*
X934467Y-6042936D01*
X934467Y-6042936D02*
X924943Y-6023888D01*
X924943Y-6023888D02*
X915420Y-5985793D01*
X915420Y-5985793D02*
X915420Y-5938174D01*
X915420Y-5938174D02*
X924943Y-5900079D01*
X924943Y-5900079D02*
X934467Y-5881031D01*
X934467Y-5881031D02*
X943991Y-5871508D01*
X943991Y-5871508D02*
X963039Y-5861984D01*
X1115420Y-6061984D02*
X1115420Y-5928650D01*
X1115420Y-5947698D02*
X1124944Y-5938174D01*
X1124944Y-5938174D02*
X1143991Y-5928650D01*
X1143991Y-5928650D02*
X1172563Y-5928650D01*
X1172563Y-5928650D02*
X1191610Y-5938174D01*
X1191610Y-5938174D02*
X1201134Y-5957222D01*
X1201134Y-5957222D02*
X1201134Y-6061984D01*
X1201134Y-5957222D02*
X1210658Y-5938174D01*
X1210658Y-5938174D02*
X1229705Y-5928650D01*
X1229705Y-5928650D02*
X1258277Y-5928650D01*
X1258277Y-5928650D02*
X1277325Y-5938174D01*
X1277325Y-5938174D02*
X1286848Y-5957222D01*
X1286848Y-5957222D02*
X1286848Y-6061984D01*
X1382086Y-6061984D02*
X1382086Y-5928650D01*
X1382086Y-5947698D02*
X1391610Y-5938174D01*
X1391610Y-5938174D02*
X1410658Y-5928650D01*
X1410658Y-5928650D02*
X1439229Y-5928650D01*
X1439229Y-5928650D02*
X1458277Y-5938174D01*
X1458277Y-5938174D02*
X1467801Y-5957222D01*
X1467801Y-5957222D02*
X1467801Y-6061984D01*
X1467801Y-5957222D02*
X1477324Y-5938174D01*
X1477324Y-5938174D02*
X1496372Y-5928650D01*
X1496372Y-5928650D02*
X1524943Y-5928650D01*
X1524943Y-5928650D02*
X1543991Y-5938174D01*
X1543991Y-5938174D02*
X1553515Y-5957222D01*
X1553515Y-5957222D02*
X1553515Y-6061984D01*
X1943991Y-5852460D02*
X1772563Y-6109603D01*
X2201134Y-5861984D02*
X2220182Y-5861984D01*
X2220182Y-5861984D02*
X2239229Y-5871508D01*
X2239229Y-5871508D02*
X2248753Y-5881031D01*
X2248753Y-5881031D02*
X2258277Y-5900079D01*
X2258277Y-5900079D02*
X2267801Y-5938174D01*
X2267801Y-5938174D02*
X2267801Y-5985793D01*
X2267801Y-5985793D02*
X2258277Y-6023888D01*
X2258277Y-6023888D02*
X2248753Y-6042936D01*
X2248753Y-6042936D02*
X2239229Y-6052460D01*
X2239229Y-6052460D02*
X2220182Y-6061984D01*
X2220182Y-6061984D02*
X2201134Y-6061984D01*
X2201134Y-6061984D02*
X2182087Y-6052460D01*
X2182087Y-6052460D02*
X2172563Y-6042936D01*
X2172563Y-6042936D02*
X2163039Y-6023888D01*
X2163039Y-6023888D02*
X2153515Y-5985793D01*
X2153515Y-5985793D02*
X2153515Y-5938174D01*
X2153515Y-5938174D02*
X2163039Y-5900079D01*
X2163039Y-5900079D02*
X2172563Y-5881031D01*
X2172563Y-5881031D02*
X2182087Y-5871508D01*
X2182087Y-5871508D02*
X2201134Y-5861984D01*
X2353515Y-6042936D02*
X2363039Y-6052460D01*
X2363039Y-6052460D02*
X2353515Y-6061984D01*
X2353515Y-6061984D02*
X2343991Y-6052460D01*
X2343991Y-6052460D02*
X2353515Y-6042936D01*
X2353515Y-6042936D02*
X2353515Y-6061984D01*
X2486848Y-5861984D02*
X2505896Y-5861984D01*
X2505896Y-5861984D02*
X2524944Y-5871508D01*
X2524944Y-5871508D02*
X2534468Y-5881031D01*
X2534468Y-5881031D02*
X2543991Y-5900079D01*
X2543991Y-5900079D02*
X2553515Y-5938174D01*
X2553515Y-5938174D02*
X2553515Y-5985793D01*
X2553515Y-5985793D02*
X2543991Y-6023888D01*
X2543991Y-6023888D02*
X2534468Y-6042936D01*
X2534468Y-6042936D02*
X2524944Y-6052460D01*
X2524944Y-6052460D02*
X2505896Y-6061984D01*
X2505896Y-6061984D02*
X2486848Y-6061984D01*
X2486848Y-6061984D02*
X2467801Y-6052460D01*
X2467801Y-6052460D02*
X2458277Y-6042936D01*
X2458277Y-6042936D02*
X2448753Y-6023888D01*
X2448753Y-6023888D02*
X2439229Y-5985793D01*
X2439229Y-5985793D02*
X2439229Y-5938174D01*
X2439229Y-5938174D02*
X2448753Y-5900079D01*
X2448753Y-5900079D02*
X2458277Y-5881031D01*
X2458277Y-5881031D02*
X2467801Y-5871508D01*
X2467801Y-5871508D02*
X2486848Y-5861984D01*
X2743991Y-6061984D02*
X2629706Y-6061984D01*
X2686848Y-6061984D02*
X2686848Y-5861984D01*
X2686848Y-5861984D02*
X2667801Y-5890555D01*
X2667801Y-5890555D02*
X2648753Y-5909603D01*
X2648753Y-5909603D02*
X2629706Y-5919127D01*
X2839229Y-6061984D02*
X2877325Y-6061984D01*
X2877325Y-6061984D02*
X2896372Y-6052460D01*
X2896372Y-6052460D02*
X2905896Y-6042936D01*
X2905896Y-6042936D02*
X2924944Y-6014365D01*
X2924944Y-6014365D02*
X2934467Y-5976269D01*
X2934467Y-5976269D02*
X2934467Y-5900079D01*
X2934467Y-5900079D02*
X2924944Y-5881031D01*
X2924944Y-5881031D02*
X2915420Y-5871508D01*
X2915420Y-5871508D02*
X2896372Y-5861984D01*
X2896372Y-5861984D02*
X2858277Y-5861984D01*
X2858277Y-5861984D02*
X2839229Y-5871508D01*
X2839229Y-5871508D02*
X2829706Y-5881031D01*
X2829706Y-5881031D02*
X2820182Y-5900079D01*
X2820182Y-5900079D02*
X2820182Y-5947698D01*
X2820182Y-5947698D02*
X2829706Y-5966746D01*
X2829706Y-5966746D02*
X2839229Y-5976269D01*
X2839229Y-5976269D02*
X2858277Y-5985793D01*
X2858277Y-5985793D02*
X2896372Y-5985793D01*
X2896372Y-5985793D02*
X2915420Y-5976269D01*
X2915420Y-5976269D02*
X2924944Y-5966746D01*
X2924944Y-5966746D02*
X2934467Y-5947698D01*
X3001134Y-5861984D02*
X3134467Y-5861984D01*
X3134467Y-5861984D02*
X3048753Y-6061984D01*
X3201134Y-5861984D02*
X3201134Y-5900079D01*
X3277325Y-5861984D02*
X3277325Y-5900079D01*
X3572563Y-6138174D02*
X3563039Y-6128650D01*
X3563039Y-6128650D02*
X3543991Y-6100079D01*
X3543991Y-6100079D02*
X3534468Y-6081031D01*
X3534468Y-6081031D02*
X3524944Y-6052460D01*
X3524944Y-6052460D02*
X3515420Y-6004841D01*
X3515420Y-6004841D02*
X3515420Y-5966746D01*
X3515420Y-5966746D02*
X3524944Y-5919127D01*
X3524944Y-5919127D02*
X3534468Y-5890555D01*
X3534468Y-5890555D02*
X3543991Y-5871508D01*
X3543991Y-5871508D02*
X3563039Y-5842936D01*
X3563039Y-5842936D02*
X3572563Y-5833412D01*
X3686848Y-5861984D02*
X3705896Y-5861984D01*
X3705896Y-5861984D02*
X3724944Y-5871508D01*
X3724944Y-5871508D02*
X3734468Y-5881031D01*
X3734468Y-5881031D02*
X3743991Y-5900079D01*
X3743991Y-5900079D02*
X3753515Y-5938174D01*
X3753515Y-5938174D02*
X3753515Y-5985793D01*
X3753515Y-5985793D02*
X3743991Y-6023888D01*
X3743991Y-6023888D02*
X3734468Y-6042936D01*
X3734468Y-6042936D02*
X3724944Y-6052460D01*
X3724944Y-6052460D02*
X3705896Y-6061984D01*
X3705896Y-6061984D02*
X3686848Y-6061984D01*
X3686848Y-6061984D02*
X3667801Y-6052460D01*
X3667801Y-6052460D02*
X3658277Y-6042936D01*
X3658277Y-6042936D02*
X3648753Y-6023888D01*
X3648753Y-6023888D02*
X3639229Y-5985793D01*
X3639229Y-5985793D02*
X3639229Y-5938174D01*
X3639229Y-5938174D02*
X3648753Y-5900079D01*
X3648753Y-5900079D02*
X3658277Y-5881031D01*
X3658277Y-5881031D02*
X3667801Y-5871508D01*
X3667801Y-5871508D02*
X3686848Y-5861984D01*
X3991610Y-6061984D02*
X3991610Y-5861984D01*
X4077325Y-6061984D02*
X4077325Y-5957222D01*
X4077325Y-5957222D02*
X4067801Y-5938174D01*
X4067801Y-5938174D02*
X4048753Y-5928650D01*
X4048753Y-5928650D02*
X4020182Y-5928650D01*
X4020182Y-5928650D02*
X4001134Y-5938174D01*
X4001134Y-5938174D02*
X3991610Y-5947698D01*
X4201134Y-6061984D02*
X4182087Y-6052460D01*
X4182087Y-6052460D02*
X4172563Y-6042936D01*
X4172563Y-6042936D02*
X4163039Y-6023888D01*
X4163039Y-6023888D02*
X4163039Y-5966746D01*
X4163039Y-5966746D02*
X4172563Y-5947698D01*
X4172563Y-5947698D02*
X4182087Y-5938174D01*
X4182087Y-5938174D02*
X4201134Y-5928650D01*
X4201134Y-5928650D02*
X4229706Y-5928650D01*
X4229706Y-5928650D02*
X4248753Y-5938174D01*
X4248753Y-5938174D02*
X4258277Y-5947698D01*
X4258277Y-5947698D02*
X4267801Y-5966746D01*
X4267801Y-5966746D02*
X4267801Y-6023888D01*
X4267801Y-6023888D02*
X4258277Y-6042936D01*
X4258277Y-6042936D02*
X4248753Y-6052460D01*
X4248753Y-6052460D02*
X4229706Y-6061984D01*
X4229706Y-6061984D02*
X4201134Y-6061984D01*
X4382087Y-6061984D02*
X4363039Y-6052460D01*
X4363039Y-6052460D02*
X4353515Y-6033412D01*
X4353515Y-6033412D02*
X4353515Y-5861984D01*
X4534468Y-6052460D02*
X4515420Y-6061984D01*
X4515420Y-6061984D02*
X4477325Y-6061984D01*
X4477325Y-6061984D02*
X4458277Y-6052460D01*
X4458277Y-6052460D02*
X4448753Y-6033412D01*
X4448753Y-6033412D02*
X4448753Y-5957222D01*
X4448753Y-5957222D02*
X4458277Y-5938174D01*
X4458277Y-5938174D02*
X4477325Y-5928650D01*
X4477325Y-5928650D02*
X4515420Y-5928650D01*
X4515420Y-5928650D02*
X4534468Y-5938174D01*
X4534468Y-5938174D02*
X4543992Y-5957222D01*
X4543992Y-5957222D02*
X4543992Y-5976269D01*
X4543992Y-5976269D02*
X4448753Y-5995317D01*
X4620182Y-6052460D02*
X4639230Y-6061984D01*
X4639230Y-6061984D02*
X4677325Y-6061984D01*
X4677325Y-6061984D02*
X4696373Y-6052460D01*
X4696373Y-6052460D02*
X4705896Y-6033412D01*
X4705896Y-6033412D02*
X4705896Y-6023888D01*
X4705896Y-6023888D02*
X4696373Y-6004841D01*
X4696373Y-6004841D02*
X4677325Y-5995317D01*
X4677325Y-5995317D02*
X4648753Y-5995317D01*
X4648753Y-5995317D02*
X4629706Y-5985793D01*
X4629706Y-5985793D02*
X4620182Y-5966746D01*
X4620182Y-5966746D02*
X4620182Y-5957222D01*
X4620182Y-5957222D02*
X4629706Y-5938174D01*
X4629706Y-5938174D02*
X4648753Y-5928650D01*
X4648753Y-5928650D02*
X4677325Y-5928650D01*
X4677325Y-5928650D02*
X4696373Y-5938174D01*
X4943992Y-5985793D02*
X5096373Y-5985793D01*
X5020182Y-6061984D02*
X5020182Y-5909603D01*
X5429706Y-5928650D02*
X5429706Y-6061984D01*
X5382087Y-5852460D02*
X5334468Y-5995317D01*
X5334468Y-5995317D02*
X5458277Y-5995317D01*
X5677325Y-6052460D02*
X5696373Y-6061984D01*
X5696373Y-6061984D02*
X5734468Y-6061984D01*
X5734468Y-6061984D02*
X5753515Y-6052460D01*
X5753515Y-6052460D02*
X5763039Y-6033412D01*
X5763039Y-6033412D02*
X5763039Y-6023888D01*
X5763039Y-6023888D02*
X5753515Y-6004841D01*
X5753515Y-6004841D02*
X5734468Y-5995317D01*
X5734468Y-5995317D02*
X5705896Y-5995317D01*
X5705896Y-5995317D02*
X5686849Y-5985793D01*
X5686849Y-5985793D02*
X5677325Y-5966746D01*
X5677325Y-5966746D02*
X5677325Y-5957222D01*
X5677325Y-5957222D02*
X5686849Y-5938174D01*
X5686849Y-5938174D02*
X5705896Y-5928650D01*
X5705896Y-5928650D02*
X5734468Y-5928650D01*
X5734468Y-5928650D02*
X5753515Y-5938174D01*
X5877325Y-6061984D02*
X5858277Y-6052460D01*
X5858277Y-6052460D02*
X5848754Y-6033412D01*
X5848754Y-6033412D02*
X5848754Y-5861984D01*
X5982087Y-6061984D02*
X5963039Y-6052460D01*
X5963039Y-6052460D02*
X5953515Y-6042936D01*
X5953515Y-6042936D02*
X5943992Y-6023888D01*
X5943992Y-6023888D02*
X5943992Y-5966746D01*
X5943992Y-5966746D02*
X5953515Y-5947698D01*
X5953515Y-5947698D02*
X5963039Y-5938174D01*
X5963039Y-5938174D02*
X5982087Y-5928650D01*
X5982087Y-5928650D02*
X6010658Y-5928650D01*
X6010658Y-5928650D02*
X6029706Y-5938174D01*
X6029706Y-5938174D02*
X6039230Y-5947698D01*
X6039230Y-5947698D02*
X6048754Y-5966746D01*
X6048754Y-5966746D02*
X6048754Y-6023888D01*
X6048754Y-6023888D02*
X6039230Y-6042936D01*
X6039230Y-6042936D02*
X6029706Y-6052460D01*
X6029706Y-6052460D02*
X6010658Y-6061984D01*
X6010658Y-6061984D02*
X5982087Y-6061984D01*
X6105896Y-5928650D02*
X6182087Y-5928650D01*
X6134468Y-5861984D02*
X6134468Y-6033412D01*
X6134468Y-6033412D02*
X6143992Y-6052460D01*
X6143992Y-6052460D02*
X6163039Y-6061984D01*
X6163039Y-6061984D02*
X6182087Y-6061984D01*
X6239230Y-6052460D02*
X6258277Y-6061984D01*
X6258277Y-6061984D02*
X6296373Y-6061984D01*
X6296373Y-6061984D02*
X6315420Y-6052460D01*
X6315420Y-6052460D02*
X6324944Y-6033412D01*
X6324944Y-6033412D02*
X6324944Y-6023888D01*
X6324944Y-6023888D02*
X6315420Y-6004841D01*
X6315420Y-6004841D02*
X6296373Y-5995317D01*
X6296373Y-5995317D02*
X6267801Y-5995317D01*
X6267801Y-5995317D02*
X6248754Y-5985793D01*
X6248754Y-5985793D02*
X6239230Y-5966746D01*
X6239230Y-5966746D02*
X6239230Y-5957222D01*
X6239230Y-5957222D02*
X6248754Y-5938174D01*
X6248754Y-5938174D02*
X6267801Y-5928650D01*
X6267801Y-5928650D02*
X6296373Y-5928650D01*
X6296373Y-5928650D02*
X6315420Y-5938174D01*
X6391611Y-6138174D02*
X6401135Y-6128650D01*
X6401135Y-6128650D02*
X6420182Y-6100079D01*
X6420182Y-6100079D02*
X6429706Y-6081031D01*
X6429706Y-6081031D02*
X6439230Y-6052460D01*
X6439230Y-6052460D02*
X6448754Y-6004841D01*
X6448754Y-6004841D02*
X6448754Y-5966746D01*
X6448754Y-5966746D02*
X6439230Y-5919127D01*
X6439230Y-5919127D02*
X6429706Y-5890555D01*
X6429706Y-5890555D02*
X6420182Y-5871508D01*
X6420182Y-5871508D02*
X6401135Y-5842936D01*
X6401135Y-5842936D02*
X6391611Y-5833412D01*
D12*
X-11287Y-6255713D02*
X-11287Y-6213287D01*
X-53713Y-6213287D01*
X-53713Y-6255713D01*
X-11287Y-6255713D01*
D11*
X296372Y-6125984D02*
X315420Y-6125984D01*
X315420Y-6125984D02*
X334467Y-6135508D01*
X334467Y-6135508D02*
X343991Y-6145031D01*
X343991Y-6145031D02*
X353515Y-6164079D01*
X353515Y-6164079D02*
X363039Y-6202174D01*
X363039Y-6202174D02*
X363039Y-6249793D01*
X363039Y-6249793D02*
X353515Y-6287888D01*
X353515Y-6287888D02*
X343991Y-6306936D01*
X343991Y-6306936D02*
X334467Y-6316460D01*
X334467Y-6316460D02*
X315420Y-6325984D01*
X315420Y-6325984D02*
X296372Y-6325984D01*
X296372Y-6325984D02*
X277324Y-6316460D01*
X277324Y-6316460D02*
X267801Y-6306936D01*
X267801Y-6306936D02*
X258277Y-6287888D01*
X258277Y-6287888D02*
X248753Y-6249793D01*
X248753Y-6249793D02*
X248753Y-6202174D01*
X248753Y-6202174D02*
X258277Y-6164079D01*
X258277Y-6164079D02*
X267801Y-6145031D01*
X267801Y-6145031D02*
X277324Y-6135508D01*
X277324Y-6135508D02*
X296372Y-6125984D01*
X448753Y-6306936D02*
X458277Y-6316460D01*
X458277Y-6316460D02*
X448753Y-6325984D01*
X448753Y-6325984D02*
X439229Y-6316460D01*
X439229Y-6316460D02*
X448753Y-6306936D01*
X448753Y-6306936D02*
X448753Y-6325984D01*
X629705Y-6125984D02*
X591610Y-6125984D01*
X591610Y-6125984D02*
X572563Y-6135508D01*
X572563Y-6135508D02*
X563039Y-6145031D01*
X563039Y-6145031D02*
X543991Y-6173603D01*
X543991Y-6173603D02*
X534467Y-6211698D01*
X534467Y-6211698D02*
X534467Y-6287888D01*
X534467Y-6287888D02*
X543991Y-6306936D01*
X543991Y-6306936D02*
X553515Y-6316460D01*
X553515Y-6316460D02*
X572563Y-6325984D01*
X572563Y-6325984D02*
X610658Y-6325984D01*
X610658Y-6325984D02*
X629705Y-6316460D01*
X629705Y-6316460D02*
X639229Y-6306936D01*
X639229Y-6306936D02*
X648753Y-6287888D01*
X648753Y-6287888D02*
X648753Y-6240269D01*
X648753Y-6240269D02*
X639229Y-6221222D01*
X639229Y-6221222D02*
X629705Y-6211698D01*
X629705Y-6211698D02*
X610658Y-6202174D01*
X610658Y-6202174D02*
X572563Y-6202174D01*
X572563Y-6202174D02*
X553515Y-6211698D01*
X553515Y-6211698D02*
X543991Y-6221222D01*
X543991Y-6221222D02*
X534467Y-6240269D01*
X772562Y-6125984D02*
X791610Y-6125984D01*
X791610Y-6125984D02*
X810658Y-6135508D01*
X810658Y-6135508D02*
X820182Y-6145031D01*
X820182Y-6145031D02*
X829705Y-6164079D01*
X829705Y-6164079D02*
X839229Y-6202174D01*
X839229Y-6202174D02*
X839229Y-6249793D01*
X839229Y-6249793D02*
X829705Y-6287888D01*
X829705Y-6287888D02*
X820182Y-6306936D01*
X820182Y-6306936D02*
X810658Y-6316460D01*
X810658Y-6316460D02*
X791610Y-6325984D01*
X791610Y-6325984D02*
X772562Y-6325984D01*
X772562Y-6325984D02*
X753515Y-6316460D01*
X753515Y-6316460D02*
X743991Y-6306936D01*
X743991Y-6306936D02*
X734467Y-6287888D01*
X734467Y-6287888D02*
X724943Y-6249793D01*
X724943Y-6249793D02*
X724943Y-6202174D01*
X724943Y-6202174D02*
X734467Y-6164079D01*
X734467Y-6164079D02*
X743991Y-6145031D01*
X743991Y-6145031D02*
X753515Y-6135508D01*
X753515Y-6135508D02*
X772562Y-6125984D01*
X963039Y-6125984D02*
X982086Y-6125984D01*
X982086Y-6125984D02*
X1001134Y-6135508D01*
X1001134Y-6135508D02*
X1010658Y-6145031D01*
X1010658Y-6145031D02*
X1020182Y-6164079D01*
X1020182Y-6164079D02*
X1029705Y-6202174D01*
X1029705Y-6202174D02*
X1029705Y-6249793D01*
X1029705Y-6249793D02*
X1020182Y-6287888D01*
X1020182Y-6287888D02*
X1010658Y-6306936D01*
X1010658Y-6306936D02*
X1001134Y-6316460D01*
X1001134Y-6316460D02*
X982086Y-6325984D01*
X982086Y-6325984D02*
X963039Y-6325984D01*
X963039Y-6325984D02*
X943991Y-6316460D01*
X943991Y-6316460D02*
X934467Y-6306936D01*
X934467Y-6306936D02*
X924943Y-6287888D01*
X924943Y-6287888D02*
X915420Y-6249793D01*
X915420Y-6249793D02*
X915420Y-6202174D01*
X915420Y-6202174D02*
X924943Y-6164079D01*
X924943Y-6164079D02*
X934467Y-6145031D01*
X934467Y-6145031D02*
X943991Y-6135508D01*
X943991Y-6135508D02*
X963039Y-6125984D01*
X1115420Y-6325984D02*
X1115420Y-6192650D01*
X1115420Y-6211698D02*
X1124944Y-6202174D01*
X1124944Y-6202174D02*
X1143991Y-6192650D01*
X1143991Y-6192650D02*
X1172563Y-6192650D01*
X1172563Y-6192650D02*
X1191610Y-6202174D01*
X1191610Y-6202174D02*
X1201134Y-6221222D01*
X1201134Y-6221222D02*
X1201134Y-6325984D01*
X1201134Y-6221222D02*
X1210658Y-6202174D01*
X1210658Y-6202174D02*
X1229705Y-6192650D01*
X1229705Y-6192650D02*
X1258277Y-6192650D01*
X1258277Y-6192650D02*
X1277325Y-6202174D01*
X1277325Y-6202174D02*
X1286848Y-6221222D01*
X1286848Y-6221222D02*
X1286848Y-6325984D01*
X1382086Y-6325984D02*
X1382086Y-6192650D01*
X1382086Y-6211698D02*
X1391610Y-6202174D01*
X1391610Y-6202174D02*
X1410658Y-6192650D01*
X1410658Y-6192650D02*
X1439229Y-6192650D01*
X1439229Y-6192650D02*
X1458277Y-6202174D01*
X1458277Y-6202174D02*
X1467801Y-6221222D01*
X1467801Y-6221222D02*
X1467801Y-6325984D01*
X1467801Y-6221222D02*
X1477324Y-6202174D01*
X1477324Y-6202174D02*
X1496372Y-6192650D01*
X1496372Y-6192650D02*
X1524943Y-6192650D01*
X1524943Y-6192650D02*
X1543991Y-6202174D01*
X1543991Y-6202174D02*
X1553515Y-6221222D01*
X1553515Y-6221222D02*
X1553515Y-6325984D01*
X1943991Y-6116460D02*
X1772563Y-6373603D01*
X2201134Y-6125984D02*
X2220182Y-6125984D01*
X2220182Y-6125984D02*
X2239229Y-6135508D01*
X2239229Y-6135508D02*
X2248753Y-6145031D01*
X2248753Y-6145031D02*
X2258277Y-6164079D01*
X2258277Y-6164079D02*
X2267801Y-6202174D01*
X2267801Y-6202174D02*
X2267801Y-6249793D01*
X2267801Y-6249793D02*
X2258277Y-6287888D01*
X2258277Y-6287888D02*
X2248753Y-6306936D01*
X2248753Y-6306936D02*
X2239229Y-6316460D01*
X2239229Y-6316460D02*
X2220182Y-6325984D01*
X2220182Y-6325984D02*
X2201134Y-6325984D01*
X2201134Y-6325984D02*
X2182087Y-6316460D01*
X2182087Y-6316460D02*
X2172563Y-6306936D01*
X2172563Y-6306936D02*
X2163039Y-6287888D01*
X2163039Y-6287888D02*
X2153515Y-6249793D01*
X2153515Y-6249793D02*
X2153515Y-6202174D01*
X2153515Y-6202174D02*
X2163039Y-6164079D01*
X2163039Y-6164079D02*
X2172563Y-6145031D01*
X2172563Y-6145031D02*
X2182087Y-6135508D01*
X2182087Y-6135508D02*
X2201134Y-6125984D01*
X2353515Y-6306936D02*
X2363039Y-6316460D01*
X2363039Y-6316460D02*
X2353515Y-6325984D01*
X2353515Y-6325984D02*
X2343991Y-6316460D01*
X2343991Y-6316460D02*
X2353515Y-6306936D01*
X2353515Y-6306936D02*
X2353515Y-6325984D01*
X2486848Y-6125984D02*
X2505896Y-6125984D01*
X2505896Y-6125984D02*
X2524944Y-6135508D01*
X2524944Y-6135508D02*
X2534468Y-6145031D01*
X2534468Y-6145031D02*
X2543991Y-6164079D01*
X2543991Y-6164079D02*
X2553515Y-6202174D01*
X2553515Y-6202174D02*
X2553515Y-6249793D01*
X2553515Y-6249793D02*
X2543991Y-6287888D01*
X2543991Y-6287888D02*
X2534468Y-6306936D01*
X2534468Y-6306936D02*
X2524944Y-6316460D01*
X2524944Y-6316460D02*
X2505896Y-6325984D01*
X2505896Y-6325984D02*
X2486848Y-6325984D01*
X2486848Y-6325984D02*
X2467801Y-6316460D01*
X2467801Y-6316460D02*
X2458277Y-6306936D01*
X2458277Y-6306936D02*
X2448753Y-6287888D01*
X2448753Y-6287888D02*
X2439229Y-6249793D01*
X2439229Y-6249793D02*
X2439229Y-6202174D01*
X2439229Y-6202174D02*
X2448753Y-6164079D01*
X2448753Y-6164079D02*
X2458277Y-6145031D01*
X2458277Y-6145031D02*
X2467801Y-6135508D01*
X2467801Y-6135508D02*
X2486848Y-6125984D01*
X2629706Y-6145031D02*
X2639229Y-6135508D01*
X2639229Y-6135508D02*
X2658277Y-6125984D01*
X2658277Y-6125984D02*
X2705896Y-6125984D01*
X2705896Y-6125984D02*
X2724944Y-6135508D01*
X2724944Y-6135508D02*
X2734468Y-6145031D01*
X2734468Y-6145031D02*
X2743991Y-6164079D01*
X2743991Y-6164079D02*
X2743991Y-6183127D01*
X2743991Y-6183127D02*
X2734468Y-6211698D01*
X2734468Y-6211698D02*
X2620182Y-6325984D01*
X2620182Y-6325984D02*
X2743991Y-6325984D01*
X2810658Y-6125984D02*
X2934467Y-6125984D01*
X2934467Y-6125984D02*
X2867801Y-6202174D01*
X2867801Y-6202174D02*
X2896372Y-6202174D01*
X2896372Y-6202174D02*
X2915420Y-6211698D01*
X2915420Y-6211698D02*
X2924944Y-6221222D01*
X2924944Y-6221222D02*
X2934467Y-6240269D01*
X2934467Y-6240269D02*
X2934467Y-6287888D01*
X2934467Y-6287888D02*
X2924944Y-6306936D01*
X2924944Y-6306936D02*
X2915420Y-6316460D01*
X2915420Y-6316460D02*
X2896372Y-6325984D01*
X2896372Y-6325984D02*
X2839229Y-6325984D01*
X2839229Y-6325984D02*
X2820182Y-6316460D01*
X2820182Y-6316460D02*
X2810658Y-6306936D01*
X3105896Y-6125984D02*
X3067801Y-6125984D01*
X3067801Y-6125984D02*
X3048753Y-6135508D01*
X3048753Y-6135508D02*
X3039229Y-6145031D01*
X3039229Y-6145031D02*
X3020182Y-6173603D01*
X3020182Y-6173603D02*
X3010658Y-6211698D01*
X3010658Y-6211698D02*
X3010658Y-6287888D01*
X3010658Y-6287888D02*
X3020182Y-6306936D01*
X3020182Y-6306936D02*
X3029706Y-6316460D01*
X3029706Y-6316460D02*
X3048753Y-6325984D01*
X3048753Y-6325984D02*
X3086848Y-6325984D01*
X3086848Y-6325984D02*
X3105896Y-6316460D01*
X3105896Y-6316460D02*
X3115420Y-6306936D01*
X3115420Y-6306936D02*
X3124944Y-6287888D01*
X3124944Y-6287888D02*
X3124944Y-6240269D01*
X3124944Y-6240269D02*
X3115420Y-6221222D01*
X3115420Y-6221222D02*
X3105896Y-6211698D01*
X3105896Y-6211698D02*
X3086848Y-6202174D01*
X3086848Y-6202174D02*
X3048753Y-6202174D01*
X3048753Y-6202174D02*
X3029706Y-6211698D01*
X3029706Y-6211698D02*
X3020182Y-6221222D01*
X3020182Y-6221222D02*
X3010658Y-6240269D01*
X3201134Y-6125984D02*
X3201134Y-6164079D01*
X3277325Y-6125984D02*
X3277325Y-6164079D01*
X3572563Y-6402174D02*
X3563039Y-6392650D01*
X3563039Y-6392650D02*
X3543991Y-6364079D01*
X3543991Y-6364079D02*
X3534468Y-6345031D01*
X3534468Y-6345031D02*
X3524944Y-6316460D01*
X3524944Y-6316460D02*
X3515420Y-6268841D01*
X3515420Y-6268841D02*
X3515420Y-6230746D01*
X3515420Y-6230746D02*
X3524944Y-6183127D01*
X3524944Y-6183127D02*
X3534468Y-6154555D01*
X3534468Y-6154555D02*
X3543991Y-6135508D01*
X3543991Y-6135508D02*
X3563039Y-6106936D01*
X3563039Y-6106936D02*
X3572563Y-6097412D01*
X3686848Y-6125984D02*
X3705896Y-6125984D01*
X3705896Y-6125984D02*
X3724944Y-6135508D01*
X3724944Y-6135508D02*
X3734468Y-6145031D01*
X3734468Y-6145031D02*
X3743991Y-6164079D01*
X3743991Y-6164079D02*
X3753515Y-6202174D01*
X3753515Y-6202174D02*
X3753515Y-6249793D01*
X3753515Y-6249793D02*
X3743991Y-6287888D01*
X3743991Y-6287888D02*
X3734468Y-6306936D01*
X3734468Y-6306936D02*
X3724944Y-6316460D01*
X3724944Y-6316460D02*
X3705896Y-6325984D01*
X3705896Y-6325984D02*
X3686848Y-6325984D01*
X3686848Y-6325984D02*
X3667801Y-6316460D01*
X3667801Y-6316460D02*
X3658277Y-6306936D01*
X3658277Y-6306936D02*
X3648753Y-6287888D01*
X3648753Y-6287888D02*
X3639229Y-6249793D01*
X3639229Y-6249793D02*
X3639229Y-6202174D01*
X3639229Y-6202174D02*
X3648753Y-6164079D01*
X3648753Y-6164079D02*
X3658277Y-6145031D01*
X3658277Y-6145031D02*
X3667801Y-6135508D01*
X3667801Y-6135508D02*
X3686848Y-6125984D01*
X3991610Y-6325984D02*
X3991610Y-6125984D01*
X4077325Y-6325984D02*
X4077325Y-6221222D01*
X4077325Y-6221222D02*
X4067801Y-6202174D01*
X4067801Y-6202174D02*
X4048753Y-6192650D01*
X4048753Y-6192650D02*
X4020182Y-6192650D01*
X4020182Y-6192650D02*
X4001134Y-6202174D01*
X4001134Y-6202174D02*
X3991610Y-6211698D01*
X4201134Y-6325984D02*
X4182087Y-6316460D01*
X4182087Y-6316460D02*
X4172563Y-6306936D01*
X4172563Y-6306936D02*
X4163039Y-6287888D01*
X4163039Y-6287888D02*
X4163039Y-6230746D01*
X4163039Y-6230746D02*
X4172563Y-6211698D01*
X4172563Y-6211698D02*
X4182087Y-6202174D01*
X4182087Y-6202174D02*
X4201134Y-6192650D01*
X4201134Y-6192650D02*
X4229706Y-6192650D01*
X4229706Y-6192650D02*
X4248753Y-6202174D01*
X4248753Y-6202174D02*
X4258277Y-6211698D01*
X4258277Y-6211698D02*
X4267801Y-6230746D01*
X4267801Y-6230746D02*
X4267801Y-6287888D01*
X4267801Y-6287888D02*
X4258277Y-6306936D01*
X4258277Y-6306936D02*
X4248753Y-6316460D01*
X4248753Y-6316460D02*
X4229706Y-6325984D01*
X4229706Y-6325984D02*
X4201134Y-6325984D01*
X4382087Y-6325984D02*
X4363039Y-6316460D01*
X4363039Y-6316460D02*
X4353515Y-6297412D01*
X4353515Y-6297412D02*
X4353515Y-6125984D01*
X4534468Y-6316460D02*
X4515420Y-6325984D01*
X4515420Y-6325984D02*
X4477325Y-6325984D01*
X4477325Y-6325984D02*
X4458277Y-6316460D01*
X4458277Y-6316460D02*
X4448753Y-6297412D01*
X4448753Y-6297412D02*
X4448753Y-6221222D01*
X4448753Y-6221222D02*
X4458277Y-6202174D01*
X4458277Y-6202174D02*
X4477325Y-6192650D01*
X4477325Y-6192650D02*
X4515420Y-6192650D01*
X4515420Y-6192650D02*
X4534468Y-6202174D01*
X4534468Y-6202174D02*
X4543992Y-6221222D01*
X4543992Y-6221222D02*
X4543992Y-6240269D01*
X4543992Y-6240269D02*
X4448753Y-6259317D01*
X4620182Y-6316460D02*
X4639230Y-6325984D01*
X4639230Y-6325984D02*
X4677325Y-6325984D01*
X4677325Y-6325984D02*
X4696373Y-6316460D01*
X4696373Y-6316460D02*
X4705896Y-6297412D01*
X4705896Y-6297412D02*
X4705896Y-6287888D01*
X4705896Y-6287888D02*
X4696373Y-6268841D01*
X4696373Y-6268841D02*
X4677325Y-6259317D01*
X4677325Y-6259317D02*
X4648753Y-6259317D01*
X4648753Y-6259317D02*
X4629706Y-6249793D01*
X4629706Y-6249793D02*
X4620182Y-6230746D01*
X4620182Y-6230746D02*
X4620182Y-6221222D01*
X4620182Y-6221222D02*
X4629706Y-6202174D01*
X4629706Y-6202174D02*
X4648753Y-6192650D01*
X4648753Y-6192650D02*
X4677325Y-6192650D01*
X4677325Y-6192650D02*
X4696373Y-6202174D01*
X4943992Y-6249793D02*
X5096373Y-6249793D01*
X5020182Y-6325984D02*
X5020182Y-6173603D01*
X5429706Y-6192650D02*
X5429706Y-6325984D01*
X5382087Y-6116460D02*
X5334468Y-6259317D01*
X5334468Y-6259317D02*
X5458277Y-6259317D01*
X5677325Y-6316460D02*
X5696373Y-6325984D01*
X5696373Y-6325984D02*
X5734468Y-6325984D01*
X5734468Y-6325984D02*
X5753515Y-6316460D01*
X5753515Y-6316460D02*
X5763039Y-6297412D01*
X5763039Y-6297412D02*
X5763039Y-6287888D01*
X5763039Y-6287888D02*
X5753515Y-6268841D01*
X5753515Y-6268841D02*
X5734468Y-6259317D01*
X5734468Y-6259317D02*
X5705896Y-6259317D01*
X5705896Y-6259317D02*
X5686849Y-6249793D01*
X5686849Y-6249793D02*
X5677325Y-6230746D01*
X5677325Y-6230746D02*
X5677325Y-6221222D01*
X5677325Y-6221222D02*
X5686849Y-6202174D01*
X5686849Y-6202174D02*
X5705896Y-6192650D01*
X5705896Y-6192650D02*
X5734468Y-6192650D01*
X5734468Y-6192650D02*
X5753515Y-6202174D01*
X5877325Y-6325984D02*
X5858277Y-6316460D01*
X5858277Y-6316460D02*
X5848754Y-6297412D01*
X5848754Y-6297412D02*
X5848754Y-6125984D01*
X5982087Y-6325984D02*
X5963039Y-6316460D01*
X5963039Y-6316460D02*
X5953515Y-6306936D01*
X5953515Y-6306936D02*
X5943992Y-6287888D01*
X5943992Y-6287888D02*
X5943992Y-6230746D01*
X5943992Y-6230746D02*
X5953515Y-6211698D01*
X5953515Y-6211698D02*
X5963039Y-6202174D01*
X5963039Y-6202174D02*
X5982087Y-6192650D01*
X5982087Y-6192650D02*
X6010658Y-6192650D01*
X6010658Y-6192650D02*
X6029706Y-6202174D01*
X6029706Y-6202174D02*
X6039230Y-6211698D01*
X6039230Y-6211698D02*
X6048754Y-6230746D01*
X6048754Y-6230746D02*
X6048754Y-6287888D01*
X6048754Y-6287888D02*
X6039230Y-6306936D01*
X6039230Y-6306936D02*
X6029706Y-6316460D01*
X6029706Y-6316460D02*
X6010658Y-6325984D01*
X6010658Y-6325984D02*
X5982087Y-6325984D01*
X6105896Y-6192650D02*
X6182087Y-6192650D01*
X6134468Y-6125984D02*
X6134468Y-6297412D01*
X6134468Y-6297412D02*
X6143992Y-6316460D01*
X6143992Y-6316460D02*
X6163039Y-6325984D01*
X6163039Y-6325984D02*
X6182087Y-6325984D01*
X6239230Y-6316460D02*
X6258277Y-6325984D01*
X6258277Y-6325984D02*
X6296373Y-6325984D01*
X6296373Y-6325984D02*
X6315420Y-6316460D01*
X6315420Y-6316460D02*
X6324944Y-6297412D01*
X6324944Y-6297412D02*
X6324944Y-6287888D01*
X6324944Y-6287888D02*
X6315420Y-6268841D01*
X6315420Y-6268841D02*
X6296373Y-6259317D01*
X6296373Y-6259317D02*
X6267801Y-6259317D01*
X6267801Y-6259317D02*
X6248754Y-6249793D01*
X6248754Y-6249793D02*
X6239230Y-6230746D01*
X6239230Y-6230746D02*
X6239230Y-6221222D01*
X6239230Y-6221222D02*
X6248754Y-6202174D01*
X6248754Y-6202174D02*
X6267801Y-6192650D01*
X6267801Y-6192650D02*
X6296373Y-6192650D01*
X6296373Y-6192650D02*
X6315420Y-6202174D01*
X6391611Y-6402174D02*
X6401135Y-6392650D01*
X6401135Y-6392650D02*
X6420182Y-6364079D01*
X6420182Y-6364079D02*
X6429706Y-6345031D01*
X6429706Y-6345031D02*
X6439230Y-6316460D01*
X6439230Y-6316460D02*
X6448754Y-6268841D01*
X6448754Y-6268841D02*
X6448754Y-6230746D01*
X6448754Y-6230746D02*
X6439230Y-6183127D01*
X6439230Y-6183127D02*
X6429706Y-6154555D01*
X6429706Y-6154555D02*
X6420182Y-6135508D01*
X6420182Y-6135508D02*
X6401135Y-6106936D01*
X6401135Y-6106936D02*
X6391611Y-6097412D01*
M02*
