G04 #@! TF.GenerationSoftware,KiCad,Pcbnew,8.0.3*
G04 #@! TF.CreationDate,2024-07-02T16:51:36-07:00*
G04 #@! TF.ProjectId,canary,63616e61-7279-42e6-9b69-6361645f7063,rev?*
G04 #@! TF.SameCoordinates,PX2faf080PY2faf080*
G04 #@! TF.FileFunction,Profile,NP*
%FSLAX46Y46*%
G04 Gerber Fmt 4.6, Leading zero omitted, Abs format (unit mm)*
G04 Created by KiCad (PCBNEW 8.0.3) date 2024-07-02 16:51:36*
%MOMM*%
%LPD*%
G01*
G04 APERTURE LIST*
G04 #@! TA.AperFunction,Profile*
%ADD10C,0.050000*%
G04 #@! TD*
G04 APERTURE END LIST*
D10*
X11500000Y-43000000D02*
X11500000Y-46000000D01*
X68000000Y-46500000D02*
G75*
G02*
X67500000Y-46000000I0J500000D01*
G01*
X18000000Y-44000000D02*
X18000000Y-46000000D01*
X0Y0D02*
X78000000Y0D01*
X13000000Y-43500000D02*
X17500000Y-43500000D01*
X51000000Y-34000000D02*
G75*
G02*
X51500000Y-33500000I500000J0D01*
G01*
X1500000Y-33000000D02*
X0Y-33000000D01*
X1500000Y-13000000D02*
G75*
G02*
X3000000Y-14500000I0J-1500000D01*
G01*
X19000000Y-46000000D02*
G75*
G02*
X18500000Y-46500000I-500000J0D01*
G01*
X3000000Y-14500000D02*
X3000000Y-31500000D01*
X3000000Y-31500000D02*
G75*
G02*
X1500000Y-33000000I-1500000J0D01*
G01*
X52500000Y-34500000D02*
X67000000Y-34500000D01*
X68500000Y-46000000D02*
X68500000Y-34000000D01*
X0Y-13000000D02*
X0Y0D01*
X12500000Y-46000000D02*
G75*
G02*
X12000000Y-46500000I-500000J0D01*
G01*
X19000000Y-46000000D02*
X19000000Y-43000000D01*
X67500000Y-35000000D02*
X67500000Y-46000000D01*
X12500000Y-44000000D02*
G75*
G02*
X13000000Y-43500000I500000J0D01*
G01*
X67000000Y-34500000D02*
G75*
G02*
X67500000Y-35000000I0J-500000D01*
G01*
X68000000Y-33500000D02*
X51500000Y-33500000D01*
X11500000Y-43000000D02*
G75*
G02*
X12000000Y-42500000I500000J0D01*
G01*
X78000000Y-48000000D02*
X0Y-48000000D01*
X51000000Y-34000000D02*
X51000000Y-46000000D01*
X51500000Y-46500000D02*
G75*
G02*
X51000000Y-46000000I0J500000D01*
G01*
X12500000Y-46000000D02*
X12500000Y-44000000D01*
X12000000Y-46500000D02*
G75*
G02*
X11500000Y-46000000I0J500000D01*
G01*
X52000000Y-35000000D02*
G75*
G02*
X52500000Y-34500000I500000J0D01*
G01*
X17500000Y-43500000D02*
G75*
G02*
X18000000Y-44000000I0J-500000D01*
G01*
X68000000Y-33500000D02*
G75*
G02*
X68500000Y-34000000I0J-500000D01*
G01*
X18500000Y-42500000D02*
G75*
G02*
X19000000Y-43000000I0J-500000D01*
G01*
X78000000Y0D02*
X78000000Y-48000000D01*
X52000000Y-46000000D02*
X52000000Y-35000000D01*
X0Y-13000000D02*
X1500000Y-13000000D01*
X18500000Y-42500000D02*
X12000000Y-42500000D01*
X52000000Y-46000000D02*
G75*
G02*
X51500000Y-46500000I-500000J0D01*
G01*
X0Y-48000000D02*
X0Y-33000000D01*
X18500000Y-46500000D02*
G75*
G02*
X18000000Y-46000000I0J500000D01*
G01*
X68500000Y-46000000D02*
G75*
G02*
X68000000Y-46500000I-500000J0D01*
G01*
M02*
