G04 #@! TF.GenerationSoftware,KiCad,Pcbnew,8.0.3*
G04 #@! TF.CreationDate,2024-07-02T16:51:35-07:00*
G04 #@! TF.ProjectId,canary,63616e61-7279-42e6-9b69-6361645f7063,rev?*
G04 #@! TF.SameCoordinates,PX2faf080PY2faf080*
G04 #@! TF.FileFunction,Copper,L4,Bot*
G04 #@! TF.FilePolarity,Positive*
%FSLAX46Y46*%
G04 Gerber Fmt 4.6, Leading zero omitted, Abs format (unit mm)*
G04 Created by KiCad (PCBNEW 8.0.3) date 2024-07-02 16:51:35*
%MOMM*%
%LPD*%
G01*
G04 APERTURE LIST*
G04 #@! TA.AperFunction,ComponentPad*
%ADD10C,0.700000*%
G04 #@! TD*
G04 #@! TA.AperFunction,ComponentPad*
%ADD11O,1.800000X0.900000*%
G04 #@! TD*
G04 #@! TA.AperFunction,ComponentPad*
%ADD12O,2.100000X1.000000*%
G04 #@! TD*
G04 #@! TA.AperFunction,ComponentPad*
%ADD13O,1.800000X1.000000*%
G04 #@! TD*
G04 #@! TA.AperFunction,ViaPad*
%ADD14C,0.600000*%
G04 #@! TD*
G04 #@! TA.AperFunction,Conductor*
%ADD15C,0.300000*%
G04 #@! TD*
G04 #@! TA.AperFunction,Conductor*
%ADD16C,0.200000*%
G04 #@! TD*
G04 #@! TA.AperFunction,Conductor*
%ADD17C,0.278638*%
G04 #@! TD*
G04 APERTURE END LIST*
D10*
X35750000Y-23300000D03*
X36700000Y-23300000D03*
X37650000Y-23300000D03*
X38550000Y-23300000D03*
X39450000Y-23300000D03*
X40350000Y-23300000D03*
X41300000Y-23300000D03*
X42250000Y-23300000D03*
X42250000Y-24700000D03*
X41300000Y-24700000D03*
X40350000Y-24700000D03*
X39450000Y-24700000D03*
X38550000Y-24700000D03*
X37650000Y-24700000D03*
X36700000Y-24700000D03*
X35750000Y-24700000D03*
D11*
X37000000Y-22070000D03*
X37000000Y-25930000D03*
X41000000Y-22070000D03*
X41000000Y-25930000D03*
D12*
X72315000Y-32620000D03*
X72315000Y-23980000D03*
D13*
X76465000Y-32620000D03*
X76465000Y-23980000D03*
D14*
X71000000Y-11000000D03*
X71000000Y-15000000D03*
X18250000Y-10500000D03*
X69616207Y-24883793D03*
X44500000Y-14500000D03*
X62000000Y-15000000D03*
X63000000Y-9900000D03*
X40000000Y-17000000D03*
X35000000Y-32500000D03*
X47000000Y-23000000D03*
X69500000Y-31500000D03*
X48500000Y-6500000D03*
X26565687Y-20565687D03*
X28500000Y-12500000D03*
X66500000Y-46000000D03*
X5000000Y-10000000D03*
X5000000Y-15000000D03*
X74000000Y-43000000D03*
X12250000Y-11250000D03*
X53250000Y-2500000D03*
X33500000Y-19500000D03*
X15000000Y-7500000D03*
X65500000Y-6750000D03*
X48000000Y-38000000D03*
X45250000Y-14500000D03*
X18250000Y-17500000D03*
X26000000Y-27000000D03*
X64000000Y-11500000D03*
X42000000Y-38000000D03*
X40000000Y-10500000D03*
X65500000Y-11500000D03*
X54000000Y-5500000D03*
X35000000Y-19000000D03*
X40500000Y-29500000D03*
X28000000Y-44000000D03*
X13750000Y-20250000D03*
X74000000Y-38000000D03*
X67000000Y-6750000D03*
X58000000Y-29500000D03*
X62000000Y-5000000D03*
X42000000Y-45500000D03*
X34500000Y-15500000D03*
X20250000Y-45250000D03*
X71000000Y-45000000D03*
X38000000Y-10500000D03*
X19750000Y-27250000D03*
X17200000Y-44300000D03*
X5000000Y-20000000D03*
X66500000Y-29500000D03*
X18250000Y-13250000D03*
X70500000Y-25000000D03*
X68000000Y-8500000D03*
X73000000Y-2000000D03*
X63000000Y-8500000D03*
X47799265Y-29049265D03*
X67000000Y-11500000D03*
X13750000Y-15000000D03*
X56000000Y-29500000D03*
X38000000Y-29500000D03*
X55000000Y-12500000D03*
X64000000Y-6750000D03*
X30000000Y-27000000D03*
X67000000Y-24000000D03*
X68000000Y-10000000D03*
X30550000Y-21000000D03*
X45500000Y-9000000D03*
X5000000Y-25000000D03*
X5000000Y-30000000D03*
X24250000Y-18250000D03*
X48500000Y-19000000D03*
X62000000Y-2000000D03*
X73000000Y-5000000D03*
X70500000Y-31500000D03*
X9000000Y-39000000D03*
X36000000Y-7000000D03*
X38000000Y-17000000D03*
X58000000Y-23000000D03*
X55500000Y-7125000D03*
X54174551Y-7922039D03*
X68000000Y-25750000D03*
X67500000Y-28500000D03*
X56283975Y-18283975D03*
X38598400Y-9500000D03*
X39401600Y-9500000D03*
X55989043Y-19027628D03*
X60500000Y-3250000D03*
X48500000Y-1975000D03*
X53000000Y-4500000D03*
X56500000Y-6500000D03*
X17000000Y-7000000D03*
X22000000Y-9500000D03*
X54000000Y-4500000D03*
X62500000Y-23000000D03*
X33500000Y-15000000D03*
X47000000Y-9000000D03*
X30000000Y-32500000D03*
X72500000Y-21500000D03*
X26000000Y-20000000D03*
X16500000Y-18750000D03*
X48000000Y-10000000D03*
X65500000Y-41500000D03*
X41500000Y-6500000D03*
X53000000Y-39500000D03*
X42000000Y-44500000D03*
X24209620Y-19209620D03*
X21050003Y-45250000D03*
X53750000Y-3250000D03*
X34065687Y-18934313D03*
X54500000Y-15500000D03*
X71000000Y-46000000D03*
X38598400Y-20418400D03*
X45783974Y-26314426D03*
X39401600Y-20418400D03*
X45783974Y-27117626D03*
X37000000Y-27500000D03*
X69500000Y-29625000D03*
X69500000Y-26500000D03*
X53500000Y-32000000D03*
X29165380Y-21915380D03*
X77200000Y-2500000D03*
X49000000Y-4125000D03*
X13000000Y-15500000D03*
X23850000Y-31500000D03*
X74000000Y-4000000D03*
X26000000Y-24500000D03*
X31200000Y-18700000D03*
X52400000Y-7791830D03*
X44934313Y-29684313D03*
X47548491Y-27567626D03*
X64500000Y-22375000D03*
X65647827Y-28352173D03*
X59500000Y-23000000D03*
X32500000Y-17250000D03*
X15000000Y-32500000D03*
X30500000Y-15000000D03*
X13057793Y-16456322D03*
X23000000Y-36500000D03*
X52000000Y-9000000D03*
X29100000Y-15230761D03*
X65000000Y-21000000D03*
X50500000Y-2875000D03*
X12254783Y-16514349D03*
X50370558Y-4754442D03*
X53000000Y-19500000D03*
X64000000Y-21000000D03*
X12500000Y-31500000D03*
X49995558Y-2125000D03*
X15000000Y-36500000D03*
X56500000Y-9000000D03*
X11210301Y-16710301D03*
X55000000Y-21500000D03*
X45500000Y-30250000D03*
X53000000Y-44000000D03*
X38250000Y-40250000D03*
X14000000Y-46750000D03*
X61000000Y-22500000D03*
X41250000Y-43250000D03*
D15*
X66500000Y-46000000D02*
X66500000Y-46250000D01*
X68750000Y-47250000D02*
X71000000Y-45000000D01*
X66500000Y-46250000D02*
X67500000Y-47250000D01*
X67500000Y-47250000D02*
X68750000Y-47250000D01*
D16*
X45000000Y-41000000D02*
X45000000Y-35800000D01*
X45000000Y-35800000D02*
X46550000Y-34250000D01*
X49250000Y-34250000D02*
X61000000Y-22500000D01*
X46550000Y-34250000D02*
X49250000Y-34250000D01*
D15*
X17741117Y-47125000D02*
X19258883Y-47125000D01*
X20250000Y-46133883D02*
X20250000Y-45250000D01*
X17200000Y-44300000D02*
X17200000Y-46583883D01*
X17200000Y-46583883D02*
X17741117Y-47125000D01*
X19258883Y-47125000D02*
X20250000Y-46133883D01*
D16*
X54702961Y-7922039D02*
X55500000Y-7125000D01*
X54174551Y-7922039D02*
X54702961Y-7922039D01*
D15*
X68000000Y-25750000D02*
X68000000Y-28000000D01*
X68000000Y-28000000D02*
X67500000Y-28500000D01*
D17*
X39823896Y-9018162D02*
X39666415Y-8860681D01*
X39666415Y-8860681D02*
X39136785Y-8860681D01*
X38762281Y-9235185D02*
X38762281Y-9336119D01*
X56283975Y-18283975D02*
X51124687Y-18283975D01*
X38762281Y-9336119D02*
X38598400Y-9500000D01*
X41858874Y-9018162D02*
X39823896Y-9018162D01*
X39136785Y-8860681D02*
X38762281Y-9235185D01*
X51124687Y-18283975D02*
X41858874Y-9018162D01*
X55727228Y-18765813D02*
X50925101Y-18765813D01*
X41659288Y-9500000D02*
X39401600Y-9500000D01*
X55989043Y-19027628D02*
X55727228Y-18765813D01*
X50925101Y-18765813D02*
X41659288Y-9500000D01*
D16*
X58750000Y-1500000D02*
X48975000Y-1500000D01*
X48975000Y-1500000D02*
X48500000Y-1975000D01*
X60500000Y-3250000D02*
X58750000Y-1500000D01*
X53000000Y-4500000D02*
X53000000Y-5383884D01*
X53000000Y-5383884D02*
X54116116Y-6500000D01*
X54116116Y-6500000D02*
X56500000Y-6500000D01*
D15*
X19500000Y-9500000D02*
X22000000Y-9500000D01*
X17000000Y-7000000D02*
X19500000Y-9500000D01*
X53000000Y-39500000D02*
X63500000Y-39500000D01*
X63500000Y-39500000D02*
X65500000Y-41500000D01*
D17*
X43259081Y-29900207D02*
X41900207Y-31259081D01*
X43259081Y-28839319D02*
X43259081Y-29900207D01*
X45144655Y-26852811D02*
X45144655Y-26953745D01*
X45620093Y-26478307D02*
X45519159Y-26478307D01*
X39240919Y-24909081D02*
X39450000Y-24700000D01*
X39240919Y-30400207D02*
X39240919Y-24909081D01*
X38550000Y-23300000D02*
X38759081Y-23090919D01*
X38759081Y-20579081D02*
X38598400Y-20418400D01*
X45144655Y-26953745D02*
X43259081Y-28839319D01*
X45519159Y-26478307D02*
X45144655Y-26852811D01*
X45783974Y-26314426D02*
X45620093Y-26478307D01*
X38759081Y-23090919D02*
X38759081Y-20579081D01*
X40099793Y-31259081D02*
X39240919Y-30400207D01*
X41900207Y-31259081D02*
X40099793Y-31259081D01*
X45783974Y-27117626D02*
X45662196Y-27117626D01*
X39240919Y-20579081D02*
X39401600Y-20418400D01*
X45662196Y-27117626D02*
X43740919Y-29038903D01*
X39450000Y-23300000D02*
X39240919Y-23090919D01*
X38550000Y-24700000D02*
X38550000Y-24274845D01*
X43740919Y-30099793D02*
X42099793Y-31740919D01*
X38759081Y-30599793D02*
X38759081Y-24909081D01*
X38550000Y-24274845D02*
X39450000Y-23374845D01*
X39900207Y-31740919D02*
X38759081Y-30599793D01*
X39240919Y-23090919D02*
X39240919Y-20579081D01*
X38759081Y-24909081D02*
X38550000Y-24700000D01*
X42099793Y-31740919D02*
X39900207Y-31740919D01*
X43740919Y-29038903D02*
X43740919Y-30099793D01*
D16*
X46178646Y-32205238D02*
X39705238Y-32205238D01*
X70125000Y-26241116D02*
X65633884Y-21750000D01*
X35495405Y-24000000D02*
X35000000Y-24495405D01*
X37650000Y-23794974D02*
X37444974Y-24000000D01*
X37000000Y-29500000D02*
X37000000Y-27500000D01*
X70125000Y-29000000D02*
X70125000Y-26241116D01*
X35000000Y-24495405D02*
X35000000Y-25500000D01*
X65633884Y-21750000D02*
X56633884Y-21750000D01*
X35000000Y-25500000D02*
X37000000Y-27500000D01*
X39705238Y-32205238D02*
X37000000Y-29500000D01*
X56633884Y-21750000D02*
X46178646Y-32205238D01*
X37444974Y-24000000D02*
X35495405Y-24000000D01*
X69500000Y-29625000D02*
X70125000Y-29000000D01*
X37650000Y-23300000D02*
X37650000Y-23794974D01*
X69500000Y-26500000D02*
X69500000Y-27383884D01*
X64883884Y-32000000D02*
X53500000Y-32000000D01*
X69500000Y-27383884D02*
X64883884Y-32000000D01*
X66600000Y-13100000D02*
X77200000Y-2500000D01*
X13657793Y-16704851D02*
X13099997Y-17262647D01*
X13657793Y-16157793D02*
X13657793Y-16704851D01*
X13099997Y-17262647D02*
X13099997Y-27849997D01*
X54475000Y-13100000D02*
X66600000Y-13100000D01*
X23850000Y-31500000D02*
X23850000Y-24584315D01*
X13099997Y-27849997D02*
X16750000Y-31500000D01*
X13000000Y-15500000D02*
X13657793Y-16157793D01*
X23850000Y-24584315D02*
X26518935Y-21915380D01*
X49000000Y-4125000D02*
X49125000Y-4250000D01*
X49125000Y-7750000D02*
X54475000Y-13100000D01*
X26518935Y-21915380D02*
X29165380Y-21915380D01*
X16750000Y-31500000D02*
X23850000Y-31500000D01*
X49125000Y-4250000D02*
X49125000Y-7750000D01*
X31200000Y-18700000D02*
X31200000Y-21800000D01*
X53180209Y-8572039D02*
X55347200Y-8572039D01*
X55347200Y-8572039D02*
X59919239Y-4000000D01*
X28500000Y-24500000D02*
X26000000Y-24500000D01*
X59919239Y-4000000D02*
X74000000Y-4000000D01*
X31200000Y-21800000D02*
X28500000Y-24500000D01*
X52400000Y-7791830D02*
X53180209Y-8572039D01*
X64500000Y-22500000D02*
X65647827Y-23647827D01*
X47333845Y-27567626D02*
X47548491Y-27567626D01*
X65647827Y-28352173D02*
X65647827Y-23647827D01*
X44934313Y-29684313D02*
X45217158Y-29684313D01*
X64500000Y-22500000D02*
X64500000Y-22375000D01*
X45217158Y-29684313D02*
X47333845Y-27567626D01*
X32500000Y-25671752D02*
X39508486Y-32680238D01*
X32500000Y-17250000D02*
X32500000Y-25671752D01*
X49819762Y-32680238D02*
X59500000Y-23000000D01*
X39508486Y-32680238D02*
X49819762Y-32680238D01*
X12699997Y-30199997D02*
X15000000Y-32500000D01*
X12699997Y-16917664D02*
X12699997Y-30199997D01*
X29500000Y-14000000D02*
X30500000Y-15000000D01*
X13057793Y-16456322D02*
X12400000Y-15798529D01*
X12400000Y-15100000D02*
X13500000Y-14000000D01*
X13500000Y-14000000D02*
X29500000Y-14000000D01*
X13057793Y-16456322D02*
X13057793Y-16559868D01*
X13057793Y-16559868D02*
X12699997Y-16917664D01*
X12400000Y-15798529D02*
X12400000Y-15100000D01*
X49269239Y-3475000D02*
X48730761Y-3475000D01*
X48730761Y-3475000D02*
X47850000Y-4355761D01*
X29900000Y-16030761D02*
X29900000Y-22100000D01*
X52000000Y-9000000D02*
X49650000Y-6650000D01*
X47850000Y-7769239D02*
X60430761Y-20350000D01*
X47850000Y-4355761D02*
X47850000Y-7769239D01*
X26000000Y-23000000D02*
X24500000Y-24500000D01*
X49650000Y-3855761D02*
X49269239Y-3475000D01*
X29900000Y-22100000D02*
X29000000Y-23000000D01*
X24500000Y-35000000D02*
X23000000Y-36500000D01*
X49650000Y-6650000D02*
X49650000Y-3855761D01*
X29000000Y-23000000D02*
X26000000Y-23000000D01*
X24500000Y-24500000D02*
X24500000Y-35000000D01*
X60430761Y-20350000D02*
X64350000Y-20350000D01*
X64350000Y-20350000D02*
X65000000Y-21000000D01*
X29100000Y-15230761D02*
X29900000Y-16030761D01*
X55348529Y-21000000D02*
X53848529Y-19500000D01*
X11000000Y-17769132D02*
X11000000Y-30000000D01*
X50370558Y-4754442D02*
X50370558Y-3004442D01*
X50370558Y-3004442D02*
X50500000Y-2875000D01*
X64000000Y-21000000D02*
X55348529Y-21000000D01*
X53848529Y-19500000D02*
X53000000Y-19500000D01*
X12254783Y-16514349D02*
X11000000Y-17769132D01*
X11000000Y-30000000D02*
X12500000Y-31500000D01*
X52258884Y-8375000D02*
X53008884Y-9125000D01*
X11210301Y-16710301D02*
X10100000Y-17820602D01*
X56375000Y-9125000D02*
X56500000Y-9000000D01*
X51125000Y-5258884D02*
X50125000Y-6258884D01*
X10100000Y-17820602D02*
X10100000Y-31600000D01*
X53008884Y-9125000D02*
X56375000Y-9125000D01*
X10100000Y-31600000D02*
X15000000Y-36500000D01*
X52046752Y-8375000D02*
X52258884Y-8375000D01*
X51125000Y-2616116D02*
X51125000Y-5258884D01*
X50633884Y-2125000D02*
X51125000Y-2616116D01*
X50125000Y-6258884D02*
X50125000Y-6453248D01*
X49995558Y-2125000D02*
X50633884Y-2125000D01*
X50125000Y-6453248D02*
X52046752Y-8375000D01*
X45500000Y-30250000D02*
X45750000Y-30250000D01*
X45750000Y-30250000D02*
X54500000Y-21500000D01*
X54500000Y-21500000D02*
X55000000Y-21500000D01*
X41250000Y-43250000D02*
X42750000Y-43250000D01*
X50750000Y-47250000D02*
X45000000Y-41500000D01*
X45000000Y-41500000D02*
X45000000Y-41000000D01*
X12750000Y-40250000D02*
X10875000Y-42125000D01*
X38250000Y-40250000D02*
X12750000Y-40250000D01*
X42750000Y-43250000D02*
X45000000Y-41000000D01*
X10875000Y-42125000D02*
X10875000Y-46758883D01*
X53000000Y-44000000D02*
X53000000Y-46750000D01*
X53000000Y-46750000D02*
X52500000Y-47250000D01*
X13625000Y-47125000D02*
X14000000Y-46750000D01*
X10875000Y-46758883D02*
X11241117Y-47125000D01*
X38250000Y-40250000D02*
X41250000Y-43250000D01*
X11241117Y-47125000D02*
X13625000Y-47125000D01*
X52500000Y-47250000D02*
X50750000Y-47250000D01*
G04 #@! TA.AperFunction,NonConductor*
G36*
X16706314Y-43920185D02*
G01*
X16752069Y-43972989D01*
X16762013Y-44042147D01*
X16752069Y-44076011D01*
X16714835Y-44157541D01*
X16714834Y-44157542D01*
X16694353Y-44300000D01*
X16714834Y-44442456D01*
X16774622Y-44573371D01*
X16774623Y-44573373D01*
X16819213Y-44624833D01*
X16848238Y-44688388D01*
X16849500Y-44706035D01*
X16849500Y-46630027D01*
X16863655Y-46682853D01*
X16868105Y-46699460D01*
X16868105Y-46699462D01*
X16873385Y-46719170D01*
X16919527Y-46799091D01*
X16919531Y-46799096D01*
X17508254Y-47387819D01*
X17541739Y-47449142D01*
X17536755Y-47518834D01*
X17494883Y-47574767D01*
X17429419Y-47599184D01*
X17420573Y-47599500D01*
X13866916Y-47599500D01*
X13799877Y-47579815D01*
X13754122Y-47527011D01*
X13744178Y-47457853D01*
X13773203Y-47394297D01*
X13804918Y-47368112D01*
X13806938Y-47366945D01*
X13809511Y-47365460D01*
X13865460Y-47309511D01*
X13865461Y-47309510D01*
X13888153Y-47286819D01*
X13949476Y-47253334D01*
X13975834Y-47250500D01*
X14071962Y-47250500D01*
X14071962Y-47250499D01*
X14210053Y-47209953D01*
X14331128Y-47132143D01*
X14425377Y-47023373D01*
X14485165Y-46892457D01*
X14505647Y-46750000D01*
X14485165Y-46607543D01*
X14425377Y-46476627D01*
X14331128Y-46367857D01*
X14210053Y-46290047D01*
X14210051Y-46290046D01*
X14210049Y-46290045D01*
X14210050Y-46290045D01*
X14071963Y-46249500D01*
X14071961Y-46249500D01*
X13928039Y-46249500D01*
X13928036Y-46249500D01*
X13789949Y-46290045D01*
X13668873Y-46367856D01*
X13574623Y-46476626D01*
X13574622Y-46476628D01*
X13514834Y-46607543D01*
X13498933Y-46718146D01*
X13469908Y-46781702D01*
X13411130Y-46819477D01*
X13376195Y-46824500D01*
X12748362Y-46824500D01*
X12681323Y-46804815D01*
X12635568Y-46752011D01*
X12625624Y-46682853D01*
X12654649Y-46619297D01*
X12660681Y-46612819D01*
X12699461Y-46574038D01*
X12699464Y-46574035D01*
X12798013Y-46426547D01*
X12865894Y-46262666D01*
X12900500Y-46088691D01*
X12900500Y-46000000D01*
X12900500Y-45942417D01*
X12900500Y-44024500D01*
X12920185Y-43957461D01*
X12972989Y-43911706D01*
X13024500Y-43900500D01*
X13057583Y-43900500D01*
X16639275Y-43900500D01*
X16706314Y-43920185D01*
G37*
G04 #@! TD.AperFunction*
G04 #@! TA.AperFunction,NonConductor*
G36*
X52605703Y-44311168D02*
G01*
X52618206Y-44323671D01*
X52668872Y-44382143D01*
X52668874Y-44382144D01*
X52669213Y-44382535D01*
X52698238Y-44446091D01*
X52699500Y-44463738D01*
X52699500Y-46574167D01*
X52679815Y-46641206D01*
X52663181Y-46661848D01*
X52411848Y-46913181D01*
X52350525Y-46946666D01*
X52324167Y-46949500D01*
X52108604Y-46949500D01*
X52041565Y-46929815D01*
X51995810Y-46877011D01*
X51985866Y-46807853D01*
X52014891Y-46744297D01*
X52039712Y-46722398D01*
X52057611Y-46710438D01*
X52074035Y-46699464D01*
X52199464Y-46574035D01*
X52298013Y-46426547D01*
X52365894Y-46262666D01*
X52400500Y-46088691D01*
X52400500Y-46000000D01*
X52400500Y-45942417D01*
X52400500Y-44404881D01*
X52420185Y-44337842D01*
X52472989Y-44292087D01*
X52542147Y-44282143D01*
X52605703Y-44311168D01*
G37*
G04 #@! TD.AperFunction*
G04 #@! TA.AperFunction,NonConductor*
G36*
X67042539Y-34920185D02*
G01*
X67088294Y-34972989D01*
X67099500Y-35024500D01*
X67099500Y-45595118D01*
X67079815Y-45662157D01*
X67027011Y-45707912D01*
X66957853Y-45717856D01*
X66894297Y-45688831D01*
X66881787Y-45676321D01*
X66869514Y-45662157D01*
X66831128Y-45617857D01*
X66710053Y-45540047D01*
X66710051Y-45540046D01*
X66710049Y-45540045D01*
X66710050Y-45540045D01*
X66571963Y-45499500D01*
X66571961Y-45499500D01*
X66428039Y-45499500D01*
X66428036Y-45499500D01*
X66289949Y-45540045D01*
X66168873Y-45617856D01*
X66074623Y-45726626D01*
X66074622Y-45726628D01*
X66014834Y-45857543D01*
X65994353Y-46000000D01*
X66014834Y-46142456D01*
X66074622Y-46273371D01*
X66074625Y-46273377D01*
X66169204Y-46382527D01*
X66182878Y-46401729D01*
X66219527Y-46465208D01*
X66219531Y-46465213D01*
X67142137Y-47387819D01*
X67175622Y-47449142D01*
X67170638Y-47518834D01*
X67128766Y-47574767D01*
X67063302Y-47599184D01*
X67054456Y-47599500D01*
X52874833Y-47599500D01*
X52807794Y-47579815D01*
X52762039Y-47527011D01*
X52752095Y-47457853D01*
X52781120Y-47394297D01*
X52787152Y-47387819D01*
X52971115Y-47203856D01*
X53240460Y-46934511D01*
X53280022Y-46865988D01*
X53300500Y-46789562D01*
X53300500Y-46710438D01*
X53300500Y-44463738D01*
X53320185Y-44396699D01*
X53330787Y-44382535D01*
X53331124Y-44382144D01*
X53331128Y-44382143D01*
X53425377Y-44273373D01*
X53485165Y-44142457D01*
X53505647Y-44000000D01*
X53485165Y-43857543D01*
X53425377Y-43726627D01*
X53331128Y-43617857D01*
X53210053Y-43540047D01*
X53210051Y-43540046D01*
X53210049Y-43540045D01*
X53210050Y-43540045D01*
X53071963Y-43499500D01*
X53071961Y-43499500D01*
X52928039Y-43499500D01*
X52928036Y-43499500D01*
X52789949Y-43540045D01*
X52668873Y-43617856D01*
X52618213Y-43676321D01*
X52559434Y-43714095D01*
X52489565Y-43714095D01*
X52430787Y-43676320D01*
X52401762Y-43612765D01*
X52400500Y-43595118D01*
X52400500Y-39904881D01*
X52420185Y-39837842D01*
X52472989Y-39792087D01*
X52542147Y-39782143D01*
X52605703Y-39811168D01*
X52618213Y-39823679D01*
X52667699Y-39880790D01*
X52668872Y-39882143D01*
X52789947Y-39959953D01*
X52789950Y-39959954D01*
X52789949Y-39959954D01*
X52928036Y-40000499D01*
X52928038Y-40000500D01*
X52928039Y-40000500D01*
X53071962Y-40000500D01*
X53071962Y-40000499D01*
X53210053Y-39959953D01*
X53331128Y-39882143D01*
X53331136Y-39882133D01*
X53332688Y-39880790D01*
X53334572Y-39879929D01*
X53338589Y-39877348D01*
X53338960Y-39877925D01*
X53396243Y-39851763D01*
X53413895Y-39850500D01*
X63303456Y-39850500D01*
X63370495Y-39870185D01*
X63391137Y-39886819D01*
X64963495Y-41459177D01*
X64996980Y-41520500D01*
X64998552Y-41529210D01*
X65014834Y-41642456D01*
X65074622Y-41773371D01*
X65074623Y-41773373D01*
X65168872Y-41882143D01*
X65289947Y-41959953D01*
X65289950Y-41959954D01*
X65289949Y-41959954D01*
X65428036Y-42000499D01*
X65428038Y-42000500D01*
X65428039Y-42000500D01*
X65571962Y-42000500D01*
X65571962Y-42000499D01*
X65710053Y-41959953D01*
X65831128Y-41882143D01*
X65925377Y-41773373D01*
X65985165Y-41642457D01*
X66005647Y-41500000D01*
X65985165Y-41357543D01*
X65925377Y-41226627D01*
X65831128Y-41117857D01*
X65710053Y-41040047D01*
X65710051Y-41040046D01*
X65710049Y-41040045D01*
X65710050Y-41040045D01*
X65571963Y-40999500D01*
X65571961Y-40999500D01*
X65546544Y-40999500D01*
X65479505Y-40979815D01*
X65458863Y-40963181D01*
X63715213Y-39219531D01*
X63715208Y-39219527D01*
X63635291Y-39173387D01*
X63635287Y-39173385D01*
X63629926Y-39171949D01*
X63629926Y-39171948D01*
X63561476Y-39153608D01*
X63546144Y-39149500D01*
X63546143Y-39149500D01*
X53413895Y-39149500D01*
X53346856Y-39129815D01*
X53332688Y-39119210D01*
X53331132Y-39117862D01*
X53331128Y-39117857D01*
X53210053Y-39040047D01*
X53210051Y-39040046D01*
X53210049Y-39040045D01*
X53210050Y-39040045D01*
X53071963Y-38999500D01*
X53071961Y-38999500D01*
X52928039Y-38999500D01*
X52928036Y-38999500D01*
X52789949Y-39040045D01*
X52668873Y-39117856D01*
X52668872Y-39117856D01*
X52668872Y-39117857D01*
X52641453Y-39149500D01*
X52618213Y-39176321D01*
X52559434Y-39214095D01*
X52489565Y-39214095D01*
X52430787Y-39176320D01*
X52401762Y-39112765D01*
X52400500Y-39095118D01*
X52400500Y-35024500D01*
X52420185Y-34957461D01*
X52472989Y-34911706D01*
X52524500Y-34900500D01*
X52557583Y-34900500D01*
X66942417Y-34900500D01*
X66975500Y-34900500D01*
X67042539Y-34920185D01*
G37*
G04 #@! TD.AperFunction*
G04 #@! TA.AperFunction,Conductor*
G36*
X77525000Y-420462D02*
G01*
X77579538Y-475000D01*
X77599500Y-549500D01*
X77599500Y-1581703D01*
X77579538Y-1656203D01*
X77525000Y-1710741D01*
X77450500Y-1730703D01*
X77401292Y-1722343D01*
X77379255Y-1714632D01*
X77379253Y-1714631D01*
X77200001Y-1694435D01*
X77199999Y-1694435D01*
X77020747Y-1714631D01*
X76850477Y-1774211D01*
X76697738Y-1870184D01*
X76570184Y-1997738D01*
X76474211Y-2150477D01*
X76414632Y-2320745D01*
X76405817Y-2398974D01*
X76377638Y-2470771D01*
X76363113Y-2487649D01*
X75016461Y-3834301D01*
X74949666Y-3872865D01*
X74872538Y-3872865D01*
X74805743Y-3834301D01*
X74770465Y-3778155D01*
X74725789Y-3650478D01*
X74629816Y-3497738D01*
X74502262Y-3370184D01*
X74349522Y-3274211D01*
X74179255Y-3214632D01*
X74179254Y-3214631D01*
X74179253Y-3214631D01*
X74000001Y-3194435D01*
X73999999Y-3194435D01*
X73820747Y-3214631D01*
X73650477Y-3274211D01*
X73490653Y-3374636D01*
X73489270Y-3372435D01*
X73431033Y-3397838D01*
X73408839Y-3399500D01*
X61454565Y-3399500D01*
X61380065Y-3379538D01*
X61325527Y-3325000D01*
X61307625Y-3258188D01*
X61306502Y-3258315D01*
X61305662Y-3250863D01*
X61305565Y-3250500D01*
X61305565Y-3249998D01*
X61285368Y-3070747D01*
X61285368Y-3070745D01*
X61225789Y-2900478D01*
X61129816Y-2747738D01*
X61002262Y-2620184D01*
X60849522Y-2524211D01*
X60679255Y-2464632D01*
X60662354Y-2462727D01*
X60601024Y-2455817D01*
X60529228Y-2427638D01*
X60512349Y-2413113D01*
X59239015Y-1139780D01*
X59239013Y-1139777D01*
X59118715Y-1019479D01*
X59031906Y-969361D01*
X59031905Y-969360D01*
X58981786Y-940423D01*
X58829057Y-899499D01*
X58670943Y-899499D01*
X58661814Y-899499D01*
X58661798Y-899500D01*
X48895938Y-899500D01*
X48855019Y-910464D01*
X48855019Y-910465D01*
X48799117Y-925444D01*
X48743215Y-940423D01*
X48606283Y-1019480D01*
X48494478Y-1131286D01*
X48494470Y-1131294D01*
X48487642Y-1138121D01*
X48420844Y-1176680D01*
X48398975Y-1180817D01*
X48320745Y-1189632D01*
X48150477Y-1249211D01*
X47997738Y-1345184D01*
X47870184Y-1472738D01*
X47774211Y-1625477D01*
X47714631Y-1795747D01*
X47694435Y-1974998D01*
X47694435Y-1975001D01*
X47714631Y-2154252D01*
X47714631Y-2154254D01*
X47714632Y-2154255D01*
X47774211Y-2324522D01*
X47870184Y-2477262D01*
X47997738Y-2604816D01*
X48150478Y-2700789D01*
X48300944Y-2753439D01*
X48364667Y-2796884D01*
X48398132Y-2866374D01*
X48392369Y-2943287D01*
X48357089Y-2999434D01*
X48250241Y-3106283D01*
X48250241Y-3106284D01*
X47369479Y-3987045D01*
X47324203Y-4065468D01*
X47324203Y-4065469D01*
X47290423Y-4123976D01*
X47290422Y-4123978D01*
X47249499Y-4276703D01*
X47249499Y-4446822D01*
X47249500Y-4446835D01*
X47249500Y-7681036D01*
X47249499Y-7681054D01*
X47249499Y-7848296D01*
X47290423Y-8001024D01*
X47291898Y-8004563D01*
X47292424Y-8008491D01*
X47292994Y-8010619D01*
X47292718Y-8010692D01*
X47302133Y-8081009D01*
X47272773Y-8152331D01*
X47211687Y-8199418D01*
X47137682Y-8209947D01*
X47044226Y-8199418D01*
X47000001Y-8194435D01*
X46999999Y-8194435D01*
X46820747Y-8214631D01*
X46650477Y-8274211D01*
X46497738Y-8370184D01*
X46370184Y-8497738D01*
X46274211Y-8650477D01*
X46214631Y-8820747D01*
X46194435Y-8999998D01*
X46194435Y-9000001D01*
X46214631Y-9179252D01*
X46214631Y-9179254D01*
X46214632Y-9179255D01*
X46274211Y-9349522D01*
X46370184Y-9502262D01*
X46497738Y-9629816D01*
X46650478Y-9725789D01*
X46820745Y-9785368D01*
X46860418Y-9789838D01*
X46999999Y-9805565D01*
X47000000Y-9805565D01*
X47033458Y-9801795D01*
X47109724Y-9813290D01*
X47170025Y-9861378D01*
X47198204Y-9933174D01*
X47198204Y-9966538D01*
X47194435Y-9999994D01*
X47194435Y-10000001D01*
X47214631Y-10179252D01*
X47214631Y-10179254D01*
X47214632Y-10179255D01*
X47274211Y-10349522D01*
X47370184Y-10502262D01*
X47497738Y-10629816D01*
X47650478Y-10725789D01*
X47820745Y-10785368D01*
X47910372Y-10795466D01*
X47999999Y-10805565D01*
X48000000Y-10805565D01*
X48000001Y-10805565D01*
X48044813Y-10800515D01*
X48179255Y-10785368D01*
X48349522Y-10725789D01*
X48502262Y-10629816D01*
X48629816Y-10502262D01*
X48725789Y-10349522D01*
X48785368Y-10179255D01*
X48800515Y-10044813D01*
X48805565Y-10000001D01*
X48805229Y-9997021D01*
X48799152Y-9943087D01*
X48810646Y-9866825D01*
X48858734Y-9806523D01*
X48930530Y-9778344D01*
X49006797Y-9789838D01*
X49052574Y-9821048D01*
X53944365Y-14712839D01*
X53982929Y-14779634D01*
X53982929Y-14856762D01*
X53944365Y-14923557D01*
X53870184Y-14997738D01*
X53774211Y-15150477D01*
X53714631Y-15320747D01*
X53694435Y-15499998D01*
X53694435Y-15500001D01*
X53714631Y-15679252D01*
X53714631Y-15679254D01*
X53714632Y-15679255D01*
X53774211Y-15849522D01*
X53870184Y-16002262D01*
X53997738Y-16129816D01*
X54150478Y-16225789D01*
X54320745Y-16285368D01*
X54410372Y-16295466D01*
X54499999Y-16305565D01*
X54500000Y-16305565D01*
X54500001Y-16305565D01*
X54544813Y-16300515D01*
X54679255Y-16285368D01*
X54849522Y-16225789D01*
X55002262Y-16129816D01*
X55076443Y-16055635D01*
X55143238Y-16017071D01*
X55220366Y-16017071D01*
X55287161Y-16055635D01*
X56462926Y-17231400D01*
X56501490Y-17298195D01*
X56501490Y-17375323D01*
X56462926Y-17442118D01*
X56396131Y-17480682D01*
X56340884Y-17484822D01*
X56283976Y-17478410D01*
X56283974Y-17478410D01*
X56104722Y-17498606D01*
X55934452Y-17558186D01*
X55833979Y-17621318D01*
X55760277Y-17644052D01*
X55754706Y-17644156D01*
X51451427Y-17644156D01*
X51376927Y-17624194D01*
X51346068Y-17600515D01*
X42266738Y-8521185D01*
X42266735Y-8521182D01*
X42161942Y-8451162D01*
X42161938Y-8451160D01*
X42161936Y-8451159D01*
X42082802Y-8418381D01*
X42045502Y-8402931D01*
X42045500Y-8402930D01*
X42045501Y-8402930D01*
X41946478Y-8383233D01*
X41921891Y-8378343D01*
X41921890Y-8378343D01*
X40141387Y-8378343D01*
X40066887Y-8358381D01*
X40058620Y-8353240D01*
X39969483Y-8293681D01*
X39969479Y-8293679D01*
X39969477Y-8293678D01*
X39863448Y-8249760D01*
X39853043Y-8245450D01*
X39853041Y-8245449D01*
X39853042Y-8245449D01*
X39754019Y-8225752D01*
X39729432Y-8220862D01*
X39073768Y-8220862D01*
X39049181Y-8225752D01*
X38950158Y-8245449D01*
X38833722Y-8293678D01*
X38833712Y-8293684D01*
X38728925Y-8363700D01*
X38728920Y-8363704D01*
X38639803Y-8452822D01*
X38379888Y-8712735D01*
X38323742Y-8748014D01*
X38248878Y-8774210D01*
X38096138Y-8870184D01*
X37968584Y-8997738D01*
X37872611Y-9150477D01*
X37813031Y-9320747D01*
X37792835Y-9499998D01*
X37792835Y-9500001D01*
X37813031Y-9679252D01*
X37813031Y-9679254D01*
X37813032Y-9679255D01*
X37872611Y-9849522D01*
X37968584Y-10002262D01*
X38096138Y-10129816D01*
X38248878Y-10225789D01*
X38419145Y-10285368D01*
X38508772Y-10295466D01*
X38598399Y-10305565D01*
X38598400Y-10305565D01*
X38598401Y-10305565D01*
X38634251Y-10301525D01*
X38777655Y-10285368D01*
X38947922Y-10225789D01*
X38947926Y-10225786D01*
X38950788Y-10224785D01*
X39027701Y-10219022D01*
X39049212Y-10224785D01*
X39052073Y-10225786D01*
X39052078Y-10225789D01*
X39222345Y-10285368D01*
X39311972Y-10295466D01*
X39401599Y-10305565D01*
X39401600Y-10305565D01*
X39401601Y-10305565D01*
X39446413Y-10300515D01*
X39580855Y-10285368D01*
X39751122Y-10225789D01*
X39851596Y-10162657D01*
X39925298Y-10139923D01*
X39930869Y-10139819D01*
X41332548Y-10139819D01*
X41407048Y-10159781D01*
X41437907Y-10183460D01*
X50517240Y-19262793D01*
X50622033Y-19332813D01*
X50738473Y-19381044D01*
X50862084Y-19405632D01*
X50988117Y-19405632D01*
X52050648Y-19405632D01*
X52125148Y-19425594D01*
X52179686Y-19480132D01*
X52198711Y-19537950D01*
X52214631Y-19679252D01*
X52214631Y-19679254D01*
X52214632Y-19679255D01*
X52274211Y-19849522D01*
X52370184Y-20002262D01*
X52497738Y-20129816D01*
X52650478Y-20225789D01*
X52820745Y-20285368D01*
X52910372Y-20295466D01*
X52999999Y-20305565D01*
X53000000Y-20305565D01*
X53000001Y-20305565D01*
X53044813Y-20300515D01*
X53179255Y-20285368D01*
X53349522Y-20225789D01*
X53479551Y-20144085D01*
X53553252Y-20121352D01*
X53628447Y-20138515D01*
X53664183Y-20164889D01*
X54239636Y-20740342D01*
X54278200Y-20807137D01*
X54278200Y-20884265D01*
X54239636Y-20951060D01*
X54208778Y-20974738D01*
X54131284Y-21019479D01*
X48234384Y-26916378D01*
X48167589Y-26954942D01*
X48090461Y-26954942D01*
X48049752Y-26937181D01*
X47898013Y-26841837D01*
X47727743Y-26782257D01*
X47727744Y-26782257D01*
X47548492Y-26762061D01*
X47548490Y-26762061D01*
X47369238Y-26782257D01*
X47198968Y-26841837D01*
X47046229Y-26937810D01*
X46918673Y-27065366D01*
X46861139Y-27156930D01*
X46804600Y-27209390D01*
X46729406Y-27226552D01*
X46655704Y-27203817D01*
X46603244Y-27147278D01*
X46586915Y-27094338D01*
X46583651Y-27065366D01*
X46569342Y-26938371D01*
X46509763Y-26768104D01*
X46509760Y-26768099D01*
X46508759Y-26765238D01*
X46502996Y-26688325D01*
X46508759Y-26666814D01*
X46509760Y-26663952D01*
X46509763Y-26663948D01*
X46569342Y-26493681D01*
X46589539Y-26314426D01*
X46569342Y-26135171D01*
X46509763Y-25964904D01*
X46413790Y-25812164D01*
X46286236Y-25684610D01*
X46133496Y-25588637D01*
X45963229Y-25529058D01*
X45963228Y-25529057D01*
X45963227Y-25529057D01*
X45783975Y-25508861D01*
X45783973Y-25508861D01*
X45604721Y-25529057D01*
X45434451Y-25588637D01*
X45281712Y-25684610D01*
X45154158Y-25812164D01*
X45058183Y-25964905D01*
X45031988Y-26039768D01*
X44996709Y-26095915D01*
X44647678Y-26444946D01*
X44647674Y-26444951D01*
X44577657Y-26549737D01*
X44577654Y-26549744D01*
X44542214Y-26635304D01*
X44509915Y-26683642D01*
X42851220Y-28342339D01*
X42762104Y-28431454D01*
X42762100Y-28431459D01*
X42692084Y-28536246D01*
X42692078Y-28536256D01*
X42643849Y-28652692D01*
X42619262Y-28776302D01*
X42619262Y-29573467D01*
X42599300Y-29647967D01*
X42575621Y-29678826D01*
X41678826Y-30575621D01*
X41612031Y-30614185D01*
X41573467Y-30619262D01*
X40426533Y-30619262D01*
X40352033Y-30599300D01*
X40321174Y-30575621D01*
X39924379Y-30178826D01*
X39885815Y-30112031D01*
X39880738Y-30073467D01*
X39880738Y-26903269D01*
X39900700Y-26828769D01*
X39955238Y-26774231D01*
X40029738Y-26754269D01*
X40092828Y-26770075D01*
X40093242Y-26769078D01*
X40099969Y-26771864D01*
X40099987Y-26771869D01*
X40100010Y-26771881D01*
X40272893Y-26843491D01*
X40272897Y-26843492D01*
X40456433Y-26880000D01*
X40750000Y-26880000D01*
X40750000Y-26180012D01*
X41250000Y-26180012D01*
X41250000Y-26880000D01*
X41543567Y-26880000D01*
X41727102Y-26843492D01*
X41727106Y-26843491D01*
X41899986Y-26771882D01*
X41899998Y-26771876D01*
X42055588Y-26667913D01*
X42055593Y-26667909D01*
X42187909Y-26535593D01*
X42187913Y-26535588D01*
X42291876Y-26379998D01*
X42291881Y-26379989D01*
X42363490Y-26207108D01*
X42363492Y-26207100D01*
X42368884Y-26180000D01*
X41524747Y-26180000D01*
X41616608Y-26141950D01*
X41686938Y-26071620D01*
X41725000Y-25979730D01*
X41725000Y-25880270D01*
X41686938Y-25788380D01*
X41616608Y-25718050D01*
X41524747Y-25680000D01*
X42368884Y-25680000D01*
X42372759Y-25675276D01*
X42376609Y-25616523D01*
X42419458Y-25552393D01*
X42486727Y-25518670D01*
X42514112Y-25512849D01*
X42514115Y-25512848D01*
X42677339Y-25440176D01*
X42677341Y-25440175D01*
X42821891Y-25335154D01*
X42821898Y-25335148D01*
X42941451Y-25202370D01*
X43030790Y-25047631D01*
X43030791Y-25047629D01*
X43062513Y-24950000D01*
X42294390Y-24950000D01*
X42219890Y-24930038D01*
X42175451Y-24885599D01*
X42210218Y-24900000D01*
X42289782Y-24900000D01*
X42363291Y-24869552D01*
X42419552Y-24813291D01*
X42450000Y-24739782D01*
X42450000Y-24660218D01*
X42419552Y-24586709D01*
X42363291Y-24530448D01*
X42289782Y-24500000D01*
X42210218Y-24500000D01*
X42137336Y-24530187D01*
X42136497Y-24522197D01*
X42113039Y-24450000D01*
X42500000Y-24450000D01*
X43062513Y-24450000D01*
X43030791Y-24352370D01*
X43030790Y-24352368D01*
X42941451Y-24197629D01*
X42853275Y-24099700D01*
X42818260Y-24030978D01*
X42822297Y-23953956D01*
X42853275Y-23900300D01*
X42941451Y-23802370D01*
X43030790Y-23647631D01*
X43030791Y-23647629D01*
X43062513Y-23550000D01*
X42500000Y-23550000D01*
X42500000Y-24450000D01*
X42113039Y-24450000D01*
X42081250Y-24352165D01*
X42081246Y-24352158D01*
X42019962Y-24246009D01*
X42000000Y-24171510D01*
X42000000Y-23828488D01*
X42019961Y-23753990D01*
X42081250Y-23647835D01*
X42136497Y-23477803D01*
X42137336Y-23469812D01*
X42210218Y-23500000D01*
X42289782Y-23500000D01*
X42363291Y-23469552D01*
X42419552Y-23413291D01*
X42450000Y-23339782D01*
X42450000Y-23260218D01*
X42419552Y-23186709D01*
X42363291Y-23130448D01*
X42289782Y-23100000D01*
X42210218Y-23100000D01*
X42178840Y-23112996D01*
X42206810Y-23078457D01*
X42278815Y-23050816D01*
X42294390Y-23050000D01*
X43062513Y-23050000D01*
X43030791Y-22952370D01*
X43030790Y-22952368D01*
X42941451Y-22797629D01*
X42821898Y-22664851D01*
X42821891Y-22664845D01*
X42677341Y-22559824D01*
X42677339Y-22559823D01*
X42514115Y-22487151D01*
X42514109Y-22487149D01*
X42486723Y-22481328D01*
X42418002Y-22446312D01*
X42375995Y-22381627D01*
X42372631Y-22324566D01*
X42368884Y-22320000D01*
X41524747Y-22320000D01*
X41616608Y-22281950D01*
X41686938Y-22211620D01*
X41725000Y-22119730D01*
X41725000Y-22020270D01*
X41686938Y-21928380D01*
X41616608Y-21858050D01*
X41524747Y-21820000D01*
X42368884Y-21820000D01*
X42368884Y-21819999D01*
X42363492Y-21792899D01*
X42363490Y-21792891D01*
X42291881Y-21620010D01*
X42291876Y-21620001D01*
X42187913Y-21464411D01*
X42187909Y-21464406D01*
X42055593Y-21332090D01*
X42055588Y-21332086D01*
X41899998Y-21228123D01*
X41899986Y-21228117D01*
X41727106Y-21156508D01*
X41727102Y-21156507D01*
X41543567Y-21120000D01*
X41250000Y-21120000D01*
X41250000Y-21819988D01*
X40750000Y-21819988D01*
X40750000Y-21120000D01*
X40456433Y-21120000D01*
X40272897Y-21156507D01*
X40272893Y-21156508D01*
X40150103Y-21207369D01*
X40073635Y-21217436D01*
X40002378Y-21187920D01*
X39955426Y-21126730D01*
X39945359Y-21050262D01*
X39974875Y-20979005D01*
X39987718Y-20964359D01*
X40031416Y-20920662D01*
X40127389Y-20767922D01*
X40186968Y-20597655D01*
X40207165Y-20418400D01*
X40204463Y-20394423D01*
X40186968Y-20239147D01*
X40186968Y-20239145D01*
X40127389Y-20068878D01*
X40031416Y-19916138D01*
X39903862Y-19788584D01*
X39751122Y-19692611D01*
X39580855Y-19633032D01*
X39580854Y-19633031D01*
X39580853Y-19633031D01*
X39401601Y-19612835D01*
X39401599Y-19612835D01*
X39222346Y-19633031D01*
X39049211Y-19693614D01*
X38972299Y-19699377D01*
X38950789Y-19693614D01*
X38777652Y-19633031D01*
X38777653Y-19633031D01*
X38598401Y-19612835D01*
X38598399Y-19612835D01*
X38419147Y-19633031D01*
X38248877Y-19692611D01*
X38096138Y-19788584D01*
X37968584Y-19916138D01*
X37872611Y-20068877D01*
X37813031Y-20239147D01*
X37792835Y-20418398D01*
X37792835Y-20418401D01*
X37813031Y-20597652D01*
X37813031Y-20597654D01*
X37813032Y-20597655D01*
X37872611Y-20767922D01*
X37968584Y-20920662D01*
X37968585Y-20920663D01*
X38012274Y-20964352D01*
X38050838Y-21031147D01*
X38050838Y-21108275D01*
X38012274Y-21175070D01*
X37945479Y-21213634D01*
X37868351Y-21213634D01*
X37849896Y-21207369D01*
X37727106Y-21156508D01*
X37727102Y-21156507D01*
X37543567Y-21120000D01*
X37250000Y-21120000D01*
X37250000Y-21819988D01*
X36750000Y-21819988D01*
X36750000Y-21120000D01*
X36456433Y-21120000D01*
X36272897Y-21156507D01*
X36272893Y-21156508D01*
X36100013Y-21228117D01*
X36100001Y-21228123D01*
X35944411Y-21332086D01*
X35944406Y-21332090D01*
X35812090Y-21464406D01*
X35812086Y-21464411D01*
X35708123Y-21620001D01*
X35708118Y-21620010D01*
X35636509Y-21792891D01*
X35636507Y-21792899D01*
X35631115Y-21819999D01*
X35631116Y-21820000D01*
X36475253Y-21820000D01*
X36383392Y-21858050D01*
X36313062Y-21928380D01*
X36275000Y-22020270D01*
X36275000Y-22119730D01*
X36313062Y-22211620D01*
X36383392Y-22281950D01*
X36475253Y-22320000D01*
X35631116Y-22320000D01*
X35627239Y-22324723D01*
X35623389Y-22383478D01*
X35580539Y-22447608D01*
X35513277Y-22481328D01*
X35485889Y-22487149D01*
X35485884Y-22487151D01*
X35322660Y-22559823D01*
X35322658Y-22559824D01*
X35178108Y-22664845D01*
X35178101Y-22664851D01*
X35058548Y-22797629D01*
X34969209Y-22952368D01*
X34969208Y-22952370D01*
X34937486Y-23050000D01*
X35705610Y-23050000D01*
X35780110Y-23069962D01*
X35824548Y-23114400D01*
X35789782Y-23100000D01*
X35710218Y-23100000D01*
X35636709Y-23130448D01*
X35580448Y-23186709D01*
X35550000Y-23260218D01*
X35550000Y-23339782D01*
X35574736Y-23399500D01*
X35416343Y-23399500D01*
X35375424Y-23410464D01*
X35375424Y-23410465D01*
X35323430Y-23424397D01*
X35263620Y-23440423D01*
X35198876Y-23477803D01*
X35126689Y-23519480D01*
X35126688Y-23519480D01*
X35118232Y-23524363D01*
X35117531Y-23523149D01*
X35055783Y-23548726D01*
X35036336Y-23550000D01*
X34937486Y-23550000D01*
X34948185Y-23582928D01*
X34952222Y-23659950D01*
X34917206Y-23728672D01*
X34911837Y-23734330D01*
X34631286Y-24014883D01*
X34519480Y-24126688D01*
X34498118Y-24163690D01*
X34498117Y-24163691D01*
X34440423Y-24263617D01*
X34399499Y-24416347D01*
X34399499Y-24586466D01*
X34399500Y-24586479D01*
X34399500Y-25411797D01*
X34399499Y-25411815D01*
X34399499Y-25579057D01*
X34440422Y-25731785D01*
X34449529Y-25747557D01*
X34450940Y-25750000D01*
X34486830Y-25812164D01*
X34519480Y-25868716D01*
X34639774Y-25989010D01*
X34639780Y-25989015D01*
X36163113Y-27512348D01*
X36201677Y-27579143D01*
X36205817Y-27601023D01*
X36214631Y-27679253D01*
X36251006Y-27783206D01*
X36274211Y-27849522D01*
X36367341Y-27997738D01*
X36374636Y-28009347D01*
X36372432Y-28010731D01*
X36397834Y-28068938D01*
X36399500Y-28091160D01*
X36399500Y-28362299D01*
X36379538Y-28436799D01*
X36325000Y-28491337D01*
X36250500Y-28511299D01*
X36176000Y-28491337D01*
X36145141Y-28467658D01*
X33144141Y-25466658D01*
X33105577Y-25399863D01*
X33100500Y-25361299D01*
X33100500Y-19420026D01*
X33120462Y-19345526D01*
X33175000Y-19290988D01*
X33249500Y-19271026D01*
X33324000Y-19290988D01*
X33375661Y-19340752D01*
X33435871Y-19436575D01*
X33563425Y-19564129D01*
X33716165Y-19660102D01*
X33886432Y-19719681D01*
X33973916Y-19729538D01*
X34065686Y-19739878D01*
X34065687Y-19739878D01*
X34065688Y-19739878D01*
X34110500Y-19734828D01*
X34244942Y-19719681D01*
X34415209Y-19660102D01*
X34567949Y-19564129D01*
X34695503Y-19436575D01*
X34791476Y-19283835D01*
X34851055Y-19113568D01*
X34871252Y-18934313D01*
X34851055Y-18755058D01*
X34791476Y-18584791D01*
X34695503Y-18432051D01*
X34567949Y-18304497D01*
X34415209Y-18208524D01*
X34244942Y-18148945D01*
X34244941Y-18148944D01*
X34244940Y-18148944D01*
X34065688Y-18128748D01*
X34065686Y-18128748D01*
X33886434Y-18148944D01*
X33716164Y-18208524D01*
X33563425Y-18304497D01*
X33435869Y-18432053D01*
X33375661Y-18527873D01*
X33319122Y-18580333D01*
X33243928Y-18597495D01*
X33170226Y-18574760D01*
X33117766Y-18518221D01*
X33100500Y-18448599D01*
X33100500Y-17841160D01*
X33120462Y-17766660D01*
X33125423Y-17759384D01*
X33125364Y-17759347D01*
X33136550Y-17741545D01*
X33225789Y-17599522D01*
X33285368Y-17429255D01*
X33305565Y-17250000D01*
X33285368Y-17070745D01*
X33225789Y-16900478D01*
X33129816Y-16747738D01*
X33002262Y-16620184D01*
X32849522Y-16524211D01*
X32679255Y-16464632D01*
X32679254Y-16464631D01*
X32679253Y-16464631D01*
X32500001Y-16444435D01*
X32499999Y-16444435D01*
X32320747Y-16464631D01*
X32150477Y-16524211D01*
X31997738Y-16620184D01*
X31870184Y-16747738D01*
X31774211Y-16900477D01*
X31714631Y-17070747D01*
X31694435Y-17249998D01*
X31694435Y-17250001D01*
X31714631Y-17429252D01*
X31714631Y-17429254D01*
X31714632Y-17429255D01*
X31774211Y-17599522D01*
X31863449Y-17741544D01*
X31874636Y-17759347D01*
X31872432Y-17760731D01*
X31897834Y-17818938D01*
X31899500Y-17841160D01*
X31899500Y-17924521D01*
X31879538Y-17999021D01*
X31825000Y-18053559D01*
X31750500Y-18073521D01*
X31676000Y-18053559D01*
X31671227Y-18050683D01*
X31549522Y-17974211D01*
X31379252Y-17914631D01*
X31379253Y-17914631D01*
X31200001Y-17894435D01*
X31199999Y-17894435D01*
X31020747Y-17914631D01*
X30850477Y-17974211D01*
X30728773Y-18050683D01*
X30655071Y-18073417D01*
X30579877Y-18056254D01*
X30523338Y-18003794D01*
X30500604Y-17930092D01*
X30500500Y-17924521D01*
X30500500Y-16121835D01*
X30500501Y-16121822D01*
X30500501Y-15941938D01*
X30503487Y-15941938D01*
X30511418Y-15881691D01*
X30558370Y-15820501D01*
X30629626Y-15790985D01*
X30632321Y-15790656D01*
X30679255Y-15785368D01*
X30849522Y-15725789D01*
X31002262Y-15629816D01*
X31129816Y-15502262D01*
X31225789Y-15349522D01*
X31285368Y-15179255D01*
X31305565Y-15000000D01*
X31305565Y-14999998D01*
X32694435Y-14999998D01*
X32694435Y-15000001D01*
X32714631Y-15179252D01*
X32714631Y-15179254D01*
X32714632Y-15179255D01*
X32774211Y-15349522D01*
X32870184Y-15502262D01*
X32997738Y-15629816D01*
X33150478Y-15725789D01*
X33320745Y-15785368D01*
X33367598Y-15790647D01*
X33499999Y-15805565D01*
X33500000Y-15805565D01*
X33500001Y-15805565D01*
X33544813Y-15800515D01*
X33679255Y-15785368D01*
X33849522Y-15725789D01*
X34002262Y-15629816D01*
X34129816Y-15502262D01*
X34225789Y-15349522D01*
X34285368Y-15179255D01*
X34305565Y-15000000D01*
X34285368Y-14820745D01*
X34225789Y-14650478D01*
X34129816Y-14497738D01*
X34002262Y-14370184D01*
X33849522Y-14274211D01*
X33679255Y-14214632D01*
X33679254Y-14214631D01*
X33679253Y-14214631D01*
X33500001Y-14194435D01*
X33499999Y-14194435D01*
X33320747Y-14214631D01*
X33150477Y-14274211D01*
X32997738Y-14370184D01*
X32870184Y-14497738D01*
X32774211Y-14650477D01*
X32714631Y-14820747D01*
X32694435Y-14999998D01*
X31305565Y-14999998D01*
X31285368Y-14820745D01*
X31225789Y-14650478D01*
X31129816Y-14497738D01*
X31002262Y-14370184D01*
X30849522Y-14274211D01*
X30679253Y-14214631D01*
X30601023Y-14205817D01*
X30529227Y-14177638D01*
X30512348Y-14163113D01*
X29989015Y-13639780D01*
X29989013Y-13639777D01*
X29868716Y-13519480D01*
X29777485Y-13466808D01*
X29777484Y-13466807D01*
X29731787Y-13440423D01*
X29579057Y-13399499D01*
X29420943Y-13399499D01*
X29411814Y-13399499D01*
X29411798Y-13399500D01*
X13588202Y-13399500D01*
X13588186Y-13399499D01*
X13579057Y-13399499D01*
X13420943Y-13399499D01*
X13420942Y-13399499D01*
X13268212Y-13440423D01*
X13222516Y-13466807D01*
X13222515Y-13466808D01*
X13131283Y-13519480D01*
X11919480Y-14731283D01*
X11881983Y-14796231D01*
X11840423Y-14868213D01*
X11799499Y-15020942D01*
X11799499Y-15191061D01*
X11799500Y-15191074D01*
X11799500Y-15710326D01*
X11799499Y-15710344D01*
X11799499Y-15775837D01*
X11779537Y-15850337D01*
X11755857Y-15881197D01*
X11694708Y-15942345D01*
X11627913Y-15980908D01*
X11550785Y-15980908D01*
X11540139Y-15977624D01*
X11389554Y-15924932D01*
X11210302Y-15904736D01*
X11210300Y-15904736D01*
X11031048Y-15924932D01*
X10860778Y-15984512D01*
X10708039Y-16080485D01*
X10580485Y-16208039D01*
X10484512Y-16360778D01*
X10424933Y-16531046D01*
X10416118Y-16609276D01*
X10387939Y-16681072D01*
X10373414Y-16697951D01*
X9731286Y-17340080D01*
X9619480Y-17451885D01*
X9581214Y-17518165D01*
X9540423Y-17588815D01*
X9499499Y-17741544D01*
X9499499Y-17911663D01*
X9499500Y-17911676D01*
X9499500Y-31511797D01*
X9499499Y-31511815D01*
X9499499Y-31679057D01*
X9527577Y-31783846D01*
X9540423Y-31831785D01*
X9550664Y-31849522D01*
X9562592Y-31870182D01*
X9562593Y-31870184D01*
X9619480Y-31968716D01*
X9739774Y-32089010D01*
X9739780Y-32089015D01*
X14163113Y-36512348D01*
X14201677Y-36579143D01*
X14205817Y-36601023D01*
X14214631Y-36679253D01*
X14214632Y-36679255D01*
X14274211Y-36849522D01*
X14370184Y-37002262D01*
X14497738Y-37129816D01*
X14650478Y-37225789D01*
X14820745Y-37285368D01*
X14910372Y-37295466D01*
X14999999Y-37305565D01*
X15000000Y-37305565D01*
X15000001Y-37305565D01*
X15044813Y-37300515D01*
X15179255Y-37285368D01*
X15349522Y-37225789D01*
X15502262Y-37129816D01*
X15629816Y-37002262D01*
X15725789Y-36849522D01*
X15785368Y-36679255D01*
X15805565Y-36500000D01*
X15785368Y-36320745D01*
X15725789Y-36150478D01*
X15629816Y-35997738D01*
X15502262Y-35870184D01*
X15349522Y-35774211D01*
X15179253Y-35714631D01*
X15101023Y-35705817D01*
X15029227Y-35677638D01*
X15012348Y-35663113D01*
X10744141Y-31394906D01*
X10705577Y-31328111D01*
X10700500Y-31289547D01*
X10700500Y-30909453D01*
X10720462Y-30834953D01*
X10775000Y-30780415D01*
X10849500Y-30760453D01*
X10924000Y-30780415D01*
X10954859Y-30804094D01*
X11663113Y-31512348D01*
X11701677Y-31579143D01*
X11705817Y-31601023D01*
X11714631Y-31679253D01*
X11768005Y-31831785D01*
X11774211Y-31849522D01*
X11870184Y-32002262D01*
X11997738Y-32129816D01*
X12150478Y-32225789D01*
X12320745Y-32285368D01*
X12410372Y-32295466D01*
X12499999Y-32305565D01*
X12500000Y-32305565D01*
X12500001Y-32305565D01*
X12544813Y-32300515D01*
X12679255Y-32285368D01*
X12849522Y-32225789D01*
X13002262Y-32129816D01*
X13129816Y-32002262D01*
X13225789Y-31849522D01*
X13225788Y-31849522D01*
X13230241Y-31842437D01*
X13232276Y-31843716D01*
X13274197Y-31794994D01*
X13346995Y-31769514D01*
X13422779Y-31783846D01*
X13463502Y-31812737D01*
X14163113Y-32512348D01*
X14201677Y-32579143D01*
X14205817Y-32601023D01*
X14214631Y-32679253D01*
X14257735Y-32802437D01*
X14274211Y-32849522D01*
X14370184Y-33002262D01*
X14497738Y-33129816D01*
X14650478Y-33225789D01*
X14820745Y-33285368D01*
X14910372Y-33295466D01*
X14999999Y-33305565D01*
X15000000Y-33305565D01*
X15000001Y-33305565D01*
X15044813Y-33300515D01*
X15179255Y-33285368D01*
X15349522Y-33225789D01*
X15502262Y-33129816D01*
X15629816Y-33002262D01*
X15725789Y-32849522D01*
X15785368Y-32679255D01*
X15805565Y-32500000D01*
X15785368Y-32320745D01*
X15725789Y-32150478D01*
X15629816Y-31997738D01*
X15502262Y-31870184D01*
X15460138Y-31843716D01*
X15349522Y-31774211D01*
X15179253Y-31714631D01*
X15101023Y-31705817D01*
X15029227Y-31677638D01*
X15012348Y-31663113D01*
X13344138Y-29994903D01*
X13305574Y-29928108D01*
X13300497Y-29889544D01*
X13300497Y-29259450D01*
X13320459Y-29184950D01*
X13374997Y-29130412D01*
X13449497Y-29110450D01*
X13523997Y-29130412D01*
X13554855Y-29154090D01*
X16381284Y-31980520D01*
X16518216Y-32059577D01*
X16670943Y-32100501D01*
X16670948Y-32100501D01*
X16838187Y-32100501D01*
X16838203Y-32100500D01*
X23258839Y-32100500D01*
X23333339Y-32120462D01*
X23340615Y-32125423D01*
X23340653Y-32125364D01*
X23347737Y-32129815D01*
X23347738Y-32129816D01*
X23500478Y-32225789D01*
X23670745Y-32285368D01*
X23767184Y-32296234D01*
X23838978Y-32324410D01*
X23887067Y-32384711D01*
X23899500Y-32444296D01*
X23899500Y-34689546D01*
X23879538Y-34764046D01*
X23855859Y-34794905D01*
X22987650Y-35663113D01*
X22920855Y-35701677D01*
X22898975Y-35705817D01*
X22820745Y-35714632D01*
X22650477Y-35774211D01*
X22497738Y-35870184D01*
X22370184Y-35997738D01*
X22274211Y-36150477D01*
X22214631Y-36320747D01*
X22194435Y-36499998D01*
X22194435Y-36500001D01*
X22214631Y-36679252D01*
X22214631Y-36679254D01*
X22214632Y-36679255D01*
X22274211Y-36849522D01*
X22370184Y-37002262D01*
X22497738Y-37129816D01*
X22650478Y-37225789D01*
X22820745Y-37285368D01*
X22910372Y-37295466D01*
X22999999Y-37305565D01*
X23000000Y-37305565D01*
X23000001Y-37305565D01*
X23044813Y-37300515D01*
X23179255Y-37285368D01*
X23349522Y-37225789D01*
X23502262Y-37129816D01*
X23629816Y-37002262D01*
X23725789Y-36849522D01*
X23785368Y-36679255D01*
X23794181Y-36601023D01*
X23822358Y-36529230D01*
X23836878Y-36512355D01*
X24856448Y-35492786D01*
X24856453Y-35492782D01*
X24868714Y-35480520D01*
X24868716Y-35480520D01*
X24980520Y-35368716D01*
X25059577Y-35231784D01*
X25100500Y-35079057D01*
X25100500Y-32499998D01*
X29194435Y-32499998D01*
X29194435Y-32500001D01*
X29214631Y-32679252D01*
X29214631Y-32679254D01*
X29214632Y-32679255D01*
X29274211Y-32849522D01*
X29370184Y-33002262D01*
X29497738Y-33129816D01*
X29650478Y-33225789D01*
X29820745Y-33285368D01*
X29910372Y-33295466D01*
X29999999Y-33305565D01*
X30000000Y-33305565D01*
X30000001Y-33305565D01*
X30044813Y-33300515D01*
X30179255Y-33285368D01*
X30349522Y-33225789D01*
X30502262Y-33129816D01*
X30629816Y-33002262D01*
X30725789Y-32849522D01*
X30785368Y-32679255D01*
X30805565Y-32500000D01*
X30785368Y-32320745D01*
X30725789Y-32150478D01*
X30629816Y-31997738D01*
X30502262Y-31870184D01*
X30460138Y-31843716D01*
X30349522Y-31774211D01*
X30289522Y-31753216D01*
X30179255Y-31714632D01*
X30179254Y-31714631D01*
X30179253Y-31714631D01*
X30000001Y-31694435D01*
X29999999Y-31694435D01*
X29820747Y-31714631D01*
X29650477Y-31774211D01*
X29497741Y-31870182D01*
X29497738Y-31870184D01*
X29370184Y-31997738D01*
X29274211Y-32150477D01*
X29214631Y-32320747D01*
X29194435Y-32499998D01*
X25100500Y-32499998D01*
X25100500Y-25089906D01*
X25120462Y-25015406D01*
X25175000Y-24960868D01*
X25249500Y-24940906D01*
X25324000Y-24960868D01*
X25365996Y-24997010D01*
X25370184Y-25002262D01*
X25497738Y-25129816D01*
X25650478Y-25225789D01*
X25820745Y-25285368D01*
X25910372Y-25295466D01*
X25999999Y-25305565D01*
X26000000Y-25305565D01*
X26000001Y-25305565D01*
X26044813Y-25300515D01*
X26179255Y-25285368D01*
X26349522Y-25225789D01*
X26502262Y-25129816D01*
X26502262Y-25129815D01*
X26509347Y-25125364D01*
X26510729Y-25127564D01*
X26568967Y-25102162D01*
X26591161Y-25100500D01*
X28411798Y-25100500D01*
X28411814Y-25100501D01*
X28420943Y-25100501D01*
X28579052Y-25100501D01*
X28579057Y-25100501D01*
X28731785Y-25059577D01*
X28752476Y-25047631D01*
X28801232Y-25019482D01*
X28801233Y-25019481D01*
X28831057Y-25002262D01*
X28868716Y-24980520D01*
X28980520Y-24868716D01*
X28980520Y-24868714D01*
X28992782Y-24856453D01*
X28992785Y-24856448D01*
X31645143Y-22204092D01*
X31711936Y-22165530D01*
X31789064Y-22165530D01*
X31855859Y-22204094D01*
X31894423Y-22270889D01*
X31899500Y-22309453D01*
X31899500Y-25583549D01*
X31899499Y-25583567D01*
X31899499Y-25750809D01*
X31940423Y-25903537D01*
X31940423Y-25903539D01*
X31965100Y-25946279D01*
X31965103Y-25946282D01*
X31965103Y-25946283D01*
X32019479Y-26040467D01*
X32139774Y-26160762D01*
X32139780Y-26160767D01*
X39027964Y-33048951D01*
X39027964Y-33048952D01*
X39139766Y-33160755D01*
X39139768Y-33160756D01*
X39139770Y-33160758D01*
X39211179Y-33201986D01*
X39221880Y-33208164D01*
X39221881Y-33208165D01*
X39276698Y-33239814D01*
X39276700Y-33239814D01*
X39276701Y-33239815D01*
X39429429Y-33280739D01*
X39429434Y-33280739D01*
X39596672Y-33280739D01*
X39596688Y-33280738D01*
X49010309Y-33280738D01*
X49084809Y-33300700D01*
X49139347Y-33355238D01*
X49159309Y-33429738D01*
X49139347Y-33504238D01*
X49115668Y-33535097D01*
X49044906Y-33605859D01*
X48978111Y-33644423D01*
X48939547Y-33649500D01*
X46638202Y-33649500D01*
X46638186Y-33649499D01*
X46629057Y-33649499D01*
X46470943Y-33649499D01*
X46470942Y-33649499D01*
X46318217Y-33690422D01*
X46318213Y-33690424D01*
X46269149Y-33718752D01*
X46269147Y-33718753D01*
X46181284Y-33769479D01*
X44519480Y-35431283D01*
X44491054Y-35480520D01*
X44491053Y-35480521D01*
X44440423Y-35568212D01*
X44399499Y-35720942D01*
X44399499Y-35891061D01*
X44399500Y-35891074D01*
X44399500Y-40689546D01*
X44379538Y-40764046D01*
X44355859Y-40794905D01*
X42544906Y-42605859D01*
X42478111Y-42644423D01*
X42439547Y-42649500D01*
X41841161Y-42649500D01*
X41766661Y-42629538D01*
X41759384Y-42624576D01*
X41759347Y-42624636D01*
X41599522Y-42524211D01*
X41429255Y-42464632D01*
X41412354Y-42462727D01*
X41351024Y-42455817D01*
X41279228Y-42427638D01*
X41262349Y-42413113D01*
X39086885Y-40237650D01*
X39048321Y-40170855D01*
X39044182Y-40148979D01*
X39035368Y-40070745D01*
X38975789Y-39900478D01*
X38879816Y-39747738D01*
X38752262Y-39620184D01*
X38599522Y-39524211D01*
X38429255Y-39464632D01*
X38429254Y-39464631D01*
X38429253Y-39464631D01*
X38250001Y-39444435D01*
X38249999Y-39444435D01*
X38070747Y-39464631D01*
X37900477Y-39524211D01*
X37740653Y-39624636D01*
X37739270Y-39622435D01*
X37681033Y-39647838D01*
X37658839Y-39649500D01*
X12670938Y-39649500D01*
X12630019Y-39660464D01*
X12630019Y-39660465D01*
X12574117Y-39675444D01*
X12518215Y-39690423D01*
X12381283Y-39769480D01*
X10394480Y-41756283D01*
X10364549Y-41808127D01*
X10364548Y-41808128D01*
X10315423Y-41893212D01*
X10274499Y-42045942D01*
X10274499Y-42216061D01*
X10274500Y-42216074D01*
X10274500Y-46670680D01*
X10274499Y-46670698D01*
X10274499Y-46837940D01*
X10312961Y-46981482D01*
X10315423Y-46990668D01*
X10331328Y-47018216D01*
X10394480Y-47127599D01*
X10612022Y-47345141D01*
X10650586Y-47411936D01*
X10650586Y-47489064D01*
X10612022Y-47555859D01*
X10545227Y-47594423D01*
X10506663Y-47599500D01*
X549500Y-47599500D01*
X475000Y-47579538D01*
X420462Y-47525000D01*
X400500Y-47450500D01*
X400500Y-33549500D01*
X420462Y-33475000D01*
X475000Y-33420462D01*
X549500Y-33400500D01*
X1624565Y-33400500D01*
X1871565Y-33367982D01*
X2112207Y-33303502D01*
X2342373Y-33208164D01*
X2558127Y-33083599D01*
X2755776Y-32931938D01*
X2931938Y-32755776D01*
X3083599Y-32558127D01*
X3208164Y-32342373D01*
X3303502Y-32112207D01*
X3367982Y-31871565D01*
X3400500Y-31624565D01*
X3400500Y-31500000D01*
X3400500Y-31442417D01*
X3400500Y-14447273D01*
X3400500Y-14375435D01*
X3367982Y-14128435D01*
X3303502Y-13887793D01*
X3208164Y-13657627D01*
X3083599Y-13441873D01*
X2931938Y-13244224D01*
X2755776Y-13068062D01*
X2558127Y-12916401D01*
X2486209Y-12874879D01*
X2342377Y-12791838D01*
X2342375Y-12791837D01*
X2342373Y-12791836D01*
X2207548Y-12735989D01*
X2112210Y-12696499D01*
X2112208Y-12696498D01*
X2112207Y-12696498D01*
X1871565Y-12632018D01*
X1871563Y-12632017D01*
X1871557Y-12632016D01*
X1624570Y-12599500D01*
X1624565Y-12599500D01*
X1552727Y-12599500D01*
X549500Y-12599500D01*
X475000Y-12579538D01*
X420462Y-12525000D01*
X400500Y-12450500D01*
X400500Y-6999998D01*
X16194435Y-6999998D01*
X16194435Y-7000001D01*
X16214631Y-7179252D01*
X16214631Y-7179254D01*
X16214632Y-7179255D01*
X16274211Y-7349522D01*
X16370184Y-7502262D01*
X16497738Y-7629816D01*
X16650478Y-7725789D01*
X16820745Y-7785368D01*
X16820748Y-7785368D01*
X16828904Y-7787230D01*
X16828537Y-7788835D01*
X16891075Y-7813376D01*
X16907961Y-7827907D01*
X19085331Y-10005277D01*
X19191873Y-10076465D01*
X19310256Y-10125501D01*
X19435931Y-10150500D01*
X21487729Y-10150500D01*
X21562229Y-10170462D01*
X21567002Y-10173338D01*
X21606935Y-10198429D01*
X21650478Y-10225789D01*
X21820745Y-10285368D01*
X21910372Y-10295466D01*
X21999999Y-10305565D01*
X22000000Y-10305565D01*
X22000001Y-10305565D01*
X22044813Y-10300515D01*
X22179255Y-10285368D01*
X22349522Y-10225789D01*
X22502262Y-10129816D01*
X22629816Y-10002262D01*
X22725789Y-9849522D01*
X22785368Y-9679255D01*
X22805565Y-9500000D01*
X22785368Y-9320745D01*
X22725789Y-9150478D01*
X22629816Y-8997738D01*
X22502262Y-8870184D01*
X22349522Y-8774211D01*
X22179255Y-8714632D01*
X22179254Y-8714631D01*
X22179253Y-8714631D01*
X22000001Y-8694435D01*
X21999999Y-8694435D01*
X21820747Y-8714631D01*
X21650477Y-8774211D01*
X21567002Y-8826662D01*
X21493300Y-8849396D01*
X21487729Y-8849500D01*
X19831164Y-8849500D01*
X19756664Y-8829538D01*
X19725805Y-8805859D01*
X17827907Y-6907961D01*
X17789343Y-6841166D01*
X17786022Y-6823612D01*
X17785368Y-6820747D01*
X17785368Y-6820745D01*
X17725789Y-6650478D01*
X17631236Y-6499998D01*
X40694435Y-6499998D01*
X40694435Y-6500001D01*
X40714631Y-6679252D01*
X40714631Y-6679254D01*
X40714632Y-6679255D01*
X40774211Y-6849522D01*
X40870184Y-7002262D01*
X40997738Y-7129816D01*
X41150478Y-7225789D01*
X41320745Y-7285368D01*
X41410372Y-7295466D01*
X41499999Y-7305565D01*
X41500000Y-7305565D01*
X41500001Y-7305565D01*
X41544813Y-7300515D01*
X41679255Y-7285368D01*
X41849522Y-7225789D01*
X42002262Y-7129816D01*
X42129816Y-7002262D01*
X42225789Y-6849522D01*
X42285368Y-6679255D01*
X42305565Y-6500000D01*
X42285368Y-6320745D01*
X42225789Y-6150478D01*
X42129816Y-5997738D01*
X42002262Y-5870184D01*
X41849522Y-5774211D01*
X41679255Y-5714632D01*
X41679254Y-5714631D01*
X41679253Y-5714631D01*
X41500001Y-5694435D01*
X41499999Y-5694435D01*
X41320747Y-5714631D01*
X41150477Y-5774211D01*
X40997738Y-5870184D01*
X40870184Y-5997738D01*
X40774211Y-6150477D01*
X40714631Y-6320747D01*
X40694435Y-6499998D01*
X17631236Y-6499998D01*
X17629816Y-6497738D01*
X17502262Y-6370184D01*
X17349522Y-6274211D01*
X17179255Y-6214632D01*
X17179254Y-6214631D01*
X17179253Y-6214631D01*
X17000001Y-6194435D01*
X16999999Y-6194435D01*
X16820747Y-6214631D01*
X16650477Y-6274211D01*
X16497738Y-6370184D01*
X16370184Y-6497738D01*
X16274211Y-6650477D01*
X16214631Y-6820747D01*
X16194435Y-6999998D01*
X400500Y-6999998D01*
X400500Y-549500D01*
X420462Y-475000D01*
X475000Y-420462D01*
X549500Y-400500D01*
X77450500Y-400500D01*
X77525000Y-420462D01*
G37*
G04 #@! TD.AperFunction*
G04 #@! TA.AperFunction,Conductor*
G36*
X37733339Y-40870462D02*
G01*
X37740615Y-40875423D01*
X37740653Y-40875364D01*
X37747737Y-40879815D01*
X37747738Y-40879816D01*
X37900478Y-40975789D01*
X38070745Y-41035368D01*
X38148973Y-41044181D01*
X38220769Y-41072358D01*
X38237650Y-41086885D01*
X40413113Y-43262349D01*
X40451677Y-43329144D01*
X40455817Y-43351024D01*
X40464632Y-43429255D01*
X40524211Y-43599522D01*
X40620184Y-43752262D01*
X40747738Y-43879816D01*
X40900478Y-43975789D01*
X41070745Y-44035368D01*
X41119578Y-44040870D01*
X41191375Y-44069048D01*
X41239464Y-44129349D01*
X41250959Y-44205615D01*
X41243535Y-44238143D01*
X41214632Y-44320743D01*
X41214631Y-44320746D01*
X41194435Y-44499998D01*
X41194435Y-44500001D01*
X41214631Y-44679252D01*
X41214631Y-44679254D01*
X41214632Y-44679255D01*
X41274211Y-44849522D01*
X41370184Y-45002262D01*
X41497738Y-45129816D01*
X41650478Y-45225789D01*
X41820745Y-45285368D01*
X41910372Y-45295466D01*
X41999999Y-45305565D01*
X42000000Y-45305565D01*
X42000001Y-45305565D01*
X42044813Y-45300515D01*
X42179255Y-45285368D01*
X42349522Y-45225789D01*
X42502262Y-45129816D01*
X42629816Y-45002262D01*
X42725789Y-44849522D01*
X42785368Y-44679255D01*
X42805565Y-44500000D01*
X42803130Y-44478393D01*
X42785368Y-44320747D01*
X42785368Y-44320746D01*
X42785368Y-44320745D01*
X42725789Y-44150478D01*
X42725787Y-44150475D01*
X42725787Y-44150474D01*
X42725787Y-44150473D01*
X42680735Y-44078774D01*
X42658000Y-44005073D01*
X42675162Y-43929879D01*
X42727623Y-43873340D01*
X42801324Y-43850605D01*
X42806896Y-43850501D01*
X42829052Y-43850501D01*
X42829057Y-43850501D01*
X42981785Y-43809577D01*
X43062465Y-43762996D01*
X43118716Y-43730520D01*
X43230520Y-43618716D01*
X43230520Y-43618714D01*
X43242782Y-43606453D01*
X43242785Y-43606448D01*
X44644644Y-42204590D01*
X44711435Y-42166029D01*
X44788563Y-42166029D01*
X44855358Y-42204593D01*
X49995906Y-47345141D01*
X50034470Y-47411936D01*
X50034470Y-47489064D01*
X49995906Y-47555859D01*
X49929111Y-47594423D01*
X49890547Y-47599500D01*
X18192850Y-47599500D01*
X18118350Y-47579538D01*
X18063812Y-47525000D01*
X18044230Y-47461130D01*
X18035687Y-47341693D01*
X18035687Y-47341690D01*
X17985405Y-47206881D01*
X17951920Y-47145558D01*
X17905856Y-47084024D01*
X17865698Y-47030379D01*
X17816801Y-46981482D01*
X17778237Y-46914687D01*
X17778237Y-46837559D01*
X17816801Y-46770764D01*
X17883596Y-46732200D01*
X17960724Y-46732200D01*
X18004938Y-46752233D01*
X18073453Y-46798013D01*
X18237334Y-46865894D01*
X18411309Y-46900500D01*
X18588691Y-46900500D01*
X18762666Y-46865894D01*
X18926547Y-46798013D01*
X19074035Y-46699464D01*
X19199464Y-46574035D01*
X19298013Y-46426547D01*
X19365894Y-46262666D01*
X19400500Y-46088691D01*
X19400500Y-46000000D01*
X19400500Y-45942417D01*
X19400500Y-45249998D01*
X20244438Y-45249998D01*
X20244438Y-45250001D01*
X20264634Y-45429252D01*
X20264634Y-45429254D01*
X20264635Y-45429255D01*
X20324214Y-45599522D01*
X20420187Y-45752262D01*
X20547741Y-45879816D01*
X20700481Y-45975789D01*
X20870748Y-46035368D01*
X20960375Y-46045466D01*
X21050002Y-46055565D01*
X21050003Y-46055565D01*
X21050004Y-46055565D01*
X21101613Y-46049750D01*
X21229258Y-46035368D01*
X21399525Y-45975789D01*
X21552265Y-45879816D01*
X21679819Y-45752262D01*
X21775792Y-45599522D01*
X21835371Y-45429255D01*
X21855568Y-45250000D01*
X21835371Y-45070745D01*
X21775792Y-44900478D01*
X21679819Y-44747738D01*
X21552265Y-44620184D01*
X21399525Y-44524211D01*
X21229258Y-44464632D01*
X21229257Y-44464631D01*
X21229256Y-44464631D01*
X21050004Y-44444435D01*
X21050002Y-44444435D01*
X20870750Y-44464631D01*
X20700480Y-44524211D01*
X20547741Y-44620184D01*
X20420187Y-44747738D01*
X20324214Y-44900477D01*
X20264634Y-45070747D01*
X20244438Y-45249998D01*
X19400500Y-45249998D01*
X19400500Y-42947273D01*
X19400500Y-42911309D01*
X19365894Y-42737334D01*
X19298013Y-42573453D01*
X19265110Y-42524211D01*
X19199466Y-42425968D01*
X19199462Y-42425963D01*
X19074036Y-42300537D01*
X19074031Y-42300533D01*
X18926548Y-42201987D01*
X18926546Y-42201986D01*
X18762667Y-42134106D01*
X18762663Y-42134105D01*
X18588691Y-42099500D01*
X18552727Y-42099500D01*
X12109452Y-42099500D01*
X12034952Y-42079538D01*
X11980414Y-42025000D01*
X11960452Y-41950500D01*
X11980414Y-41876000D01*
X12004093Y-41845141D01*
X12955094Y-40894141D01*
X13021889Y-40855577D01*
X13060453Y-40850500D01*
X37658839Y-40850500D01*
X37733339Y-40870462D01*
G37*
G04 #@! TD.AperFunction*
G04 #@! TA.AperFunction,Conductor*
G36*
X77547690Y-3305357D02*
G01*
X77591138Y-3369083D01*
X77599500Y-3418296D01*
X77599500Y-22989327D01*
X77579538Y-23063827D01*
X77525000Y-23118365D01*
X77450500Y-23138327D01*
X77376000Y-23118365D01*
X77367719Y-23113216D01*
X77338677Y-23093810D01*
X77156688Y-23018429D01*
X77156686Y-23018428D01*
X76963491Y-22980000D01*
X76715000Y-22980000D01*
X76715000Y-23680000D01*
X76215000Y-23680000D01*
X76215000Y-22980000D01*
X75966509Y-22980000D01*
X75773313Y-23018428D01*
X75773311Y-23018429D01*
X75591322Y-23093810D01*
X75427533Y-23203252D01*
X75288252Y-23342533D01*
X75178810Y-23506322D01*
X75103429Y-23688311D01*
X75103428Y-23688315D01*
X75095136Y-23729999D01*
X75095137Y-23730000D01*
X75898013Y-23730000D01*
X75880796Y-23739940D01*
X75824941Y-23795795D01*
X75785445Y-23864204D01*
X75765001Y-23940504D01*
X75765001Y-24019496D01*
X75785445Y-24095796D01*
X75824941Y-24164205D01*
X75880796Y-24220060D01*
X75898013Y-24230000D01*
X75095137Y-24230000D01*
X75103428Y-24271684D01*
X75103429Y-24271688D01*
X75178810Y-24453677D01*
X75288252Y-24617466D01*
X75427533Y-24756747D01*
X75591322Y-24866189D01*
X75773311Y-24941570D01*
X75773313Y-24941571D01*
X75966509Y-24980000D01*
X76215000Y-24980000D01*
X76215000Y-24280000D01*
X76715000Y-24280000D01*
X76715000Y-24980000D01*
X76963491Y-24980000D01*
X77156686Y-24941571D01*
X77156688Y-24941570D01*
X77338679Y-24866188D01*
X77367717Y-24846785D01*
X77440751Y-24821991D01*
X77516398Y-24837036D01*
X77574387Y-24887889D01*
X77599181Y-24960923D01*
X77599500Y-24970672D01*
X77599500Y-31629327D01*
X77579538Y-31703827D01*
X77525000Y-31758365D01*
X77450500Y-31778327D01*
X77376000Y-31758365D01*
X77367719Y-31753216D01*
X77338677Y-31733810D01*
X77156688Y-31658429D01*
X77156686Y-31658428D01*
X76963491Y-31620000D01*
X76715000Y-31620000D01*
X76715000Y-32320000D01*
X76215000Y-32320000D01*
X76215000Y-31620000D01*
X75966509Y-31620000D01*
X75773313Y-31658428D01*
X75773311Y-31658429D01*
X75591322Y-31733810D01*
X75427533Y-31843252D01*
X75288252Y-31982533D01*
X75178810Y-32146322D01*
X75103429Y-32328311D01*
X75103428Y-32328315D01*
X75095136Y-32369999D01*
X75095137Y-32370000D01*
X75898013Y-32370000D01*
X75880796Y-32379940D01*
X75824941Y-32435795D01*
X75785445Y-32504204D01*
X75765001Y-32580504D01*
X75765001Y-32659496D01*
X75785445Y-32735796D01*
X75824941Y-32804205D01*
X75880796Y-32860060D01*
X75898013Y-32870000D01*
X75095137Y-32870000D01*
X75103428Y-32911684D01*
X75103429Y-32911688D01*
X75178810Y-33093677D01*
X75288252Y-33257466D01*
X75427533Y-33396747D01*
X75591322Y-33506189D01*
X75773311Y-33581570D01*
X75773313Y-33581571D01*
X75966509Y-33620000D01*
X76215000Y-33620000D01*
X76215000Y-32920000D01*
X76715000Y-32920000D01*
X76715000Y-33620000D01*
X76963491Y-33620000D01*
X77156686Y-33581571D01*
X77156688Y-33581570D01*
X77338679Y-33506188D01*
X77367717Y-33486785D01*
X77440751Y-33461991D01*
X77516398Y-33477036D01*
X77574387Y-33527889D01*
X77599181Y-33600923D01*
X77599500Y-33610672D01*
X77599500Y-47450500D01*
X77579538Y-47525000D01*
X77525000Y-47579538D01*
X77450500Y-47599500D01*
X67826733Y-47599500D01*
X67752233Y-47579538D01*
X67697695Y-47525000D01*
X67678113Y-47461130D01*
X67669570Y-47341693D01*
X67669570Y-47341690D01*
X67619288Y-47206881D01*
X67585803Y-47145558D01*
X67539739Y-47084024D01*
X67511073Y-47012420D01*
X67522049Y-46936077D01*
X67569726Y-46875451D01*
X67641330Y-46846785D01*
X67716037Y-46857072D01*
X67737334Y-46865894D01*
X67911309Y-46900500D01*
X68088691Y-46900500D01*
X68262666Y-46865894D01*
X68426547Y-46798013D01*
X68574035Y-46699464D01*
X68699464Y-46574035D01*
X68798013Y-46426547D01*
X68865894Y-46262666D01*
X68900500Y-46088691D01*
X68900500Y-46000000D01*
X68900500Y-45999998D01*
X70194435Y-45999998D01*
X70194435Y-46000001D01*
X70214631Y-46179252D01*
X70214631Y-46179254D01*
X70214632Y-46179255D01*
X70274211Y-46349522D01*
X70370184Y-46502262D01*
X70497738Y-46629816D01*
X70650478Y-46725789D01*
X70820745Y-46785368D01*
X70910372Y-46795466D01*
X70999999Y-46805565D01*
X71000000Y-46805565D01*
X71000001Y-46805565D01*
X71044813Y-46800515D01*
X71179255Y-46785368D01*
X71349522Y-46725789D01*
X71502262Y-46629816D01*
X71629816Y-46502262D01*
X71725789Y-46349522D01*
X71785368Y-46179255D01*
X71805565Y-46000000D01*
X71785368Y-45820745D01*
X71725789Y-45650478D01*
X71629816Y-45497738D01*
X71502262Y-45370184D01*
X71349522Y-45274211D01*
X71179255Y-45214632D01*
X71179254Y-45214631D01*
X71179253Y-45214631D01*
X71000001Y-45194435D01*
X70999999Y-45194435D01*
X70820747Y-45214631D01*
X70650477Y-45274211D01*
X70497738Y-45370184D01*
X70370184Y-45497738D01*
X70274211Y-45650477D01*
X70214631Y-45820747D01*
X70194435Y-45999998D01*
X68900500Y-45999998D01*
X68900500Y-45942417D01*
X68900500Y-33947273D01*
X68900500Y-33911309D01*
X68865894Y-33737334D01*
X68798013Y-33573453D01*
X68753068Y-33506189D01*
X68699466Y-33425968D01*
X68699462Y-33425963D01*
X68574036Y-33300537D01*
X68574031Y-33300533D01*
X68426548Y-33201987D01*
X68426546Y-33201986D01*
X68262667Y-33134106D01*
X68262663Y-33134105D01*
X68088691Y-33099500D01*
X68052727Y-33099500D01*
X53544446Y-33099500D01*
X53505530Y-33089072D01*
X53455554Y-33099500D01*
X51609452Y-33099500D01*
X51534952Y-33079538D01*
X51480414Y-33025000D01*
X51460452Y-32950500D01*
X51480414Y-32876000D01*
X51504093Y-32845141D01*
X51969294Y-32379940D01*
X52440700Y-31908533D01*
X52507493Y-31869971D01*
X52584621Y-31869971D01*
X52651416Y-31908535D01*
X52689980Y-31975330D01*
X52694120Y-31997211D01*
X52714631Y-32179252D01*
X52714631Y-32179254D01*
X52714632Y-32179255D01*
X52774211Y-32349522D01*
X52870184Y-32502262D01*
X52997738Y-32629816D01*
X53150478Y-32725789D01*
X53320745Y-32785368D01*
X53397490Y-32794015D01*
X53472237Y-32802437D01*
X53497559Y-32812375D01*
X53527763Y-32802437D01*
X53564890Y-32798253D01*
X53679255Y-32785368D01*
X53849522Y-32725789D01*
X54002262Y-32629816D01*
X54002262Y-32629815D01*
X54009347Y-32625364D01*
X54010729Y-32627564D01*
X54068967Y-32602162D01*
X54091161Y-32600500D01*
X64795682Y-32600500D01*
X64795698Y-32600501D01*
X64804827Y-32600501D01*
X64962936Y-32600501D01*
X64962941Y-32600501D01*
X65115669Y-32559577D01*
X65134697Y-32548590D01*
X65165784Y-32530642D01*
X65165788Y-32530639D01*
X65197470Y-32512348D01*
X65252600Y-32480520D01*
X65363121Y-32369999D01*
X70795136Y-32369999D01*
X70795137Y-32370000D01*
X71598001Y-32370000D01*
X71580784Y-32379940D01*
X71524929Y-32435795D01*
X71485433Y-32504204D01*
X71464989Y-32580504D01*
X71464989Y-32659496D01*
X71485433Y-32735796D01*
X71524929Y-32804205D01*
X71580784Y-32860060D01*
X71598001Y-32870000D01*
X70795137Y-32870000D01*
X70803428Y-32911684D01*
X70803429Y-32911688D01*
X70878810Y-33093677D01*
X70988252Y-33257466D01*
X71127533Y-33396747D01*
X71291322Y-33506189D01*
X71473311Y-33581570D01*
X71473313Y-33581571D01*
X71666509Y-33620000D01*
X72065000Y-33620000D01*
X72065000Y-32920000D01*
X72565000Y-32920000D01*
X72565000Y-33620000D01*
X72963491Y-33620000D01*
X73156686Y-33581571D01*
X73156688Y-33581570D01*
X73338677Y-33506189D01*
X73502466Y-33396747D01*
X73641747Y-33257466D01*
X73751189Y-33093677D01*
X73826570Y-32911688D01*
X73826571Y-32911684D01*
X73834863Y-32870000D01*
X73031999Y-32870000D01*
X73049216Y-32860060D01*
X73105071Y-32804205D01*
X73144567Y-32735796D01*
X73165011Y-32659496D01*
X73165011Y-32580504D01*
X73144567Y-32504204D01*
X73105071Y-32435795D01*
X73049216Y-32379940D01*
X73031999Y-32370000D01*
X73834863Y-32370000D01*
X73834863Y-32369999D01*
X73826571Y-32328315D01*
X73826570Y-32328311D01*
X73751189Y-32146322D01*
X73641747Y-31982533D01*
X73502466Y-31843252D01*
X73332591Y-31729744D01*
X73333838Y-31727876D01*
X73285871Y-31682949D01*
X73263483Y-31609142D01*
X73280997Y-31534029D01*
X73283366Y-31529767D01*
X73326107Y-31455738D01*
X73351281Y-31412135D01*
X73390500Y-31265766D01*
X73390500Y-31114234D01*
X73351281Y-30967865D01*
X73275515Y-30836635D01*
X73168365Y-30729485D01*
X73168362Y-30729483D01*
X73168361Y-30729482D01*
X73037137Y-30653720D01*
X73037136Y-30653719D01*
X73037135Y-30653719D01*
X72983561Y-30639364D01*
X72890769Y-30614500D01*
X72890766Y-30614500D01*
X72739234Y-30614500D01*
X72739230Y-30614500D01*
X72615506Y-30647652D01*
X72592865Y-30653719D01*
X72592864Y-30653719D01*
X72592862Y-30653720D01*
X72461638Y-30729482D01*
X72354482Y-30836638D01*
X72278720Y-30967862D01*
X72239500Y-31114230D01*
X72239500Y-31265769D01*
X72278720Y-31412137D01*
X72279486Y-31413987D01*
X72279746Y-31415969D01*
X72281247Y-31421568D01*
X72280509Y-31421765D01*
X72289549Y-31490456D01*
X72260030Y-31561712D01*
X72198838Y-31608661D01*
X72141825Y-31620000D01*
X71666509Y-31620000D01*
X71473313Y-31658428D01*
X71473311Y-31658429D01*
X71291322Y-31733810D01*
X71127533Y-31843252D01*
X70988252Y-31982533D01*
X70878810Y-32146322D01*
X70803429Y-32328311D01*
X70803428Y-32328315D01*
X70795136Y-32369999D01*
X65363121Y-32369999D01*
X65364404Y-32368716D01*
X65364404Y-32368714D01*
X65376666Y-32356453D01*
X65376669Y-32356448D01*
X68483002Y-29250115D01*
X68549796Y-29211553D01*
X68626924Y-29211553D01*
X68693719Y-29250117D01*
X68732283Y-29316912D01*
X68732283Y-29394040D01*
X68728999Y-29404686D01*
X68714632Y-29445743D01*
X68714631Y-29445746D01*
X68694435Y-29624998D01*
X68694435Y-29625001D01*
X68714631Y-29804252D01*
X68714631Y-29804254D01*
X68714632Y-29804255D01*
X68774211Y-29974522D01*
X68870184Y-30127262D01*
X68997738Y-30254816D01*
X69150478Y-30350789D01*
X69320745Y-30410368D01*
X69410372Y-30420466D01*
X69499999Y-30430565D01*
X69500000Y-30430565D01*
X69500001Y-30430565D01*
X69544813Y-30425515D01*
X69679255Y-30410368D01*
X69849522Y-30350789D01*
X70002262Y-30254816D01*
X70129816Y-30127262D01*
X70225789Y-29974522D01*
X70285368Y-29804255D01*
X70294181Y-29726023D01*
X70322358Y-29654230D01*
X70336878Y-29637355D01*
X70481448Y-29492786D01*
X70481453Y-29492782D01*
X70493714Y-29480520D01*
X70493716Y-29480520D01*
X70605520Y-29368716D01*
X70684577Y-29231784D01*
X70714534Y-29119981D01*
X70725500Y-29079058D01*
X70725500Y-28920943D01*
X70725500Y-26162059D01*
X70708743Y-26099522D01*
X70684577Y-26009331D01*
X70638345Y-25929255D01*
X70605520Y-25872400D01*
X70605518Y-25872398D01*
X70605517Y-25872396D01*
X70488513Y-25755393D01*
X70488512Y-25755393D01*
X68463118Y-23729999D01*
X70795136Y-23729999D01*
X70795137Y-23730000D01*
X71598001Y-23730000D01*
X71580784Y-23739940D01*
X71524929Y-23795795D01*
X71485433Y-23864204D01*
X71464989Y-23940504D01*
X71464989Y-24019496D01*
X71485433Y-24095796D01*
X71524929Y-24164205D01*
X71580784Y-24220060D01*
X71598001Y-24230000D01*
X70795137Y-24230000D01*
X70803428Y-24271684D01*
X70803429Y-24271688D01*
X70878810Y-24453677D01*
X70988252Y-24617466D01*
X71127533Y-24756747D01*
X71291322Y-24866189D01*
X71473311Y-24941570D01*
X71473313Y-24941571D01*
X71666509Y-24980000D01*
X72141825Y-24980000D01*
X72216325Y-24999962D01*
X72270863Y-25054500D01*
X72290825Y-25129000D01*
X72281006Y-25178367D01*
X72281247Y-25178432D01*
X72280264Y-25182098D01*
X72279486Y-25186013D01*
X72278720Y-25187862D01*
X72278719Y-25187864D01*
X72278719Y-25187865D01*
X72274753Y-25202665D01*
X72239500Y-25334230D01*
X72239500Y-25485769D01*
X72278720Y-25632137D01*
X72354482Y-25763361D01*
X72354483Y-25763362D01*
X72354485Y-25763365D01*
X72461635Y-25870515D01*
X72461637Y-25870516D01*
X72461638Y-25870517D01*
X72518834Y-25903539D01*
X72592865Y-25946281D01*
X72739234Y-25985500D01*
X72890766Y-25985500D01*
X73037135Y-25946281D01*
X73168365Y-25870515D01*
X73275515Y-25763365D01*
X73351281Y-25632135D01*
X73390500Y-25485766D01*
X73390500Y-25334234D01*
X73351281Y-25187865D01*
X73283365Y-25070231D01*
X73263403Y-24995731D01*
X73283365Y-24921231D01*
X73333291Y-24871304D01*
X73332591Y-24870256D01*
X73337862Y-24866733D01*
X73337903Y-24866693D01*
X73338023Y-24866625D01*
X73502466Y-24756747D01*
X73641747Y-24617466D01*
X73751189Y-24453677D01*
X73826570Y-24271688D01*
X73826571Y-24271684D01*
X73834863Y-24230000D01*
X73031999Y-24230000D01*
X73049216Y-24220060D01*
X73105071Y-24164205D01*
X73144567Y-24095796D01*
X73165011Y-24019496D01*
X73165011Y-23940504D01*
X73144567Y-23864204D01*
X73105071Y-23795795D01*
X73049216Y-23739940D01*
X73031999Y-23730000D01*
X73834863Y-23730000D01*
X73834863Y-23729999D01*
X73826571Y-23688315D01*
X73826570Y-23688311D01*
X73751189Y-23506322D01*
X73641747Y-23342533D01*
X73502466Y-23203252D01*
X73338677Y-23093810D01*
X73156688Y-23018429D01*
X73156686Y-23018428D01*
X72963491Y-22980000D01*
X72565000Y-22980000D01*
X72565000Y-23680000D01*
X72065000Y-23680000D01*
X72065000Y-22980000D01*
X71666509Y-22980000D01*
X71473313Y-23018428D01*
X71473311Y-23018429D01*
X71291322Y-23093810D01*
X71127533Y-23203252D01*
X70988252Y-23342533D01*
X70878810Y-23506322D01*
X70803429Y-23688311D01*
X70803428Y-23688315D01*
X70795136Y-23729999D01*
X68463118Y-23729999D01*
X66233117Y-21499998D01*
X71694435Y-21499998D01*
X71694435Y-21500001D01*
X71714631Y-21679252D01*
X71714631Y-21679254D01*
X71714632Y-21679255D01*
X71774211Y-21849522D01*
X71870184Y-22002262D01*
X71997738Y-22129816D01*
X72150478Y-22225789D01*
X72320745Y-22285368D01*
X72398422Y-22294120D01*
X72499999Y-22305565D01*
X72500000Y-22305565D01*
X72500001Y-22305565D01*
X72549054Y-22300038D01*
X72679255Y-22285368D01*
X72849522Y-22225789D01*
X73002262Y-22129816D01*
X73129816Y-22002262D01*
X73225789Y-21849522D01*
X73285368Y-21679255D01*
X73305565Y-21500000D01*
X73285368Y-21320745D01*
X73225789Y-21150478D01*
X73129816Y-20997738D01*
X73002262Y-20870184D01*
X72849522Y-20774211D01*
X72679255Y-20714632D01*
X72679254Y-20714631D01*
X72679253Y-20714631D01*
X72500001Y-20694435D01*
X72499999Y-20694435D01*
X72320747Y-20714631D01*
X72150477Y-20774211D01*
X71997738Y-20870184D01*
X71870184Y-20997738D01*
X71774211Y-21150477D01*
X71714631Y-21320747D01*
X71694435Y-21499998D01*
X66233117Y-21499998D01*
X66122899Y-21389780D01*
X66122897Y-21389777D01*
X66002599Y-21269479D01*
X65914992Y-21218900D01*
X65873574Y-21194987D01*
X65819038Y-21140451D01*
X65799076Y-21065951D01*
X65800012Y-21049280D01*
X65805565Y-21000000D01*
X65785368Y-20820745D01*
X65725789Y-20650478D01*
X65629816Y-20497738D01*
X65502262Y-20370184D01*
X65349522Y-20274211D01*
X65249315Y-20239147D01*
X65179253Y-20214631D01*
X65101023Y-20205817D01*
X65029227Y-20177638D01*
X65012348Y-20163113D01*
X64839015Y-19989780D01*
X64839013Y-19989777D01*
X64718716Y-19869480D01*
X64608252Y-19805704D01*
X64581785Y-19790423D01*
X64581782Y-19790422D01*
X64429057Y-19749499D01*
X64270943Y-19749499D01*
X64261814Y-19749499D01*
X64261798Y-19749500D01*
X60741214Y-19749500D01*
X60666714Y-19729538D01*
X60635855Y-19705859D01*
X54884855Y-13954859D01*
X54846291Y-13888064D01*
X54846291Y-13810936D01*
X54884855Y-13744141D01*
X54951650Y-13705577D01*
X54990214Y-13700500D01*
X66511798Y-13700500D01*
X66511814Y-13700501D01*
X66520943Y-13700501D01*
X66679052Y-13700501D01*
X66679057Y-13700501D01*
X66831785Y-13659577D01*
X66850813Y-13648590D01*
X66881900Y-13630642D01*
X66881904Y-13630639D01*
X66968716Y-13580520D01*
X67080520Y-13468716D01*
X67080520Y-13468714D01*
X67092782Y-13456453D01*
X67092785Y-13456448D01*
X77212351Y-3336883D01*
X77279144Y-3298321D01*
X77301018Y-3294182D01*
X77379255Y-3285368D01*
X77401289Y-3277657D01*
X77478199Y-3271893D01*
X77547690Y-3305357D01*
G37*
G04 #@! TD.AperFunction*
G04 #@! TA.AperFunction,Conductor*
G36*
X50555859Y-34004093D02*
G01*
X50594423Y-34070888D01*
X50599500Y-34109452D01*
X50599500Y-45890547D01*
X50579538Y-45965047D01*
X50525000Y-46019585D01*
X50450500Y-46039547D01*
X50376000Y-46019585D01*
X50345141Y-45995906D01*
X45644141Y-41294906D01*
X45605577Y-41228111D01*
X45600500Y-41189547D01*
X45600500Y-41091074D01*
X45600501Y-41091061D01*
X45600501Y-40911814D01*
X45600500Y-40911796D01*
X45600500Y-36110453D01*
X45620462Y-36035953D01*
X45644141Y-36005094D01*
X46755094Y-34894141D01*
X46821889Y-34855577D01*
X46860453Y-34850500D01*
X49161798Y-34850500D01*
X49161814Y-34850501D01*
X49170943Y-34850501D01*
X49329052Y-34850501D01*
X49329057Y-34850501D01*
X49481785Y-34809577D01*
X49507198Y-34794905D01*
X49562460Y-34762999D01*
X49562460Y-34762998D01*
X49562465Y-34762996D01*
X49618716Y-34730520D01*
X49730520Y-34618716D01*
X49730520Y-34618714D01*
X49742782Y-34606453D01*
X49742786Y-34606448D01*
X50345141Y-34004093D01*
X50411936Y-33965529D01*
X50489064Y-33965529D01*
X50555859Y-34004093D01*
G37*
G04 #@! TD.AperFunction*
G04 #@! TA.AperFunction,Conductor*
G36*
X17525000Y-43920462D02*
G01*
X17579538Y-43975000D01*
X17599500Y-44049500D01*
X17599500Y-44434642D01*
X17579538Y-44509142D01*
X17525000Y-44563680D01*
X17450500Y-44583642D01*
X17376000Y-44563680D01*
X17321462Y-44509142D01*
X17310356Y-44483208D01*
X17309914Y-44483374D01*
X17308055Y-44478389D01*
X17279033Y-44414842D01*
X17279027Y-44414832D01*
X17246462Y-44364159D01*
X17222978Y-44290696D01*
X17232205Y-44231530D01*
X17237090Y-44218435D01*
X17247034Y-44184571D01*
X17262368Y-44114083D01*
X17262368Y-44049500D01*
X17282330Y-43975000D01*
X17336868Y-43920462D01*
X17411368Y-43900500D01*
X17442417Y-43900500D01*
X17450500Y-43900500D01*
X17525000Y-43920462D01*
G37*
G04 #@! TD.AperFunction*
G04 #@! TA.AperFunction,Conductor*
G36*
X58767604Y-22370462D02*
G01*
X58822142Y-22425000D01*
X58842104Y-22499500D01*
X58822142Y-22574000D01*
X58819266Y-22578773D01*
X58774211Y-22650477D01*
X58714632Y-22820745D01*
X58705817Y-22898975D01*
X58677638Y-22970771D01*
X58663113Y-22987650D01*
X49614668Y-32036097D01*
X49547873Y-32074661D01*
X49509309Y-32079738D01*
X47513099Y-32079738D01*
X47438599Y-32059776D01*
X47384061Y-32005238D01*
X47364099Y-31930738D01*
X47384061Y-31856238D01*
X47407740Y-31825379D01*
X56838978Y-22394141D01*
X56905773Y-22355577D01*
X56944337Y-22350500D01*
X58693104Y-22350500D01*
X58767604Y-22370462D01*
G37*
G04 #@! TD.AperFunction*
G04 #@! TA.AperFunction,Conductor*
G36*
X54718814Y-22249701D02*
G01*
X54820745Y-22285368D01*
X54898429Y-22294120D01*
X54970224Y-22322297D01*
X55018313Y-22382598D01*
X55029809Y-22458864D01*
X55001632Y-22530661D01*
X54987105Y-22547542D01*
X45973552Y-31561097D01*
X45906757Y-31599661D01*
X45868193Y-31604738D01*
X43500532Y-31604738D01*
X43426032Y-31584776D01*
X43371494Y-31530238D01*
X43351532Y-31455738D01*
X43371494Y-31381238D01*
X43395173Y-31350379D01*
X43579610Y-31165942D01*
X44136512Y-30609038D01*
X44136517Y-30609035D01*
X44148778Y-30596773D01*
X44148780Y-30596773D01*
X44237899Y-30507654D01*
X44305894Y-30405891D01*
X44363878Y-30355041D01*
X44439524Y-30339993D01*
X44509054Y-30362513D01*
X44584790Y-30410102D01*
X44584792Y-30410103D01*
X44657383Y-30435504D01*
X44721109Y-30478952D01*
X44748809Y-30526930D01*
X44774209Y-30599520D01*
X44786271Y-30618716D01*
X44870184Y-30752262D01*
X44997738Y-30879816D01*
X45150478Y-30975789D01*
X45320745Y-31035368D01*
X45410372Y-31045466D01*
X45499999Y-31055565D01*
X45500000Y-31055565D01*
X45500001Y-31055565D01*
X45544813Y-31050515D01*
X45679255Y-31035368D01*
X45849522Y-30975789D01*
X46002262Y-30879816D01*
X46129816Y-30752262D01*
X46176407Y-30678110D01*
X46197211Y-30652024D01*
X46242780Y-30606456D01*
X46242787Y-30606446D01*
X54564253Y-22284981D01*
X54631046Y-22246419D01*
X54708174Y-22246419D01*
X54718814Y-22249701D01*
G37*
G04 #@! TD.AperFunction*
G04 #@! TA.AperFunction,Conductor*
G36*
X63633020Y-22370462D02*
G01*
X63687558Y-22425000D01*
X63706583Y-22482817D01*
X63714631Y-22554252D01*
X63714631Y-22554254D01*
X63714632Y-22554255D01*
X63774211Y-22724522D01*
X63870184Y-22877262D01*
X63997738Y-23004816D01*
X64150478Y-23100789D01*
X64273858Y-23143961D01*
X64330005Y-23179241D01*
X64675127Y-23524363D01*
X65003686Y-23852921D01*
X65042250Y-23919716D01*
X65047327Y-23958280D01*
X65047327Y-27761012D01*
X65027365Y-27835512D01*
X65022403Y-27842788D01*
X65022463Y-27842826D01*
X64922038Y-28002650D01*
X64862458Y-28172920D01*
X64842262Y-28352171D01*
X64842262Y-28352174D01*
X64862458Y-28531425D01*
X64862458Y-28531427D01*
X64862459Y-28531428D01*
X64922038Y-28701695D01*
X65018011Y-28854435D01*
X65145565Y-28981989D01*
X65298305Y-29077962D01*
X65468572Y-29137541D01*
X65558199Y-29147639D01*
X65647826Y-29157738D01*
X65647827Y-29157738D01*
X65647828Y-29157738D01*
X65692640Y-29152688D01*
X65827082Y-29137541D01*
X65997349Y-29077962D01*
X66150089Y-28981989D01*
X66277643Y-28854435D01*
X66373616Y-28701695D01*
X66417873Y-28575213D01*
X66461319Y-28511489D01*
X66530809Y-28478024D01*
X66607721Y-28483787D01*
X66671448Y-28527234D01*
X66704913Y-28596724D01*
X66706574Y-28607742D01*
X66714631Y-28679253D01*
X66774211Y-28849522D01*
X66869556Y-29001262D01*
X66892290Y-29074963D01*
X66875127Y-29150158D01*
X66848753Y-29185894D01*
X64678790Y-31355859D01*
X64611995Y-31394423D01*
X64573431Y-31399500D01*
X54091161Y-31399500D01*
X54016661Y-31379538D01*
X54009384Y-31374576D01*
X54009347Y-31374636D01*
X53972152Y-31351265D01*
X53849522Y-31274211D01*
X53679255Y-31214632D01*
X53679254Y-31214631D01*
X53679252Y-31214631D01*
X53497211Y-31194120D01*
X53425414Y-31165942D01*
X53377326Y-31105640D01*
X53365831Y-31029374D01*
X53394009Y-30957577D01*
X53408528Y-30940705D01*
X61012350Y-23336883D01*
X61079143Y-23298321D01*
X61101016Y-23294182D01*
X61179255Y-23285368D01*
X61349522Y-23225789D01*
X61502262Y-23129816D01*
X61502264Y-23129813D01*
X61503970Y-23128742D01*
X61577672Y-23106007D01*
X61652866Y-23123169D01*
X61709405Y-23175629D01*
X61723881Y-23205689D01*
X61774211Y-23349522D01*
X61870184Y-23502262D01*
X61997738Y-23629816D01*
X62150478Y-23725789D01*
X62320745Y-23785368D01*
X62410372Y-23795466D01*
X62499999Y-23805565D01*
X62500000Y-23805565D01*
X62500001Y-23805565D01*
X62544813Y-23800515D01*
X62679255Y-23785368D01*
X62849522Y-23725789D01*
X63002262Y-23629816D01*
X63129816Y-23502262D01*
X63225789Y-23349522D01*
X63285368Y-23179255D01*
X63305022Y-23004816D01*
X63305565Y-23000001D01*
X63305565Y-22999998D01*
X63285368Y-22820747D01*
X63285368Y-22820745D01*
X63225789Y-22650478D01*
X63180734Y-22578773D01*
X63158000Y-22505071D01*
X63175163Y-22429877D01*
X63227623Y-22373338D01*
X63301325Y-22350604D01*
X63306896Y-22350500D01*
X63558520Y-22350500D01*
X63633020Y-22370462D01*
G37*
G04 #@! TD.AperFunction*
G04 #@! TA.AperFunction,Conductor*
G36*
X28355516Y-14620462D02*
G01*
X28410054Y-14675000D01*
X28430016Y-14749500D01*
X28410054Y-14824000D01*
X28407177Y-14828774D01*
X28374211Y-14881237D01*
X28314631Y-15051508D01*
X28294435Y-15230759D01*
X28294435Y-15230762D01*
X28314631Y-15410013D01*
X28314631Y-15410015D01*
X28314632Y-15410016D01*
X28374211Y-15580283D01*
X28470184Y-15733023D01*
X28597738Y-15860577D01*
X28750478Y-15956550D01*
X28920745Y-16016129D01*
X28998973Y-16024942D01*
X29070769Y-16053119D01*
X29087650Y-16067646D01*
X29255859Y-16235855D01*
X29294423Y-16302650D01*
X29299500Y-16341214D01*
X29299500Y-20961548D01*
X29279538Y-21036048D01*
X29225000Y-21090586D01*
X29167183Y-21109611D01*
X28986127Y-21130011D01*
X28815857Y-21189591D01*
X28656033Y-21290016D01*
X28654650Y-21287815D01*
X28596413Y-21313218D01*
X28574219Y-21314880D01*
X26439874Y-21314880D01*
X26287146Y-21355804D01*
X26252001Y-21376096D01*
X26252000Y-21376097D01*
X26150218Y-21434860D01*
X23369480Y-24215598D01*
X23324302Y-24293850D01*
X23324301Y-24293851D01*
X23290423Y-24352527D01*
X23249499Y-24505257D01*
X23249499Y-24675376D01*
X23249500Y-24675389D01*
X23249500Y-30750500D01*
X23229538Y-30825000D01*
X23175000Y-30879538D01*
X23100500Y-30899500D01*
X17060454Y-30899500D01*
X16985954Y-30879538D01*
X16955095Y-30855859D01*
X13744138Y-27644902D01*
X13705574Y-27578107D01*
X13700497Y-27539543D01*
X13700497Y-18749998D01*
X15694435Y-18749998D01*
X15694435Y-18750001D01*
X15714631Y-18929252D01*
X15714631Y-18929254D01*
X15714632Y-18929255D01*
X15774211Y-19099522D01*
X15870184Y-19252262D01*
X15997738Y-19379816D01*
X16150478Y-19475789D01*
X16320745Y-19535368D01*
X16410372Y-19545466D01*
X16499999Y-19555565D01*
X16500000Y-19555565D01*
X16500001Y-19555565D01*
X16544813Y-19550515D01*
X16679255Y-19535368D01*
X16849522Y-19475789D01*
X17002262Y-19379816D01*
X17129816Y-19252262D01*
X17156611Y-19209618D01*
X23404055Y-19209618D01*
X23404055Y-19209621D01*
X23424251Y-19388872D01*
X23424251Y-19388874D01*
X23424252Y-19388875D01*
X23483831Y-19559142D01*
X23579804Y-19711882D01*
X23707358Y-19839436D01*
X23860098Y-19935409D01*
X24030365Y-19994988D01*
X24094924Y-20002262D01*
X24209619Y-20015185D01*
X24209620Y-20015185D01*
X24209621Y-20015185D01*
X24254433Y-20010135D01*
X24344407Y-19999998D01*
X25194435Y-19999998D01*
X25194435Y-20000001D01*
X25214631Y-20179252D01*
X25214631Y-20179254D01*
X25214632Y-20179255D01*
X25274211Y-20349522D01*
X25370184Y-20502262D01*
X25497738Y-20629816D01*
X25650478Y-20725789D01*
X25820745Y-20785368D01*
X25910372Y-20795466D01*
X25999999Y-20805565D01*
X26000000Y-20805565D01*
X26000001Y-20805565D01*
X26044813Y-20800515D01*
X26179255Y-20785368D01*
X26349522Y-20725789D01*
X26502262Y-20629816D01*
X26629816Y-20502262D01*
X26725789Y-20349522D01*
X26785368Y-20179255D01*
X26805565Y-20000000D01*
X26805000Y-19994988D01*
X26787474Y-19839435D01*
X26785368Y-19820745D01*
X26725789Y-19650478D01*
X26629816Y-19497738D01*
X26502262Y-19370184D01*
X26349522Y-19274211D01*
X26179255Y-19214632D01*
X26179254Y-19214631D01*
X26179253Y-19214631D01*
X26000001Y-19194435D01*
X25999999Y-19194435D01*
X25820747Y-19214631D01*
X25650477Y-19274211D01*
X25497738Y-19370184D01*
X25370184Y-19497738D01*
X25274211Y-19650477D01*
X25214631Y-19820747D01*
X25194435Y-19999998D01*
X24344407Y-19999998D01*
X24388875Y-19994988D01*
X24559142Y-19935409D01*
X24711882Y-19839436D01*
X24839436Y-19711882D01*
X24935409Y-19559142D01*
X24994988Y-19388875D01*
X25014620Y-19214632D01*
X25015185Y-19209621D01*
X25015185Y-19209618D01*
X24994988Y-19030367D01*
X24994988Y-19030365D01*
X24935409Y-18860098D01*
X24839436Y-18707358D01*
X24711882Y-18579804D01*
X24559142Y-18483831D01*
X24388875Y-18424252D01*
X24388874Y-18424251D01*
X24388873Y-18424251D01*
X24209621Y-18404055D01*
X24209619Y-18404055D01*
X24030367Y-18424251D01*
X23860097Y-18483831D01*
X23707358Y-18579804D01*
X23579804Y-18707358D01*
X23483831Y-18860097D01*
X23424251Y-19030367D01*
X23404055Y-19209618D01*
X17156611Y-19209618D01*
X17225789Y-19099522D01*
X17285368Y-18929255D01*
X17305565Y-18750000D01*
X17300760Y-18707358D01*
X17288382Y-18597495D01*
X17285368Y-18570745D01*
X17225789Y-18400478D01*
X17129816Y-18247738D01*
X17002262Y-18120184D01*
X16849522Y-18024211D01*
X16679255Y-17964632D01*
X16679254Y-17964631D01*
X16679253Y-17964631D01*
X16500001Y-17944435D01*
X16499999Y-17944435D01*
X16320747Y-17964631D01*
X16150477Y-18024211D01*
X15997738Y-18120184D01*
X15870184Y-18247738D01*
X15774211Y-18400477D01*
X15714631Y-18570747D01*
X15694435Y-18749998D01*
X13700497Y-18749998D01*
X13700497Y-17573100D01*
X13720459Y-17498600D01*
X13744138Y-17467741D01*
X13913684Y-17298195D01*
X14138313Y-17073567D01*
X14217370Y-16936635D01*
X14258294Y-16783908D01*
X14258294Y-16625793D01*
X14258294Y-16616665D01*
X14258293Y-16616647D01*
X14258293Y-16248868D01*
X14258294Y-16248855D01*
X14258294Y-16078740D01*
X14258294Y-16078736D01*
X14217370Y-15926009D01*
X14138313Y-15789077D01*
X13836884Y-15487649D01*
X13798321Y-15420855D01*
X13794182Y-15398979D01*
X13785368Y-15320745D01*
X13725789Y-15150478D01*
X13629816Y-14997738D01*
X13596015Y-14963937D01*
X13557451Y-14897142D01*
X13557451Y-14820014D01*
X13596015Y-14753219D01*
X13596016Y-14753219D01*
X13705095Y-14644141D01*
X13771890Y-14605577D01*
X13810453Y-14600500D01*
X28281016Y-14600500D01*
X28355516Y-14620462D01*
G37*
G04 #@! TD.AperFunction*
G04 #@! TA.AperFunction,Conductor*
G36*
X38048934Y-26776731D02*
G01*
X38101662Y-26833020D01*
X38119262Y-26903269D01*
X38119262Y-29410309D01*
X38099300Y-29484809D01*
X38044762Y-29539347D01*
X37970262Y-29559309D01*
X37895762Y-29539347D01*
X37864903Y-29515668D01*
X37644141Y-29294906D01*
X37605577Y-29228111D01*
X37600500Y-29189547D01*
X37600500Y-28091160D01*
X37620462Y-28016660D01*
X37625423Y-28009384D01*
X37625364Y-28009347D01*
X37629816Y-28002262D01*
X37725789Y-27849522D01*
X37785368Y-27679255D01*
X37805565Y-27500000D01*
X37785368Y-27320745D01*
X37725789Y-27150478D01*
X37666882Y-27056728D01*
X37644148Y-26983026D01*
X37661311Y-26907832D01*
X37713771Y-26851293D01*
X37736025Y-26839797D01*
X37899989Y-26771881D01*
X37900013Y-26771869D01*
X37900028Y-26771865D01*
X37906758Y-26769078D01*
X37907217Y-26770188D01*
X37975125Y-26754348D01*
X38048934Y-26776731D01*
G37*
G04 #@! TD.AperFunction*
G04 #@! TA.AperFunction,Conductor*
G36*
X66471828Y-23444359D02*
G01*
X66502687Y-23468038D01*
X67785324Y-24750675D01*
X67823888Y-24817470D01*
X67823888Y-24894598D01*
X67785324Y-24961393D01*
X67729177Y-24996672D01*
X67650479Y-25024209D01*
X67497738Y-25120184D01*
X67370184Y-25247738D01*
X67274211Y-25400477D01*
X67214631Y-25570747D01*
X67198035Y-25718050D01*
X67194435Y-25750000D01*
X67195941Y-25763365D01*
X67214631Y-25929252D01*
X67274210Y-26099520D01*
X67274210Y-26099522D01*
X67326661Y-26182995D01*
X67349396Y-26256697D01*
X67349500Y-26262269D01*
X67349500Y-27598849D01*
X67329538Y-27673349D01*
X67275000Y-27727887D01*
X67249711Y-27739488D01*
X67150477Y-27774211D01*
X66997738Y-27870184D01*
X66870184Y-27997738D01*
X66858295Y-28016660D01*
X66774211Y-28150478D01*
X66737481Y-28255447D01*
X66729954Y-28276958D01*
X66686506Y-28340684D01*
X66617016Y-28374148D01*
X66540103Y-28368385D01*
X66476377Y-28324937D01*
X66442913Y-28255447D01*
X66441252Y-28244428D01*
X66433195Y-28172920D01*
X66433195Y-28172918D01*
X66373616Y-28002651D01*
X66277643Y-27849911D01*
X66277642Y-27849910D01*
X66273191Y-27842826D01*
X66275391Y-27841443D01*
X66249989Y-27783206D01*
X66248327Y-27761012D01*
X66248327Y-23738902D01*
X66248328Y-23738889D01*
X66248328Y-23573397D01*
X66268290Y-23498897D01*
X66322828Y-23444359D01*
X66397328Y-23424397D01*
X66471828Y-23444359D01*
G37*
G04 #@! TD.AperFunction*
G04 #@! TA.AperFunction,Conductor*
G36*
X73483339Y-4620462D02*
G01*
X73490615Y-4625423D01*
X73490653Y-4625364D01*
X73497737Y-4629815D01*
X73497738Y-4629816D01*
X73650478Y-4725789D01*
X73778155Y-4770465D01*
X73841879Y-4813910D01*
X73875344Y-4883400D01*
X73869581Y-4960312D01*
X73834301Y-5016461D01*
X66394906Y-12455859D01*
X66328111Y-12494423D01*
X66289547Y-12499500D01*
X54785454Y-12499500D01*
X54710954Y-12479538D01*
X54680095Y-12455859D01*
X52221256Y-9997021D01*
X52182692Y-9930226D01*
X52182692Y-9853098D01*
X52221256Y-9786303D01*
X52277402Y-9751024D01*
X52349522Y-9725789D01*
X52502262Y-9629816D01*
X52502262Y-9629815D01*
X52509347Y-9625364D01*
X52510702Y-9627521D01*
X52569101Y-9602036D01*
X52645745Y-9610665D01*
X52665820Y-9620331D01*
X52726975Y-9655637D01*
X52726976Y-9655637D01*
X52726979Y-9655639D01*
X52777099Y-9684577D01*
X52929827Y-9725500D01*
X56124335Y-9725500D01*
X56173546Y-9733861D01*
X56320745Y-9785368D01*
X56360418Y-9789838D01*
X56499999Y-9805565D01*
X56500000Y-9805565D01*
X56500001Y-9805565D01*
X56544813Y-9800515D01*
X56679255Y-9785368D01*
X56849522Y-9725789D01*
X57002262Y-9629816D01*
X57129816Y-9502262D01*
X57225789Y-9349522D01*
X57285368Y-9179255D01*
X57305565Y-9000000D01*
X57285368Y-8820745D01*
X57225789Y-8650478D01*
X57129816Y-8497738D01*
X57002262Y-8370184D01*
X56849522Y-8274211D01*
X56810174Y-8260442D01*
X56746448Y-8216995D01*
X56712984Y-8147505D01*
X56718747Y-8070593D01*
X56754025Y-8014447D01*
X60124334Y-4644141D01*
X60191129Y-4605577D01*
X60229693Y-4600500D01*
X73408839Y-4600500D01*
X73483339Y-4620462D01*
G37*
G04 #@! TD.AperFunction*
G04 #@! TA.AperFunction,Conductor*
G36*
X58514047Y-2120462D02*
G01*
X58544906Y-2144141D01*
X59647610Y-3246846D01*
X59686174Y-3313641D01*
X59686174Y-3390769D01*
X59647610Y-3457564D01*
X59616752Y-3481242D01*
X59550523Y-3519479D01*
X57206324Y-5863677D01*
X57139529Y-5902241D01*
X57062401Y-5902241D01*
X57008070Y-5874815D01*
X57002265Y-5870186D01*
X56849522Y-5774211D01*
X56679252Y-5714631D01*
X56679253Y-5714631D01*
X56500001Y-5694435D01*
X56499999Y-5694435D01*
X56320747Y-5714631D01*
X56150477Y-5774211D01*
X55990653Y-5874636D01*
X55989270Y-5872435D01*
X55931033Y-5897838D01*
X55908839Y-5899500D01*
X54426569Y-5899500D01*
X54352069Y-5879538D01*
X54321210Y-5855859D01*
X54012893Y-5547542D01*
X53974329Y-5480747D01*
X53974329Y-5403619D01*
X54012893Y-5336824D01*
X54079688Y-5298260D01*
X54101560Y-5294121D01*
X54179255Y-5285368D01*
X54349522Y-5225789D01*
X54502262Y-5129816D01*
X54629816Y-5002262D01*
X54725789Y-4849522D01*
X54785368Y-4679255D01*
X54805565Y-4500000D01*
X54785368Y-4320745D01*
X54725789Y-4150478D01*
X54629816Y-3997738D01*
X54502262Y-3870184D01*
X54487514Y-3860917D01*
X54435055Y-3804379D01*
X54417892Y-3729184D01*
X54440626Y-3655483D01*
X54440627Y-3655482D01*
X54475788Y-3599523D01*
X54475789Y-3599522D01*
X54535368Y-3429255D01*
X54554628Y-3258315D01*
X54555565Y-3250001D01*
X54555565Y-3249998D01*
X54535368Y-3070747D01*
X54535368Y-3070745D01*
X54475789Y-2900478D01*
X54379816Y-2747738D01*
X54252262Y-2620184D01*
X54099522Y-2524211D01*
X53929255Y-2464632D01*
X53929254Y-2464631D01*
X53929253Y-2464631D01*
X53750001Y-2444435D01*
X53749999Y-2444435D01*
X53570747Y-2464631D01*
X53400477Y-2524211D01*
X53247738Y-2620184D01*
X53120184Y-2747738D01*
X53024211Y-2900477D01*
X52964631Y-3070747D01*
X52944435Y-3249998D01*
X52944435Y-3250001D01*
X52964631Y-3429253D01*
X52993535Y-3511855D01*
X52999298Y-3588768D01*
X52965833Y-3658258D01*
X52902107Y-3701705D01*
X52869581Y-3709129D01*
X52828981Y-3713704D01*
X52820745Y-3714632D01*
X52779158Y-3729184D01*
X52650477Y-3774211D01*
X52497738Y-3870184D01*
X52370184Y-3997738D01*
X52274211Y-4150477D01*
X52214631Y-4320747D01*
X52194435Y-4499998D01*
X52194435Y-4500001D01*
X52214631Y-4679252D01*
X52214631Y-4679254D01*
X52214632Y-4679255D01*
X52274211Y-4849522D01*
X52370183Y-5002261D01*
X52374636Y-5009347D01*
X52372432Y-5010731D01*
X52397834Y-5068938D01*
X52399500Y-5091160D01*
X52399500Y-5295681D01*
X52399499Y-5295699D01*
X52399499Y-5304827D01*
X52399499Y-5462941D01*
X52440423Y-5615669D01*
X52447312Y-5627600D01*
X52465086Y-5658385D01*
X52465086Y-5658386D01*
X52519479Y-5752599D01*
X52639774Y-5872894D01*
X52639780Y-5872899D01*
X53635594Y-6868713D01*
X53635594Y-6868714D01*
X53747396Y-6980517D01*
X53747398Y-6980518D01*
X53747400Y-6980520D01*
X53752631Y-6983540D01*
X53807168Y-7038076D01*
X53827132Y-7112575D01*
X53807171Y-7187076D01*
X53757406Y-7238739D01*
X53672291Y-7292220D01*
X53672288Y-7292224D01*
X53544735Y-7419777D01*
X53448760Y-7572518D01*
X53445132Y-7580054D01*
X53442620Y-7578844D01*
X53407219Y-7630742D01*
X53337721Y-7664189D01*
X53260810Y-7658407D01*
X53197094Y-7614943D01*
X53169417Y-7566991D01*
X53125789Y-7442308D01*
X53029816Y-7289568D01*
X52902262Y-7162014D01*
X52749522Y-7066041D01*
X52579255Y-7006462D01*
X52579254Y-7006461D01*
X52579253Y-7006461D01*
X52400001Y-6986265D01*
X52399999Y-6986265D01*
X52220747Y-7006461D01*
X52050477Y-7066041D01*
X51897738Y-7162014D01*
X51897733Y-7162017D01*
X51895721Y-7164030D01*
X51893871Y-7165097D01*
X51891195Y-7167232D01*
X51890873Y-7166828D01*
X51828924Y-7202589D01*
X51751796Y-7202585D01*
X51685010Y-7164023D01*
X50982412Y-6461425D01*
X50943848Y-6394630D01*
X50943848Y-6317502D01*
X50982412Y-6250707D01*
X51235382Y-5997737D01*
X51605520Y-5627600D01*
X51684577Y-5490668D01*
X51725501Y-5337941D01*
X51725501Y-5179826D01*
X51725501Y-5170698D01*
X51725500Y-5170680D01*
X51725500Y-2707190D01*
X51725501Y-2707177D01*
X51725501Y-2537063D01*
X51725501Y-2537059D01*
X51684577Y-2384331D01*
X51649745Y-2324000D01*
X51629783Y-2249500D01*
X51649745Y-2175000D01*
X51704283Y-2120462D01*
X51778783Y-2100500D01*
X58439547Y-2100500D01*
X58514047Y-2120462D01*
G37*
G04 #@! TD.AperFunction*
M02*
