M48
; DRILL file {KiCad 8.0.3} date 2024-07-02T16:51:37-0700
; FORMAT={-:-/ absolute / metric / decimal}
; #@! TF.CreationDate,2024-07-02T16:51:37-07:00
; #@! TF.GenerationSoftware,Kicad,Pcbnew,8.0.3
; #@! TF.FileFunction,Plated,1,4,PTH
FMAT,2
METRIC
; #@! TA.AperFunction,Plated,PTH,ViaDrill
T1C0.300
; #@! TA.AperFunction,Plated,PTH,ComponentDrill
T2C0.400
; #@! TA.AperFunction,Plated,PTH,ComponentDrill
T3C0.500
; #@! TA.AperFunction,Plated,PTH,ComponentDrill
T4C0.600
%
G90
G05
T1
X5.0Y-10.0
X5.0Y-15.0
X5.0Y-20.0
X5.0Y-25.0
X5.0Y-30.0
X9.0Y-39.0
X11.21Y-16.71
X12.25Y-11.25
X12.255Y-16.514
X12.5Y-31.5
X13.0Y-15.5
X13.058Y-16.456
X13.75Y-15.0
X13.75Y-20.25
X14.0Y-46.75
X15.0Y-7.5
X15.0Y-32.5
X15.0Y-36.5
X16.5Y-18.75
X17.0Y-7.0
X17.2Y-44.3
X18.25Y-10.5
X18.25Y-13.25
X18.25Y-17.5
X19.75Y-27.25
X20.25Y-45.25
X21.05Y-45.25
X22.0Y-9.5
X23.0Y-36.5
X23.85Y-31.5
X24.21Y-19.21
X24.25Y-18.25
X26.0Y-20.0
X26.0Y-24.5
X26.0Y-27.0
X26.566Y-20.566
X28.0Y-44.0
X28.5Y-12.5
X29.1Y-15.231
X29.165Y-21.915
X30.0Y-27.0
X30.0Y-32.5
X30.5Y-15.0
X30.55Y-21.0
X31.2Y-18.7
X32.5Y-17.25
X33.5Y-15.0
X33.5Y-19.5
X34.066Y-18.934
X34.5Y-15.5
X35.0Y-19.0
X35.0Y-32.5
X36.0Y-7.0
X37.0Y-27.5
X38.0Y-10.5
X38.0Y-17.0
X38.0Y-29.5
X38.25Y-40.25
X38.598Y-9.5
X38.598Y-20.418
X39.402Y-9.5
X39.402Y-20.418
X40.0Y-10.5
X40.0Y-17.0
X40.5Y-29.5
X41.25Y-43.25
X41.5Y-6.5
X42.0Y-38.0
X42.0Y-44.5
X42.0Y-45.5
X44.5Y-14.5
X44.934Y-29.684
X45.25Y-14.5
X45.5Y-9.0
X45.5Y-30.25
X45.784Y-26.314
X45.784Y-27.118
X47.0Y-9.0
X47.0Y-23.0
X47.548Y-27.568
X47.799Y-29.049
X48.0Y-10.0
X48.0Y-38.0
X48.5Y-1.975
X48.5Y-6.5
X48.5Y-19.0
X49.0Y-4.125
X49.996Y-2.125
X50.371Y-4.754
X50.5Y-2.875
X52.0Y-9.0
X52.4Y-7.792
X53.0Y-4.5
X53.0Y-19.5
X53.0Y-39.5
X53.0Y-44.0
X53.25Y-2.5
X53.5Y-32.0
X53.75Y-3.25
X54.0Y-4.5
X54.0Y-5.5
X54.175Y-7.922
X54.5Y-15.5
X55.0Y-12.5
X55.0Y-21.5
X55.5Y-7.125
X55.989Y-19.028
X56.0Y-29.5
X56.284Y-18.284
X56.5Y-6.5
X56.5Y-9.0
X58.0Y-23.0
X58.0Y-29.5
X59.5Y-23.0
X60.5Y-3.25
X61.0Y-22.5
X62.0Y-2.0
X62.0Y-5.0
X62.0Y-15.0
X62.5Y-23.0
X63.0Y-8.5
X63.0Y-9.9
X64.0Y-6.75
X64.0Y-11.5
X64.0Y-21.0
X64.5Y-22.375
X65.0Y-21.0
X65.5Y-6.75
X65.5Y-11.5
X65.5Y-41.5
X65.648Y-28.352
X66.5Y-29.5
X66.5Y-46.0
X67.0Y-6.75
X67.0Y-11.5
X67.0Y-24.0
X67.5Y-28.5
X68.0Y-8.5
X68.0Y-10.0
X68.0Y-25.75
X69.5Y-26.5
X69.5Y-29.625
X69.5Y-31.5
X69.616Y-24.884
X70.5Y-25.0
X70.5Y-31.5
X71.0Y-11.0
X71.0Y-15.0
X71.0Y-45.0
X71.0Y-46.0
X72.5Y-21.5
X73.0Y-2.0
X73.0Y-5.0
X74.0Y-4.0
X74.0Y-38.0
X74.0Y-43.0
X77.2Y-2.5
T2
X35.75Y-23.3
X35.75Y-24.7
X36.7Y-23.3
X36.7Y-24.7
X37.65Y-23.3
X37.65Y-24.7
X38.55Y-23.3
X38.55Y-24.7
X39.45Y-23.3
X39.45Y-24.7
X40.35Y-23.3
X40.35Y-24.7
X41.3Y-23.3
X41.3Y-24.7
X42.25Y-23.3
X42.25Y-24.7
T3
X36.525Y-22.07G85X37.475Y-22.07
G05
X36.525Y-25.93G85X37.475Y-25.93
G05
X40.525Y-22.07G85X41.475Y-22.07
G05
X40.525Y-25.93G85X41.475Y-25.93
G05
T4
X71.765Y-23.98G85X72.865Y-23.98
G05
X71.765Y-32.62G85X72.865Y-32.62
G05
X76.065Y-23.98G85X76.865Y-23.98
G05
X76.065Y-32.62G85X76.865Y-32.62
G05
M30
